<svg width="22" height="48" viewBox="0 0 22 48" fill="none" xmlns="http://www.w3.org/2000/svg">
<g filter="url(#filter0_d_1266_1074)">
<path d="M3.784 43.2C2.93067 43.2 2.54667 42.6667 2.632 41.6C2.632 41.472 2.696 41.1307 2.824 40.576C2.78133 40.576 2.696 40.576 2.568 40.576C2.48267 40.6187 2.39733 40.64 2.312 40.64H1.288C0.562667 40.64 0.2 40.32 0.2 39.68C0.2 39.1253 0.264 38.7627 0.392 38.592C0.562667 38.4213 0.882667 38.2507 1.352 38.08C1.39467 38.0373 1.69333 37.9733 2.248 37.888C2.84533 37.76 3.208 37.696 3.336 37.696C3.336 36.7147 3.35733 35.9467 3.4 35.392C3.48533 34.7947 3.57067 34.176 3.656 33.536C3.74133 32.896 3.80533 32.0213 3.848 30.912C3.89067 30.3573 3.976 29.5253 4.104 28.416C4.232 27.264 4.40267 25.8773 4.616 24.256C4.65867 24.2133 4.744 23.5093 4.872 22.144C5.04267 20.7787 5.256 19.0507 5.512 16.96C5.64 15.4667 5.768 13.9307 5.896 12.352C6.06667 10.7307 6.23733 9.088 6.408 7.424C6.19467 7.76533 5.87467 7.936 5.448 7.936C4.89333 7.936 4.552 7.76533 4.424 7.424C4.296 7.08267 4.25333 6.61333 4.296 6.016C4.38133 5.76 4.53067 5.41867 4.744 4.992C4.95733 4.56533 5.32 3.904 5.832 3.008C6.51467 1.89867 7.00533 1.152 7.304 0.767998C7.60267 0.341331 7.944 0.127998 8.328 0.127998C9.05333 0.127998 9.416 0.618665 9.416 1.6C9.416 1.77067 9.37333 2.368 9.288 3.392C9.20267 4.37333 9.07467 5.78133 8.904 7.616C8.86133 8.55466 8.776 9.792 8.648 11.328C8.56267 12.864 8.41333 14.7627 8.2 17.024L7.048 24.704C6.96267 25.3013 6.81333 26.1333 6.6 27.2C6.38667 28.224 6.23733 29.44 6.152 30.848L5.768 36.48C5.768 36.48 5.768 36.5013 5.768 36.544C5.768 36.544 5.78933 36.544 5.832 36.544C5.91733 36.544 6.088 36.5227 6.344 36.48C6.64267 36.3947 6.87733 36.352 7.048 36.352C7.64533 36.352 8.15733 36.5867 8.584 37.056C9.05333 37.5253 9.288 38.0587 9.288 38.656C9.288 39.7653 8.88267 40.32 8.072 40.32C7.51733 40.32 7.176 40.0853 7.048 39.616C6.96267 39.5307 6.83467 39.488 6.664 39.488C6.49333 39.488 6.28 39.552 6.024 39.68C5.768 39.7653 5.53333 39.872 5.32 40C5.14933 40.9387 4.97867 41.7067 4.808 42.304C4.63733 42.9013 4.296 43.2 3.784 43.2ZM15.825 41.28C15.4837 41.28 15.1637 41.1947 14.865 41.024C14.609 40.8533 14.481 40.4267 14.481 39.744C14.481 39.0187 14.609 38.3787 14.865 37.824C15.1637 37.2267 15.5263 36.928 15.953 36.928C16.977 36.928 17.489 37.5893 17.489 38.912C17.489 39.5947 17.3397 40.1493 17.041 40.576C16.7423 41.0453 16.337 41.28 15.825 41.28Z" fill="white"/>
</g>
<defs>
<filter id="filter0_d_1266_1074" x="0.200195" y="0.12793" width="21.2886" height="47.0723" filterUnits="userSpaceOnUse" color-interpolation-filters="sRGB">
<feFlood flood-opacity="0" result="BackgroundImageFix"/>
<feColorMatrix in="SourceAlpha" type="matrix" values="0 0 0 0 0 0 0 0 0 0 0 0 0 0 0 0 0 0 127 0" result="hardAlpha"/>
<feOffset dx="3" dy="3"/>
<feGaussianBlur stdDeviation="0.5"/>
<feComposite in2="hardAlpha" operator="out"/>
<feColorMatrix type="matrix" values="0 0 0 0 0 0 0 0 0 0.262975 0 0 0 0 0.554769 0 0 0 1 0"/>
<feBlend mode="normal" in2="BackgroundImageFix" result="effect1_dropShadow_1266_1074"/>
<feBlend mode="normal" in="SourceGraphic" in2="effect1_dropShadow_1266_1074" result="shape"/>
</filter>
</defs>
</svg>
