<svg width="31" height="47" viewBox="0 0 31 47" fill="none" xmlns="http://www.w3.org/2000/svg">
<g filter="url(#filter0_d_1266_1072)">
<path d="M16.112 42.216C15.8987 42.216 15.728 42.1947 15.6 42.152L14.128 41.32C13.872 41.192 13.488 41.1067 12.976 41.064L11.888 41.256C11.5893 41.2987 11.2907 41.3413 10.992 41.384C10.736 41.4693 10.544 41.512 10.416 41.512C10.0747 41.512 9.648 41.4907 9.136 41.448C8.624 41.4053 8.06933 41.3413 7.472 41.256C6.27733 41.128 5.31733 41.064 4.592 41.064C4.42133 41.064 4.22933 41.064 4.016 41.064C3.84533 41.064 3.65333 41.1067 3.44 41.192C3.09867 41.2773 2.77867 41.3413 2.48 41.384C2.224 41.4693 1.98933 41.512 1.776 41.512C0.965334 41.512 0.56 41.064 0.56 40.168C0.56 39.4 0.88 37.8427 1.52 35.496C2.33067 32.9787 3.41867 30.7813 4.784 28.904C6.14933 27.0267 7.6 25.32 9.136 23.784C10.7147 22.2053 12.208 20.6907 13.616 19.24C15.024 17.7467 16.176 16.168 17.072 14.504C18.0107 12.7973 18.5013 10.856 18.544 8.68C18.544 7.18667 18.0533 5.94933 17.072 4.968C16.0907 3.944 14.896 3.432 13.488 3.432C12.848 3.432 12.208 3.51733 11.568 3.688C10.9707 3.816 10.3947 4.11466 9.84 4.584C9.15733 5.13866 8.368 5.864 7.472 6.76C6.576 7.656 5.95733 8.44533 5.616 9.128C5.44533 9.512 5.12533 9.704 4.656 9.704C3.888 9.704 3.504 9.27733 3.504 8.424C3.504 8.08267 3.58933 7.76266 3.76 7.464C4.74133 5.33067 6.128 3.66667 7.92 2.472C9.75467 1.23466 11.7173 0.615997 13.808 0.615997C16.1547 0.615997 17.968 1.512 19.248 3.304C20.4 4.92533 20.9547 6.84533 20.912 9.064C20.912 10.7707 20.6347 12.392 20.08 13.928C19.568 15.4213 18.8 16.8507 17.776 18.216C16.496 20.008 15.152 21.5867 13.744 22.952C12.336 24.2747 10.9707 25.5973 9.648 26.92C8.368 28.2427 7.17333 29.736 6.064 31.4C4.99733 33.0213 4.144 35.0053 3.504 37.352C3.46133 37.48 3.41867 37.6507 3.376 37.864C3.33333 38.0347 3.26933 38.2693 3.184 38.568C3.35467 38.4827 3.504 38.44 3.632 38.44C4.784 38.2267 5.53067 38.1627 5.872 38.248L10.48 38.696C10.4373 38.696 10.5867 38.6747 10.928 38.632C11.312 38.5467 11.5253 38.4827 11.568 38.44C11.9093 38.3547 12.208 38.2907 12.464 38.248C12.7627 38.2053 12.9547 38.184 13.04 38.184C14.0213 38.184 15.216 38.5893 16.624 39.4C17.0507 39.6133 17.264 39.976 17.264 40.488C17.264 41.64 16.88 42.216 16.112 42.216ZM24.7625 42.28C24.4212 42.28 24.1012 42.1947 23.8025 42.024C23.5465 41.8533 23.4185 41.4267 23.4185 40.744C23.4185 40.0187 23.5465 39.3787 23.8025 38.824C24.1012 38.2267 24.4638 37.928 24.8905 37.928C25.9145 37.928 26.4265 38.5893 26.4265 39.912C26.4265 40.5947 26.2772 41.1493 25.9785 41.576C25.6798 42.0453 25.2745 42.28 24.7625 42.28Z" fill="white"/>
</g>
<defs>
<filter id="filter0_d_1266_1072" x="0.560059" y="0.616211" width="29.8662" height="45.6641" filterUnits="userSpaceOnUse" color-interpolation-filters="sRGB">
<feFlood flood-opacity="0" result="BackgroundImageFix"/>
<feColorMatrix in="SourceAlpha" type="matrix" values="0 0 0 0 0 0 0 0 0 0 0 0 0 0 0 0 0 0 127 0" result="hardAlpha"/>
<feOffset dx="3" dy="3"/>
<feGaussianBlur stdDeviation="0.5"/>
<feComposite in2="hardAlpha" operator="out"/>
<feColorMatrix type="matrix" values="0 0 0 0 0 0 0 0 0 0.262975 0 0 0 0 0.554769 0 0 0 1 0"/>
<feBlend mode="normal" in2="BackgroundImageFix" result="effect1_dropShadow_1266_1072"/>
<feBlend mode="normal" in="SourceGraphic" in2="effect1_dropShadow_1266_1072" result="shape"/>
</filter>
</defs>
</svg>
