<svg width="30" height="49" viewBox="0 0 30 49" fill="none" xmlns="http://www.w3.org/2000/svg">
<g filter="url(#filter0_d_1266_1073)">
<path d="M7.152 43.816C4.592 43.432 2.75733 41.896 1.648 39.208C0.581333 36.648 0.0480001 34.3227 0.0480001 32.232C0.0480001 31.592 0.112 31.1013 0.24 30.76C0.410667 30.376 0.752 30.184 1.264 30.184C2.11733 30.184 2.48 30.6533 2.352 31.592C2.26667 33 2.48 34.4293 2.992 35.88C3.504 37.288 4.208 38.4827 5.104 39.464C6.04267 40.4027 7.024 40.872 8.048 40.872C9.24267 40.872 10.3947 40.2747 11.504 39.08C12.656 37.8853 13.5947 36.3707 14.32 34.536C15.088 32.6587 15.472 30.7173 15.472 28.712C15.472 25.256 14.9387 22.696 13.872 21.032C13.2747 20.0507 12.5067 19.2613 11.568 18.664C10.6293 18.0667 9.66933 17.768 8.688 17.768C8.13333 17.768 7.856 17.4907 7.856 16.936C7.81333 16.4667 7.87733 16.04 8.048 15.656C8.26133 15.2293 8.58133 15.016 9.008 15.016C11.0133 14.9307 12.6773 14.2907 14 13.096C15.3653 11.8587 16.048 10.216 16.048 8.168C16.048 6.93066 15.7493 5.77866 15.152 4.712C14.5547 3.64533 13.8293 3.112 12.976 3.112C12.4213 3.112 11.8027 3.34667 11.12 3.816C10.4373 4.28533 9.79733 4.84 9.2 5.48C8.64533 6.07733 8.176 6.632 7.792 7.144C7.408 7.61333 7.10933 7.912 6.896 8.04C6.68267 8.168 6.49067 8.232 6.32 8.232C5.89333 8.232 5.57333 8.14666 5.36 7.976C5.18933 7.76266 5.104 7.57066 5.104 7.4C5.104 7.18666 5.168 6.888 5.296 6.504C5.46667 6.12 5.808 5.56533 6.32 4.84C7.38667 3.34667 8.47467 2.23733 9.584 1.512C10.736 0.786666 11.8667 0.424 12.976 0.424C14.128 0.424 15.1093 0.765333 15.92 1.448C16.7307 2.13066 17.3493 2.984 17.776 4.008C18.2453 5.032 18.48 6.07733 18.48 7.144C18.48 9.36266 18.0747 11.2827 17.264 12.904C16.496 14.5253 15.2373 15.784 13.488 16.68C15.1093 17.7467 16.24 19.3467 16.88 21.48C17.52 23.6133 17.84 25.7467 17.84 27.88C17.84 30.056 17.5413 32.1467 16.944 34.152C16.3467 36.1573 15.536 37.928 14.512 39.464C13.5307 40.9573 12.4 42.088 11.12 42.856C9.84 43.6667 8.51733 43.9867 7.152 43.816ZM23.45 42.28C23.1087 42.28 22.7887 42.1947 22.49 42.024C22.234 41.8533 22.106 41.4267 22.106 40.744C22.106 40.0187 22.234 39.3787 22.49 38.824C22.7887 38.2267 23.1513 37.928 23.578 37.928C24.602 37.928 25.114 38.5893 25.114 39.912C25.114 40.5947 24.9647 41.1493 24.666 41.576C24.3673 42.0453 23.962 42.28 23.45 42.28Z" fill="white"/>
</g>
<defs>
<filter id="filter0_d_1266_1073" x="0.0478516" y="0.423828" width="29.0659" height="47.6484" filterUnits="userSpaceOnUse" color-interpolation-filters="sRGB">
<feFlood flood-opacity="0" result="BackgroundImageFix"/>
<feColorMatrix in="SourceAlpha" type="matrix" values="0 0 0 0 0 0 0 0 0 0 0 0 0 0 0 0 0 0 127 0" result="hardAlpha"/>
<feOffset dx="3" dy="3"/>
<feGaussianBlur stdDeviation="0.5"/>
<feComposite in2="hardAlpha" operator="out"/>
<feColorMatrix type="matrix" values="0 0 0 0 0 0 0 0 0 0.262975 0 0 0 0 0.554769 0 0 0 1 0"/>
<feBlend mode="normal" in2="BackgroundImageFix" result="effect1_dropShadow_1266_1073"/>
<feBlend mode="normal" in="SourceGraphic" in2="effect1_dropShadow_1266_1073" result="shape"/>
</filter>
</defs>
</svg>
