<svg width="513" height="407" viewBox="0 0 513 407" fill="none" xmlns="http://www.w3.org/2000/svg">
<g filter="url(#filter0_d_724_47)">
<path d="M149.581 256.223C149.581 194.771 234.674 171.996 260.857 243.135C287.04 171.996 372.133 194.771 372.133 256.223C372.133 322.99 253.485 381.097 253.485 381.097C253.485 381.097 149.581 322.99 149.581 256.223Z" fill="#FBE7F3"/>
<path fill-rule="evenodd" clip-rule="evenodd" d="M366.074 169.418C362.409 173.171 344.363 191.094 329.484 195.871C322.217 198.204 311.919 202.433 311.919 202.433C311.919 202.433 301.089 204.691 293.884 205.89C282.85 207.726 265.291 207.618 265.291 207.618C265.291 207.618 248.34 207.862 237.564 206.754L235.901 206.583C224.265 205.388 217.466 204.69 205.505 202.433C196.022 200.644 190.525 197.667 183.542 193.886C181.305 192.674 178.915 191.38 176.193 190.016C167.123 185.471 155.374 173.779 155.374 173.779L152.774 170.323C120.898 228.604 119.382 239.599 111.499 296.758L111.498 296.758L111.497 296.769C111.082 299.779 110.649 302.916 110.193 306.195H174.309C169.96 296.997 167.329 287.229 167.329 277.059C167.329 224.252 238.315 207.804 259.091 248.491C277.271 206.938 352.585 221.655 352.585 278.79C352.585 288.217 349.699 297.419 344.919 306.195H408.161C402.17 251.746 392.814 224.619 367.065 169.418H366.074ZM344.918 306.196C330.178 333.258 297.425 356.273 275.723 369.351C275.448 370.82 275.407 372.291 275.631 373.766C280.636 387.954 296.5 395.065 314.609 395.065C359.654 395.065 390.326 374.131 403.826 339.247C408.546 327.05 408.401 319.267 408.166 306.642L408.157 306.196H344.918ZM244.169 374.856C226.049 363.791 189.583 338.502 174.309 306.196H110.385L110.377 306.647C110.139 319.404 109.992 327.27 114.761 339.594C128.404 374.846 159.398 396 204.917 396C223.055 396 238.965 388.941 244.169 374.856Z" fill="#FDA4AF"/>
<path d="M366.074 169.418V167.289H365.177L364.551 167.93L366.074 169.418ZM329.484 195.871L330.135 197.898L329.484 195.871ZM311.919 202.433L312.354 204.517L312.546 204.477L312.728 204.403L311.919 202.433ZM293.884 205.89L293.535 203.79L293.884 205.89ZM265.291 207.618L265.304 205.489L265.282 205.489L265.26 205.489L265.291 207.618ZM237.564 206.754L237.782 204.636L237.782 204.636L237.564 206.754ZM235.901 206.583L236.118 204.465L236.118 204.465L235.901 206.583ZM205.505 202.433L205.11 204.525H205.11L205.505 202.433ZM183.542 193.886L182.528 195.758L182.528 195.758L183.542 193.886ZM176.193 190.016L175.24 191.92L176.193 190.016ZM155.374 173.779L153.672 175.059L153.764 175.181L153.872 175.289L155.374 173.779ZM152.774 170.323L154.476 169.043L152.491 166.404L150.906 169.301L152.774 170.323ZM111.499 296.758L109.389 296.467L109.388 296.476L111.499 296.758ZM111.498 296.758L113.608 297.049L113.609 297.04L111.498 296.758ZM111.497 296.769L109.388 296.478L109.388 296.478L111.497 296.769ZM110.193 306.195L108.085 305.902L107.748 308.324H110.193V306.195ZM174.309 306.195V308.324H177.67L176.233 305.285L174.309 306.195ZM259.091 248.491L257.195 249.46L259.24 253.464L261.042 249.345L259.091 248.491ZM344.919 306.195L343.049 305.177L341.335 308.324H344.919V306.195ZM408.161 306.195V308.324H410.537L410.277 305.962L408.161 306.195ZM367.065 169.418L368.994 168.518L368.421 167.289H367.065V169.418ZM275.723 369.351L274.624 367.528L273.806 368.021L273.63 368.96L275.723 369.351ZM344.918 306.196V304.067H343.653L343.048 305.178L344.918 306.196ZM275.631 373.766L273.526 374.086L273.557 374.284L273.623 374.474L275.631 373.766ZM403.826 339.247L405.812 340.015L403.826 339.247ZM408.166 306.642L406.037 306.681V306.682L408.166 306.642ZM408.157 306.196L410.286 306.157L410.247 304.067H408.157V306.196ZM174.309 306.196L176.234 305.286L175.658 304.067H174.309V306.196ZM244.169 374.856L246.166 375.594L246.773 373.952L245.279 373.039L244.169 374.856ZM110.385 306.196V304.067H108.295L108.256 306.157L110.385 306.196ZM110.377 306.647L112.505 306.686L112.505 306.686L110.377 306.647ZM114.761 339.594L116.747 338.826H116.747L114.761 339.594ZM364.551 167.93C362.748 169.776 357.383 175.132 350.642 180.608C343.85 186.124 335.875 191.583 328.833 193.844L330.135 197.898C337.972 195.382 346.459 189.49 353.326 183.913C360.244 178.294 365.735 172.812 367.597 170.905L364.551 167.93ZM328.833 193.844C325.138 195.03 320.7 196.689 317.208 198.042C315.457 198.72 313.934 199.325 312.849 199.76C312.306 199.978 311.873 200.153 311.574 200.275C311.425 200.335 311.31 200.382 311.231 200.414C311.192 200.43 311.162 200.443 311.142 200.451C311.132 200.455 311.124 200.458 311.119 200.46C311.116 200.461 311.114 200.462 311.113 200.463C311.112 200.463 311.112 200.463 311.111 200.463C311.111 200.464 311.111 200.464 311.111 200.464C311.111 200.464 311.111 200.464 311.919 202.433C312.728 204.403 312.728 204.403 312.728 204.403C312.728 204.403 312.728 204.403 312.728 204.403C312.729 204.402 312.729 204.402 312.729 204.402C312.731 204.402 312.732 204.401 312.735 204.4C312.739 204.398 312.747 204.395 312.756 204.391C312.775 204.383 312.804 204.371 312.842 204.356C312.918 204.325 313.031 204.279 313.177 204.219C313.471 204.1 313.898 203.927 314.435 203.712C315.507 203.281 317.014 202.683 318.745 202.012C322.219 200.667 326.563 199.045 330.135 197.898L328.833 193.844ZM311.919 202.433C311.485 200.349 311.485 200.349 311.485 200.349C311.485 200.349 311.485 200.349 311.484 200.349C311.484 200.349 311.484 200.349 311.483 200.349C311.482 200.35 311.48 200.35 311.477 200.35C311.472 200.352 311.465 200.353 311.454 200.355C311.434 200.36 311.404 200.366 311.363 200.374C311.283 200.391 311.164 200.416 311.009 200.447C310.7 200.511 310.251 200.604 309.688 200.719C308.564 200.948 306.989 201.267 305.19 201.623C301.587 202.337 297.104 203.196 293.535 203.79L294.234 207.99C297.87 207.385 302.404 206.515 306.017 205.8C307.826 205.442 309.409 205.122 310.541 204.891C311.106 204.775 311.559 204.682 311.87 204.618C312.026 204.585 312.147 204.56 312.229 204.543C312.269 204.535 312.301 204.528 312.322 204.524C312.332 204.522 312.34 204.52 312.345 204.519C312.348 204.519 312.35 204.518 312.352 204.518C312.352 204.518 312.353 204.518 312.353 204.518C312.353 204.517 312.353 204.517 312.354 204.517C312.354 204.517 312.354 204.517 311.919 202.433ZM293.535 203.79C288.161 204.684 281.127 205.113 275.375 205.315C272.512 205.415 269.991 205.459 268.185 205.477C267.283 205.487 266.56 205.489 266.064 205.49C265.816 205.49 265.625 205.49 265.496 205.49C265.432 205.49 265.383 205.489 265.351 205.489C265.335 205.489 265.323 205.489 265.315 205.489C265.311 205.489 265.308 205.489 265.306 205.489C265.306 205.489 265.305 205.489 265.304 205.489C265.304 205.489 265.304 205.489 265.304 205.489C265.304 205.489 265.304 205.489 265.291 207.618C265.278 209.747 265.278 209.747 265.278 209.747C265.278 209.747 265.279 209.747 265.279 209.747C265.28 209.747 265.281 209.747 265.282 209.747C265.284 209.747 265.288 209.747 265.292 209.747C265.302 209.747 265.315 209.747 265.332 209.747C265.367 209.747 265.418 209.748 265.485 209.748C265.619 209.748 265.816 209.748 266.07 209.748C266.577 209.747 267.312 209.745 268.229 209.735C270.061 209.716 272.619 209.672 275.525 209.57C281.31 209.367 288.574 208.932 294.234 207.99L293.535 203.79ZM265.291 207.618C265.26 205.489 265.26 205.489 265.26 205.489C265.26 205.489 265.26 205.489 265.26 205.489C265.259 205.489 265.259 205.489 265.258 205.489C265.256 205.489 265.253 205.489 265.249 205.489C265.241 205.489 265.23 205.49 265.214 205.49C265.182 205.49 265.135 205.491 265.072 205.492C264.947 205.493 264.762 205.495 264.522 205.497C264.041 205.502 263.341 205.507 262.467 205.51C260.719 205.515 258.276 205.511 255.498 205.473C249.925 205.396 243.071 205.18 237.782 204.636L237.346 208.872C242.833 209.436 249.843 209.653 255.439 209.731C258.246 209.769 260.714 209.774 262.481 209.768C263.364 209.765 264.073 209.76 264.561 209.755C264.806 209.753 264.995 209.751 265.124 209.749C265.188 209.749 265.237 209.748 265.27 209.748C265.287 209.747 265.3 209.747 265.308 209.747C265.312 209.747 265.316 209.747 265.318 209.747C265.319 209.747 265.32 209.747 265.321 209.747C265.321 209.747 265.321 209.747 265.321 209.747C265.322 209.747 265.322 209.747 265.291 207.618ZM237.782 204.636L236.118 204.465L235.683 208.701L237.346 208.872L237.782 204.636ZM236.118 204.465C224.493 203.271 217.768 202.58 205.9 200.341L205.11 204.525C217.164 206.8 224.038 207.505 235.683 208.701L236.118 204.465ZM205.9 200.341C196.763 198.617 191.512 195.781 184.555 192.013L182.528 195.758C189.539 199.554 195.281 202.671 205.11 204.525L205.9 200.341ZM184.555 192.013C182.32 190.803 179.903 189.494 177.147 188.113L175.24 191.92C177.927 193.267 180.289 194.545 182.528 195.758L184.555 192.013ZM177.147 188.113C172.859 185.964 167.82 182.051 163.768 178.577C161.762 176.857 160.034 175.276 158.808 174.125C158.196 173.55 157.71 173.083 157.378 172.762C157.212 172.601 157.085 172.477 157 172.393C156.957 172.352 156.926 172.32 156.905 172.299C156.894 172.289 156.886 172.281 156.882 172.276C156.879 172.274 156.877 172.272 156.876 172.271C156.876 172.271 156.875 172.27 156.875 172.27C156.875 172.27 156.875 172.27 156.875 172.27C156.875 172.27 156.875 172.27 155.374 173.779C153.872 175.289 153.872 175.289 153.872 175.289C153.872 175.289 153.873 175.289 153.873 175.29C153.873 175.29 153.874 175.291 153.875 175.292C153.877 175.294 153.879 175.296 153.883 175.299C153.889 175.306 153.898 175.315 153.91 175.327C153.934 175.351 153.97 175.385 154.015 175.43C154.107 175.52 154.241 175.652 154.414 175.819C154.761 176.155 155.263 176.637 155.894 177.229C157.155 178.413 158.931 180.039 160.996 181.809C165.087 185.317 170.457 189.523 175.24 191.92L177.147 188.113ZM157.075 172.5L154.476 169.043L151.073 171.602L153.672 175.059L157.075 172.5ZM150.906 169.301C134.961 198.454 126.523 215.932 121.106 233.328C115.694 250.709 113.324 267.937 109.39 296.467L113.608 297.048C117.556 268.419 119.886 251.571 125.172 234.594C130.453 217.633 138.711 200.473 154.642 171.344L150.906 169.301ZM109.388 296.476L109.388 296.477L113.609 297.04L113.609 297.039L109.388 296.476ZM109.389 296.467L109.388 296.478L113.606 297.06L113.608 297.049L109.389 296.467ZM109.388 296.478C108.973 299.488 108.54 302.624 108.085 305.902L112.302 306.488C112.758 303.208 113.191 300.069 113.606 297.06L109.388 296.478ZM110.193 308.324H174.309V304.066H110.193V308.324ZM176.233 305.285C171.991 296.312 169.458 286.855 169.458 277.059H165.2C165.2 287.603 167.928 297.681 172.384 307.105L176.233 305.285ZM169.458 277.059C169.458 251.775 186.4 235.185 205.986 229.767C225.642 224.33 247.389 230.257 257.195 249.46L260.987 247.523C250.017 226.039 225.883 219.846 204.851 225.663C183.751 231.499 165.2 249.536 165.2 277.059H169.458ZM261.042 249.345C269.578 229.834 291.666 223.239 312.107 228.69C332.426 234.108 350.456 251.335 350.456 278.79H354.714C354.714 249.111 335.086 230.411 313.204 224.576C291.442 218.773 266.784 225.596 257.141 247.638L261.042 249.345ZM350.456 278.79C350.456 287.775 347.706 296.628 343.049 305.177L346.788 307.214C351.693 298.21 354.714 288.659 354.714 278.79H350.456ZM344.919 308.324H408.161V304.066H344.919V308.324ZM410.277 305.962C404.254 251.214 394.808 223.857 368.994 168.518L365.135 170.318C390.82 225.38 400.087 252.277 406.045 306.428L410.277 305.962ZM367.065 167.289H366.074V171.547H367.065V167.289ZM276.822 371.175C287.732 364.6 301.447 355.512 314.305 344.643C327.145 333.791 339.239 321.073 346.788 307.215L343.048 305.178C335.857 318.381 324.204 330.701 311.557 341.391C298.928 352.066 285.416 361.024 274.624 367.528L276.822 371.175ZM277.736 373.446C277.55 372.223 277.582 370.993 277.816 369.743L273.63 368.96C273.314 370.647 273.264 372.36 273.526 374.086L277.736 373.446ZM314.609 392.936C296.879 392.936 282.2 385.987 277.639 373.058L273.623 374.474C279.072 389.92 296.122 397.194 314.609 397.194V392.936ZM401.841 338.478C388.696 372.444 358.885 392.936 314.609 392.936V397.194C360.424 397.194 391.956 375.817 405.812 340.015L401.841 338.478ZM406.037 306.682C406.272 319.276 406.4 326.698 401.841 338.478L405.812 340.015C410.693 327.403 410.53 319.258 410.294 306.602L406.037 306.682ZM406.029 306.236L406.037 306.681L410.294 306.602L410.286 306.157L406.029 306.236ZM344.918 308.325H408.157V304.067H344.918V308.325ZM172.384 307.106C180.195 323.626 193.365 338.249 206.762 350.087C220.177 361.94 233.935 371.101 243.059 376.673L245.279 373.039C236.283 367.546 222.748 358.53 209.582 346.896C196.397 335.246 183.697 321.072 176.234 305.286L172.384 307.106ZM110.385 308.325H174.309V304.067H110.385V308.325ZM112.505 306.686L112.514 306.236L108.256 306.157L108.248 306.607L112.505 306.686ZM116.747 338.826C112.138 326.917 112.268 319.413 112.505 306.686L108.248 306.607C108.009 319.395 107.845 327.623 112.776 340.363L116.747 338.826ZM204.917 393.871C160.167 393.871 130.034 373.159 116.747 338.826L112.776 340.363C126.774 376.532 158.629 398.129 204.917 398.129V393.871ZM242.172 374.118C237.423 386.971 222.678 393.871 204.917 393.871V398.129C223.432 398.129 240.507 390.911 246.166 375.594L242.172 374.118Z" fill="#00438D"/>
<mask id="path-4-inside-1_724_47" fill="white">
<path fill-rule="evenodd" clip-rule="evenodd" d="M175.048 26.6774C197.636 10.0883 227.472 0 260.182 0C290.871 0 319.031 8.88045 341.048 23.6785C345.576 9.92703 358.525 5.34058e-05 373.792 5.34058e-05C392.827 5.34058e-05 408.258 15.431 408.258 34.466C408.258 51.3982 396.048 65.4786 379.953 68.3829C385.05 79.6895 387.834 91.9153 387.834 104.674C387.834 185.559 330.682 209.349 260.182 209.349C189.682 209.349 132.53 187.938 132.53 104.674C132.53 92.1127 135.229 80.0678 140.176 68.9083C121.739 68.2301 107 53.0693 107 34.466C107 15.431 122.431 5.34058e-05 141.466 5.34058e-05C157.822 5.34058e-05 171.518 11.3937 175.048 26.6774Z"/>
</mask>
<path fill-rule="evenodd" clip-rule="evenodd" d="M175.048 26.6774C197.636 10.0883 227.472 0 260.182 0C290.871 0 319.031 8.88045 341.048 23.6785C345.576 9.92703 358.525 5.34058e-05 373.792 5.34058e-05C392.827 5.34058e-05 408.258 15.431 408.258 34.466C408.258 51.3982 396.048 65.4786 379.953 68.3829C385.05 79.6895 387.834 91.9153 387.834 104.674C387.834 185.559 330.682 209.349 260.182 209.349C189.682 209.349 132.53 187.938 132.53 104.674C132.53 92.1127 135.229 80.0678 140.176 68.9083C121.739 68.2301 107 53.0693 107 34.466C107 15.431 122.431 5.34058e-05 141.466 5.34058e-05C157.822 5.34058e-05 171.518 11.3937 175.048 26.6774Z" fill="#FDA4AF"/>
<path d="M175.048 26.6774L170.899 27.6358L172.355 33.9382L177.569 30.1093L175.048 26.6774ZM341.048 23.6785L338.673 27.2125L343.336 30.3464L345.093 25.0102L341.048 23.6785ZM379.953 68.3829L379.197 64.1925L373.83 65.161L376.071 70.1329L379.953 68.3829ZM132.53 104.674H136.788H132.53ZM140.176 68.9083L144.069 70.6341L146.618 64.8843L140.333 64.6531L140.176 68.9083ZM260.182 -4.25806C226.609 -4.25806 195.881 6.09437 172.528 23.2455L177.569 30.1093C199.391 14.0822 228.335 4.25806 260.182 4.25806V-4.25806ZM343.423 20.1445C320.676 4.85583 291.683 -4.25806 260.182 -4.25806V4.25806C290.059 4.25806 317.386 12.9051 338.673 27.2125L343.423 20.1445ZM373.792 -4.25801C356.632 -4.25801 342.089 6.90104 337.004 22.3468L345.093 25.0102C349.063 12.953 360.418 4.25812 373.792 4.25812V-4.25801ZM412.516 34.466C412.516 13.0793 395.179 -4.25801 373.792 -4.25801V4.25812C390.476 4.25812 404 17.7826 404 34.466H412.516ZM380.709 72.5733C398.796 69.3097 412.516 53.4946 412.516 34.466H404C404 49.3018 393.301 61.6475 379.197 64.1925L380.709 72.5733ZM392.092 104.674C392.092 91.2854 389.168 78.4649 383.835 66.633L376.071 70.1329C380.931 80.914 383.576 92.5452 383.576 104.674H392.092ZM260.182 213.607C295.774 213.607 328.726 207.627 352.876 190.84C377.316 173.851 392.092 146.256 392.092 104.674H383.576C383.576 143.977 369.776 168.72 348.015 183.847C325.964 199.175 295.091 205.091 260.182 205.091V213.607ZM128.272 104.674C128.272 147.406 143.023 175.04 167.519 191.753C191.69 208.244 224.658 213.607 260.182 213.607V205.091C225.206 205.091 194.349 199.748 172.319 184.718C150.614 169.91 136.788 145.206 136.788 104.674H128.272ZM136.284 67.1825C131.106 78.8617 128.272 91.4928 128.272 104.674H136.788C136.788 92.7325 139.352 81.2739 144.069 70.6341L136.284 67.1825ZM140.333 64.6531C124.176 64.0588 111.258 50.77 111.258 34.466H102.742C102.742 55.3685 119.302 72.4014 140.02 73.1635L140.333 64.6531ZM111.258 34.466C111.258 17.7826 124.783 4.25812 141.466 4.25812V-4.25801C120.079 -4.25801 102.742 13.0793 102.742 34.466H111.258ZM141.466 4.25812C155.796 4.25812 167.805 14.2408 170.899 27.6358L179.197 25.719C175.23 8.54675 159.849 -4.25801 141.466 -4.25801V4.25812Z" fill="#00438D" mask="url(#path-4-inside-1_724_47)"/>
<path d="M306.56 111.056C306.56 140.396 285.034 163.818 258.905 163.818C232.777 163.818 211.25 140.396 211.25 111.056C211.25 81.7169 232.777 58.2953 258.905 58.2953C285.034 58.2953 306.56 81.7169 306.56 111.056Z" fill="#FBE7F3" stroke="#00438D" stroke-width="4.25806"/>
<ellipse cx="335.343" cy="76.6001" rx="8.78243" ry="12.7744" fill="#00438D"/>
<ellipse cx="182.474" cy="79.1433" rx="8.77605" ry="12.7652" fill="#00438D"/>
<circle cx="258.905" cy="82.9736" r="11.9127" fill="#FDA4AF" stroke="#00438D" stroke-width="4.25806"/>
<path d="M112.323 308.71L112.855 303.919H170.871L173 308.71H112.323Z" fill="#FDA4AF"/>
<path d="M255.71 364.802C254.671 366.661 254.67 366.66 254.669 366.66L254.666 366.658L254.654 366.651L254.611 366.627C254.574 366.606 254.52 366.575 254.449 366.535C254.306 366.454 254.098 366.334 253.827 366.177C253.285 365.862 252.495 365.397 251.492 364.79C249.485 363.576 246.626 361.793 243.197 359.508C236.344 354.942 227.196 348.358 218.038 340.294C208.889 332.238 199.674 322.656 192.733 312.085C185.797 301.52 181.051 289.841 181.051 277.635C181.051 255.087 196.708 239.565 214.782 236.264C231.801 233.156 250.719 240.883 260.856 262.919C270.994 240.883 289.912 233.156 306.931 236.264C325.004 239.565 340.661 255.087 340.661 277.635C340.661 289.921 335.209 301.638 327.295 312.194C319.372 322.762 308.857 332.335 298.421 340.382C287.975 348.437 277.541 355.014 269.724 359.575C265.814 361.857 262.553 363.638 260.266 364.85C259.122 365.456 258.222 365.92 257.605 366.233C257.297 366.39 257.06 366.509 256.898 366.59C256.818 366.63 256.756 366.661 256.714 366.682L256.665 366.705L256.652 366.712L256.649 366.714C256.647 366.714 256.647 366.715 255.71 364.802ZM255.71 364.802L256.647 366.715L255.645 367.205L254.671 366.661L255.71 364.802Z" fill="#F4001F" stroke="#00438D" stroke-width="4.25806"/>
<path d="M345.984 308.71L348.645 303.919H405.597L406.129 308.71H345.984Z" fill="#FDA4AF"/>
</g>
<g filter="url(#filter1_d_724_47)">
<path d="M488.316 168.234C472.61 162.366 459.826 151.932 456.694 134C451.203 153.745 451.435 163.428 434 168.234C450.958 168.758 454.916 178.181 460.072 198.123C463.378 177.776 467.118 168.486 488.316 168.234Z" fill="#FBE7F3"/>
<path d="M488.316 168.234C472.61 162.366 459.826 151.932 456.694 134C451.203 153.745 451.435 163.428 434 168.234C450.958 168.758 454.916 178.181 460.072 198.123C463.378 177.776 467.118 168.486 488.316 168.234Z" stroke="#F4001F" stroke-width="4" stroke-linejoin="round"/>
</g>
<g filter="url(#filter2_d_724_47)">
<path d="M506.523 235.397C504.475 235.402 489.495 230.667 487.721 213C482.319 232.645 469 235.368 469 235.368C469 235.368 482.65 237.668 487.721 257.509C490.758 238.597 504.7 235.697 506.523 235.397C506.616 235.397 506.682 235.387 506.719 235.368C506.719 235.368 506.651 235.376 506.523 235.397Z" fill="#FBE7F3"/>
<path d="M487.721 213C489.576 231.47 505.864 235.806 506.719 235.368C506.719 235.368 490.972 237.265 487.721 257.509C482.65 237.668 469 235.368 469 235.368C469 235.368 482.319 232.645 487.721 213Z" stroke="#F4001F" stroke-width="4" stroke-linejoin="round"/>
</g>
<g filter="url(#filter3_d_724_47)">
<path d="M34.8384 47.0546C29.6211 46.4612 21.9582 43.3234 20.7205 31C17.2183 43.7382 10.3868 46.6284 6.01611 47.0862C3.65012 46.6005 1.99994 46.8675 1.99994 46.8675C1.99994 46.8675 3.64631 47.3344 6.01611 47.0862C10.4548 47.9974 17.4129 51.5577 20.7205 64.5C22.791 51.6105 29.9268 47.9865 34.8384 47.0546C37.4408 47.3505 39.4348 47.0134 39.7192 46.8675C39.7192 46.8675 37.6409 46.5228 34.8384 47.0546Z" fill="#FBE7F3"/>
<path d="M20.7205 31C22.5756 49.4705 38.8644 47.306 39.7192 46.8675C39.7192 46.8675 23.9724 44.2559 20.7205 64.5C15.6498 44.659 1.99994 46.8675 1.99994 46.8675C1.99994 46.8675 15.3194 50.6448 20.7205 31Z" stroke="#F4001F" stroke-width="4" stroke-linejoin="round"/>
</g>
<g filter="url(#filter4_d_724_47)">
<path d="M91.2933 103.065C86.2428 102.879 67.2894 99.214 65.7205 72C60.5 102.868 38 102.868 38 102.868C38 102.868 60.6498 103.659 65.7205 123.5C68.5279 106.023 86.4474 103.443 91.2933 103.065C91.9714 103.09 92.3988 103.052 92.5 103C92.5 103 92.0605 103.005 91.2933 103.065Z" fill="#FBE7F3"/>
<path d="M65.7205 72C67.5 102.868 91.6452 103.439 92.5 103C92.5 103 68.9724 103.256 65.7205 123.5C60.6498 103.659 38 102.868 38 102.868C38 102.868 60.5 102.868 65.7205 72Z" stroke="#F4001F" stroke-width="4" stroke-linejoin="round"/>
</g>
<defs>
<filter id="filter0_d_724_47" x="107" y="0" width="312.053" height="406.645" filterUnits="userSpaceOnUse" color-interpolation-filters="sRGB">
<feFlood flood-opacity="0" result="BackgroundImageFix"/>
<feColorMatrix in="SourceAlpha" type="matrix" values="0 0 0 0 0 0 0 0 0 0 0 0 0 0 0 0 0 0 127 0" result="hardAlpha"/>
<feOffset dx="8.51613" dy="8.51613"/>
<feComposite in2="hardAlpha" operator="out"/>
<feColorMatrix type="matrix" values="0 0 0 0 0.956863 0 0 0 0 0 0 0 0 0 0.121569 0 0 0 1 0"/>
<feBlend mode="normal" in2="BackgroundImageFix" result="effect1_dropShadow_724_47"/>
<feBlend mode="normal" in="SourceGraphic" in2="effect1_dropShadow_724_47" result="shape"/>
</filter>
<filter id="filter1_d_724_47" x="432" y="132" width="62.3162" height="72.1228" filterUnits="userSpaceOnUse" color-interpolation-filters="sRGB">
<feFlood flood-opacity="0" result="BackgroundImageFix"/>
<feColorMatrix in="SourceAlpha" type="matrix" values="0 0 0 0 0 0 0 0 0 0 0 0 0 0 0 0 0 0 127 0" result="hardAlpha"/>
<feOffset dx="4" dy="4"/>
<feComposite in2="hardAlpha" operator="out"/>
<feColorMatrix type="matrix" values="0 0 0 0 0.956863 0 0 0 0 0 0 0 0 0 0.121569 0 0 0 1 0"/>
<feBlend mode="normal" in2="BackgroundImageFix" result="effect1_dropShadow_724_47"/>
<feBlend mode="normal" in="SourceGraphic" in2="effect1_dropShadow_724_47" result="shape"/>
</filter>
<filter id="filter2_d_724_47" x="467" y="211" width="45.7195" height="52.5088" filterUnits="userSpaceOnUse" color-interpolation-filters="sRGB">
<feFlood flood-opacity="0" result="BackgroundImageFix"/>
<feColorMatrix in="SourceAlpha" type="matrix" values="0 0 0 0 0 0 0 0 0 0 0 0 0 0 0 0 0 0 127 0" result="hardAlpha"/>
<feOffset dx="4" dy="4"/>
<feComposite in2="hardAlpha" operator="out"/>
<feColorMatrix type="matrix" values="0 0 0 0 0.956863 0 0 0 0 0 0 0 0 0 0.121569 0 0 0 1 0"/>
<feBlend mode="normal" in2="BackgroundImageFix" result="effect1_dropShadow_724_47"/>
<feBlend mode="normal" in="SourceGraphic" in2="effect1_dropShadow_724_47" result="shape"/>
</filter>
<filter id="filter3_d_724_47" x="-0.00012207" y="29" width="45.7195" height="41.5" filterUnits="userSpaceOnUse" color-interpolation-filters="sRGB">
<feFlood flood-opacity="0" result="BackgroundImageFix"/>
<feColorMatrix in="SourceAlpha" type="matrix" values="0 0 0 0 0 0 0 0 0 0 0 0 0 0 0 0 0 0 127 0" result="hardAlpha"/>
<feOffset dx="4" dy="4"/>
<feComposite in2="hardAlpha" operator="out"/>
<feColorMatrix type="matrix" values="0 0 0 0 0.956863 0 0 0 0 0 0 0 0 0 0.121569 0 0 0 1 0"/>
<feBlend mode="normal" in2="BackgroundImageFix" result="effect1_dropShadow_724_47"/>
<feBlend mode="normal" in="SourceGraphic" in2="effect1_dropShadow_724_47" result="shape"/>
</filter>
<filter id="filter4_d_724_47" x="36" y="70" width="62.5002" height="59.5" filterUnits="userSpaceOnUse" color-interpolation-filters="sRGB">
<feFlood flood-opacity="0" result="BackgroundImageFix"/>
<feColorMatrix in="SourceAlpha" type="matrix" values="0 0 0 0 0 0 0 0 0 0 0 0 0 0 0 0 0 0 127 0" result="hardAlpha"/>
<feOffset dx="4" dy="4"/>
<feComposite in2="hardAlpha" operator="out"/>
<feColorMatrix type="matrix" values="0 0 0 0 0.956863 0 0 0 0 0 0 0 0 0 0.121569 0 0 0 1 0"/>
<feBlend mode="normal" in2="BackgroundImageFix" result="effect1_dropShadow_724_47"/>
<feBlend mode="normal" in="SourceGraphic" in2="effect1_dropShadow_724_47" result="shape"/>
</filter>
</defs>
</svg>
