<svg width="610" height="545" viewBox="0 0 610 545" fill="none" xmlns="http://www.w3.org/2000/svg">
<g filter="url(#filter0_d_903_315)">
<path d="M40.7713 294.397C37.9588 294.867 27.6815 299.145 29.3463 322.311C23.5357 296.467 10.9286 297.857 10.9286 297.857C10.9286 297.857 23.5457 295.787 24.5322 278.654C27.739 293.296 38.0207 294.376 40.7713 294.397C41.1489 294.334 41.392 294.34 41.4535 294.378C41.4535 294.378 41.2068 294.401 40.7713 294.397Z" fill="white"/>
<path d="M29.3463 322.311C27.458 296.035 40.9336 294.059 41.4535 294.378C41.4535 294.378 28.2466 295.614 24.5322 278.654C23.5457 295.787 10.9286 297.857 10.9286 297.857C10.9286 297.857 23.5357 296.467 29.3463 322.311Z" stroke="#FF7E55" stroke-width="4" stroke-linejoin="round"/>
</g>
<g filter="url(#filter1_d_903_315)">
<ellipse cx="40.8909" cy="29.7755" rx="40.8909" ry="29.7755" transform="matrix(-0.966321 0.257338 -0.308519 -0.951218 473.336 451.783)" fill="#00438D"/>
<path d="M265.033 307.345C260.405 293.077 267.953 277.74 288.798 272.188C309.644 266.637 335.894 272.974 340.522 287.242C345.15 301.51 332.003 317.577 311.157 323.129C290.311 328.68 269.661 321.614 265.033 307.345Z" fill="#00438D"/>
<path d="M464.398 435.497L425.223 446.038C425.223 446.038 409.352 418.374 389.12 407.447C359.603 391.505 326.993 396.42 296.596 391.448C253.687 387.225 239.985 372.514 222.837 364.916C208.946 358.76 200.215 344.394 200.441 328.492C200.721 308.853 213.367 304.574 221.074 298.709C237.698 286.06 289.056 273.603 289.056 273.603L270.876 312.15C270.876 312.15 246.925 307.701 254.472 330.096C259.333 344.519 292.761 347.267 333.802 355.415C379.535 359.024 437.173 371.334 457.217 397.352C468.68 412.231 464.398 435.497 464.398 435.497Z" fill="#00438D"/>
<ellipse cx="40.8909" cy="29.7755" rx="40.8909" ry="29.7755" transform="matrix(-0.966321 0.257338 0.308519 0.951218 337.079 36.5076)" fill="#00438D"/>
<path d="M248.144 260.102C252.772 274.37 268.277 283.568 289.123 278.017C309.968 272.466 328.261 254.267 323.633 239.999C319.005 225.731 298.355 218.664 277.509 224.216C256.663 229.767 243.516 245.834 248.144 260.102Z" fill="#00438D"/>
<path d="M343.504 59.0289L300.047 64.9279C300.047 64.9279 303.218 95.9736 292.728 115.082C277.424 142.961 247.065 154.815 224.47 173.899C190.905 198.487 188.166 217.576 178.282 232.373C170.276 244.361 171.511 260.723 181.197 273.985C193.159 290.364 206.348 287.763 216.332 288.917C237.866 291.404 288.495 276.701 288.495 276.701L250.19 253.197C250.19 253.197 232.703 268.681 225.678 246.146C221.154 231.634 247.626 212.935 277.275 185.961C313.581 160.504 358.107 120.942 356.025 90.1863C354.855 72.915 343.504 59.0289 343.504 59.0289Z" fill="#00438D"/>
<rect width="333.23" height="16.8541" transform="matrix(-0.966321 0.257338 -0.308519 -0.951218 428.217 245.51)" fill="#00438D"/>
<path d="M548.089 227.917L460.001 259.108L411.455 241.232L500.641 214.613L548.089 227.917Z" fill="#00438D"/>
<path d="M533.72 183.613L440.935 200.324L411.099 240.135L502.028 218.888L533.72 183.613Z" fill="#00438D"/>
<path d="M66.8716 332.45C66.8716 332.45 89.696 270.894 123.297 273.802C135.581 274.865 136.502 285.49 137.736 295.207C138.617 302.151 129.615 310.774 131.497 316.578C133.38 322.383 138.209 320.996 145.456 327.218C151.767 332.636 159.04 347.193 149.344 354.109C122.822 373.028 66.8716 332.45 66.8716 332.45Z" fill="#00438D"/>
</g>
<path d="M69.3606 331.948C67.8929 333.972 67.8935 333.972 67.8944 333.973L67.8972 333.975L67.9066 333.982L67.9407 334.006C67.9701 334.027 68.0129 334.058 68.0688 334.098C68.1804 334.178 68.3443 334.294 68.5578 334.444C68.9848 334.744 69.6103 335.179 70.4134 335.724C72.0193 336.813 74.3373 338.343 77.2001 340.117C82.9194 343.663 90.8428 348.203 99.626 352.152C108.389 356.092 118.123 359.496 127.442 360.684C136.746 361.869 145.943 360.879 153.285 355.642C159.311 351.343 159.85 344.684 158.305 338.949C156.777 333.272 153.102 327.848 149.574 324.818C148.805 324.159 148.059 323.576 147.338 323.058L207.994 306.905C203.723 311.573 200.573 318.021 200.432 327.954C200.311 336.415 202.993 345.806 207.465 353.863C211.925 361.899 218.34 368.915 225.946 372.286C228.677 373.496 231.341 374.779 234.064 376.09C239.608 378.76 245.402 381.551 252.521 384.093C263.263 387.929 277.193 391.298 298.762 393.425C308.654 395.038 318.913 395.628 329.069 396.212C334.587 396.529 340.075 396.844 345.457 397.321C360.969 398.695 376.104 401.411 390.422 409.144C392.57 410.304 394.674 411.667 396.718 413.176C394.445 415.086 392.433 417.159 390.719 419.356C384.844 426.88 382.384 435.989 385.234 444.775C388.071 453.523 395.505 459.891 404.822 463.297C414.154 466.708 425.588 467.247 436.955 464.219C448.32 461.193 457.665 455.12 463.532 447.606C468.21 441.615 470.722 434.619 470.114 427.583C470.187 425.733 470.199 423.637 470.093 421.384C469.721 413.492 467.873 403.353 461.688 395.323C451.16 381.659 431.08 371.893 408.35 365.083C385.549 358.251 359.583 354.251 336.635 352.432C328.619 350.842 320.96 349.468 313.769 348.177C302.418 346.141 292.236 344.314 283.663 342.18C276.681 340.442 271.007 338.552 266.827 336.29C262.641 334.025 260.261 331.555 259.331 328.795C257.548 323.503 257.793 320.278 258.635 318.336C259.45 316.455 261.038 315.292 263.127 314.593C264.781 314.04 266.617 313.83 268.287 313.793C271.822 318.708 277.299 322.344 283.693 324.532C292.552 327.564 303.435 327.933 314.29 325.042C325.141 322.152 334.122 316.494 339.816 309.535C345.514 302.571 348.033 294.119 345.389 285.968C343.648 280.599 339.401 276.408 333.925 273.369L427.599 248.422L461.624 260.951L462.472 261.263L463.323 260.962L551.412 229.771L558.849 227.137L551.252 225.007L511.852 213.96L538.067 184.782L542.94 179.358L535.765 180.651L442.979 197.361L442.012 197.535L441.422 198.322L419.112 228.092L327.601 252.462C329.452 247.95 329.967 243.248 328.5 238.725C325.871 230.618 318.787 224.831 309.952 221.807C301.093 218.776 290.21 218.407 279.355 221.297C268.504 224.187 259.523 229.845 253.829 236.804C249.746 241.794 247.296 247.547 247.206 253.406C245.827 254.155 244.223 254.836 242.565 255.169C240.396 255.604 238.265 255.426 236.329 254.16C234.353 252.868 232.207 250.203 230.554 244.9C229.7 242.162 230.214 238.999 232.344 235.112C234.483 231.206 238.099 226.862 242.927 221.983C248.856 215.992 256.313 209.477 264.634 202.207C269.909 197.599 275.53 192.688 281.329 187.415C299.53 174.643 319.84 158.306 335.383 141.242C343.173 132.69 349.824 123.892 354.404 115.211C358.977 106.543 361.571 97.8307 361.008 89.5151C360.391 80.4041 357.101 72.2643 354.024 66.4578C352.479 63.5426 350.971 61.1843 349.844 59.5481C349.28 58.7293 348.81 58.0894 348.477 57.649C348.311 57.4287 348.178 57.2581 348.085 57.1399C348.038 57.0807 348.002 57.0347 347.975 57.002L347.944 56.963L347.934 56.9511L347.931 56.9471L347.93 56.9455C347.93 56.9453 347.929 56.9451 347.874 56.9906C347.873 56.9903 347.873 56.9901 347.873 56.9899L347.929 56.9443L347.125 55.9612C343.383 51.0627 337.902 47.3588 331.543 45.0348C322.212 41.624 310.778 41.085 299.411 44.1122C288.046 47.1388 278.7 53.2113 272.834 60.7259C266.959 68.2508 264.499 77.3595 267.349 86.1451C270.186 94.8933 277.621 101.262 286.937 104.667C289.751 105.695 292.755 106.463 295.89 106.95C295.078 109.205 294.13 111.366 293.026 113.377C285.641 126.828 274.584 136.498 262.366 145.254C258.139 148.283 253.719 151.234 249.272 154.204C241.073 159.679 232.778 165.218 225.412 171.43C191.767 196.088 181.499 211.018 177.588 225.342C175.647 232.452 174.095 241.255 174.287 250.038C174.479 258.802 176.414 267.765 181.667 274.957C186.42 281.465 191.432 285.216 196.431 287.393L141.288 302.078C141.434 301.726 141.573 301.373 141.703 301.021C142.455 298.98 142.998 296.699 142.705 294.39C142.661 294.045 142.617 293.696 142.573 293.342C142.017 288.886 141.382 283.803 139.403 279.676C138.302 277.378 136.747 275.279 134.495 273.686C132.241 272.09 129.437 271.106 126.002 270.809C116.767 270.01 108.429 273.664 101.255 279.266C94.0928 284.861 87.9155 292.528 82.8858 300.157C77.8442 307.804 73.8831 315.524 71.1854 321.32C69.8348 324.222 68.7969 326.65 68.0948 328.358C67.7437 329.212 67.4763 329.886 67.2957 330.35C67.2053 330.582 67.1367 330.761 67.09 330.884C67.0667 330.945 67.0489 330.992 67.0366 331.025L67.0224 331.063L67.0184 331.074L67.0172 331.077C67.0168 331.078 67.0165 331.079 69.3606 331.948ZM69.3606 331.948L67.8929 333.972L66.3569 332.858L67.0165 331.079L69.3606 331.948Z" fill="#FBE7F3" stroke="#00438D" stroke-width="5"/>
<path d="M87.8499 327.868C87.9385 327.621 88.0395 327.342 88.1524 327.035C88.6612 325.649 89.4127 323.677 90.3798 321.34C92.3172 316.659 95.1057 310.551 98.5258 304.78C101.966 298.975 105.953 293.672 110.233 290.453C114.464 287.27 118.648 286.328 122.919 288.425C126.735 290.299 128.224 291.81 128.963 293.462C129.788 295.309 129.86 297.649 129.924 301.773C129.98 305.398 129.223 308.045 128.536 310.447L128.51 310.538C128.497 310.584 128.484 310.63 128.471 310.677C127.815 312.967 127.102 315.458 127.98 318.164C128.409 319.487 129.035 320.517 129.888 321.358C130.708 322.164 131.646 322.702 132.502 323.15C132.756 323.283 133.012 323.413 133.271 323.545C134.77 324.308 136.379 325.126 138.333 326.883C140.237 328.593 142.427 331.883 143.348 335.267C144.263 338.629 143.82 341.535 141.386 343.338C137.43 346.271 132.206 346.94 126.297 346.075C120.386 345.211 114.022 342.84 108.098 339.996C102.191 337.161 96.8237 333.906 92.9249 331.352C90.9782 330.077 89.4043 328.981 88.32 328.206C88.1512 328.085 87.9944 327.973 87.8499 327.868Z" fill="white" stroke="#FF7E55" stroke-width="4"/>
<ellipse cx="334.987" cy="64.1716" rx="7.94612" ry="7.20021" fill="#FF7E55"/>
<ellipse cx="347.475" cy="89.8867" rx="7.94612" ry="7.20021" fill="#FF7E55"/>
<ellipse cx="334.987" cy="117.659" rx="7.94612" ry="7.20021" fill="#FF7E55"/>
<ellipse cx="428.071" cy="390.238" rx="7.94612" ry="7.20021" fill="#FF7E55"/>
<ellipse cx="450.774" cy="411.839" rx="7.94612" ry="7.20021" fill="#FF7E55"/>
<ellipse cx="443.964" cy="438.583" rx="7.94612" ry="7.20021" fill="#FF7E55"/>
<g filter="url(#filter2_d_903_315)">
<path d="M431.54 334.716C429.9 339.463 426.93 342.838 422.627 344.839C418.325 346.84 413.782 347.014 408.998 345.362C408.108 345.055 407.287 344.667 406.535 344.2C405.77 343.77 405.044 343.229 404.356 342.576L399.131 357.708L403.08 359.071C403.303 359.148 403.389 359.261 403.337 359.409C403.273 359.595 403.13 359.649 402.908 359.572C402.833 359.547 402.629 359.476 402.296 359.361C401.999 359.258 401.356 359.016 400.368 358.633C398.736 358.069 397.611 357.66 396.994 357.405C396.4 357.2 396.011 357.066 395.825 357.002C395.714 356.964 395.51 356.893 395.213 356.791C394.917 356.688 394.354 356.515 393.525 356.27C392.264 355.835 391.337 355.514 390.744 355.309C390.138 355.142 389.668 355 389.334 354.885C389.111 354.808 389.032 354.677 389.096 354.491C389.147 354.343 389.284 354.307 389.507 354.384C391.435 355.05 392.719 355.12 393.357 354.593C394.033 354.079 394.889 352.32 395.927 349.316L405.858 320.556C406.204 319.554 406.436 318.763 406.554 318.181C406.685 317.562 406.709 317.072 406.626 316.711C406.518 316.301 406.273 315.988 405.891 315.773C405.559 315.533 404.724 315.307 403.386 315.094C403.113 315.042 403.003 314.941 403.054 314.793C403.118 314.607 403.286 314.541 403.559 314.594C404.598 314.828 405.919 314.911 407.52 314.841C409.122 314.771 410.985 314.543 413.111 314.157C413.248 314.121 413.427 314.203 413.649 314.404C413.907 314.618 414.017 314.781 413.978 314.892L412.038 320.51C414.1 319.106 416.207 318.235 418.357 317.898C420.557 317.537 422.696 317.715 424.772 318.432C427.999 319.547 430.241 321.649 431.498 324.74C432.768 327.793 432.782 331.119 431.54 334.716ZM425.057 335.28C426.363 331.497 426.604 328.155 425.779 325.255C425.004 322.331 423.262 320.402 420.555 319.467C419.22 319.006 417.775 318.922 416.221 319.215C414.704 319.522 413.233 320.176 411.808 321.178L405.929 338.201C406.616 340.057 407.481 341.58 408.523 342.77C409.578 343.923 410.81 344.743 412.219 345.229C414.963 346.177 417.418 345.8 419.583 344.099C421.785 342.41 423.609 339.47 425.057 335.28Z" fill="#F4001F"/>
<path d="M406.441 360.639C405.39 360.317 404.605 360.067 404.085 359.888C403.603 359.721 403.195 359.58 402.861 359.465C402.639 359.388 402.553 359.275 402.605 359.127C402.669 358.942 402.812 358.887 403.034 358.964C404.295 359.4 405.171 359.328 405.661 358.751C406.164 358.136 406.883 356.474 407.818 353.767L412.601 339.915C412.819 339.285 412.839 338.565 412.662 337.757C412.497 336.911 412.11 335.927 411.502 334.804C411.454 334.704 411.436 334.635 411.448 334.598C411.474 334.524 411.53 334.481 411.617 334.47C412.412 334.454 413.555 334.329 415.046 334.097C416.55 333.828 417.577 333.56 418.126 333.293C418.225 333.244 418.287 333.245 418.312 333.295C418.349 333.308 418.392 333.364 418.44 333.464C418.842 334.225 419.066 335.257 419.114 336.561C419.162 337.864 419.001 339.053 418.629 340.129C420.979 338.491 423.118 337.466 425.046 337.052C426.987 336.602 428.903 336.703 430.794 337.356C432.982 338.112 434.614 339.277 435.689 340.852C436.764 342.427 437.196 344.299 436.987 346.468C439.325 344.868 441.482 343.849 443.46 343.411C445.437 342.973 447.372 343.081 449.263 343.734C452.23 344.759 454.147 346.479 455.015 348.896C455.919 351.325 455.731 354.394 454.45 358.103L449.782 371.621C449.283 373.067 449.124 374.008 449.305 374.445C449.487 374.881 450.196 375.292 451.432 375.677C451.655 375.754 451.734 375.885 451.67 376.071C451.619 376.219 451.482 376.255 451.259 376.178C451.074 376.114 450.796 376.018 450.425 375.89C450.091 375.774 449.486 375.545 448.608 375.2C447.434 374.753 446.588 374.44 446.069 374.261C445.587 374.094 445.197 373.96 444.9 373.857C444.789 373.819 444.604 373.755 444.344 373.665C444.085 373.576 443.633 373.441 442.99 373.26C441.939 372.938 441.172 372.694 440.69 372.528C440.208 372.361 439.8 372.221 439.466 372.105C439.243 372.028 439.158 371.916 439.209 371.767C439.273 371.582 439.416 371.528 439.639 371.605C441.308 372.181 442.405 372.249 442.931 371.808C443.47 371.329 444.206 369.737 445.141 367.029L449.022 355.792C449.995 352.974 450.2 350.637 449.637 348.782C449.074 346.927 447.809 345.66 445.844 344.982C444.434 344.495 443.102 344.387 441.846 344.659C440.589 344.931 438.974 345.764 436.998 347.157L430.812 365.07C430.364 366.368 430.237 367.279 430.429 367.802C430.659 368.338 431.467 368.824 432.852 369.261C433.075 369.338 433.154 369.469 433.09 369.654C433.038 369.803 432.902 369.838 432.679 369.762C432.605 369.736 432.419 369.672 432.123 369.57C431.826 369.467 431.239 369.244 430.362 368.899C428.915 368.4 427.896 368.047 427.302 367.843C426.759 367.613 426.394 367.467 426.209 367.403C426.098 367.364 425.912 367.3 425.653 367.211C425.43 367.134 424.979 366.999 424.298 366.805C423.284 366.497 422.536 366.259 422.054 366.092C421.572 365.926 421.164 365.785 420.83 365.67C420.607 365.593 420.522 365.48 420.573 365.332C420.637 365.147 420.78 365.092 421.003 365.169C422.56 365.707 423.577 365.768 424.053 365.351C424.542 364.897 425.267 363.279 426.227 360.498L430.108 349.261C431.094 346.405 431.355 344.087 430.89 342.308C430.438 340.492 429.266 339.257 427.375 338.604C425.928 338.104 424.546 338.021 423.227 338.354C421.921 338.651 420.343 339.434 418.493 340.704L411.212 361.788L414.383 362.883C414.605 362.96 414.685 363.091 414.621 363.277C414.569 363.425 414.432 363.461 414.21 363.384C414.136 363.358 413.969 363.301 413.709 363.211C413.45 363.121 412.918 362.917 412.115 362.598C410.854 362.163 409.964 361.855 409.445 361.676C408.939 361.46 408.593 361.319 408.407 361.255C408.296 361.217 408.111 361.153 407.851 361.063C407.591 360.974 407.121 360.832 406.441 360.639Z" fill="#F4001F"/>
<circle cx="437.018" cy="333.285" r="3.99458" transform="rotate(-10.6728 437.018 333.285)" fill="#F4001F"/>
<circle cx="444.869" cy="331.805" r="3.99458" transform="rotate(-10.6728 444.869 331.805)" fill="#F4001F"/>
<path d="M442.823 342.516L448.301 333.841L440.944 332.545L434.562 336.431L442.823 342.516Z" fill="#F4001F"/>
<path d="M429.084 339.563L430.679 336.84C431.406 336.959 431.273 337.107 431.847 337.489C431.137 338.656 430.742 339.363 429.81 340.305L429.084 339.563Z" fill="white"/>
<path d="M416.358 346.79L416.889 345.255C417.628 344.773 418.193 344.559 418.193 344.559L417.385 346.899L416.358 346.79Z" fill="white"/>
</g>
<defs>
<filter id="filter0_d_903_315" x="8.92847" y="276.654" width="38.5251" height="51.6568" filterUnits="userSpaceOnUse" color-interpolation-filters="sRGB">
<feFlood flood-opacity="0" result="BackgroundImageFix"/>
<feColorMatrix in="SourceAlpha" type="matrix" values="0 0 0 0 0 0 0 0 0 0 0 0 0 0 0 0 0 0 127 0" result="hardAlpha"/>
<feOffset dx="4" dy="4"/>
<feComposite in2="hardAlpha" operator="out"/>
<feColorMatrix type="matrix" values="0 0 0 0 0 0 0 0 0 0.262745 0 0 0 0 0.552941 0 0 0 1 0"/>
<feBlend mode="normal" in2="BackgroundImageFix" result="effect1_dropShadow_903_315"/>
<feBlend mode="normal" in="SourceGraphic" in2="effect1_dropShadow_903_315" result="shape"/>
</filter>
<filter id="filter1_d_903_315" x="66.8716" y="45.1306" width="493.218" height="431.075" filterUnits="userSpaceOnUse" color-interpolation-filters="sRGB">
<feFlood flood-opacity="0" result="BackgroundImageFix"/>
<feColorMatrix in="SourceAlpha" type="matrix" values="0 0 0 0 0 0 0 0 0 0 0 0 0 0 0 0 0 0 127 0" result="hardAlpha"/>
<feOffset dx="12" dy="12"/>
<feComposite in2="hardAlpha" operator="out"/>
<feColorMatrix type="matrix" values="0 0 0 0 0.956863 0 0 0 0 0 0 0 0 0 0.121569 0 0 0 1 0"/>
<feBlend mode="normal" in2="BackgroundImageFix" result="effect1_dropShadow_903_315"/>
<feBlend mode="normal" in="SourceGraphic" in2="effect1_dropShadow_903_315" result="shape"/>
</filter>
<filter id="filter2_d_903_315" x="389.075" y="314.148" width="67.5015" height="64.0687" filterUnits="userSpaceOnUse" color-interpolation-filters="sRGB">
<feFlood flood-opacity="0" result="BackgroundImageFix"/>
<feColorMatrix in="SourceAlpha" type="matrix" values="0 0 0 0 0 0 0 0 0 0 0 0 0 0 0 0 0 0 127 0" result="hardAlpha"/>
<feOffset dx="1" dy="2"/>
<feComposite in2="hardAlpha" operator="out"/>
<feColorMatrix type="matrix" values="0 0 0 0 0 0 0 0 0 0.262745 0 0 0 0 0.552941 0 0 0 1 0"/>
<feBlend mode="normal" in2="BackgroundImageFix" result="effect1_dropShadow_903_315"/>
<feBlend mode="normal" in="SourceGraphic" in2="effect1_dropShadow_903_315" result="shape"/>
</filter>
</defs>
</svg>
