<svg width="280" height="578" viewBox="0 0 280 578" fill="none" xmlns="http://www.w3.org/2000/svg">
<g filter="url(#filter0_d_903_297)">
<path d="M192.392 24.2385C180.429 4.80486 163.477 6.58112 150.783 16.8169C141.168 24.5695 141.814 47.5534 141.814 47.5534C141.814 47.5534 122.27 45.037 113.388 51.8271C102.208 60.3739 97.8551 79.7792 103.577 86.9846C114.967 101.327 154.647 101.312 169.296 92.8077C183.946 84.303 204.354 43.6722 192.392 24.2385Z" fill="#FBE7F3"/>
<path d="M144.058 47.4911L144.058 47.4912L144.131 50.1155L141.528 49.7802L141.528 49.7802L141.527 49.7801L141.527 49.7801L141.52 49.7792L141.485 49.7749C141.452 49.7709 141.402 49.7649 141.334 49.7571C141.199 49.7415 140.996 49.719 140.732 49.6924C140.203 49.6391 139.43 49.5696 138.474 49.5066C136.557 49.3803 133.916 49.2813 131.014 49.3876C125.055 49.6059 118.589 50.6778 114.752 53.6107C109.662 57.5017 105.999 63.9978 104.318 70.473C103.482 73.6907 103.163 76.809 103.363 79.4859C103.565 82.1912 104.282 84.2624 105.335 85.5884C107.807 88.7011 111.968 91.2027 117.312 93.0152C122.622 94.8164 128.898 95.8674 135.338 96.2223C141.772 96.5768 148.298 96.2327 154.087 95.287C159.91 94.3359 164.837 92.8003 168.169 90.8661C171.431 88.9724 175.232 85.1336 178.94 79.9351C182.617 74.7793 186.083 68.4556 188.738 61.7906C191.396 55.1191 193.21 48.1846 193.65 41.8007C194.091 35.3992 193.14 29.7367 190.48 25.4154C184.777 16.1517 178.112 12.2597 171.646 11.6364C165.087 11.0041 158.242 13.6862 152.192 18.5646C150.204 20.1675 148.627 22.6662 147.411 25.7203C146.203 28.7551 145.416 32.1766 144.911 35.4361C144.408 38.6862 144.194 41.7123 144.106 43.9295C144.063 45.0359 144.051 45.9356 144.05 46.5546C144.049 46.864 144.051 47.1029 144.054 47.262C144.055 47.3416 144.056 47.4012 144.057 47.4396L144.058 47.4813L144.058 47.49L144.058 47.4904L144.058 47.4911Z" stroke="#F4001F" stroke-width="4.49015"/>
</g>
<g filter="url(#filter1_d_903_297)">
<path d="M103.18 287.976C112.44 267.524 120.335 239.965 99.0268 230.121C83.026 222.728 56.2814 241.914 56.2814 241.914C56.2814 241.914 38.673 204.133 18.8667 206.625C3.61149 208.545 -1.57208 220.436 -8.1996 233.758C-25.1424 267.817 15.6796 320.376 35.9018 323.363C56.1239 326.351 91.1466 314.556 103.18 287.976Z" fill="#FBE7F3"/>
<path d="M57.59 243.738L57.5896 243.738L57.5895 243.739L55.3902 245.316L54.2467 242.863L54.2465 242.862L54.2465 242.862L54.245 242.859L54.2371 242.842L54.2024 242.769C54.1709 242.703 54.1227 242.602 54.0585 242.469C53.9299 242.204 53.7367 241.811 53.4828 241.309C52.9747 240.305 52.2242 238.866 51.2614 237.146C49.3325 233.699 46.5672 229.147 43.208 224.686C39.837 220.209 35.9362 215.917 31.7574 212.91C27.5724 209.899 23.324 208.327 19.147 208.853C12.1633 209.731 7.54809 212.845 3.82876 217.346C0.350279 221.555 -2.29991 226.907 -5.28489 232.934C-5.58271 233.536 -5.88387 234.144 -6.18951 234.758C-14.1357 250.732 -8.65717 271.486 1.84159 289.061C7.04594 297.773 13.3803 305.515 19.6152 311.238C25.9297 317.033 31.8576 320.497 36.2299 321.142C45.8218 322.559 59.191 320.475 71.6714 314.719C84.1319 308.972 95.4051 299.706 101.135 287.05C105.736 276.888 109.875 265.207 110.323 254.972C110.546 249.88 109.848 245.278 107.953 241.43C106.079 237.624 102.967 234.414 98.0852 232.159C94.6353 230.565 90.4599 230.342 85.9512 231.062C81.4556 231.779 76.8092 233.405 72.5679 235.296C68.3376 237.181 64.5821 239.298 61.88 240.948C60.5312 241.771 59.4503 242.475 58.7102 242.97C58.3403 243.217 58.0559 243.413 57.8661 243.544C57.7712 243.61 57.7 243.66 57.6536 243.693L57.6027 243.729L57.5916 243.737L57.59 243.738Z" stroke="#F4001F" stroke-width="4.49015"/>
</g>
<g filter="url(#filter2_d_903_297)">
<path d="M232.129 407.617C216.933 375.326 191.762 359.575 156.187 376.099C129.473 388.507 145.818 428.662 145.818 428.662C145.818 428.662 89.437 410.416 70.8018 437.597C56.4485 458.532 80.388 486.626 102.286 497.456C166.863 529.391 221.22 532.396 235.191 523.304C249.163 514.212 251.879 449.583 232.129 407.617Z" fill="#FBE7F3"/>
<path d="M147.898 427.816L149.716 432.283L145.128 430.798L145.127 430.798L145.127 430.798L145.121 430.796L145.095 430.787C145.071 430.78 145.034 430.768 144.983 430.752C144.882 430.72 144.729 430.673 144.527 430.611C144.123 430.488 143.523 430.31 142.749 430.091C141.201 429.654 138.962 429.057 136.213 428.423C130.71 427.154 123.201 425.747 115.14 425.176C107.062 424.604 98.5407 424.879 90.9642 426.903C83.4057 428.922 76.9226 432.64 72.6535 438.867C66.2003 448.279 68.154 459.495 74.8491 470.119C81.536 480.731 92.667 490.194 103.281 495.443C135.378 511.316 164.892 519.977 188.058 523.546C199.644 525.331 209.601 525.837 217.473 525.351C225.433 524.86 230.971 523.372 233.967 521.422C235.246 520.59 236.592 518.977 237.877 516.432C239.147 513.917 240.271 510.66 241.201 506.772C243.059 498.998 244.082 488.941 244.061 477.792C244.018 455.474 239.793 429.174 230.098 408.573C222.625 392.693 212.84 381.191 200.85 375.586C188.943 370.02 174.464 370.085 157.133 378.135C145.059 383.743 142.499 395.614 143.225 406.889C143.586 412.477 144.754 417.721 145.843 421.585C146.386 423.512 146.905 425.083 147.286 426.167C147.477 426.709 147.633 427.128 147.739 427.408C147.793 427.549 147.834 427.654 147.861 427.722L147.891 427.797L147.897 427.813L147.898 427.815L147.898 427.816Z" stroke="#F4001F" stroke-width="4.49015"/>
</g>
<defs>
<filter id="filter0_d_903_297" x="91.8219" y="9.29956" width="104.177" height="98.5423" filterUnits="userSpaceOnUse" color-interpolation-filters="sRGB">
<feFlood flood-opacity="0" result="BackgroundImageFix"/>
<feColorMatrix in="SourceAlpha" type="matrix" values="0 0 0 0 0 0 0 0 0 0 0 0 0 0 0 0 0 0 127 0" result="hardAlpha"/>
<feOffset dx="-9.23792" dy="9.23792"/>
<feComposite in2="hardAlpha" operator="out"/>
<feColorMatrix type="matrix" values="0 0 0 0 0.956863 0 0 0 0 0 0 0 0 0 0.121569 0 0 0 1 0"/>
<feBlend mode="normal" in2="BackgroundImageFix" result="effect1_dropShadow_903_297"/>
<feBlend mode="normal" in="SourceGraphic" in2="effect1_dropShadow_903_297" result="shape"/>
</filter>
<filter id="filter1_d_903_297" x="-25.6909" y="206.507" width="138.299" height="130.779" filterUnits="userSpaceOnUse" color-interpolation-filters="sRGB">
<feFlood flood-opacity="0" result="BackgroundImageFix"/>
<feColorMatrix in="SourceAlpha" type="matrix" values="0 0 0 0 0 0 0 0 0 0 0 0 0 0 0 0 0 0 127 0" result="hardAlpha"/>
<feOffset dx="-13.4705" dy="13.4705"/>
<feComposite in2="hardAlpha" operator="out"/>
<feColorMatrix type="matrix" values="0 0 0 0 0.956863 0 0 0 0 0 0 0 0 0 0.121569 0 0 0 1 0"/>
<feBlend mode="normal" in2="BackgroundImageFix" result="effect1_dropShadow_903_297"/>
<feBlend mode="normal" in="SourceGraphic" in2="effect1_dropShadow_903_297" result="shape"/>
</filter>
<filter id="filter2_d_903_297" x="52.9812" y="369.462" width="193.325" height="171.779" filterUnits="userSpaceOnUse" color-interpolation-filters="sRGB">
<feFlood flood-opacity="0" result="BackgroundImageFix"/>
<feColorMatrix in="SourceAlpha" type="matrix" values="0 0 0 0 0 0 0 0 0 0 0 0 0 0 0 0 0 0 127 0" result="hardAlpha"/>
<feOffset dx="-13.4705" dy="13.4705"/>
<feComposite in2="hardAlpha" operator="out"/>
<feColorMatrix type="matrix" values="0 0 0 0 0.956863 0 0 0 0 0 0 0 0 0 0.121569 0 0 0 1 0"/>
<feBlend mode="normal" in2="BackgroundImageFix" result="effect1_dropShadow_903_297"/>
<feBlend mode="normal" in="SourceGraphic" in2="effect1_dropShadow_903_297" result="shape"/>
</filter>
</defs>
</svg>
