<svg width="409" height="836" viewBox="0 0 409 836" fill="none" xmlns="http://www.w3.org/2000/svg">
<g filter="url(#filter0_d_1266_1032)">
<path d="M109.468 28.4121C97.5057 5.63228 80.5532 7.71438 67.8592 19.7126C58.2448 28.8001 58.8902 55.7415 58.8902 55.7415C58.8902 55.7415 39.3472 52.7918 30.465 60.7511C19.285 70.7695 14.9318 93.5161 20.6538 101.962C32.0438 118.775 71.7234 118.757 86.3729 108.788C101.022 98.8189 121.431 51.192 109.468 28.4121Z" fill="#FBE7F3"/>
<path d="M60.9881 55.5268L60.9881 55.5268L61.0591 58.4922L58.4859 58.1038L58.4857 58.1038L58.4852 58.1037L58.4849 58.1037L58.4775 58.1026L58.4422 58.0975C58.4095 58.0928 58.3588 58.0857 58.2909 58.0765C58.1553 58.0581 57.9512 58.0316 57.6861 58.0003C57.1557 57.9377 56.3822 57.8561 55.4239 57.7821C53.5041 57.6339 50.8598 57.5177 47.9547 57.6424C45.0422 57.7675 41.9176 58.1329 39.0212 58.9251C36.1052 59.7227 33.5639 60.9145 31.6995 62.5852C26.6195 67.1374 22.9447 74.7565 21.2547 82.3874C20.4157 86.1759 20.0907 89.8637 20.2938 93.0473C20.4987 96.2576 21.2278 98.7836 22.3473 100.436C24.8823 104.178 29.1127 107.139 34.4709 109.269C39.8048 111.39 46.0961 112.623 52.5422 113.039C58.9837 113.455 65.5146 113.051 71.3056 111.943C77.1316 110.827 82.0553 109.027 85.3799 106.765C88.6329 104.551 92.4311 100.057 96.1417 93.9589C99.8204 87.9131 103.289 80.4947 105.948 72.6715C108.609 64.8434 110.43 56.6917 110.873 49.1712C111.315 41.6365 110.366 34.9014 107.648 29.7258C101.888 18.7571 95.1326 14.1298 88.5999 13.3916C82.0145 12.6475 75.1756 15.7992 69.1403 21.5037C67.1583 23.3771 65.5762 26.3081 64.354 29.9077C63.141 33.4803 62.3511 37.5071 61.8443 41.341C61.3391 45.1636 61.1244 48.7223 61.0367 51.3298C60.9929 52.6312 60.981 53.6899 60.9799 54.4191C60.9793 54.7836 60.9815 55.0654 60.9838 55.2536C60.9849 55.3477 60.986 55.4184 60.9869 55.4643L60.9878 55.5143L60.9881 55.5251L60.9881 55.5262L60.9881 55.5268Z" stroke="#F4001F" stroke-width="4.49015"/>
</g>
<g filter="url(#filter1_d_1266_1032)">
<path d="M189.808 261.189C199.067 237.215 206.963 204.911 185.655 193.371C169.654 184.706 142.909 207.195 142.909 207.195C142.909 207.195 125.301 162.91 105.495 165.831C90.2394 168.081 85.0559 182.019 78.4283 197.635C61.4855 237.558 102.308 299.168 122.53 302.669C142.752 306.171 177.774 292.346 189.808 261.189Z" fill="#FBE7F3"/>
<path d="M144.307 209.085L144.307 209.085L144.307 209.085L142.119 210.925L140.946 207.976L140.946 207.975L140.944 207.971L140.936 207.951L140.901 207.865C140.869 207.787 140.821 207.668 140.757 207.512C140.628 207.2 140.434 206.739 140.18 206.149C139.671 204.97 138.92 203.283 137.956 201.264C136.025 197.22 133.258 191.881 129.898 186.65C126.524 181.398 122.628 176.376 118.464 172.864C114.306 169.357 110.102 167.533 105.947 168.146C98.9477 169.179 94.2618 172.854 90.4708 178.231C86.9558 183.217 84.2804 189.551 81.3019 196.602C81.0026 197.31 80.7003 198.026 80.3937 198.748C72.3328 217.742 77.9284 242.249 88.4042 262.806C93.613 273.027 99.9478 282.1 106.176 288.8C112.49 295.594 118.384 299.615 122.703 300.363C132.267 302.019 145.644 299.586 158.163 292.818C170.649 286.067 182.022 275.144 187.815 260.144C192.423 248.213 196.594 234.44 197.046 222.339C197.271 216.305 196.564 210.847 194.651 206.292C192.763 201.8 189.655 198.064 184.821 195.447C181.419 193.604 177.273 193.333 172.751 194.179C168.247 195.022 163.589 196.932 159.335 199.155C155.093 201.372 151.327 203.86 148.617 205.799C147.264 206.767 146.179 207.594 145.436 208.177C145.065 208.469 144.779 208.699 144.587 208.854C144.492 208.932 144.42 208.991 144.373 209.03L144.321 209.074L144.309 209.083L144.307 209.085Z" stroke="#F4001F" stroke-width="4.49015"/>
</g>
<g filter="url(#filter2_d_1266_1032)">
<path d="M333.567 611.129C321.361 580.894 302.232 565.545 276.318 579.549C256.858 590.065 270.143 627.577 270.143 627.577C270.143 627.577 227.789 608.875 214.749 633.261C204.705 652.044 223.277 678.712 239.835 689.42C288.665 720.999 329.077 725.605 339.18 717.71C349.282 709.815 349.431 650.422 333.567 611.129Z" fill="#FBE7F3"/>
<path d="M272.133 626.576L274.014 631.888L269.23 629.775L269.229 629.775L269.225 629.773L269.206 629.765L269.124 629.729C269.049 629.697 268.935 629.648 268.784 629.585C268.483 629.459 268.034 629.276 267.456 629.049C266.3 628.596 264.627 627.973 262.577 627.299C258.469 625.949 252.884 624.408 246.926 623.614C240.944 622.817 234.726 622.794 229.294 624.363C223.909 625.917 219.423 628.989 216.559 634.345C212.159 642.572 213.837 652.942 219.175 663.069C224.461 673.098 233.005 682.186 241.009 687.362C265.268 703.05 287.383 712.004 304.621 716.061C313.244 718.091 320.6 718.884 326.364 718.706C332.235 718.524 336.095 717.342 338.043 715.819C338.777 715.245 339.667 713.979 340.54 711.699C341.391 709.473 342.126 706.546 342.702 703.006C343.853 695.935 344.322 686.722 343.984 676.458C343.308 655.918 339.414 631.546 331.613 612.223C325.593 597.312 317.982 586.383 308.946 580.831C300.034 575.355 289.507 574.964 277.13 581.652C272.936 583.919 270.492 587.607 269.159 592.073C267.802 596.619 267.621 601.926 268.052 607.115C268.481 612.277 269.501 617.151 270.422 620.753C270.882 622.548 271.313 624.016 271.628 625.029C271.786 625.536 271.914 625.929 272.002 626.192C272.046 626.323 272.08 626.422 272.102 626.487L272.126 626.558L272.132 626.573L272.133 626.575L272.133 626.576L272.133 626.576Z" stroke="#F4001F" stroke-width="4.49015"/>
</g>
<g filter="url(#filter3_d_1266_1032)">
<path d="M197.912 496.06C217.997 466.467 204.649 435.782 182.207 409.531C154.43 377.038 87.8738 403.612 87.8738 403.612C87.8738 403.612 66.575 352.808 41.118 341.928C9.24924 328.307 -13.0554 349.155 -30.3803 376.721C-62.7533 428.229 13.9079 524.349 36.3661 546.247C58.8243 568.145 177.828 525.653 197.912 496.06Z" fill="#FBE7F3"/>
<path d="M88.6051 405.892L86.8525 406.592L86.0201 404.607L86.02 404.606L86.0198 404.606L86.0176 404.6L86.0074 404.576L85.964 404.474C85.9461 404.432 85.924 404.38 85.8977 404.319C85.8666 404.246 85.8296 404.16 85.7868 404.062C85.6289 403.697 85.3923 403.156 85.0812 402.462C84.4589 401.074 83.5389 399.072 82.3549 396.632C79.9852 391.751 76.5654 385.135 72.3639 378.19C68.1585 371.239 63.1968 364.004 57.7495 357.857C52.2884 351.694 46.4375 346.738 40.4644 344.185C25.0876 337.613 12.1385 339.369 0.904587 346.033C-10.4189 352.749 -20.1072 364.521 -28.6954 378.185C-36.3535 390.37 -37.6485 405.287 -34.7419 421.445C-31.8289 437.639 -24.7222 454.881 -15.8273 471.358C1.96457 504.316 26.5871 533.624 37.6625 544.423C40.0121 546.714 43.8564 548.355 49.1454 549.206C54.3852 550.05 60.7923 550.08 68.0216 549.405C82.4739 548.054 99.9448 543.911 117.401 538.144C134.85 532.38 152.207 525.02 166.426 517.278C180.751 509.479 191.564 501.463 196.271 494.528C205.914 480.32 207.466 466.038 204.02 452.136C200.534 438.07 191.878 424.198 180.766 411.2C174.241 403.568 165.344 399.294 155.459 397.27C145.578 395.246 134.867 395.503 124.921 396.78C114.987 398.055 105.897 400.336 99.2838 402.302C95.98 403.284 93.3011 404.185 91.452 404.839C90.5276 405.166 89.811 405.432 89.3279 405.614C89.0864 405.705 88.9033 405.776 88.7818 405.823C88.721 405.847 88.6757 405.864 88.6461 405.876L88.6137 405.889L88.6065 405.892L88.6053 405.892L88.6051 405.892Z" stroke="#F4001F" stroke-width="4.49015"/>
</g>
<g filter="url(#filter4_d_1266_1032)">
<path d="M-20.4917 782.063L2.03252 786.92C3.49956 787.236 5.02905 786.824 6.13913 785.814L49.6509 746.228C52.5191 743.618 51.1184 738.851 47.2945 738.208L23.7796 734.253C22.3734 734.016 20.9364 734.439 19.8816 735.398L-22.6395 774.083C-25.4353 776.627 -24.1865 781.267 -20.4917 782.063Z" fill="#FBE7F3"/>
<path d="M7.85684 812.231L5.14543 789.349C4.96883 787.859 5.52284 786.375 6.63292 785.365L50.1447 745.779C53.0129 743.169 57.627 745.013 57.9068 748.881L59.6276 772.664C59.7305 774.086 59.1747 775.477 58.1199 776.436L15.5988 815.121C12.803 817.665 8.30162 815.984 7.85684 812.231Z" fill="#FBE7F3"/>
<line x1="-0.294076" y1="791.241" x2="344.457" y2="477.591" stroke="#FF7E55" stroke-width="4.64699"/>
<mask id="mask0_1266_1032" style="mask-type:luminance" maskUnits="userSpaceOnUse" x="283" y="414" width="118" height="134">
<path d="M338.634 547.112L283.5 477.916L345.264 414.443L400.397 483.64L338.634 547.112Z" fill="white"/>
</mask>
<g mask="url(#mask0_1266_1032)">
<path d="M354.2 520.903C339.914 535.584 316.96 518.863 328.065 495.048C306.093 505.224 293.728 477.621 308.015 462.94C323.537 446.989 366.31 455.747 366.31 455.747C366.31 455.747 369.722 504.952 354.2 520.903Z" fill="#F4001F"/>
</g>
</g>
<defs>
<filter id="filter0_d_1266_1032" x="8.8988" y="10.9014" width="104.176" height="113.919" filterUnits="userSpaceOnUse" color-interpolation-filters="sRGB">
<feFlood flood-opacity="0" result="BackgroundImageFix"/>
<feColorMatrix in="SourceAlpha" type="matrix" values="0 0 0 0 0 0 0 0 0 0 0 0 0 0 0 0 0 0 127 0" result="hardAlpha"/>
<feOffset dx="-9.23792" dy="9.23792"/>
<feComposite in2="hardAlpha" operator="out"/>
<feColorMatrix type="matrix" values="0 0 0 0 0.956863 0 0 0 0 0 0 0 0 0 0.121569 0 0 0 1 0"/>
<feBlend mode="normal" in2="BackgroundImageFix" result="effect1_dropShadow_1266_1032"/>
<feBlend mode="normal" in="SourceGraphic" in2="effect1_dropShadow_1266_1032" result="shape"/>
</filter>
<filter id="filter1_d_1266_1032" x="60.9373" y="165.692" width="138.299" height="150.978" filterUnits="userSpaceOnUse" color-interpolation-filters="sRGB">
<feFlood flood-opacity="0" result="BackgroundImageFix"/>
<feColorMatrix in="SourceAlpha" type="matrix" values="0 0 0 0 0 0 0 0 0 0 0 0 0 0 0 0 0 0 127 0" result="hardAlpha"/>
<feOffset dx="-13.4705" dy="13.4705"/>
<feComposite in2="hardAlpha" operator="out"/>
<feColorMatrix type="matrix" values="0 0 0 0 0.956863 0 0 0 0 0 0 0 0 0 0.121569 0 0 0 1 0"/>
<feBlend mode="normal" in2="BackgroundImageFix" result="effect1_dropShadow_1266_1032"/>
<feBlend mode="normal" in="SourceGraphic" in2="effect1_dropShadow_1266_1032" result="shape"/>
</filter>
<filter id="filter2_d_1266_1032" x="198.44" y="574.322" width="147.779" height="160.235" filterUnits="userSpaceOnUse" color-interpolation-filters="sRGB">
<feFlood flood-opacity="0" result="BackgroundImageFix"/>
<feColorMatrix in="SourceAlpha" type="matrix" values="0 0 0 0 0 0 0 0 0 0 0 0 0 0 0 0 0 0 127 0" result="hardAlpha"/>
<feOffset dx="-13.4705" dy="13.4705"/>
<feComposite in2="hardAlpha" operator="out"/>
<feColorMatrix type="matrix" values="0 0 0 0 0.956863 0 0 0 0 0 0 0 0 0 0.121569 0 0 0 1 0"/>
<feBlend mode="normal" in2="BackgroundImageFix" result="effect1_dropShadow_1266_1032"/>
<feBlend mode="normal" in="SourceGraphic" in2="effect1_dropShadow_1266_1032" result="shape"/>
</filter>
<filter id="filter3_d_1266_1032" x="-45.6652" y="337.646" width="253.426" height="222.066" filterUnits="userSpaceOnUse" color-interpolation-filters="sRGB">
<feFlood flood-opacity="0" result="BackgroundImageFix"/>
<feColorMatrix in="SourceAlpha" type="matrix" values="0 0 0 0 0 0 0 0 0 0 0 0 0 0 0 0 0 0 127 0" result="hardAlpha"/>
<feOffset dx="-7.4259" dy="7.4259"/>
<feComposite in2="hardAlpha" operator="out"/>
<feColorMatrix type="matrix" values="0 0 0 0 0.956863 0 0 0 0 0 0 0 0 0 0.121569 0 0 0 1 0"/>
<feBlend mode="normal" in2="BackgroundImageFix" result="effect1_dropShadow_1266_1032"/>
<feBlend mode="normal" in="SourceGraphic" in2="effect1_dropShadow_1266_1032" result="shape"/>
</filter>
<filter id="filter4_d_1266_1032" x="-24.1626" y="453.348" width="395.438" height="367.636" filterUnits="userSpaceOnUse" color-interpolation-filters="sRGB">
<feFlood flood-opacity="0" result="BackgroundImageFix"/>
<feColorMatrix in="SourceAlpha" type="matrix" values="0 0 0 0 0 0 0 0 0 0 0 0 0 0 0 0 0 0 127 0" result="hardAlpha"/>
<feOffset dx="4.64699" dy="4.64699"/>
<feComposite in2="hardAlpha" operator="out"/>
<feColorMatrix type="matrix" values="0 0 0 0 0 0 0 0 0 0.262745 0 0 0 0 0.552941 0 0 0 1 0"/>
<feBlend mode="normal" in2="BackgroundImageFix" result="effect1_dropShadow_1266_1032"/>
<feBlend mode="normal" in="SourceGraphic" in2="effect1_dropShadow_1266_1032" result="shape"/>
</filter>
</defs>
</svg>
