<svg width="344" height="604" viewBox="0 0 344 604" fill="none" xmlns="http://www.w3.org/2000/svg">
<g filter="url(#filter0_d_559_136)">
<path d="M89.4683 24.2384C77.5057 4.80474 60.5532 6.581 47.8592 16.8168C38.2448 24.5694 38.8902 47.5533 38.8902 47.5533C38.8902 47.5533 19.3472 45.0369 10.465 51.827C-0.714969 60.3738 -5.0682 79.7791 0.653775 86.9845C12.0438 101.327 51.7234 101.312 66.3729 92.8076C81.0223 84.3029 101.431 43.6721 89.4683 24.2384Z" fill="#FBE7F3"/>
<path d="M41.1345 47.491L41.1345 47.4911L41.2082 50.1154L38.6044 49.7801L38.6042 49.7801L38.6035 49.78L38.6035 49.78L38.5964 49.7791L38.5615 49.7748C38.5291 49.7708 38.4787 49.7648 38.4112 49.757C38.2761 49.7414 38.0727 49.7189 37.8083 49.6922C37.2792 49.639 36.5071 49.5695 35.5503 49.5064C33.6334 49.3802 30.9925 49.2811 28.0906 49.3874C22.1318 49.6057 15.6652 50.6776 11.8285 53.6106C6.73871 57.5016 3.07518 63.9976 1.39421 70.4729C0.558908 73.6905 0.239238 76.8089 0.43946 79.4858C0.64181 82.1911 1.3589 84.2623 2.41191 85.5883C4.88377 88.7009 9.04489 91.2026 14.3886 93.0151C19.6991 94.8163 25.9743 95.8673 32.4146 96.2222C38.8484 96.5767 45.3746 96.2326 51.1638 95.2869C56.9864 94.3357 61.914 92.8002 65.2457 90.866C68.5077 88.9722 72.3084 85.1335 76.0162 79.9349C79.6936 74.7791 83.1592 68.4554 85.8145 61.7905C88.4723 55.119 90.2868 48.1845 90.7267 41.8006C91.1678 35.3991 90.2165 29.7366 87.5565 25.4153C81.8541 16.1516 75.1885 12.2596 68.7226 11.6363C62.1637 11.004 55.3184 13.686 49.2684 18.5645C47.2806 20.1674 45.7032 22.666 44.4876 25.7202C43.2798 28.7549 42.493 32.1764 41.9879 35.436C41.4843 38.6861 41.2703 41.7122 41.1829 43.9294C41.1393 45.0358 41.1274 45.9355 41.1264 46.5545C41.1258 46.8639 41.128 47.1028 41.1302 47.2619C41.1313 47.3415 41.1324 47.4011 41.1333 47.4395L41.1342 47.4812L41.1344 47.4899L41.1344 47.4903L41.1345 47.491Z" stroke="#F4001F" stroke-width="4.49015"/>
</g>
<g filter="url(#filter1_d_559_136)">
<path d="M169.809 222.823C179.068 202.371 186.963 174.812 165.655 164.968C149.654 157.575 122.91 176.761 122.91 176.761C122.91 176.761 105.301 138.98 85.4951 141.472C70.2399 143.392 65.0563 155.283 58.4288 168.605C41.486 202.664 82.308 255.223 102.53 258.21C122.752 261.198 157.775 249.403 169.809 222.823Z" fill="#FBE7F3"/>
<path d="M124.218 178.585L124.218 178.585L124.218 178.586L122.019 180.163L120.875 177.71L120.875 177.709L120.875 177.709L120.873 177.706L120.865 177.689L120.831 177.616C120.799 177.55 120.751 177.449 120.687 177.316C120.558 177.051 120.365 176.658 120.111 176.156C119.603 175.152 118.853 173.714 117.89 171.993C115.961 168.546 113.196 163.994 109.836 159.533C106.465 155.056 102.565 150.764 98.3858 147.757C94.2009 144.746 89.9524 143.174 85.7754 143.7C78.7917 144.579 74.1765 147.692 70.4572 152.193C66.9787 156.402 64.3285 161.754 61.3435 167.781C61.0457 168.383 60.7445 168.991 60.4389 169.605C52.4927 185.579 57.9713 206.333 68.47 223.908C73.6744 232.62 80.0087 240.362 86.2436 246.085C92.5581 251.88 98.486 255.344 102.858 255.989C112.45 257.406 125.819 255.322 138.3 249.566C150.76 243.819 162.033 234.553 167.763 221.897C172.364 211.735 176.503 200.054 176.952 189.819C177.175 184.727 176.477 180.125 174.582 176.277C172.707 172.471 169.595 169.261 164.714 167.006C161.264 165.412 157.088 165.189 152.58 165.909C148.084 166.626 143.438 168.252 139.196 170.143C134.966 172.029 131.21 174.145 128.508 175.795C127.16 176.618 126.079 177.322 125.339 177.817C124.969 178.064 124.684 178.26 124.494 178.391C124.4 178.457 124.328 178.507 124.282 178.54L124.231 178.576L124.22 178.584L124.218 178.585Z" stroke="#F4001F" stroke-width="4.49015"/>
</g>
<g filter="url(#filter2_d_559_136)">
<path d="M306.309 473.281C294.103 447.488 274.974 434.394 249.06 446.34C229.6 455.311 242.886 487.313 242.886 487.313C242.886 487.313 200.531 471.358 187.491 492.162C177.448 508.186 196.019 530.937 212.577 540.072C261.407 567.012 301.819 570.942 311.922 564.207C322.024 557.471 322.173 506.803 306.309 473.281Z" fill="#FBE7F3"/>
<path d="M244.959 486.453L244.96 486.453L246.948 491.242L242.095 489.414L242.094 489.414L242.094 489.414L242.091 489.413L242.072 489.406L241.99 489.375C241.916 489.348 241.803 489.307 241.653 489.253C241.352 489.146 240.905 488.99 240.329 488.797C239.175 488.412 237.505 487.881 235.458 487.307C231.356 486.156 225.778 484.843 219.825 484.167C213.852 483.488 207.63 483.467 202.185 484.808C196.771 486.141 192.26 488.782 189.393 493.355C185.046 500.29 186.691 508.978 191.968 517.52C197.21 526.005 205.7 533.714 213.662 538.106C237.896 551.477 259.991 559.108 277.214 562.567C285.83 564.297 293.182 564.974 298.945 564.821C304.807 564.666 308.695 563.66 310.677 562.339C311.434 561.834 312.321 560.745 313.183 558.822C314.029 556.938 314.759 554.457 315.332 551.451C316.478 545.446 316.947 537.612 316.609 528.875C315.934 511.386 312.048 490.656 304.28 474.241C298.286 461.575 290.729 452.336 281.783 447.647C272.95 443.017 262.431 442.648 250 448.379C241.669 452.219 240.04 461.045 240.91 469.973C241.335 474.342 242.348 478.473 243.264 481.528C243.721 483.05 244.149 484.294 244.462 485.152C244.618 485.58 244.745 485.912 244.832 486.133C244.875 486.244 244.908 486.327 244.93 486.381L244.954 486.439L244.959 486.451L244.959 486.452L244.959 486.453Z" stroke="#F4001F" stroke-width="4.49015"/>
</g>
<g filter="url(#filter3_d_559_136)">
<path d="M181.954 431.656C206.928 411.362 202.082 386.168 188.02 363.275C170.614 334.938 104.539 347.267 104.539 347.267C104.539 347.267 97.2352 305.651 76.8734 294.2C51.383 279.865 26.4525 293.171 4.43381 312.242C-36.7099 347.879 9.82207 431.034 24.915 450.585C40.0078 470.136 156.98 451.95 181.954 431.656Z" fill="#FBE7F3"/>
<path d="M104.951 349.474L102.72 349.89L102.328 347.655L102.328 347.655L102.327 347.651L102.324 347.632L102.309 347.55C102.296 347.476 102.275 347.364 102.247 347.216C102.19 346.919 102.104 346.478 101.987 345.91C101.752 344.774 101.394 343.131 100.9 341.121C99.9107 337.098 98.3846 331.623 96.236 325.806C94.0844 319.98 91.3288 313.867 87.8986 308.538C84.458 303.193 80.425 298.773 75.7729 296.157C63.6431 289.335 51.6972 289.078 40.0397 292.831C28.2909 296.613 16.824 304.481 5.90369 313.939C-13.5617 330.8 -12.6111 359.211 -4.26545 386.796C4.0246 414.197 19.2957 439.632 26.6921 449.213C28.1358 451.083 31.0464 452.767 35.5858 454.058C40.0561 455.329 45.7786 456.128 52.4285 456.487C65.7179 457.204 82.3837 456.146 99.4275 453.837C116.461 451.53 133.786 447.986 148.379 443.768C163.077 439.519 174.677 434.676 180.538 429.914C192.562 420.144 197.238 409.377 197.381 398.411C197.525 387.317 193.032 375.724 186.107 364.45C182.137 357.987 175.297 353.69 166.935 350.953C158.581 348.218 148.931 347.116 139.697 346.889C130.481 346.662 121.784 347.309 115.381 348.015C112.184 348.367 109.566 348.734 107.752 349.012C106.845 349.151 106.14 349.267 105.664 349.348C105.425 349.389 105.245 349.421 105.125 349.442C105.065 349.453 105.02 349.461 104.991 349.467L104.959 349.472L104.952 349.474L104.951 349.474L104.951 349.474Z" stroke="#F4001F" stroke-width="4.49015"/>
</g>
<defs>
<filter id="filter0_d_559_136" x="-11.1012" y="9.29932" width="104.176" height="98.5424" filterUnits="userSpaceOnUse" color-interpolation-filters="sRGB">
<feFlood flood-opacity="0" result="BackgroundImageFix"/>
<feColorMatrix in="SourceAlpha" type="matrix" values="0 0 0 0 0 0 0 0 0 0 0 0 0 0 0 0 0 0 127 0" result="hardAlpha"/>
<feOffset dx="-9.23792" dy="9.23792"/>
<feComposite in2="hardAlpha" operator="out"/>
<feColorMatrix type="matrix" values="0 0 0 0 0.956863 0 0 0 0 0 0 0 0 0 0.121569 0 0 0 1 0"/>
<feBlend mode="normal" in2="BackgroundImageFix" result="effect1_dropShadow_559_136"/>
<feBlend mode="normal" in="SourceGraphic" in2="effect1_dropShadow_559_136" result="shape"/>
</filter>
<filter id="filter1_d_559_136" x="40.9377" y="141.354" width="138.299" height="130.779" filterUnits="userSpaceOnUse" color-interpolation-filters="sRGB">
<feFlood flood-opacity="0" result="BackgroundImageFix"/>
<feColorMatrix in="SourceAlpha" type="matrix" values="0 0 0 0 0 0 0 0 0 0 0 0 0 0 0 0 0 0 127 0" result="hardAlpha"/>
<feOffset dx="-13.4705" dy="13.4705"/>
<feComposite in2="hardAlpha" operator="out"/>
<feColorMatrix type="matrix" values="0 0 0 0 0.956863 0 0 0 0 0 0 0 0 0 0.121569 0 0 0 1 0"/>
<feBlend mode="normal" in2="BackgroundImageFix" result="effect1_dropShadow_559_136"/>
<feBlend mode="normal" in="SourceGraphic" in2="effect1_dropShadow_559_136" result="shape"/>
</filter>
<filter id="filter2_d_559_136" x="171.182" y="441.881" width="147.779" height="138.676" filterUnits="userSpaceOnUse" color-interpolation-filters="sRGB">
<feFlood flood-opacity="0" result="BackgroundImageFix"/>
<feColorMatrix in="SourceAlpha" type="matrix" values="0 0 0 0 0 0 0 0 0 0 0 0 0 0 0 0 0 0 127 0" result="hardAlpha"/>
<feOffset dx="-13.4705" dy="13.4705"/>
<feComposite in2="hardAlpha" operator="out"/>
<feColorMatrix type="matrix" values="0 0 0 0 0.956863 0 0 0 0 0 0 0 0 0 0.121569 0 0 0 1 0"/>
<feBlend mode="normal" in2="BackgroundImageFix" result="effect1_dropShadow_559_136"/>
<feBlend mode="normal" in="SourceGraphic" in2="effect1_dropShadow_559_136" result="shape"/>
</filter>
<filter id="filter3_d_559_136" x="-19.5729" y="288.168" width="219.202" height="178.212" filterUnits="userSpaceOnUse" color-interpolation-filters="sRGB">
<feFlood flood-opacity="0" result="BackgroundImageFix"/>
<feColorMatrix in="SourceAlpha" type="matrix" values="0 0 0 0 0 0 0 0 0 0 0 0 0 0 0 0 0 0 127 0" result="hardAlpha"/>
<feOffset dx="-7.4259" dy="7.4259"/>
<feComposite in2="hardAlpha" operator="out"/>
<feColorMatrix type="matrix" values="0 0 0 0 0.956863 0 0 0 0 0 0 0 0 0 0.121569 0 0 0 1 0"/>
<feBlend mode="normal" in2="BackgroundImageFix" result="effect1_dropShadow_559_136"/>
<feBlend mode="normal" in="SourceGraphic" in2="effect1_dropShadow_559_136" result="shape"/>
</filter>
</defs>
</svg>
