<svg width="128" height="29" viewBox="0 0 128 29" fill="none" xmlns="http://www.w3.org/2000/svg">
<g id="Group 46">
<g id="Group 42">
<rect id="Rectangle 452" x="0.929199" y="5.96094" width="5.69315" height="5.69315" fill="#FDA4AF"/>
<rect id="Rectangle 453" x="6.62256" y="5.96094" width="5.69315" height="5.69315" fill="#FDA4AF"/>
<rect id="Rectangle 459" x="6.62256" y="0.267578" width="5.69315" height="5.69315" fill="#FDA4AF"/>
<rect id="Rectangle 460" x="12.3154" y="0.267578" width="5.69315" height="5.69315" fill="#FDA4AF"/>
<rect id="Rectangle 461" x="23.7017" y="0.267578" width="5.69315" height="5.69315" fill="#FDA4AF"/>
<rect id="Rectangle 462" x="29.395" y="0.267578" width="5.69315" height="5.69315" fill="#FDA4AF"/>
<rect id="Rectangle 463" x="6.62256" y="11.6543" width="5.69315" height="5.69315" fill="#FDA4AF"/>
<rect id="Rectangle 468" x="12.3154" y="17.3467" width="5.69315" height="5.69315" fill="#FDA4AF"/>
<rect id="Rectangle 469" x="18.0088" y="23.04" width="5.69315" height="5.69315" fill="#FDA4AF"/>
<rect id="Rectangle 470" x="23.7017" y="17.3467" width="5.69315" height="5.69315" fill="#FDA4AF"/>
<rect id="Rectangle 471" x="18.0088" y="17.3467" width="5.69315" height="5.69315" fill="#FDA4AF"/>
<rect id="Rectangle 464" x="12.3154" y="11.6543" width="5.69315" height="5.69315" fill="#FDA4AF"/>
<rect id="Rectangle 465" x="18.0088" y="11.6543" width="5.69315" height="5.69315" fill="#FDA4AF"/>
<rect id="Rectangle 466" x="23.7017" y="11.6543" width="5.69315" height="5.69315" fill="#FDA4AF"/>
<rect id="Rectangle 467" x="29.395" y="11.6543" width="5.69315" height="5.69315" fill="#FDA4AF"/>
<rect id="Rectangle 454" x="12.3154" y="5.96094" width="5.69315" height="5.69315" fill="#FDA4AF"/>
<rect id="Rectangle 455" x="18.0088" y="5.96094" width="5.69315" height="5.69315" fill="#FDA4AF"/>
<rect id="Rectangle 456" x="23.7017" y="5.96094" width="5.69315" height="5.69315" fill="#FDA4AF"/>
<rect id="Rectangle 457" x="29.395" y="5.96094" width="5.69315" height="5.69315" fill="#FDA4AF"/>
<rect id="Rectangle 458" x="35.0884" y="5.96094" width="5.69315" height="5.69315" fill="#FDA4AF"/>
</g>
<g id="Group 43">
<rect id="Rectangle 452_2" x="44.5391" y="5.96094" width="5.69315" height="5.69315" fill="#FDA4AF"/>
<rect id="Rectangle 453_2" x="50.2324" y="5.96094" width="5.69315" height="5.69315" fill="#FDA4AF"/>
<rect id="Rectangle 459_2" x="50.2324" y="0.267578" width="5.69315" height="5.69315" fill="#FDA4AF"/>
<rect id="Rectangle 460_2" x="55.9253" y="0.267578" width="5.69315" height="5.69315" fill="#FDA4AF"/>
<rect id="Rectangle 461_2" x="67.3115" y="0.267578" width="5.69315" height="5.69315" fill="#FDA4AF"/>
<rect id="Rectangle 462_2" x="73.0049" y="0.267578" width="5.69315" height="5.69315" fill="#FDA4AF"/>
<rect id="Rectangle 463_2" x="50.2324" y="11.6543" width="5.69315" height="5.69315" fill="#FDA4AF"/>
<rect id="Rectangle 468_2" x="55.9253" y="17.3467" width="5.69315" height="5.69315" fill="#FDA4AF"/>
<rect id="Rectangle 469_2" x="61.6187" y="23.04" width="5.69315" height="5.69315" fill="#FDA4AF"/>
<rect id="Rectangle 470_2" x="67.3115" y="17.3467" width="5.69315" height="5.69315" fill="#FDA4AF"/>
<rect id="Rectangle 471_2" x="61.6187" y="17.3467" width="5.69315" height="5.69315" fill="#FDA4AF"/>
<rect id="Rectangle 464_2" x="55.9253" y="11.6543" width="5.69315" height="5.69315" fill="#FDA4AF"/>
<rect id="Rectangle 465_2" x="61.6187" y="11.6543" width="5.69315" height="5.69315" fill="#FDA4AF"/>
<rect id="Rectangle 466_2" x="67.3115" y="11.6543" width="5.69315" height="5.69315" fill="#FDA4AF"/>
<rect id="Rectangle 467_2" x="73.0049" y="11.6543" width="5.69315" height="5.69315" fill="#FDA4AF"/>
<rect id="Rectangle 454_2" x="55.9253" y="5.96094" width="5.69315" height="5.69315" fill="#FDA4AF"/>
<rect id="Rectangle 455_2" x="61.6187" y="5.96094" width="5.69315" height="5.69315" fill="#FDA4AF"/>
<rect id="Rectangle 456_2" x="67.3115" y="5.96094" width="5.69315" height="5.69315" fill="#FDA4AF"/>
<rect id="Rectangle 457_2" x="73.0049" y="5.96094" width="5.69315" height="5.69315" fill="#FDA4AF"/>
<rect id="Rectangle 458_2" x="78.6978" y="5.96094" width="5.69315" height="5.69315" fill="#FDA4AF"/>
</g>
<g id="Group 44">
<rect id="Rectangle 452_3" x="88.1484" y="5.96094" width="5.69315" height="5.69315" fill="#FDA4AF"/>
<rect id="Rectangle 453_3" x="93.8413" y="5.96094" width="5.69315" height="5.69315" fill="#FDA4AF"/>
<rect id="Rectangle 459_3" x="93.8413" y="0.267578" width="5.69315" height="5.69315" fill="#FDA4AF"/>
<rect id="Rectangle 460_3" x="99.5347" y="0.267578" width="5.69315" height="5.69315" fill="#FDA4AF"/>
<rect id="Rectangle 461_3" x="110.921" y="0.267578" width="5.69315" height="5.69315" fill="#FDA4AF"/>
<rect id="Rectangle 462_3" x="116.614" y="0.267578" width="5.69315" height="5.69315" fill="#FDA4AF"/>
<rect id="Rectangle 463_3" x="93.8413" y="11.6543" width="5.69315" height="5.69315" fill="#FDA4AF"/>
<rect id="Rectangle 468_3" x="99.5347" y="17.3467" width="5.69315" height="5.69315" fill="#FDA4AF"/>
<rect id="Rectangle 469_3" x="105.228" y="23.04" width="5.69315" height="5.69315" fill="#FDA4AF"/>
<rect id="Rectangle 470_3" x="110.921" y="17.3467" width="5.69315" height="5.69315" fill="#FDA4AF"/>
<rect id="Rectangle 471_3" x="105.228" y="17.3467" width="5.69315" height="5.69315" fill="#FDA4AF"/>
<rect id="Rectangle 464_3" x="99.5347" y="11.6543" width="5.69315" height="5.69315" fill="#FDA4AF"/>
<rect id="Rectangle 465_3" x="105.228" y="11.6543" width="5.69315" height="5.69315" fill="#FDA4AF"/>
<rect id="Rectangle 466_3" x="110.921" y="11.6543" width="5.69315" height="5.69315" fill="#FDA4AF"/>
<rect id="Rectangle 467_3" x="116.614" y="11.6543" width="5.69315" height="5.69315" fill="#FDA4AF"/>
<rect id="Rectangle 454_3" x="99.5347" y="5.96094" width="5.69315" height="5.69315" fill="#FDA4AF"/>
<rect id="Rectangle 455_3" x="105.228" y="5.96094" width="5.69315" height="5.69315" fill="#FDA4AF"/>
<rect id="Rectangle 456_3" x="110.921" y="5.96094" width="5.69315" height="5.69315" fill="#FDA4AF"/>
<rect id="Rectangle 457_3" x="116.614" y="5.96094" width="5.69315" height="5.69315" fill="#FDA4AF"/>
<rect id="Rectangle 458_3" x="122.307" y="5.96094" width="5.69315" height="5.69315" fill="#FDA4AF"/>
</g>
</g>
</svg>
