<svg width="226" height="158" viewBox="0 0 226 158" fill="none" xmlns="http://www.w3.org/2000/svg">
<g id="Logo">
<path id="p" d="M114.541 45.8166C114.541 62.9043 108.734 77.0551 97.1199 88.269C85.5056 99.4828 71.0878 105.09 53.8665 105.09C50.6626 105.09 47.5921 104.756 44.6551 104.089C41.7182 103.555 38.7812 102.62 35.8443 101.285V155.752H50.0618C50.8628 155.752 51.2633 156.019 51.2633 156.553C51.2633 157.221 50.8628 157.555 50.0618 157.555C49.7948 157.555 49.0606 157.555 47.8591 157.555C46.7911 157.555 44.4549 157.488 40.8504 157.354C34.9765 157.354 30.9048 157.288 28.6354 157.154C26.4994 157.154 25.0977 157.154 24.4302 157.154C24.0297 157.154 23.2954 157.154 22.2274 157.154C21.1595 157.154 19.157 157.221 16.22 157.354C11.6811 157.354 8.34363 157.354 6.20766 157.354C4.07169 157.488 2.40297 157.555 1.20148 157.555C0.400494 157.555 0 157.221 0 156.553C0 156.019 0.400494 155.752 1.20148 155.752C8.14339 155.752 12.3486 154.551 13.8171 152.148C15.419 149.745 16.22 143.137 16.22 132.323V28.7955C16.22 25.1911 16.0865 22.3876 15.8195 20.3852C15.5525 18.2492 15.0853 16.6472 14.4178 15.5792C13.6168 14.3778 12.4821 13.6435 11.0136 13.3765C9.67862 12.976 6.74166 13.1763 2.20272 13.9773C1.26823 14.1108 0.800989 13.9105 0.800989 13.3765C0.800989 12.709 1.26823 12.3085 2.20272 12.175C5.80717 11.7745 10.1459 10.5731 15.2188 8.57058C20.2917 6.56811 26.0321 3.76465 32.4401 0.160201C32.8405 -0.106799 33.508 -0.0400512 34.4425 0.360446C35.5105 0.760935 36.0445 1.16143 36.0445 1.56193V21.7869C41.1174 14.9785 46.9246 9.83881 53.466 6.36786C60.1409 2.76341 67.2163 0.96118 74.6922 0.96118C86.3066 0.96118 95.8517 5.23312 103.328 13.777C110.803 22.1874 114.541 32.8672 114.541 45.8166ZM94.3164 54.8277C94.3164 41.2109 91.3795 30.1973 85.5056 21.7869C79.7652 13.243 72.0223 8.97107 62.2769 8.97107C57.471 8.97107 52.7318 10.3061 48.0593 12.976C43.5204 15.646 39.5155 19.3839 36.0445 24.1899V85.4655C40.3164 90.672 44.7886 94.6101 49.4611 97.2801C54.1335 99.8166 59.0062 101.085 64.0791 101.085C73.958 101.085 81.4339 97.1466 86.5068 89.2702C91.7132 81.3938 94.3164 69.913 94.3164 54.8277Z" fill="#FBE7F3"/>
<path id="m" d="M62.6101 157.06C58.8721 157.193 56.0687 157.26 54.1997 157.26C52.4642 157.26 50.9957 157.26 49.7943 157.26C48.9933 157.26 48.5928 156.993 48.5928 156.459C48.5928 155.791 48.9933 155.458 49.7943 155.458C54.3332 155.458 57.0699 154.256 58.0044 151.853C58.9389 149.317 59.4061 143.176 59.4061 133.43V83.5689C59.4061 81.2994 58.6719 78.9632 57.2034 76.5602C55.7349 74.0238 53.3987 71.2871 50.1948 68.3501C49.9278 68.0831 49.7943 67.8829 49.7943 67.7494C49.7943 67.4824 49.9278 67.2821 50.1948 67.1486C52.7312 66.2141 56.2689 64.5454 60.8079 62.1424C65.3468 59.606 68.3505 57.6035 69.819 56.135C70.086 55.868 70.2862 55.8013 70.4197 55.9348C70.5532 55.9348 70.7535 56.0683 71.0205 56.3353C73.1564 58.3378 75.0254 61.4082 76.6274 65.5466C78.2294 69.6851 79.0304 73.69 79.0304 77.5615C84.7708 69.6851 90.5112 64.0114 96.2516 60.5405C101.992 56.936 108.266 55.1338 115.075 55.1338C122.951 55.1338 129.493 57.0695 134.699 60.941C139.906 64.8124 143.376 70.3526 145.112 77.5615C150.852 69.8186 156.66 64.1449 162.533 60.5405C168.407 56.936 174.749 55.1338 181.557 55.1338C192.237 55.1338 200.313 58.538 205.787 65.3464C211.394 72.1548 214.197 82.2339 214.197 95.5837V144.244C214.197 149.45 214.731 152.654 215.799 153.856C216.867 155.057 219.604 155.591 224.009 155.458C224.81 155.458 225.211 155.791 225.211 156.459C225.211 156.993 224.81 157.26 224.009 157.26C223.342 157.26 222.341 157.26 221.006 157.26C219.804 157.26 217.601 157.193 214.397 157.06C210.126 156.926 207.055 156.859 205.186 156.859C203.451 156.859 202.049 156.859 200.981 156.859C200.58 156.859 199.913 156.859 198.978 156.859C198.044 156.859 196.442 156.926 194.173 157.06C190.435 157.193 187.698 157.26 185.962 157.26C184.227 157.26 182.758 157.26 181.557 157.26C180.756 157.26 180.355 156.993 180.355 156.459C180.355 155.791 180.756 155.458 181.557 155.458C187.564 155.458 191.169 154.456 192.37 152.454C193.572 150.318 194.173 144.377 194.173 134.632V94.182C194.173 84.0361 192.237 76.2932 188.365 70.9533C184.494 65.6134 179.02 62.9434 171.945 62.9434C166.872 62.9434 162.467 64.0782 158.729 66.3476C154.991 68.6171 150.719 73.0893 145.913 79.7642V144.244C145.913 148.916 146.514 151.987 147.715 153.455C149.05 154.924 152.187 155.591 157.127 155.458C157.928 155.458 158.328 155.791 158.328 156.459C158.328 156.993 157.928 157.26 157.127 157.26C156.86 157.26 156.192 157.26 155.124 157.26C154.056 157.26 151.92 157.193 148.716 157.06C143.51 157.06 139.839 157.06 137.703 157.06C135.7 156.926 134.365 156.859 133.698 156.859C133.297 156.859 132.63 156.859 131.695 156.859C130.894 156.859 129.292 156.926 126.889 157.06C123.285 157.193 120.615 157.26 118.88 157.26C117.144 157.26 115.676 157.26 114.474 157.26C113.673 157.26 113.273 156.993 113.273 156.459C113.273 155.791 113.673 155.458 114.474 155.458C120.081 155.458 123.418 154.523 124.486 152.654C125.554 150.652 126.088 144.644 126.088 134.632V94.182C126.088 83.9026 124.353 76.1598 120.882 70.9533C117.411 65.6134 112.271 62.9434 105.463 62.9434C100.257 62.9434 95.7176 64.2117 91.8462 66.7481C87.9747 69.1511 83.7695 73.423 79.2306 79.564V155.458H90.6447C91.4457 155.458 91.8462 155.791 91.8462 156.459C91.8462 156.993 91.4457 157.26 90.6447 157.26C90.3777 157.26 89.777 157.26 88.8425 157.26C87.908 157.26 85.9723 157.193 83.0353 157.06C78.4964 157.06 75.2924 157.06 73.4234 157.06C71.5545 156.926 70.2862 156.859 69.6187 156.859C69.2182 156.859 68.5507 156.859 67.6163 156.859C66.6818 156.859 65.013 156.926 62.6101 157.06Z" fill="#FBE7F3"/>
<g id="Group 18">
<circle id="Ellipse 8" cx="130.57" cy="35.1287" r="13.5915" transform="rotate(-29.7238 130.57 35.1287)" fill="#FBE7F3"/>
<circle id="Ellipse 9" cx="154.176" cy="21.6512" r="13.5915" transform="rotate(-29.7238 154.176 21.6512)" fill="#FBE7F3"/>
<path id="Polygon 1" d="M159.49 58.37L167.476 24.3869L142.373 28.3899L126.165 47.9731L159.49 58.37Z" fill="#FBE7F3"/>
</g>
<path id="Vector 50" d="M112.027 64.1306L114.133 53.6018C116.602 53.1766 116.338 53.8017 118.608 54.3915C117.622 58.933 117.137 61.6457 115.186 65.7099L112.027 64.1306Z" fill="#FBE7F3"/>
<path id="Vector 51" d="M79.1255 101.508V95.9801C80.968 93.611 82.5473 92.2949 82.5473 92.2949V100.718L79.1255 101.508Z" fill="white"/>
</g>
</svg>
