<svg width="828" height="35" viewBox="0 0 828 35" fill="none" xmlns="http://www.w3.org/2000/svg">
<rect width="827" height="35" fill="#F4001F"/>
<path d="M5.066 12.12V24H2.33V18.546L2.42 14.892H2.384L-0.549999 24H-3.052L-5.986 14.892H-6.022L-5.932 18.546V24H-8.686V12.12H-4.276L-2.404 18.168L-1.738 20.688H-1.702L-1.018 18.186L0.836001 12.12H5.066ZM18.0828 12.12V19.158C18.0828 20.838 17.6328 22.098 16.7328 22.938C15.8448 23.766 14.5248 24.18 12.7728 24.18C11.0328 24.18 9.71281 23.766 8.81281 22.938C7.91281 22.098 7.46281 20.838 7.46281 19.158V12.12H10.5768V19.212C10.5768 20.064 10.7568 20.7 11.1168 21.12C11.4888 21.54 12.0408 21.75 12.7728 21.75C13.5168 21.75 14.0688 21.54 14.4288 21.12C14.8008 20.7 14.9868 20.064 14.9868 19.212V12.12H18.0828ZM30.4661 12.12V14.514H26.5961V24H23.5001V14.514H19.6121V12.12H30.4661ZM42.6219 12.12V19.158C42.6219 20.838 42.1719 22.098 41.2719 22.938C40.3839 23.766 39.0639 24.18 37.3119 24.18C35.5719 24.18 34.2519 23.766 33.3519 22.938C32.4519 22.098 32.0019 20.838 32.0019 19.158V12.12H35.1159V19.212C35.1159 20.064 35.2959 20.7 35.6559 21.12C36.0279 21.54 36.5799 21.75 37.3119 21.75C38.0559 21.75 38.6079 21.54 38.9679 21.12C39.3399 20.7 39.5259 20.064 39.5259 19.212V12.12H42.6219ZM55.3757 24H52.1897L51.3617 21.318H47.2937L46.4477 24H43.3337L47.5097 12.12H51.2177L55.3757 24ZM47.8697 19.212H50.7857L49.3277 14.406L47.8697 19.212ZM59.8534 21.606H65.8114V24H56.7574V12.12H59.8534V21.606ZM82.844 20.598C82.616 21.426 82.25 22.11 81.746 22.65C81.242 23.178 80.642 23.568 79.946 23.82C79.25 24.06 78.482 24.18 77.642 24.18C76.442 24.18 75.404 23.94 74.528 23.46C73.652 22.968 72.98 22.266 72.512 21.354C72.044 20.442 71.81 19.344 71.81 18.06C71.81 16.776 72.044 15.678 72.512 14.766C72.98 13.854 73.652 13.158 74.528 12.678C75.404 12.186 76.436 11.94 77.624 11.94C78.452 11.94 79.214 12.06 79.91 12.3C80.606 12.528 81.194 12.882 81.674 13.362C82.154 13.842 82.496 14.46 82.7 15.216L79.982 16.314C79.814 15.57 79.538 15.06 79.154 14.784C78.782 14.508 78.308 14.37 77.732 14.37C77.168 14.37 76.676 14.508 76.256 14.784C75.848 15.06 75.53 15.474 75.302 16.026C75.086 16.566 74.978 17.244 74.978 18.06C74.978 18.864 75.08 19.542 75.284 20.094C75.488 20.646 75.794 21.06 76.202 21.336C76.622 21.612 77.138 21.75 77.75 21.75C78.326 21.75 78.812 21.594 79.208 21.282C79.616 20.958 79.892 20.466 80.036 19.806L82.844 20.598ZM90.236 12.12C91.652 12.12 92.75 12.456 93.53 13.128C94.322 13.788 94.718 14.67 94.718 15.774C94.718 16.986 94.328 17.91 93.548 18.546C92.768 19.182 91.67 19.5 90.254 19.5L89.966 19.662H87.608V24H84.566V12.12H90.236ZM89.804 17.466C90.404 17.466 90.854 17.346 91.154 17.106C91.454 16.866 91.604 16.482 91.604 15.954C91.604 15.438 91.454 15.06 91.154 14.82C90.854 14.58 90.404 14.46 89.804 14.46H87.608V17.466H89.804ZM91.622 18.114L95.42 24H92L88.958 18.798L91.622 18.114ZM107.362 12.12V19.158C107.362 20.838 106.912 22.098 106.012 22.938C105.124 23.766 103.804 24.18 102.052 24.18C100.312 24.18 98.9921 23.766 98.0921 22.938C97.1921 22.098 96.7421 20.838 96.7421 19.158V12.12H99.8561V19.212C99.8561 20.064 100.036 20.7 100.396 21.12C100.768 21.54 101.32 21.75 102.052 21.75C102.796 21.75 103.348 21.54 103.708 21.12C104.08 20.7 104.266 20.064 104.266 19.212V12.12H107.362ZM114.399 11.94C115.503 11.94 116.475 12.114 117.315 12.462C118.167 12.798 118.905 13.296 119.529 13.956L118.035 15.954C117.519 15.414 116.961 15.012 116.361 14.748C115.773 14.472 115.101 14.334 114.345 14.334C113.901 14.334 113.541 14.382 113.265 14.478C112.989 14.574 112.791 14.706 112.671 14.874C112.551 15.042 112.491 15.234 112.491 15.45C112.491 15.702 112.605 15.918 112.833 16.098C113.073 16.266 113.457 16.41 113.985 16.53L115.983 16.98C117.171 17.256 118.041 17.658 118.593 18.186C119.145 18.714 119.421 19.416 119.421 20.292C119.421 21.132 119.205 21.846 118.773 22.434C118.341 23.01 117.747 23.448 116.991 23.748C116.235 24.036 115.371 24.18 114.399 24.18C113.607 24.18 112.851 24.096 112.131 23.928C111.411 23.748 110.763 23.496 110.187 23.172C109.611 22.848 109.125 22.476 108.729 22.056L110.223 19.986C110.523 20.334 110.889 20.646 111.321 20.922C111.765 21.186 112.245 21.396 112.761 21.552C113.289 21.708 113.823 21.786 114.363 21.786C114.783 21.786 115.131 21.744 115.407 21.66C115.695 21.576 115.905 21.45 116.037 21.282C116.169 21.114 116.235 20.916 116.235 20.688C116.235 20.436 116.145 20.226 115.965 20.058C115.785 19.878 115.443 19.728 114.939 19.608L112.743 19.122C112.071 18.966 111.471 18.762 110.943 18.51C110.427 18.246 110.019 17.898 109.719 17.466C109.419 17.022 109.269 16.47 109.269 15.81C109.269 15.066 109.473 14.406 109.881 13.83C110.289 13.242 110.877 12.78 111.645 12.444C112.413 12.108 113.331 11.94 114.399 11.94ZM132.085 12.12V24H128.989V12.12H132.085ZM124.453 12.12V24H121.357V12.12H124.453ZM130.645 16.818V19.212H122.869V16.818H130.645ZM144.781 24C144.625 23.604 144.463 23.238 144.295 22.902C144.139 22.554 143.941 22.182 143.701 21.786C143.461 21.39 143.161 20.928 142.801 20.4C142.441 19.872 141.985 19.23 141.433 18.474C140.725 17.502 140.221 16.668 139.921 15.972C139.621 15.276 139.471 14.598 139.471 13.938C139.471 13.41 139.603 12.93 139.867 12.498C140.143 12.054 140.503 11.706 140.947 11.454C141.403 11.19 141.895 11.058 142.423 11.058C142.987 11.058 143.509 11.202 143.989 11.49C144.481 11.778 144.883 12.216 145.195 12.804C145.519 12.216 145.927 11.778 146.419 11.49C146.911 11.202 147.439 11.058 148.003 11.058C148.519 11.058 148.999 11.19 149.443 11.454C149.899 11.706 150.265 12.054 150.541 12.498C150.817 12.93 150.955 13.41 150.955 13.938C150.955 14.358 150.895 14.79 150.775 15.234C150.667 15.666 150.469 16.146 150.181 16.674C149.893 17.19 149.497 17.796 148.993 18.492C148.441 19.26 147.979 19.914 147.607 20.454C147.235 20.982 146.929 21.444 146.689 21.84C146.461 22.236 146.263 22.602 146.095 22.938C145.927 23.274 145.771 23.628 145.627 24H144.781ZM145.195 22.434C145.423 21.978 145.729 21.45 146.113 20.85C146.509 20.25 146.971 19.584 147.499 18.852C148.027 18.12 148.459 17.49 148.795 16.962C149.131 16.434 149.371 16.014 149.515 15.702C149.803 15.066 149.947 14.478 149.947 13.938C149.947 13.59 149.857 13.278 149.677 13.002C149.497 12.714 149.257 12.486 148.957 12.318C148.669 12.15 148.351 12.066 148.003 12.066C147.487 12.066 147.019 12.282 146.599 12.714C146.179 13.134 145.867 13.716 145.663 14.46H144.745C144.517 13.644 144.193 13.044 143.773 12.66C143.365 12.264 142.915 12.066 142.423 12.066C142.087 12.066 141.769 12.15 141.469 12.318C141.169 12.486 140.929 12.714 140.749 13.002C140.569 13.278 140.479 13.59 140.479 13.938C140.479 14.442 140.617 15.018 140.893 15.666C141.157 16.278 141.817 17.304 142.873 18.744C143.401 19.44 143.857 20.1 144.241 20.724C144.625 21.336 144.943 21.906 145.195 22.434ZM172.093 12.12V24H169.357V18.546L169.447 14.892H169.411L166.477 24H163.975L161.041 14.892H161.005L161.095 18.546V24H158.341V12.12H162.751L164.623 18.168L165.289 20.688H165.325L166.009 18.186L167.863 12.12H172.093ZM185.11 12.12V19.158C185.11 20.838 184.66 22.098 183.76 22.938C182.872 23.766 181.552 24.18 179.8 24.18C178.06 24.18 176.74 23.766 175.84 22.938C174.94 22.098 174.49 20.838 174.49 19.158V12.12H177.604V19.212C177.604 20.064 177.784 20.7 178.144 21.12C178.516 21.54 179.068 21.75 179.8 21.75C180.544 21.75 181.096 21.54 181.456 21.12C181.828 20.7 182.014 20.064 182.014 19.212V12.12H185.11ZM197.493 12.12V14.514H193.623V24H190.527V14.514H186.639V12.12H197.493ZM209.649 12.12V19.158C209.649 20.838 209.199 22.098 208.299 22.938C207.411 23.766 206.091 24.18 204.339 24.18C202.599 24.18 201.279 23.766 200.379 22.938C199.479 22.098 199.029 20.838 199.029 19.158V12.12H202.143V19.212C202.143 20.064 202.323 20.7 202.683 21.12C203.055 21.54 203.607 21.75 204.339 21.75C205.083 21.75 205.635 21.54 205.995 21.12C206.367 20.7 206.553 20.064 206.553 19.212V12.12H209.649ZM222.403 24H219.217L218.389 21.318H214.321L213.475 24H210.361L214.537 12.12H218.245L222.403 24ZM214.897 19.212H217.813L216.355 14.406L214.897 19.212ZM226.881 21.606H232.839V24H223.785V12.12H226.881V21.606ZM249.871 20.598C249.643 21.426 249.277 22.11 248.773 22.65C248.269 23.178 247.669 23.568 246.973 23.82C246.277 24.06 245.509 24.18 244.669 24.18C243.469 24.18 242.431 23.94 241.555 23.46C240.679 22.968 240.007 22.266 239.539 21.354C239.071 20.442 238.837 19.344 238.837 18.06C238.837 16.776 239.071 15.678 239.539 14.766C240.007 13.854 240.679 13.158 241.555 12.678C242.431 12.186 243.463 11.94 244.651 11.94C245.479 11.94 246.241 12.06 246.937 12.3C247.633 12.528 248.221 12.882 248.701 13.362C249.181 13.842 249.523 14.46 249.727 15.216L247.009 16.314C246.841 15.57 246.565 15.06 246.181 14.784C245.809 14.508 245.335 14.37 244.759 14.37C244.195 14.37 243.703 14.508 243.283 14.784C242.875 15.06 242.557 15.474 242.329 16.026C242.113 16.566 242.005 17.244 242.005 18.06C242.005 18.864 242.107 19.542 242.311 20.094C242.515 20.646 242.821 21.06 243.229 21.336C243.649 21.612 244.165 21.75 244.777 21.75C245.353 21.75 245.839 21.594 246.235 21.282C246.643 20.958 246.919 20.466 247.063 19.806L249.871 20.598ZM257.263 12.12C258.679 12.12 259.777 12.456 260.557 13.128C261.349 13.788 261.745 14.67 261.745 15.774C261.745 16.986 261.355 17.91 260.575 18.546C259.795 19.182 258.697 19.5 257.281 19.5L256.993 19.662H254.635V24H251.593V12.12H257.263ZM256.831 17.466C257.431 17.466 257.881 17.346 258.181 17.106C258.481 16.866 258.631 16.482 258.631 15.954C258.631 15.438 258.481 15.06 258.181 14.82C257.881 14.58 257.431 14.46 256.831 14.46H254.635V17.466H256.831ZM258.649 18.114L262.447 24H259.027L255.985 18.798L258.649 18.114ZM274.389 12.12V19.158C274.389 20.838 273.939 22.098 273.039 22.938C272.151 23.766 270.831 24.18 269.079 24.18C267.339 24.18 266.019 23.766 265.119 22.938C264.219 22.098 263.769 20.838 263.769 19.158V12.12H266.883V19.212C266.883 20.064 267.063 20.7 267.423 21.12C267.795 21.54 268.347 21.75 269.079 21.75C269.823 21.75 270.375 21.54 270.735 21.12C271.107 20.7 271.293 20.064 271.293 19.212V12.12H274.389ZM281.427 11.94C282.531 11.94 283.503 12.114 284.343 12.462C285.195 12.798 285.933 13.296 286.557 13.956L285.063 15.954C284.547 15.414 283.989 15.012 283.389 14.748C282.801 14.472 282.129 14.334 281.373 14.334C280.929 14.334 280.569 14.382 280.293 14.478C280.017 14.574 279.819 14.706 279.699 14.874C279.579 15.042 279.519 15.234 279.519 15.45C279.519 15.702 279.633 15.918 279.861 16.098C280.101 16.266 280.485 16.41 281.013 16.53L283.011 16.98C284.199 17.256 285.069 17.658 285.621 18.186C286.173 18.714 286.449 19.416 286.449 20.292C286.449 21.132 286.233 21.846 285.801 22.434C285.369 23.01 284.775 23.448 284.019 23.748C283.263 24.036 282.399 24.18 281.427 24.18C280.635 24.18 279.879 24.096 279.159 23.928C278.439 23.748 277.791 23.496 277.215 23.172C276.639 22.848 276.153 22.476 275.757 22.056L277.251 19.986C277.551 20.334 277.917 20.646 278.349 20.922C278.793 21.186 279.273 21.396 279.789 21.552C280.317 21.708 280.851 21.786 281.391 21.786C281.811 21.786 282.159 21.744 282.435 21.66C282.723 21.576 282.933 21.45 283.065 21.282C283.197 21.114 283.263 20.916 283.263 20.688C283.263 20.436 283.173 20.226 282.993 20.058C282.813 19.878 282.471 19.728 281.967 19.608L279.771 19.122C279.099 18.966 278.499 18.762 277.971 18.51C277.455 18.246 277.047 17.898 276.747 17.466C276.447 17.022 276.297 16.47 276.297 15.81C276.297 15.066 276.501 14.406 276.909 13.83C277.317 13.242 277.905 12.78 278.673 12.444C279.441 12.108 280.359 11.94 281.427 11.94ZM299.112 12.12V24H296.016V12.12H299.112ZM291.48 12.12V24H288.384V12.12H291.48ZM297.672 16.818V19.212H289.896V16.818H297.672ZM311.808 24C311.652 23.604 311.49 23.238 311.322 22.902C311.166 22.554 310.968 22.182 310.728 21.786C310.488 21.39 310.188 20.928 309.828 20.4C309.468 19.872 309.012 19.23 308.46 18.474C307.752 17.502 307.248 16.668 306.948 15.972C306.648 15.276 306.498 14.598 306.498 13.938C306.498 13.41 306.63 12.93 306.894 12.498C307.17 12.054 307.53 11.706 307.974 11.454C308.43 11.19 308.922 11.058 309.45 11.058C310.014 11.058 310.536 11.202 311.016 11.49C311.508 11.778 311.91 12.216 312.222 12.804C312.546 12.216 312.954 11.778 313.446 11.49C313.938 11.202 314.466 11.058 315.03 11.058C315.546 11.058 316.026 11.19 316.47 11.454C316.926 11.706 317.292 12.054 317.568 12.498C317.844 12.93 317.982 13.41 317.982 13.938C317.982 14.358 317.922 14.79 317.802 15.234C317.694 15.666 317.496 16.146 317.208 16.674C316.92 17.19 316.524 17.796 316.02 18.492C315.468 19.26 315.006 19.914 314.634 20.454C314.262 20.982 313.956 21.444 313.716 21.84C313.488 22.236 313.29 22.602 313.122 22.938C312.954 23.274 312.798 23.628 312.654 24H311.808ZM312.222 22.434C312.45 21.978 312.756 21.45 313.14 20.85C313.536 20.25 313.998 19.584 314.526 18.852C315.054 18.12 315.486 17.49 315.822 16.962C316.158 16.434 316.398 16.014 316.542 15.702C316.83 15.066 316.974 14.478 316.974 13.938C316.974 13.59 316.884 13.278 316.704 13.002C316.524 12.714 316.284 12.486 315.984 12.318C315.696 12.15 315.378 12.066 315.03 12.066C314.514 12.066 314.046 12.282 313.626 12.714C313.206 13.134 312.894 13.716 312.69 14.46H311.772C311.544 13.644 311.22 13.044 310.8 12.66C310.392 12.264 309.942 12.066 309.45 12.066C309.114 12.066 308.796 12.15 308.496 12.318C308.196 12.486 307.956 12.714 307.776 13.002C307.596 13.278 307.506 13.59 307.506 13.938C307.506 14.442 307.644 15.018 307.92 15.666C308.184 16.278 308.844 17.304 309.9 18.744C310.428 19.44 310.884 20.1 311.268 20.724C311.652 21.336 311.97 21.906 312.222 22.434ZM339.121 12.12V24H336.385V18.546L336.475 14.892H336.439L333.505 24H331.003L328.069 14.892H328.033L328.123 18.546V24H325.369V12.12H329.779L331.651 18.168L332.317 20.688H332.353L333.037 18.186L334.891 12.12H339.121ZM352.138 12.12V19.158C352.138 20.838 351.688 22.098 350.788 22.938C349.9 23.766 348.58 24.18 346.828 24.18C345.088 24.18 343.768 23.766 342.868 22.938C341.968 22.098 341.518 20.838 341.518 19.158V12.12H344.632V19.212C344.632 20.064 344.812 20.7 345.172 21.12C345.544 21.54 346.096 21.75 346.828 21.75C347.572 21.75 348.124 21.54 348.484 21.12C348.856 20.7 349.042 20.064 349.042 19.212V12.12H352.138ZM364.521 12.12V14.514H360.651V24H357.555V14.514H353.667V12.12H364.521ZM376.677 12.12V19.158C376.677 20.838 376.227 22.098 375.327 22.938C374.439 23.766 373.119 24.18 371.367 24.18C369.627 24.18 368.307 23.766 367.407 22.938C366.507 22.098 366.057 20.838 366.057 19.158V12.12H369.171V19.212C369.171 20.064 369.351 20.7 369.711 21.12C370.083 21.54 370.635 21.75 371.367 21.75C372.111 21.75 372.663 21.54 373.023 21.12C373.395 20.7 373.581 20.064 373.581 19.212V12.12H376.677ZM389.43 24H386.244L385.416 21.318H381.348L380.502 24H377.388L381.564 12.12H385.272L389.43 24ZM381.924 19.212H384.84L383.382 14.406L381.924 19.212ZM393.908 21.606H399.866V24H390.812V12.12H393.908V21.606ZM416.899 20.598C416.671 21.426 416.305 22.11 415.801 22.65C415.297 23.178 414.697 23.568 414.001 23.82C413.305 24.06 412.537 24.18 411.697 24.18C410.497 24.18 409.459 23.94 408.583 23.46C407.707 22.968 407.035 22.266 406.567 21.354C406.099 20.442 405.865 19.344 405.865 18.06C405.865 16.776 406.099 15.678 406.567 14.766C407.035 13.854 407.707 13.158 408.583 12.678C409.459 12.186 410.491 11.94 411.679 11.94C412.507 11.94 413.269 12.06 413.965 12.3C414.661 12.528 415.249 12.882 415.729 13.362C416.209 13.842 416.551 14.46 416.755 15.216L414.037 16.314C413.869 15.57 413.593 15.06 413.209 14.784C412.837 14.508 412.363 14.37 411.787 14.37C411.223 14.37 410.731 14.508 410.311 14.784C409.903 15.06 409.585 15.474 409.357 16.026C409.141 16.566 409.033 17.244 409.033 18.06C409.033 18.864 409.135 19.542 409.339 20.094C409.543 20.646 409.849 21.06 410.257 21.336C410.677 21.612 411.193 21.75 411.805 21.75C412.381 21.75 412.867 21.594 413.263 21.282C413.671 20.958 413.947 20.466 414.091 19.806L416.899 20.598ZM424.291 12.12C425.707 12.12 426.805 12.456 427.585 13.128C428.377 13.788 428.773 14.67 428.773 15.774C428.773 16.986 428.383 17.91 427.603 18.546C426.823 19.182 425.725 19.5 424.309 19.5L424.021 19.662H421.663V24H418.621V12.12H424.291ZM423.859 17.466C424.459 17.466 424.909 17.346 425.209 17.106C425.509 16.866 425.659 16.482 425.659 15.954C425.659 15.438 425.509 15.06 425.209 14.82C424.909 14.58 424.459 14.46 423.859 14.46H421.663V17.466H423.859ZM425.677 18.114L429.475 24H426.055L423.013 18.798L425.677 18.114ZM441.417 12.12V19.158C441.417 20.838 440.967 22.098 440.067 22.938C439.179 23.766 437.859 24.18 436.107 24.18C434.367 24.18 433.047 23.766 432.147 22.938C431.247 22.098 430.797 20.838 430.797 19.158V12.12H433.911V19.212C433.911 20.064 434.091 20.7 434.451 21.12C434.823 21.54 435.375 21.75 436.107 21.75C436.851 21.75 437.403 21.54 437.763 21.12C438.135 20.7 438.321 20.064 438.321 19.212V12.12H441.417ZM448.454 11.94C449.558 11.94 450.53 12.114 451.37 12.462C452.222 12.798 452.96 13.296 453.584 13.956L452.09 15.954C451.574 15.414 451.016 15.012 450.416 14.748C449.828 14.472 449.156 14.334 448.4 14.334C447.956 14.334 447.596 14.382 447.32 14.478C447.044 14.574 446.846 14.706 446.726 14.874C446.606 15.042 446.546 15.234 446.546 15.45C446.546 15.702 446.66 15.918 446.888 16.098C447.128 16.266 447.512 16.41 448.04 16.53L450.038 16.98C451.226 17.256 452.096 17.658 452.648 18.186C453.2 18.714 453.476 19.416 453.476 20.292C453.476 21.132 453.26 21.846 452.828 22.434C452.396 23.01 451.802 23.448 451.046 23.748C450.29 24.036 449.426 24.18 448.454 24.18C447.662 24.18 446.906 24.096 446.186 23.928C445.466 23.748 444.818 23.496 444.242 23.172C443.666 22.848 443.18 22.476 442.784 22.056L444.278 19.986C444.578 20.334 444.944 20.646 445.376 20.922C445.82 21.186 446.3 21.396 446.816 21.552C447.344 21.708 447.878 21.786 448.418 21.786C448.838 21.786 449.186 21.744 449.462 21.66C449.75 21.576 449.96 21.45 450.092 21.282C450.224 21.114 450.29 20.916 450.29 20.688C450.29 20.436 450.2 20.226 450.02 20.058C449.84 19.878 449.498 19.728 448.994 19.608L446.798 19.122C446.126 18.966 445.526 18.762 444.998 18.51C444.482 18.246 444.074 17.898 443.774 17.466C443.474 17.022 443.324 16.47 443.324 15.81C443.324 15.066 443.528 14.406 443.936 13.83C444.344 13.242 444.932 12.78 445.7 12.444C446.468 12.108 447.386 11.94 448.454 11.94ZM466.14 12.12V24H463.044V12.12H466.14ZM458.508 12.12V24H455.412V12.12H458.508ZM464.7 16.818V19.212H456.924V16.818H464.7ZM478.835 24C478.679 23.604 478.517 23.238 478.349 22.902C478.193 22.554 477.995 22.182 477.755 21.786C477.515 21.39 477.215 20.928 476.855 20.4C476.495 19.872 476.039 19.23 475.487 18.474C474.779 17.502 474.275 16.668 473.975 15.972C473.675 15.276 473.525 14.598 473.525 13.938C473.525 13.41 473.657 12.93 473.921 12.498C474.197 12.054 474.557 11.706 475.001 11.454C475.457 11.19 475.949 11.058 476.477 11.058C477.041 11.058 477.563 11.202 478.043 11.49C478.535 11.778 478.937 12.216 479.249 12.804C479.573 12.216 479.981 11.778 480.473 11.49C480.965 11.202 481.493 11.058 482.057 11.058C482.573 11.058 483.053 11.19 483.497 11.454C483.953 11.706 484.319 12.054 484.595 12.498C484.871 12.93 485.009 13.41 485.009 13.938C485.009 14.358 484.949 14.79 484.829 15.234C484.721 15.666 484.523 16.146 484.235 16.674C483.947 17.19 483.551 17.796 483.047 18.492C482.495 19.26 482.033 19.914 481.661 20.454C481.289 20.982 480.983 21.444 480.743 21.84C480.515 22.236 480.317 22.602 480.149 22.938C479.981 23.274 479.825 23.628 479.681 24H478.835ZM479.249 22.434C479.477 21.978 479.783 21.45 480.167 20.85C480.563 20.25 481.025 19.584 481.553 18.852C482.081 18.12 482.513 17.49 482.849 16.962C483.185 16.434 483.425 16.014 483.569 15.702C483.857 15.066 484.001 14.478 484.001 13.938C484.001 13.59 483.911 13.278 483.731 13.002C483.551 12.714 483.311 12.486 483.011 12.318C482.723 12.15 482.405 12.066 482.057 12.066C481.541 12.066 481.073 12.282 480.653 12.714C480.233 13.134 479.921 13.716 479.717 14.46H478.799C478.571 13.644 478.247 13.044 477.827 12.66C477.419 12.264 476.969 12.066 476.477 12.066C476.141 12.066 475.823 12.15 475.523 12.318C475.223 12.486 474.983 12.714 474.803 13.002C474.623 13.278 474.533 13.59 474.533 13.938C474.533 14.442 474.671 15.018 474.947 15.666C475.211 16.278 475.871 17.304 476.927 18.744C477.455 19.44 477.911 20.1 478.295 20.724C478.679 21.336 478.997 21.906 479.249 22.434ZM506.148 12.12V24H503.412V18.546L503.502 14.892H503.466L500.532 24H498.03L495.096 14.892H495.06L495.15 18.546V24H492.396V12.12H496.806L498.678 18.168L499.344 20.688H499.38L500.064 18.186L501.918 12.12H506.148ZM519.165 12.12V19.158C519.165 20.838 518.715 22.098 517.815 22.938C516.927 23.766 515.607 24.18 513.855 24.18C512.115 24.18 510.795 23.766 509.895 22.938C508.995 22.098 508.545 20.838 508.545 19.158V12.12H511.659V19.212C511.659 20.064 511.839 20.7 512.199 21.12C512.571 21.54 513.123 21.75 513.855 21.75C514.599 21.75 515.151 21.54 515.511 21.12C515.883 20.7 516.069 20.064 516.069 19.212V12.12H519.165ZM531.548 12.12V14.514H527.678V24H524.582V14.514H520.694V12.12H531.548ZM543.704 12.12V19.158C543.704 20.838 543.254 22.098 542.354 22.938C541.466 23.766 540.146 24.18 538.394 24.18C536.654 24.18 535.334 23.766 534.434 22.938C533.534 22.098 533.084 20.838 533.084 19.158V12.12H536.198V19.212C536.198 20.064 536.378 20.7 536.738 21.12C537.11 21.54 537.662 21.75 538.394 21.75C539.138 21.75 539.69 21.54 540.05 21.12C540.422 20.7 540.608 20.064 540.608 19.212V12.12H543.704ZM556.458 24H553.272L552.444 21.318H548.376L547.53 24H544.416L548.592 12.12H552.3L556.458 24ZM548.952 19.212H551.868L550.41 14.406L548.952 19.212ZM560.935 21.606H566.893V24H557.839V12.12H560.935V21.606ZM583.926 20.598C583.698 21.426 583.332 22.11 582.828 22.65C582.324 23.178 581.724 23.568 581.028 23.82C580.332 24.06 579.564 24.18 578.724 24.18C577.524 24.18 576.486 23.94 575.61 23.46C574.734 22.968 574.062 22.266 573.594 21.354C573.126 20.442 572.892 19.344 572.892 18.06C572.892 16.776 573.126 15.678 573.594 14.766C574.062 13.854 574.734 13.158 575.61 12.678C576.486 12.186 577.518 11.94 578.706 11.94C579.534 11.94 580.296 12.06 580.992 12.3C581.688 12.528 582.276 12.882 582.756 13.362C583.236 13.842 583.578 14.46 583.782 15.216L581.064 16.314C580.896 15.57 580.62 15.06 580.236 14.784C579.864 14.508 579.39 14.37 578.814 14.37C578.25 14.37 577.758 14.508 577.338 14.784C576.93 15.06 576.612 15.474 576.384 16.026C576.168 16.566 576.06 17.244 576.06 18.06C576.06 18.864 576.162 19.542 576.366 20.094C576.57 20.646 576.876 21.06 577.284 21.336C577.704 21.612 578.22 21.75 578.832 21.75C579.408 21.75 579.894 21.594 580.29 21.282C580.698 20.958 580.974 20.466 581.118 19.806L583.926 20.598ZM591.318 12.12C592.734 12.12 593.832 12.456 594.612 13.128C595.404 13.788 595.8 14.67 595.8 15.774C595.8 16.986 595.41 17.91 594.63 18.546C593.85 19.182 592.752 19.5 591.336 19.5L591.048 19.662H588.69V24H585.648V12.12H591.318ZM590.886 17.466C591.486 17.466 591.936 17.346 592.236 17.106C592.536 16.866 592.686 16.482 592.686 15.954C592.686 15.438 592.536 15.06 592.236 14.82C591.936 14.58 591.486 14.46 590.886 14.46H588.69V17.466H590.886ZM592.704 18.114L596.502 24H593.082L590.04 18.798L592.704 18.114ZM608.444 12.12V19.158C608.444 20.838 607.994 22.098 607.094 22.938C606.206 23.766 604.886 24.18 603.134 24.18C601.394 24.18 600.074 23.766 599.174 22.938C598.274 22.098 597.824 20.838 597.824 19.158V12.12H600.938V19.212C600.938 20.064 601.118 20.7 601.478 21.12C601.85 21.54 602.402 21.75 603.134 21.75C603.878 21.75 604.43 21.54 604.79 21.12C605.162 20.7 605.348 20.064 605.348 19.212V12.12H608.444ZM615.481 11.94C616.585 11.94 617.557 12.114 618.397 12.462C619.249 12.798 619.987 13.296 620.611 13.956L619.117 15.954C618.601 15.414 618.043 15.012 617.443 14.748C616.855 14.472 616.183 14.334 615.427 14.334C614.983 14.334 614.623 14.382 614.347 14.478C614.071 14.574 613.873 14.706 613.753 14.874C613.633 15.042 613.573 15.234 613.573 15.45C613.573 15.702 613.687 15.918 613.915 16.098C614.155 16.266 614.539 16.41 615.067 16.53L617.065 16.98C618.253 17.256 619.123 17.658 619.675 18.186C620.227 18.714 620.503 19.416 620.503 20.292C620.503 21.132 620.287 21.846 619.855 22.434C619.423 23.01 618.829 23.448 618.073 23.748C617.317 24.036 616.453 24.18 615.481 24.18C614.689 24.18 613.933 24.096 613.213 23.928C612.493 23.748 611.845 23.496 611.269 23.172C610.693 22.848 610.207 22.476 609.811 22.056L611.305 19.986C611.605 20.334 611.971 20.646 612.403 20.922C612.847 21.186 613.327 21.396 613.843 21.552C614.371 21.708 614.905 21.786 615.445 21.786C615.865 21.786 616.213 21.744 616.489 21.66C616.777 21.576 616.987 21.45 617.119 21.282C617.251 21.114 617.317 20.916 617.317 20.688C617.317 20.436 617.227 20.226 617.047 20.058C616.867 19.878 616.525 19.728 616.021 19.608L613.825 19.122C613.153 18.966 612.553 18.762 612.025 18.51C611.509 18.246 611.101 17.898 610.801 17.466C610.501 17.022 610.351 16.47 610.351 15.81C610.351 15.066 610.555 14.406 610.963 13.83C611.371 13.242 611.959 12.78 612.727 12.444C613.495 12.108 614.413 11.94 615.481 11.94ZM633.167 12.12V24H630.071V12.12H633.167ZM625.535 12.12V24H622.439V12.12H625.535ZM631.727 16.818V19.212H623.951V16.818H631.727ZM645.863 24C645.707 23.604 645.545 23.238 645.377 22.902C645.221 22.554 645.023 22.182 644.783 21.786C644.543 21.39 644.243 20.928 643.883 20.4C643.523 19.872 643.067 19.23 642.515 18.474C641.807 17.502 641.303 16.668 641.003 15.972C640.703 15.276 640.553 14.598 640.553 13.938C640.553 13.41 640.685 12.93 640.949 12.498C641.225 12.054 641.585 11.706 642.029 11.454C642.485 11.19 642.977 11.058 643.505 11.058C644.069 11.058 644.591 11.202 645.071 11.49C645.563 11.778 645.965 12.216 646.277 12.804C646.601 12.216 647.009 11.778 647.501 11.49C647.993 11.202 648.521 11.058 649.085 11.058C649.601 11.058 650.081 11.19 650.525 11.454C650.981 11.706 651.347 12.054 651.623 12.498C651.899 12.93 652.037 13.41 652.037 13.938C652.037 14.358 651.977 14.79 651.857 15.234C651.749 15.666 651.551 16.146 651.263 16.674C650.975 17.19 650.579 17.796 650.075 18.492C649.523 19.26 649.061 19.914 648.689 20.454C648.317 20.982 648.011 21.444 647.771 21.84C647.543 22.236 647.345 22.602 647.177 22.938C647.009 23.274 646.853 23.628 646.709 24H645.863ZM646.277 22.434C646.505 21.978 646.811 21.45 647.195 20.85C647.591 20.25 648.053 19.584 648.581 18.852C649.109 18.12 649.541 17.49 649.877 16.962C650.213 16.434 650.453 16.014 650.597 15.702C650.885 15.066 651.029 14.478 651.029 13.938C651.029 13.59 650.939 13.278 650.759 13.002C650.579 12.714 650.339 12.486 650.039 12.318C649.751 12.15 649.433 12.066 649.085 12.066C648.569 12.066 648.101 12.282 647.681 12.714C647.261 13.134 646.949 13.716 646.745 14.46H645.827C645.599 13.644 645.275 13.044 644.855 12.66C644.447 12.264 643.997 12.066 643.505 12.066C643.169 12.066 642.851 12.15 642.551 12.318C642.251 12.486 642.011 12.714 641.831 13.002C641.651 13.278 641.561 13.59 641.561 13.938C641.561 14.442 641.699 15.018 641.975 15.666C642.239 16.278 642.899 17.304 643.955 18.744C644.483 19.44 644.939 20.1 645.323 20.724C645.707 21.336 646.025 21.906 646.277 22.434ZM673.175 12.12V24H670.439V18.546L670.529 14.892H670.493L667.559 24H665.057L662.123 14.892H662.087L662.177 18.546V24H659.423V12.12H663.833L665.705 18.168L666.371 20.688H666.407L667.091 18.186L668.945 12.12H673.175ZM686.192 12.12V19.158C686.192 20.838 685.742 22.098 684.842 22.938C683.954 23.766 682.634 24.18 680.882 24.18C679.142 24.18 677.822 23.766 676.922 22.938C676.022 22.098 675.572 20.838 675.572 19.158V12.12H678.686V19.212C678.686 20.064 678.866 20.7 679.226 21.12C679.598 21.54 680.15 21.75 680.882 21.75C681.626 21.75 682.178 21.54 682.538 21.12C682.91 20.7 683.096 20.064 683.096 19.212V12.12H686.192ZM698.575 12.12V14.514H694.705V24H691.609V14.514H687.721V12.12H698.575ZM710.731 12.12V19.158C710.731 20.838 710.281 22.098 709.381 22.938C708.493 23.766 707.173 24.18 705.421 24.18C703.681 24.18 702.361 23.766 701.461 22.938C700.561 22.098 700.111 20.838 700.111 19.158V12.12H703.225V19.212C703.225 20.064 703.405 20.7 703.765 21.12C704.137 21.54 704.689 21.75 705.421 21.75C706.165 21.75 706.717 21.54 707.077 21.12C707.449 20.7 707.635 20.064 707.635 19.212V12.12H710.731ZM723.485 24H720.299L719.471 21.318H715.403L714.557 24H711.443L715.619 12.12H719.327L723.485 24ZM715.979 19.212H718.895L717.437 14.406L715.979 19.212ZM727.963 21.606H733.921V24H724.867V12.12H727.963V21.606ZM750.953 20.598C750.725 21.426 750.359 22.11 749.855 22.65C749.351 23.178 748.751 23.568 748.055 23.82C747.359 24.06 746.591 24.18 745.751 24.18C744.551 24.18 743.513 23.94 742.637 23.46C741.761 22.968 741.089 22.266 740.621 21.354C740.153 20.442 739.919 19.344 739.919 18.06C739.919 16.776 740.153 15.678 740.621 14.766C741.089 13.854 741.761 13.158 742.637 12.678C743.513 12.186 744.545 11.94 745.733 11.94C746.561 11.94 747.323 12.06 748.019 12.3C748.715 12.528 749.303 12.882 749.783 13.362C750.263 13.842 750.605 14.46 750.809 15.216L748.091 16.314C747.923 15.57 747.647 15.06 747.263 14.784C746.891 14.508 746.417 14.37 745.841 14.37C745.277 14.37 744.785 14.508 744.365 14.784C743.957 15.06 743.639 15.474 743.411 16.026C743.195 16.566 743.087 17.244 743.087 18.06C743.087 18.864 743.189 19.542 743.393 20.094C743.597 20.646 743.903 21.06 744.311 21.336C744.731 21.612 745.247 21.75 745.859 21.75C746.435 21.75 746.921 21.594 747.317 21.282C747.725 20.958 748.001 20.466 748.145 19.806L750.953 20.598ZM758.345 12.12C759.761 12.12 760.859 12.456 761.639 13.128C762.431 13.788 762.827 14.67 762.827 15.774C762.827 16.986 762.437 17.91 761.657 18.546C760.877 19.182 759.779 19.5 758.363 19.5L758.075 19.662H755.717V24H752.675V12.12H758.345ZM757.913 17.466C758.513 17.466 758.963 17.346 759.263 17.106C759.563 16.866 759.713 16.482 759.713 15.954C759.713 15.438 759.563 15.06 759.263 14.82C758.963 14.58 758.513 14.46 757.913 14.46H755.717V17.466H757.913ZM759.731 18.114L763.529 24H760.109L757.067 18.798L759.731 18.114ZM775.471 12.12V19.158C775.471 20.838 775.021 22.098 774.121 22.938C773.233 23.766 771.913 24.18 770.161 24.18C768.421 24.18 767.101 23.766 766.201 22.938C765.301 22.098 764.851 20.838 764.851 19.158V12.12H767.965V19.212C767.965 20.064 768.145 20.7 768.505 21.12C768.877 21.54 769.429 21.75 770.161 21.75C770.905 21.75 771.457 21.54 771.817 21.12C772.189 20.7 772.375 20.064 772.375 19.212V12.12H775.471ZM782.509 11.94C783.613 11.94 784.585 12.114 785.425 12.462C786.277 12.798 787.015 13.296 787.639 13.956L786.145 15.954C785.629 15.414 785.071 15.012 784.471 14.748C783.883 14.472 783.211 14.334 782.455 14.334C782.011 14.334 781.651 14.382 781.375 14.478C781.099 14.574 780.901 14.706 780.781 14.874C780.661 15.042 780.601 15.234 780.601 15.45C780.601 15.702 780.715 15.918 780.943 16.098C781.183 16.266 781.567 16.41 782.095 16.53L784.093 16.98C785.281 17.256 786.151 17.658 786.703 18.186C787.255 18.714 787.531 19.416 787.531 20.292C787.531 21.132 787.315 21.846 786.883 22.434C786.451 23.01 785.857 23.448 785.101 23.748C784.345 24.036 783.481 24.18 782.509 24.18C781.717 24.18 780.961 24.096 780.241 23.928C779.521 23.748 778.873 23.496 778.297 23.172C777.721 22.848 777.235 22.476 776.839 22.056L778.333 19.986C778.633 20.334 778.999 20.646 779.431 20.922C779.875 21.186 780.355 21.396 780.871 21.552C781.399 21.708 781.933 21.786 782.473 21.786C782.893 21.786 783.241 21.744 783.517 21.66C783.805 21.576 784.015 21.45 784.147 21.282C784.279 21.114 784.345 20.916 784.345 20.688C784.345 20.436 784.255 20.226 784.075 20.058C783.895 19.878 783.553 19.728 783.049 19.608L780.853 19.122C780.181 18.966 779.581 18.762 779.053 18.51C778.537 18.246 778.129 17.898 777.829 17.466C777.529 17.022 777.379 16.47 777.379 15.81C777.379 15.066 777.583 14.406 777.991 13.83C778.399 13.242 778.987 12.78 779.755 12.444C780.523 12.108 781.441 11.94 782.509 11.94ZM800.194 12.12V24H797.098V12.12H800.194ZM792.562 12.12V24H789.466V12.12H792.562ZM798.754 16.818V19.212H790.978V16.818H798.754ZM812.89 24C812.734 23.604 812.572 23.238 812.404 22.902C812.248 22.554 812.05 22.182 811.81 21.786C811.57 21.39 811.27 20.928 810.91 20.4C810.55 19.872 810.094 19.23 809.542 18.474C808.834 17.502 808.33 16.668 808.03 15.972C807.73 15.276 807.58 14.598 807.58 13.938C807.58 13.41 807.712 12.93 807.976 12.498C808.252 12.054 808.612 11.706 809.056 11.454C809.512 11.19 810.004 11.058 810.532 11.058C811.096 11.058 811.618 11.202 812.098 11.49C812.59 11.778 812.992 12.216 813.304 12.804C813.628 12.216 814.036 11.778 814.528 11.49C815.02 11.202 815.548 11.058 816.112 11.058C816.628 11.058 817.108 11.19 817.552 11.454C818.008 11.706 818.374 12.054 818.65 12.498C818.926 12.93 819.064 13.41 819.064 13.938C819.064 14.358 819.004 14.79 818.884 15.234C818.776 15.666 818.578 16.146 818.29 16.674C818.002 17.19 817.606 17.796 817.102 18.492C816.55 19.26 816.088 19.914 815.716 20.454C815.344 20.982 815.038 21.444 814.798 21.84C814.57 22.236 814.372 22.602 814.204 22.938C814.036 23.274 813.88 23.628 813.736 24H812.89ZM813.304 22.434C813.532 21.978 813.838 21.45 814.222 20.85C814.618 20.25 815.08 19.584 815.608 18.852C816.136 18.12 816.568 17.49 816.904 16.962C817.24 16.434 817.48 16.014 817.624 15.702C817.912 15.066 818.056 14.478 818.056 13.938C818.056 13.59 817.966 13.278 817.786 13.002C817.606 12.714 817.366 12.486 817.066 12.318C816.778 12.15 816.46 12.066 816.112 12.066C815.596 12.066 815.128 12.282 814.708 12.714C814.288 13.134 813.976 13.716 813.772 14.46H812.854C812.626 13.644 812.302 13.044 811.882 12.66C811.474 12.264 811.024 12.066 810.532 12.066C810.196 12.066 809.878 12.15 809.578 12.318C809.278 12.486 809.038 12.714 808.858 13.002C808.678 13.278 808.588 13.59 808.588 13.938C808.588 14.442 808.726 15.018 809.002 15.666C809.266 16.278 809.926 17.304 810.982 18.744C811.51 19.44 811.966 20.1 812.35 20.724C812.734 21.336 813.052 21.906 813.304 22.434ZM840.203 12.12V24H837.467V18.546L837.557 14.892H837.521L834.587 24H832.085L829.151 14.892H829.115L829.205 18.546V24H826.451V12.12H830.861L832.733 18.168L833.399 20.688H833.435L834.119 18.186L835.973 12.12H840.203ZM853.22 12.12V19.158C853.22 20.838 852.77 22.098 851.87 22.938C850.982 23.766 849.662 24.18 847.91 24.18C846.17 24.18 844.85 23.766 843.95 22.938C843.05 22.098 842.6 20.838 842.6 19.158V12.12H845.714V19.212C845.714 20.064 845.894 20.7 846.254 21.12C846.626 21.54 847.178 21.75 847.91 21.75C848.654 21.75 849.206 21.54 849.566 21.12C849.938 20.7 850.124 20.064 850.124 19.212V12.12H853.22ZM865.603 12.12V14.514H861.733V24H858.637V14.514H854.749V12.12H865.603ZM877.759 12.12V19.158C877.759 20.838 877.309 22.098 876.409 22.938C875.521 23.766 874.201 24.18 872.449 24.18C870.709 24.18 869.389 23.766 868.489 22.938C867.589 22.098 867.139 20.838 867.139 19.158V12.12H870.253V19.212C870.253 20.064 870.433 20.7 870.793 21.12C871.165 21.54 871.717 21.75 872.449 21.75C873.193 21.75 873.745 21.54 874.105 21.12C874.477 20.7 874.663 20.064 874.663 19.212V12.12H877.759ZM890.512 24H887.326L886.498 21.318H882.43L881.584 24H878.47L882.646 12.12H886.354L890.512 24ZM883.006 19.212H885.922L884.464 14.406L883.006 19.212ZM894.99 21.606H900.948V24H891.894V12.12H894.99V21.606ZM917.981 20.598C917.753 21.426 917.387 22.11 916.883 22.65C916.379 23.178 915.779 23.568 915.083 23.82C914.387 24.06 913.619 24.18 912.779 24.18C911.579 24.18 910.541 23.94 909.665 23.46C908.789 22.968 908.117 22.266 907.649 21.354C907.181 20.442 906.947 19.344 906.947 18.06C906.947 16.776 907.181 15.678 907.649 14.766C908.117 13.854 908.789 13.158 909.665 12.678C910.541 12.186 911.573 11.94 912.761 11.94C913.589 11.94 914.351 12.06 915.047 12.3C915.743 12.528 916.331 12.882 916.811 13.362C917.291 13.842 917.633 14.46 917.837 15.216L915.119 16.314C914.951 15.57 914.675 15.06 914.291 14.784C913.919 14.508 913.445 14.37 912.869 14.37C912.305 14.37 911.813 14.508 911.393 14.784C910.985 15.06 910.667 15.474 910.439 16.026C910.223 16.566 910.115 17.244 910.115 18.06C910.115 18.864 910.217 19.542 910.421 20.094C910.625 20.646 910.931 21.06 911.339 21.336C911.759 21.612 912.275 21.75 912.887 21.75C913.463 21.75 913.949 21.594 914.345 21.282C914.753 20.958 915.029 20.466 915.173 19.806L917.981 20.598ZM925.373 12.12C926.789 12.12 927.887 12.456 928.667 13.128C929.459 13.788 929.855 14.67 929.855 15.774C929.855 16.986 929.465 17.91 928.685 18.546C927.905 19.182 926.807 19.5 925.391 19.5L925.103 19.662H922.745V24H919.703V12.12H925.373ZM924.941 17.466C925.541 17.466 925.991 17.346 926.291 17.106C926.591 16.866 926.741 16.482 926.741 15.954C926.741 15.438 926.591 15.06 926.291 14.82C925.991 14.58 925.541 14.46 924.941 14.46H922.745V17.466H924.941ZM926.759 18.114L930.557 24H927.137L924.095 18.798L926.759 18.114ZM942.499 12.12V19.158C942.499 20.838 942.049 22.098 941.149 22.938C940.261 23.766 938.941 24.18 937.189 24.18C935.449 24.18 934.129 23.766 933.229 22.938C932.329 22.098 931.879 20.838 931.879 19.158V12.12H934.993V19.212C934.993 20.064 935.173 20.7 935.533 21.12C935.905 21.54 936.457 21.75 937.189 21.75C937.933 21.75 938.485 21.54 938.845 21.12C939.217 20.7 939.403 20.064 939.403 19.212V12.12H942.499ZM949.536 11.94C950.64 11.94 951.612 12.114 952.452 12.462C953.304 12.798 954.042 13.296 954.666 13.956L953.172 15.954C952.656 15.414 952.098 15.012 951.498 14.748C950.91 14.472 950.238 14.334 949.482 14.334C949.038 14.334 948.678 14.382 948.402 14.478C948.126 14.574 947.928 14.706 947.808 14.874C947.688 15.042 947.628 15.234 947.628 15.45C947.628 15.702 947.742 15.918 947.97 16.098C948.21 16.266 948.594 16.41 949.122 16.53L951.12 16.98C952.308 17.256 953.178 17.658 953.73 18.186C954.282 18.714 954.558 19.416 954.558 20.292C954.558 21.132 954.342 21.846 953.91 22.434C953.478 23.01 952.884 23.448 952.128 23.748C951.372 24.036 950.508 24.18 949.536 24.18C948.744 24.18 947.988 24.096 947.268 23.928C946.548 23.748 945.9 23.496 945.324 23.172C944.748 22.848 944.262 22.476 943.866 22.056L945.36 19.986C945.66 20.334 946.026 20.646 946.458 20.922C946.902 21.186 947.382 21.396 947.898 21.552C948.426 21.708 948.96 21.786 949.5 21.786C949.92 21.786 950.268 21.744 950.544 21.66C950.832 21.576 951.042 21.45 951.174 21.282C951.306 21.114 951.372 20.916 951.372 20.688C951.372 20.436 951.282 20.226 951.102 20.058C950.922 19.878 950.58 19.728 950.076 19.608L947.88 19.122C947.208 18.966 946.608 18.762 946.08 18.51C945.564 18.246 945.156 17.898 944.856 17.466C944.556 17.022 944.406 16.47 944.406 15.81C944.406 15.066 944.61 14.406 945.018 13.83C945.426 13.242 946.014 12.78 946.782 12.444C947.55 12.108 948.468 11.94 949.536 11.94ZM967.222 12.12V24H964.126V12.12H967.222ZM959.59 12.12V24H956.494V12.12H959.59ZM965.782 16.818V19.212H958.006V16.818H965.782Z" fill="white"/>
</svg>
