<svg width="234" height="234" viewBox="0 0 234 234" fill="none" xmlns="http://www.w3.org/2000/svg">
<g opacity="0.5">
<circle cx="69.6595" cy="91.9117" r="20.4684" transform="rotate(-23.2112 69.6595 91.9117)" fill="#F4001F"/>
<circle cx="107.283" cy="75.7769" r="20.4684" transform="rotate(-23.2112 107.283 75.7769)" fill="#F4001F"/>
<path d="M108.961 131.626L126.716 82.1425L88.4712 83.8441L60.875 110.377L108.961 131.626Z" fill="#F4001F"/>
<circle cx="93.0837" cy="93.0838" r="104.584" transform="rotate(-23.2112 93.0837 93.0838)" stroke="#F4001F" stroke-width="4.18334"/>
<circle cx="93.0835" cy="93.0838" r="65.1406" transform="rotate(-23.2112 93.0835 93.0838)" stroke="#F4001F" stroke-width="4.18334"/>
<path d="M12.1854 118.997L17.0485 124.55L23.8323 121.641L20.054 127.982L24.9171 133.535L17.7189 131.901L13.9405 138.242L13.2701 130.891L6.0719 129.257L12.8558 126.348L12.1854 118.997Z" fill="#F4001F"/>
<path d="M167.622 52.3406L172.485 57.8935L179.269 54.9844L175.491 61.3254L180.354 66.8783L173.156 65.2444L169.378 71.5854L168.707 64.2345L161.509 62.6006L168.293 59.6915L167.622 52.3406Z" fill="#F4001F"/>
<path d="M-1.52942 97.7032L13.6511 93.6619L14.5012 99.1689L3.53977 101.209L14.882 101.635L15.7419 107.206L5.14775 111.062L16.1259 109.694L16.976 115.201L1.2834 115.925L0.167464 108.696L9.93908 105.294L-0.367529 105.23L-1.52942 97.7032Z" fill="#F4001F"/>
<path d="M0.226473 78.2698L0.915251 72.9789L9.40631 74.0843C11.4934 74.3849 13.1279 75.3281 14.31 76.9139C15.494 78.4855 15.8702 80.9283 15.4388 84.2422C15.0019 87.5988 14.0557 89.8116 12.6003 90.8805C11.1307 91.9475 9.33819 92.3289 7.22269 92.0246L-1.41771 90.8997L-0.728928 85.6088L7.57012 86.6892C8.19593 86.7707 8.7135 86.7947 9.12285 86.7612C9.51983 86.7116 9.9214 86.4601 10.3276 86.0068C10.7356 85.5392 11.0127 84.7436 11.159 83.62C11.3182 82.3968 11.2642 81.4786 10.9969 80.8652C10.7154 80.25 10.3678 79.8648 9.95403 79.7097C9.54216 79.5404 9.00199 79.4122 8.33351 79.3252L0.226473 78.2698Z" fill="#F4001F"/>
<path d="M12.3928 51.9996C11.44 54.0411 10.539 56.0347 9.6898 57.9802L20.0126 62.4033L17.8942 67.3472L7.57145 62.9241C6.74294 64.8941 5.92385 66.9149 5.11419 68.9867L0.961347 67.2072L8.24 50.2201L12.3928 51.9996Z" fill="#F4001F"/>
<path d="M18.7936 35.8411L22.1191 31.6687L28.8151 37.0057C30.446 38.3422 31.3573 39.9948 31.549 41.9634C31.7497 43.9208 30.8086 46.2062 28.7256 48.8195C26.6159 51.4665 24.6618 52.8712 22.8634 53.0335C21.0537 53.1868 19.3223 52.5863 17.6689 51.2318L10.8552 45.801L14.1807 41.6286L20.7253 46.8449C21.2188 47.2382 21.6494 47.5264 22.0171 47.7094C22.3825 47.8723 22.8563 47.8647 23.4383 47.6867C24.0293 47.4975 24.678 46.9598 25.3842 46.0737C26.153 45.1092 26.5816 44.2953 26.67 43.6321C26.7472 42.9599 26.6488 42.4505 26.3749 42.1038C26.11 41.7459 25.7139 41.3569 25.1868 40.9367L18.7936 35.8411Z" fill="#F4001F"/>
<path d="M46.3905 30.0705C45.6887 29.5703 44.7892 28.9569 43.6918 28.2303L38.1452 32.2723L39.0878 35.3922L34.7235 38.5726L30.3931 22.4015L36.7916 17.7387L50.8938 26.7888L46.3905 30.0705ZM40.7241 26.2401C39.3967 25.344 38.0576 24.4563 36.707 23.5771L35.4661 22.751C35.8291 24.1015 36.3936 26.1304 37.1597 28.8376L40.7241 26.2401Z" fill="#F4001F"/>
<path d="M54.8332 18.8291C58.39 16.6724 61.3089 14.8464 63.59 13.351C63.8049 14.0747 64.0666 14.737 64.3752 15.3378C64.6838 15.9387 65.0843 16.6517 65.5769 17.4769L52.5534 25.2515C51.2257 22.8035 49.9406 20.5388 48.6981 18.4575C47.4556 16.3762 46.072 14.1704 44.5472 11.84L49.0546 9.14922L54.8332 18.8291Z" fill="#F4001F"/>
<path d="M83.6651 14.8039C80.4546 15.2505 77.9944 14.8976 76.2846 13.7453C74.5749 12.5929 73.5441 10.7524 73.1924 8.2237C72.8387 5.68081 73.3191 3.56493 74.6337 1.87606C75.9482 0.18719 78.2108 -0.88053 81.4214 -1.3271C85.9105 -1.95152 89.1295 -0.828075 91.0784 2.04322C89.8611 2.66145 88.4542 3.5305 86.8578 4.65038C86.3351 3.91214 85.5997 3.41348 84.6513 3.1544C83.7172 2.89335 82.7884 2.82704 81.865 2.95548C80.5012 3.14517 79.5359 3.64871 78.969 4.4661C78.4001 5.26928 78.1888 6.19649 78.335 7.24774C78.4931 8.38423 78.9776 9.26533 79.7887 9.89105C80.612 10.5006 81.7624 10.7026 83.2398 10.4971C84.419 10.3331 85.3299 10.0109 85.9726 9.53049C86.6134 9.0359 87.0379 8.33969 87.2461 7.44188C88.4979 7.90492 90.0874 8.40064 92.0144 8.92905C91.5432 10.7468 90.524 12.1122 88.9567 13.0253C87.3894 13.9384 85.6256 14.5313 83.6651 14.8039Z" fill="#F4001F"/>
<path d="M115.286 4.87152C115.195 6.11602 114.81 7.14492 114.132 7.9582C113.469 8.77252 112.386 9.3189 110.884 9.59733C111.039 9.83877 111.148 10.0265 111.21 10.1604L114.333 15.2426L108.496 14.8156C107.953 13.5966 107.08 11.8645 105.878 9.61937L102.724 9.38861L102.36 14.3666L97.2959 13.9962C97.6133 11.2294 97.8605 8.63731 98.0374 6.21983C98.2142 3.80234 98.347 1.20186 98.4355 -1.58161L103.499 -1.21114L103.498 -1.18969L107.897 -0.867878C110.786 -0.656479 112.769 -0.0440173 113.845 0.969508C114.922 1.98303 115.402 3.2837 115.286 4.87152ZM103.196 2.93005L103.017 5.37615L105.914 5.58807C107.13 5.67703 108.048 5.70824 108.668 5.68172C109.304 5.64194 109.75 5.54512 110.006 5.39125C110.261 5.23739 110.401 4.99595 110.425 4.66695C110.448 4.35224 110.352 4.10069 110.135 3.91229C109.919 3.72389 109.499 3.57091 108.875 3.45334C108.25 3.33576 107.323 3.23198 106.093 3.14198L103.196 2.93005Z" fill="#F4001F"/>
<path d="M135.164 8.50093L139.948 10.8634L136.157 18.541C135.197 20.4187 133.776 21.6606 131.893 22.2664C130.023 22.8787 127.59 22.4449 124.594 20.9653C121.559 19.4665 119.771 17.8557 119.23 16.1329C118.695 14.3973 118.914 12.5777 119.886 10.6742L123.744 2.86158L128.528 5.22401L124.822 12.728C124.543 13.2939 124.353 13.7759 124.252 14.1741C124.171 14.5658 124.279 15.0271 124.577 15.558C124.887 16.0953 125.55 16.6147 126.566 17.1164C127.672 17.6626 128.559 17.9084 129.226 17.8537C129.899 17.7863 130.376 17.5818 130.656 17.2405C130.95 16.9055 131.246 16.4358 131.544 15.8313L135.164 8.50093Z" fill="#F4001F"/>
<path d="M135.691 24.3235C136.534 24.0744 137.279 23.8087 137.926 23.5265C138.584 23.2534 139.295 22.894 140.059 22.4484C140.464 23.5524 141.078 24.663 141.902 25.7802C142.725 26.8975 143.583 27.8283 144.475 28.5728C145.389 29.3357 146.097 29.7963 146.6 29.9546C147.113 30.1019 147.447 30.082 147.603 29.8948C148.164 29.2231 147.42 28.0325 145.372 26.323C143.126 24.448 141.689 22.8565 141.062 21.5485C140.444 20.2294 140.572 19.0468 141.445 18.0008C142.686 16.5143 144.217 15.9334 146.039 16.2581C147.86 16.5828 149.756 17.5678 151.727 19.213C152.872 20.1689 153.921 21.2964 154.873 22.5955C155.845 23.8928 156.605 25.1991 157.151 26.5144C156.225 26.9746 155.149 27.5807 153.924 28.3326C153.674 28.4977 153.481 28.6169 153.345 28.6902C153.16 27.77 152.625 26.6879 151.739 25.444C150.862 24.189 149.989 23.1984 149.119 22.4723C148.073 21.5992 147.308 21.0825 146.825 20.9224C146.352 20.7512 146.005 20.7977 145.784 21.062C145.564 21.3263 145.632 21.7478 145.99 22.3265C146.367 22.9035 147.03 23.5872 147.977 24.3776C150.311 26.3261 151.782 28.0113 152.388 29.4332C153.004 30.8441 152.853 32.1001 151.934 33.2012C150.647 34.7427 149.157 35.3861 147.464 35.1313C145.78 34.8654 143.799 33.7812 141.519 31.8787C140.297 30.8585 139.163 29.6877 138.118 28.3665C137.081 27.0343 136.272 25.6866 135.691 24.3235Z" fill="#F4001F"/>
<path d="M174.284 42.9069C172.304 44.3079 170.212 45.8582 168.008 47.5578C165.805 49.2573 163.775 50.8871 161.917 52.4472L158.829 48.444L163.462 44.8697L158.626 38.6009L153.993 42.1752L150.905 38.172C153.178 36.5633 155.274 35.0187 157.194 33.5382C159.113 32.0576 161.139 30.4221 163.272 28.6317L166.36 32.6349L161.727 36.2092L166.563 42.478L171.196 38.9037L174.284 42.9069Z" fill="#F4001F"/>
<path d="M26.3028 161.09L39.695 152.879L36.2915 148.467L27.2573 155.001L34.7672 146.491L31.3243 142.027L21.228 147.044L29.7868 140.034L26.3833 135.622L15.0411 146.491L19.509 152.283L28.7097 147.55L21.6509 155.06L26.3028 161.09Z" fill="#F4001F"/>
<path d="M41.5919 173.215L45.8997 176.363L50.9521 169.45C52.173 167.731 52.6165 165.896 52.2825 163.947C51.9601 162.006 50.4499 160.049 47.7517 158.077C45.0189 156.08 42.7636 155.24 40.986 155.558C39.2 155.887 37.688 156.922 36.4502 158.665L31.3089 165.7L35.6167 168.848L40.5548 162.091C40.9272 161.581 41.2666 161.19 41.5731 160.916C41.8826 160.663 42.3416 160.545 42.95 160.564C43.57 160.591 44.3374 160.938 45.2522 161.607C46.2481 162.335 46.8761 163.007 47.1362 163.623C47.3878 164.251 47.4272 164.769 47.2544 165.175C47.0931 165.59 46.8136 166.07 46.4159 166.614L41.5919 173.215Z" fill="#F4001F"/>
<path d="M69.062 179.946C66.937 179.198 64.8826 178.445 62.8988 177.69L66.9661 167.222L61.9527 165.274L57.8854 175.742C55.8985 174.955 53.882 174.125 51.8358 173.253L50.1995 177.464L67.4257 184.157L69.062 179.946Z" fill="#F4001F"/>
<path d="M84.1175 187.017L89.3574 188.023L90.9714 179.614C91.3407 177.538 90.9578 175.69 89.8229 174.07C88.702 172.453 86.5006 171.329 83.2186 170.699C79.8944 170.061 77.4965 170.265 76.025 171.312C74.5508 172.373 73.6264 173.955 73.2517 176.059L71.6093 184.616L76.8492 185.622L78.4268 177.403C78.5457 176.783 78.6853 176.284 78.8455 175.906C79.0171 175.545 79.3819 175.242 79.9397 174.999C80.5117 174.758 81.3541 174.745 82.4669 174.958C83.6782 175.191 84.5332 175.53 85.0318 175.976C85.5276 176.437 85.7843 176.887 85.8018 177.329C85.8333 177.773 85.7856 178.326 85.6585 178.988L84.1175 187.017Z" fill="#F4001F"/>
<path d="M107.251 171.24C107.009 172.068 106.682 173.106 106.269 174.356L99.4109 174.612L98.2212 171.578L92.8248 171.779L99.4275 187.163L107.339 186.867L112.819 171.032L107.251 171.24ZM105.169 177.755C104.681 179.281 104.178 180.807 103.661 182.333L103.197 183.75C102.647 182.464 101.835 180.521 100.762 177.92L105.169 177.755Z" fill="#F4001F"/>
<path d="M122.941 172.74C126.911 171.499 130.212 170.518 132.842 169.797C132.441 169.157 132.118 168.522 131.871 167.894C131.625 167.265 131.355 166.493 131.062 165.577L116.617 170.201C117.574 172.816 118.422 175.278 119.161 177.587C119.9 179.895 120.639 182.392 121.378 185.077L126.378 183.477L122.941 172.74Z" fill="#F4001F"/>
<path d="M144.441 153.584C142.114 155.841 140.879 157.998 140.736 160.055C140.593 162.111 141.41 164.056 143.188 165.889C144.975 167.732 146.939 168.654 149.079 168.657C151.219 168.659 153.453 167.532 155.78 165.275C159.033 162.119 160.127 158.89 159.062 155.588C157.826 156.167 156.275 156.742 154.41 157.312C154.671 158.178 154.612 159.065 154.233 159.972C153.864 160.869 153.345 161.642 152.676 162.291C151.687 163.25 150.696 163.701 149.703 163.645C148.72 163.6 147.859 163.196 147.12 162.434C146.321 161.611 145.925 160.687 145.93 159.662C145.956 158.638 146.504 157.607 147.575 156.568C148.429 155.74 149.244 155.22 150.018 155.008C150.802 154.807 151.612 154.901 152.448 155.289C152.853 154.017 153.44 152.459 154.208 150.614C152.485 149.868 150.782 149.832 149.098 150.506C147.414 151.18 145.861 152.206 144.441 153.584Z" fill="#F4001F"/>
<path d="M171.584 136.54C170.531 135.871 169.476 135.565 168.419 135.623C167.369 135.669 166.285 136.212 165.165 137.25C165.064 136.982 164.978 136.783 164.907 136.653L162.694 131.114L159.553 136.051C160.206 137.215 161.075 138.949 162.159 141.254L160.461 143.922L156.25 141.242L153.524 145.526C155.933 146.923 158.16 148.272 160.205 149.573C162.25 150.875 164.416 152.32 166.702 153.911L169.428 149.627L169.409 149.616L171.777 145.895C173.332 143.45 174.025 141.494 173.854 140.025C173.684 138.557 172.927 137.395 171.584 136.54ZM165.924 147.398L163.855 146.082L165.414 143.631C166.069 142.603 166.592 141.847 166.983 141.366C167.395 140.879 167.739 140.579 168.015 140.466C168.291 140.353 168.568 140.385 168.846 140.562C169.112 140.731 169.257 140.959 169.279 141.245C169.301 141.531 169.173 141.959 168.894 142.53C168.616 143.101 168.146 143.907 167.484 144.948L165.924 147.398Z" fill="#F4001F"/>
<path d="M182.275 123.534L184.412 118.645L176.566 115.216C174.623 114.398 172.736 114.363 170.905 115.113C169.081 115.849 167.499 117.749 166.161 120.811C164.805 123.912 164.476 126.296 165.172 127.962C165.881 129.634 167.221 130.885 169.19 131.715L177.174 135.204L179.311 130.315L171.643 126.964C171.064 126.711 170.608 126.465 170.275 126.225C169.96 125.978 169.746 125.555 169.631 124.958C169.523 124.347 169.695 123.522 170.149 122.484C170.643 121.353 171.163 120.594 171.708 120.207C172.266 119.824 172.763 119.674 173.197 119.754C173.637 119.821 174.166 119.99 174.784 120.26L182.275 123.534Z" fill="#F4001F"/>
<path d="M172.895 111.993C173.684 111.604 174.411 111.294 175.078 111.062C175.746 110.817 176.512 110.598 177.376 110.407C176.924 109.321 176.622 108.088 176.469 106.709C176.316 105.329 176.314 104.064 176.464 102.912C176.618 101.731 176.826 100.912 177.088 100.454C177.364 99.9985 177.623 99.7863 177.865 99.8178C178.732 99.9308 178.994 101.31 178.65 103.955C178.272 106.857 178.297 109.001 178.724 110.387C179.165 111.775 180.061 112.557 181.412 112.733C183.332 112.983 184.851 112.371 185.969 110.896C187.086 109.422 187.811 107.412 188.142 104.866C188.335 103.387 188.34 101.847 188.158 100.247C187.992 98.6339 187.663 97.1592 187.172 95.8224C186.179 96.1127 184.978 96.3974 183.568 96.6766C183.272 96.725 183.049 96.7683 182.9 96.8067C183.388 97.608 183.729 98.7661 183.923 100.281C184.13 101.798 184.161 103.118 184.015 104.242C183.839 105.593 183.628 106.491 183.382 106.936C183.15 107.383 182.863 107.585 182.522 107.54C182.181 107.496 181.945 107.14 181.815 106.472C181.701 105.792 181.724 104.84 181.883 103.617C182.276 100.602 182.212 98.3661 181.693 96.9099C181.188 95.4557 180.224 94.6359 178.802 94.4508C176.811 94.1916 175.28 94.7299 174.209 96.0659C173.153 97.4037 172.433 99.5446 172.05 102.489C171.844 104.067 171.806 105.697 171.934 107.377C172.077 109.059 172.397 110.598 172.895 111.993Z" fill="#F4001F"/>
<path d="M187.195 71.498C184.815 71.967 182.25 72.4137 179.5 72.8382C176.75 73.2627 174.169 73.6102 171.759 73.8808L172.53 78.8775L178.313 77.9847L179.521 85.8093L173.738 86.7021L174.509 91.6988C177.241 91.1609 179.805 90.707 182.201 90.3373C184.597 89.9675 187.178 89.627 189.946 89.3159L189.174 84.3192L183.391 85.212L182.183 77.3874L187.966 76.4946L187.195 71.498Z" fill="#F4001F"/>
</g>
</svg>
