<svg width="828" height="54" viewBox="0 0 828 54" fill="none" xmlns="http://www.w3.org/2000/svg">
<rect width="836" height="54" fill="#F4001F"/>
<path d="M32.28 33L35.34 19.8H40.3C41.8733 19.8 43.1 20.1533 43.98 20.86C44.8733 21.5533 45.32 22.52 45.32 23.76C45.32 24.72 45.0933 25.5733 44.64 26.32C44.1867 27.0533 43.5333 27.6333 42.68 28.06C41.8267 28.4733 40.8133 28.68 39.64 28.68H35.12L35.7 26.1H39.54C40.06 26.1 40.4933 26.0067 40.84 25.82C41.2 25.62 41.4667 25.3667 41.64 25.06C41.8267 24.74 41.92 24.3933 41.92 24.02C41.92 23.5133 41.76 23.1133 41.44 22.82C41.12 22.5267 40.6133 22.38 39.92 22.38H38.18L35.72 33H32.28ZM52.3613 33.2C51.2679 33.2 50.2746 32.9733 49.3813 32.52C48.4879 32.0667 47.7813 31.4067 47.2613 30.54C46.7413 29.66 46.4813 28.6067 46.4813 27.38C46.4813 26.2867 46.6346 25.2667 46.9413 24.32C47.2613 23.3733 47.7213 22.5467 48.3213 21.84C48.9346 21.1333 49.6813 20.5867 50.5612 20.2C51.4546 19.8 52.4679 19.6 53.6013 19.6C54.7079 19.6 55.7013 19.8333 56.5812 20.3C57.4613 20.7533 58.1613 21.4133 58.6813 22.28C59.2013 23.1333 59.4613 24.18 59.4613 25.42C59.4613 26.5133 59.3013 27.5333 58.9813 28.48C58.6746 29.4133 58.2146 30.24 57.6013 30.96C57.0013 31.6667 56.2613 32.22 55.3812 32.62C54.5013 33.0067 53.4946 33.2 52.3613 33.2ZM52.4813 30.5C53.0813 30.5 53.5946 30.34 54.0213 30.02C54.4613 29.7 54.8279 29.28 55.1213 28.76C55.4146 28.2267 55.6346 27.6467 55.7813 27.02C55.9279 26.3933 56.0013 25.78 56.0013 25.18C56.0013 24.5667 55.9013 24.0467 55.7013 23.62C55.5013 23.1933 55.2146 22.8667 54.8413 22.64C54.4679 22.4133 54.0079 22.3 53.4613 22.3C52.8746 22.3 52.3613 22.46 51.9213 22.78C51.4813 23.1 51.1146 23.5267 50.8213 24.06C50.5279 24.58 50.3079 25.1533 50.1613 25.78C50.0146 26.3933 49.9413 27.0067 49.9413 27.62C49.9413 28.2333 50.0413 28.7533 50.2413 29.18C50.4413 29.6067 50.7279 29.9333 51.1013 30.16C51.4879 30.3867 51.9479 30.5 52.4813 30.5ZM60.2097 33L63.2697 19.8H66.7097L65.4497 25.16L71.3297 19.8H75.2297L69.2897 25.34L72.2897 33H68.7497L66.6297 27.52L64.4697 29.46L63.6497 33H60.2097ZM73.9011 33L76.9611 19.8H87.2411L86.6011 22.46H79.7811L79.1611 25.14H84.5411L83.9611 27.64H78.5811L77.9611 30.34H85.0011L84.3811 33H73.9011ZM105.853 19.8L105.233 22.46H100.973L98.5327 33H95.0927L97.5327 22.46H93.2327L93.8527 19.8H105.853ZM111.15 33.2C110.057 33.2 109.064 32.9733 108.17 32.52C107.277 32.0667 106.57 31.4067 106.05 30.54C105.53 29.66 105.27 28.6067 105.27 27.38C105.27 26.2867 105.424 25.2667 105.73 24.32C106.05 23.3733 106.51 22.5467 107.11 21.84C107.724 21.1333 108.47 20.5867 109.35 20.2C110.244 19.8 111.257 19.6 112.39 19.6C113.497 19.6 114.49 19.8333 115.37 20.3C116.25 20.7533 116.95 21.4133 117.47 22.28C117.99 23.1333 118.25 24.18 118.25 25.42C118.25 26.5133 118.09 27.5333 117.77 28.48C117.464 29.4133 117.004 30.24 116.39 30.96C115.79 31.6667 115.05 32.22 114.17 32.62C113.29 33.0067 112.284 33.2 111.15 33.2ZM111.27 30.5C111.87 30.5 112.384 30.34 112.81 30.02C113.25 29.7 113.617 29.28 113.91 28.76C114.204 28.2267 114.424 27.6467 114.57 27.02C114.717 26.3933 114.79 25.78 114.79 25.18C114.79 24.5667 114.69 24.0467 114.49 23.62C114.29 23.1933 114.004 22.8667 113.63 22.64C113.257 22.4133 112.797 22.3 112.25 22.3C111.664 22.3 111.15 22.46 110.71 22.78C110.27 23.1 109.904 23.5267 109.61 24.06C109.317 24.58 109.097 25.1533 108.95 25.78C108.804 26.3933 108.73 27.0067 108.73 27.62C108.73 28.2333 108.83 28.7533 109.03 29.18C109.23 29.6067 109.517 29.9333 109.89 30.16C110.277 30.3867 110.737 30.5 111.27 30.5ZM130.982 33.2C129.662 33.2 128.562 32.96 127.682 32.48C126.802 32 126.189 31.3067 125.842 30.4C125.496 29.4933 125.469 28.4067 125.762 27.14L127.482 19.8H130.922L129.142 27.62C129.009 28.2467 129.009 28.7733 129.142 29.2C129.289 29.6267 129.542 29.9533 129.902 30.18C130.276 30.3933 130.736 30.5 131.282 30.5C132.016 30.5 132.589 30.28 133.002 29.84C133.416 29.4 133.716 28.7533 133.902 27.9L135.782 19.8H139.202L137.302 28C136.902 29.7067 136.196 31 135.182 31.88C134.169 32.76 132.769 33.2 130.982 33.2ZM138.764 33L141.824 19.8H145.504L147.884 27.06L148.504 29.22H148.524L149.064 26.46L150.624 19.8H153.644L150.584 33H146.964L144.504 25.86L143.884 23.7H143.844L143.344 26.34L141.804 33H138.764ZM157.531 30.34H164.191L163.571 33H153.471L156.531 19.8H159.971L157.531 30.34ZM171.678 33.2C170.584 33.2 169.591 32.9733 168.698 32.52C167.804 32.0667 167.098 31.4067 166.578 30.54C166.058 29.66 165.798 28.6067 165.798 27.38C165.798 26.2867 165.951 25.2667 166.258 24.32C166.578 23.3733 167.038 22.5467 167.638 21.84C168.251 21.1333 168.998 20.5867 169.878 20.2C170.771 19.8 171.784 19.6 172.918 19.6C174.024 19.6 175.018 19.8333 175.898 20.3C176.778 20.7533 177.478 21.4133 177.998 22.28C178.518 23.1333 178.778 24.18 178.778 25.42C178.778 26.5133 178.618 27.5333 178.298 28.48C177.991 29.4133 177.531 30.24 176.918 30.96C176.318 31.6667 175.578 32.22 174.698 32.62C173.818 33.0067 172.811 33.2 171.678 33.2ZM171.798 30.5C172.398 30.5 172.911 30.34 173.338 30.02C173.778 29.7 174.144 29.28 174.438 28.76C174.731 28.2267 174.951 27.6467 175.098 27.02C175.244 26.3933 175.318 25.78 175.318 25.18C175.318 24.5667 175.218 24.0467 175.018 23.62C174.818 23.1933 174.531 22.8667 174.158 22.64C173.784 22.4133 173.324 22.3 172.778 22.3C172.191 22.3 171.678 22.46 171.238 22.78C170.798 23.1 170.431 23.5267 170.138 24.06C169.844 24.58 169.624 25.1533 169.478 25.78C169.331 26.3933 169.258 27.0067 169.258 27.62C169.258 28.2333 169.358 28.7533 169.558 29.18C169.758 29.6067 170.044 29.9333 170.418 30.16C170.804 30.3867 171.264 30.5 171.798 30.5ZM186.366 33.2C185.233 33.2 184.219 32.9733 183.326 32.52C182.433 32.0667 181.726 31.4133 181.206 30.56C180.686 29.7067 180.426 28.6867 180.426 27.5C180.426 26.38 180.586 25.3467 180.906 24.4C181.226 23.44 181.693 22.6 182.306 21.88C182.919 21.16 183.666 20.6 184.546 20.2C185.439 19.8 186.459 19.6 187.606 19.6C188.593 19.6 189.473 19.7667 190.246 20.1C191.019 20.4333 191.653 20.92 192.146 21.56C192.639 22.1867 192.966 22.9667 193.126 23.9L189.826 24.64C189.746 23.84 189.519 23.2533 189.146 22.88C188.773 22.4933 188.226 22.3 187.506 22.3C186.893 22.3 186.359 22.4667 185.906 22.8C185.453 23.12 185.073 23.54 184.766 24.06C184.459 24.58 184.233 25.1467 184.086 25.76C183.953 26.3733 183.886 26.9733 183.886 27.56C183.886 28.1733 183.993 28.7 184.206 29.14C184.419 29.5667 184.726 29.9 185.126 30.14C185.539 30.38 186.026 30.5 186.586 30.5C187.266 30.5 187.799 30.3267 188.186 29.98C188.573 29.62 188.899 29.1533 189.166 28.58L192.246 29.78C191.673 30.8333 190.913 31.6667 189.966 32.28C189.019 32.8933 187.819 33.2 186.366 33.2ZM193.296 33L196.356 19.8H199.796L198.536 25.16L204.416 19.8H208.316L202.376 25.34L205.376 33H201.836L199.716 27.52L197.556 29.46L196.736 33H193.296ZM212.193 32.9L212.973 29.58L220.593 27.02L214.213 24.18L214.873 21.24L223.673 25.6L223.013 28.54L212.193 32.9ZM224.302 32.9L225.082 29.58L232.702 27.02L226.322 24.18L226.982 21.24L235.782 25.6L235.122 28.54L224.302 32.9ZM242.475 33L245.535 19.8H250.495C252.069 19.8 253.295 20.1533 254.175 20.86C255.069 21.5533 255.515 22.52 255.515 23.76C255.515 24.72 255.289 25.5733 254.835 26.32C254.382 27.0533 253.729 27.6333 252.875 28.06C252.022 28.4733 251.009 28.68 249.835 28.68H245.315L245.895 26.1H249.735C250.255 26.1 250.689 26.0067 251.035 25.82C251.395 25.62 251.662 25.3667 251.835 25.06C252.022 24.74 252.115 24.3933 252.115 24.02C252.115 23.5133 251.955 23.1133 251.635 22.82C251.315 22.5267 250.809 22.38 250.115 22.38H248.375L245.915 33H242.475ZM262.557 33.2C261.463 33.2 260.47 32.9733 259.577 32.52C258.683 32.0667 257.977 31.4067 257.457 30.54C256.937 29.66 256.677 28.6067 256.677 27.38C256.677 26.2867 256.83 25.2667 257.137 24.32C257.457 23.3733 257.917 22.5467 258.517 21.84C259.13 21.1333 259.877 20.5867 260.757 20.2C261.65 19.8 262.663 19.6 263.797 19.6C264.903 19.6 265.897 19.8333 266.777 20.3C267.657 20.7533 268.357 21.4133 268.877 22.28C269.397 23.1333 269.657 24.18 269.657 25.42C269.657 26.5133 269.497 27.5333 269.177 28.48C268.87 29.4133 268.41 30.24 267.797 30.96C267.197 31.6667 266.457 32.22 265.577 32.62C264.697 33.0067 263.69 33.2 262.557 33.2ZM262.677 30.5C263.277 30.5 263.79 30.34 264.217 30.02C264.657 29.7 265.023 29.28 265.317 28.76C265.61 28.2267 265.83 27.6467 265.977 27.02C266.123 26.3933 266.197 25.78 266.197 25.18C266.197 24.5667 266.097 24.0467 265.897 23.62C265.697 23.1933 265.41 22.8667 265.037 22.64C264.663 22.4133 264.203 22.3 263.657 22.3C263.07 22.3 262.557 22.46 262.117 22.78C261.677 23.1 261.31 23.5267 261.017 24.06C260.723 24.58 260.503 25.1533 260.357 25.78C260.21 26.3933 260.137 27.0067 260.137 27.62C260.137 28.2333 260.237 28.7533 260.437 29.18C260.637 29.6067 260.923 29.9333 261.297 30.16C261.683 30.3867 262.143 30.5 262.677 30.5ZM270.405 33L273.465 19.8H276.905L275.645 25.16L281.525 19.8H285.425L279.485 25.34L282.485 33H278.945L276.825 27.52L274.665 29.46L273.845 33H270.405ZM284.096 33L287.156 19.8H297.436L296.796 22.46H289.976L289.356 25.14H294.736L294.156 27.64H288.776L288.156 30.34H295.196L294.576 33H284.096ZM316.048 19.8L315.428 22.46H311.168L308.728 33H305.288L307.728 22.46H303.428L304.048 19.8H316.048ZM321.346 33.2C320.252 33.2 319.259 32.9733 318.366 32.52C317.472 32.0667 316.766 31.4067 316.246 30.54C315.726 29.66 315.466 28.6067 315.466 27.38C315.466 26.2867 315.619 25.2667 315.926 24.32C316.246 23.3733 316.706 22.5467 317.306 21.84C317.919 21.1333 318.666 20.5867 319.546 20.2C320.439 19.8 321.452 19.6 322.586 19.6C323.692 19.6 324.686 19.8333 325.566 20.3C326.446 20.7533 327.146 21.4133 327.666 22.28C328.186 23.1333 328.446 24.18 328.446 25.42C328.446 26.5133 328.286 27.5333 327.966 28.48C327.659 29.4133 327.199 30.24 326.586 30.96C325.986 31.6667 325.246 32.22 324.366 32.62C323.486 33.0067 322.479 33.2 321.346 33.2ZM321.466 30.5C322.066 30.5 322.579 30.34 323.006 30.02C323.446 29.7 323.812 29.28 324.106 28.76C324.399 28.2267 324.619 27.6467 324.766 27.02C324.912 26.3933 324.986 25.78 324.986 25.18C324.986 24.5667 324.886 24.0467 324.686 23.62C324.486 23.1933 324.199 22.8667 323.826 22.64C323.452 22.4133 322.992 22.3 322.446 22.3C321.859 22.3 321.346 22.46 320.906 22.78C320.466 23.1 320.099 23.5267 319.806 24.06C319.512 24.58 319.292 25.1533 319.146 25.78C318.999 26.3933 318.926 27.0067 318.926 27.62C318.926 28.2333 319.026 28.7533 319.226 29.18C319.426 29.6067 319.712 29.9333 320.086 30.16C320.472 30.3867 320.932 30.5 321.466 30.5ZM341.178 33.2C339.858 33.2 338.758 32.96 337.878 32.48C336.998 32 336.384 31.3067 336.038 30.4C335.691 29.4933 335.664 28.4067 335.958 27.14L337.678 19.8H341.118L339.338 27.62C339.204 28.2467 339.204 28.7733 339.338 29.2C339.484 29.6267 339.738 29.9533 340.098 30.18C340.471 30.3933 340.931 30.5 341.478 30.5C342.211 30.5 342.784 30.28 343.198 29.84C343.611 29.4 343.911 28.7533 344.098 27.9L345.978 19.8H349.398L347.498 28C347.098 29.7067 346.391 31 345.378 31.88C344.364 32.76 342.964 33.2 341.178 33.2ZM348.96 33L352.02 19.8H355.7L358.08 27.06L358.7 29.22H358.72L359.26 26.46L360.82 19.8H363.84L360.78 33H357.16L354.7 25.86L354.08 23.7H354.04L353.54 26.34L352 33H348.96ZM367.727 30.34H374.387L373.767 33H363.667L366.727 19.8H370.167L367.727 30.34ZM381.873 33.2C380.78 33.2 379.786 32.9733 378.893 32.52C378 32.0667 377.293 31.4067 376.773 30.54C376.253 29.66 375.993 28.6067 375.993 27.38C375.993 26.2867 376.146 25.2667 376.453 24.32C376.773 23.3733 377.233 22.5467 377.833 21.84C378.446 21.1333 379.193 20.5867 380.073 20.2C380.966 19.8 381.98 19.6 383.113 19.6C384.22 19.6 385.213 19.8333 386.093 20.3C386.973 20.7533 387.673 21.4133 388.193 22.28C388.713 23.1333 388.973 24.18 388.973 25.42C388.973 26.5133 388.813 27.5333 388.493 28.48C388.186 29.4133 387.726 30.24 387.113 30.96C386.513 31.6667 385.773 32.22 384.893 32.62C384.013 33.0067 383.006 33.2 381.873 33.2ZM381.993 30.5C382.593 30.5 383.106 30.34 383.533 30.02C383.973 29.7 384.34 29.28 384.633 28.76C384.926 28.2267 385.146 27.6467 385.293 27.02C385.44 26.3933 385.513 25.78 385.513 25.18C385.513 24.5667 385.413 24.0467 385.213 23.62C385.013 23.1933 384.726 22.8667 384.353 22.64C383.98 22.4133 383.52 22.3 382.973 22.3C382.386 22.3 381.873 22.46 381.433 22.78C380.993 23.1 380.626 23.5267 380.333 24.06C380.04 24.58 379.82 25.1533 379.673 25.78C379.526 26.3933 379.453 27.0067 379.453 27.62C379.453 28.2333 379.553 28.7533 379.753 29.18C379.953 29.6067 380.24 29.9333 380.613 30.16C381 30.3867 381.46 30.5 381.993 30.5ZM396.561 33.2C395.428 33.2 394.415 32.9733 393.521 32.52C392.628 32.0667 391.921 31.4133 391.401 30.56C390.881 29.7067 390.621 28.6867 390.621 27.5C390.621 26.38 390.781 25.3467 391.101 24.4C391.421 23.44 391.888 22.6 392.501 21.88C393.115 21.16 393.861 20.6 394.741 20.2C395.635 19.8 396.655 19.6 397.801 19.6C398.788 19.6 399.668 19.7667 400.441 20.1C401.215 20.4333 401.848 20.92 402.341 21.56C402.835 22.1867 403.161 22.9667 403.321 23.9L400.021 24.64C399.941 23.84 399.715 23.2533 399.341 22.88C398.968 22.4933 398.421 22.3 397.701 22.3C397.088 22.3 396.555 22.4667 396.101 22.8C395.648 23.12 395.268 23.54 394.961 24.06C394.655 24.58 394.428 25.1467 394.281 25.76C394.148 26.3733 394.081 26.9733 394.081 27.56C394.081 28.1733 394.188 28.7 394.401 29.14C394.615 29.5667 394.921 29.9 395.321 30.14C395.735 30.38 396.221 30.5 396.781 30.5C397.461 30.5 397.995 30.3267 398.381 29.98C398.768 29.62 399.095 29.1533 399.361 28.58L402.441 29.78C401.868 30.8333 401.108 31.6667 400.161 32.28C399.215 32.8933 398.015 33.2 396.561 33.2ZM403.491 33L406.551 19.8H409.991L408.731 25.16L414.611 19.8H418.511L412.571 25.34L415.571 33H412.031L409.911 27.52L407.751 29.46L406.931 33H403.491ZM422.388 32.9L423.168 29.58L430.788 27.02L424.408 24.18L425.068 21.24L433.868 25.6L433.208 28.54L422.388 32.9ZM434.498 32.9L435.278 29.58L442.898 27.02L436.518 24.18L437.178 21.24L445.978 25.6L445.318 28.54L434.498 32.9ZM452.671 33L455.731 19.8H460.691C462.264 19.8 463.491 20.1533 464.371 20.86C465.264 21.5533 465.711 22.52 465.711 23.76C465.711 24.72 465.484 25.5733 465.031 26.32C464.577 27.0533 463.924 27.6333 463.071 28.06C462.217 28.4733 461.204 28.68 460.031 28.68H455.511L456.091 26.1H459.931C460.451 26.1 460.884 26.0067 461.231 25.82C461.591 25.62 461.857 25.3667 462.031 25.06C462.217 24.74 462.311 24.3933 462.311 24.02C462.311 23.5133 462.151 23.1133 461.831 22.82C461.511 22.5267 461.004 22.38 460.311 22.38H458.571L456.111 33H452.671ZM472.752 33.2C471.659 33.2 470.665 32.9733 469.772 32.52C468.879 32.0667 468.172 31.4067 467.652 30.54C467.132 29.66 466.872 28.6067 466.872 27.38C466.872 26.2867 467.025 25.2667 467.332 24.32C467.652 23.3733 468.112 22.5467 468.712 21.84C469.325 21.1333 470.072 20.5867 470.952 20.2C471.845 19.8 472.859 19.6 473.992 19.6C475.099 19.6 476.092 19.8333 476.972 20.3C477.852 20.7533 478.552 21.4133 479.072 22.28C479.592 23.1333 479.852 24.18 479.852 25.42C479.852 26.5133 479.692 27.5333 479.372 28.48C479.065 29.4133 478.605 30.24 477.992 30.96C477.392 31.6667 476.652 32.22 475.772 32.62C474.892 33.0067 473.885 33.2 472.752 33.2ZM472.872 30.5C473.472 30.5 473.985 30.34 474.412 30.02C474.852 29.7 475.219 29.28 475.512 28.76C475.805 28.2267 476.025 27.6467 476.172 27.02C476.319 26.3933 476.392 25.78 476.392 25.18C476.392 24.5667 476.292 24.0467 476.092 23.62C475.892 23.1933 475.605 22.8667 475.232 22.64C474.859 22.4133 474.399 22.3 473.852 22.3C473.265 22.3 472.752 22.46 472.312 22.78C471.872 23.1 471.505 23.5267 471.212 24.06C470.919 24.58 470.699 25.1533 470.552 25.78C470.405 26.3933 470.332 27.0067 470.332 27.62C470.332 28.2333 470.432 28.7533 470.632 29.18C470.832 29.6067 471.119 29.9333 471.492 30.16C471.879 30.3867 472.339 30.5 472.872 30.5ZM480.6 33L483.66 19.8H487.1L485.84 25.16L491.72 19.8H495.62L489.68 25.34L492.68 33H489.14L487.02 27.52L484.86 29.46L484.04 33H480.6ZM494.292 33L497.352 19.8H507.632L506.992 22.46H500.172L499.552 25.14H504.932L504.352 27.64H498.972L498.352 30.34H505.392L504.772 33H494.292ZM526.243 19.8L525.623 22.46H521.363L518.923 33H515.483L517.923 22.46H513.623L514.243 19.8H526.243ZM531.541 33.2C530.448 33.2 529.454 32.9733 528.561 32.52C527.668 32.0667 526.961 31.4067 526.441 30.54C525.921 29.66 525.661 28.6067 525.661 27.38C525.661 26.2867 525.814 25.2667 526.121 24.32C526.441 23.3733 526.901 22.5467 527.501 21.84C528.114 21.1333 528.861 20.5867 529.741 20.2C530.634 19.8 531.648 19.6 532.781 19.6C533.888 19.6 534.881 19.8333 535.761 20.3C536.641 20.7533 537.341 21.4133 537.861 22.28C538.381 23.1333 538.641 24.18 538.641 25.42C538.641 26.5133 538.481 27.5333 538.161 28.48C537.854 29.4133 537.394 30.24 536.781 30.96C536.181 31.6667 535.441 32.22 534.561 32.62C533.681 33.0067 532.674 33.2 531.541 33.2ZM531.661 30.5C532.261 30.5 532.774 30.34 533.201 30.02C533.641 29.7 534.008 29.28 534.301 28.76C534.594 28.2267 534.814 27.6467 534.961 27.02C535.108 26.3933 535.181 25.78 535.181 25.18C535.181 24.5667 535.081 24.0467 534.881 23.62C534.681 23.1933 534.394 22.8667 534.021 22.64C533.648 22.4133 533.188 22.3 532.641 22.3C532.054 22.3 531.541 22.46 531.101 22.78C530.661 23.1 530.294 23.5267 530.001 24.06C529.708 24.58 529.488 25.1533 529.341 25.78C529.194 26.3933 529.121 27.0067 529.121 27.62C529.121 28.2333 529.221 28.7533 529.421 29.18C529.621 29.6067 529.908 29.9333 530.281 30.16C530.668 30.3867 531.128 30.5 531.661 30.5ZM551.373 33.2C550.053 33.2 548.953 32.96 548.073 32.48C547.193 32 546.58 31.3067 546.233 30.4C545.886 29.4933 545.86 28.4067 546.153 27.14L547.873 19.8H551.313L549.533 27.62C549.4 28.2467 549.4 28.7733 549.533 29.2C549.68 29.6267 549.933 29.9533 550.293 30.18C550.666 30.3933 551.126 30.5 551.673 30.5C552.406 30.5 552.98 30.28 553.393 29.84C553.806 29.4 554.106 28.7533 554.293 27.9L556.173 19.8H559.593L557.693 28C557.293 29.7067 556.586 31 555.573 31.88C554.56 32.76 553.16 33.2 551.373 33.2ZM559.155 33L562.215 19.8H565.895L568.275 27.06L568.895 29.22H568.915L569.455 26.46L571.015 19.8H574.035L570.975 33H567.355L564.895 25.86L564.275 23.7H564.235L563.735 26.34L562.195 33H559.155ZM577.922 30.34H584.582L583.962 33H573.862L576.922 19.8H580.362L577.922 30.34ZM592.068 33.2C590.975 33.2 589.982 32.9733 589.088 32.52C588.195 32.0667 587.488 31.4067 586.968 30.54C586.448 29.66 586.188 28.6067 586.188 27.38C586.188 26.2867 586.342 25.2667 586.648 24.32C586.968 23.3733 587.428 22.5467 588.028 21.84C588.642 21.1333 589.388 20.5867 590.268 20.2C591.162 19.8 592.175 19.6 593.308 19.6C594.415 19.6 595.408 19.8333 596.288 20.3C597.168 20.7533 597.868 21.4133 598.388 22.28C598.908 23.1333 599.168 24.18 599.168 25.42C599.168 26.5133 599.008 27.5333 598.688 28.48C598.382 29.4133 597.922 30.24 597.308 30.96C596.708 31.6667 595.968 32.22 595.088 32.62C594.208 33.0067 593.202 33.2 592.068 33.2ZM592.188 30.5C592.788 30.5 593.302 30.34 593.728 30.02C594.168 29.7 594.535 29.28 594.828 28.76C595.122 28.2267 595.342 27.6467 595.488 27.02C595.635 26.3933 595.708 25.78 595.708 25.18C595.708 24.5667 595.608 24.0467 595.408 23.62C595.208 23.1933 594.922 22.8667 594.548 22.64C594.175 22.4133 593.715 22.3 593.168 22.3C592.582 22.3 592.068 22.46 591.628 22.78C591.188 23.1 590.822 23.5267 590.528 24.06C590.235 24.58 590.015 25.1533 589.868 25.78C589.722 26.3933 589.648 27.0067 589.648 27.62C589.648 28.2333 589.748 28.7533 589.948 29.18C590.148 29.6067 590.435 29.9333 590.808 30.16C591.195 30.3867 591.655 30.5 592.188 30.5ZM606.757 33.2C605.623 33.2 604.61 32.9733 603.717 32.52C602.823 32.0667 602.117 31.4133 601.597 30.56C601.077 29.7067 600.817 28.6867 600.817 27.5C600.817 26.38 600.977 25.3467 601.297 24.4C601.617 23.44 602.083 22.6 602.697 21.88C603.31 21.16 604.057 20.6 604.937 20.2C605.83 19.8 606.85 19.6 607.997 19.6C608.983 19.6 609.863 19.7667 610.637 20.1C611.41 20.4333 612.043 20.92 612.537 21.56C613.03 22.1867 613.357 22.9667 613.517 23.9L610.217 24.64C610.137 23.84 609.91 23.2533 609.537 22.88C609.163 22.4933 608.617 22.3 607.897 22.3C607.283 22.3 606.75 22.4667 606.297 22.8C605.843 23.12 605.463 23.54 605.157 24.06C604.85 24.58 604.623 25.1467 604.477 25.76C604.343 26.3733 604.277 26.9733 604.277 27.56C604.277 28.1733 604.383 28.7 604.597 29.14C604.81 29.5667 605.117 29.9 605.517 30.14C605.93 30.38 606.417 30.5 606.977 30.5C607.657 30.5 608.19 30.3267 608.577 29.98C608.963 29.62 609.29 29.1533 609.557 28.58L612.637 29.78C612.063 30.8333 611.303 31.6667 610.357 32.28C609.41 32.8933 608.21 33.2 606.757 33.2ZM613.686 33L616.746 19.8H620.186L618.926 25.16L624.806 19.8H628.706L622.766 25.34L625.766 33H622.226L620.106 27.52L617.946 29.46L617.126 33H613.686ZM632.584 32.9L633.364 29.58L640.984 27.02L634.604 24.18L635.264 21.24L644.064 25.6L643.404 28.54L632.584 32.9ZM644.693 32.9L645.473 29.58L653.093 27.02L646.713 24.18L647.373 21.24L656.173 25.6L655.513 28.54L644.693 32.9ZM662.866 33L665.926 19.8H670.886C672.459 19.8 673.686 20.1533 674.566 20.86C675.459 21.5533 675.906 22.52 675.906 23.76C675.906 24.72 675.679 25.5733 675.226 26.32C674.773 27.0533 674.119 27.6333 673.266 28.06C672.413 28.4733 671.399 28.68 670.226 28.68H665.706L666.286 26.1H670.126C670.646 26.1 671.079 26.0067 671.426 25.82C671.786 25.62 672.053 25.3667 672.226 25.06C672.413 24.74 672.506 24.3933 672.506 24.02C672.506 23.5133 672.346 23.1133 672.026 22.82C671.706 22.5267 671.199 22.38 670.506 22.38H668.766L666.306 33H662.866ZM682.947 33.2C681.854 33.2 680.861 32.9733 679.967 32.52C679.074 32.0667 678.367 31.4067 677.847 30.54C677.327 29.66 677.067 28.6067 677.067 27.38C677.067 26.2867 677.221 25.2667 677.527 24.32C677.847 23.3733 678.307 22.5467 678.907 21.84C679.521 21.1333 680.267 20.5867 681.147 20.2C682.041 19.8 683.054 19.6 684.187 19.6C685.294 19.6 686.287 19.8333 687.167 20.3C688.047 20.7533 688.747 21.4133 689.267 22.28C689.787 23.1333 690.047 24.18 690.047 25.42C690.047 26.5133 689.887 27.5333 689.567 28.48C689.261 29.4133 688.801 30.24 688.187 30.96C687.587 31.6667 686.847 32.22 685.967 32.62C685.087 33.0067 684.081 33.2 682.947 33.2ZM683.067 30.5C683.667 30.5 684.181 30.34 684.607 30.02C685.047 29.7 685.414 29.28 685.707 28.76C686.001 28.2267 686.221 27.6467 686.367 27.02C686.514 26.3933 686.587 25.78 686.587 25.18C686.587 24.5667 686.487 24.0467 686.287 23.62C686.087 23.1933 685.801 22.8667 685.427 22.64C685.054 22.4133 684.594 22.3 684.047 22.3C683.461 22.3 682.947 22.46 682.507 22.78C682.067 23.1 681.701 23.5267 681.407 24.06C681.114 24.58 680.894 25.1533 680.747 25.78C680.601 26.3933 680.527 27.0067 680.527 27.62C680.527 28.2333 680.627 28.7533 680.827 29.18C681.027 29.6067 681.314 29.9333 681.687 30.16C682.074 30.3867 682.534 30.5 683.067 30.5ZM690.796 33L693.856 19.8H697.296L696.036 25.16L701.916 19.8H705.816L699.876 25.34L702.876 33H699.336L697.216 27.52L695.056 29.46L694.236 33H690.796ZM704.487 33L707.547 19.8H717.827L717.187 22.46H710.367L709.747 25.14H715.127L714.547 27.64H709.167L708.547 30.34H715.587L714.967 33H704.487ZM736.439 19.8L735.819 22.46H731.559L729.119 33H725.679L728.119 22.46H723.819L724.439 19.8H736.439ZM741.736 33.2C740.643 33.2 739.65 32.9733 738.756 32.52C737.863 32.0667 737.156 31.4067 736.636 30.54C736.116 29.66 735.856 28.6067 735.856 27.38C735.856 26.2867 736.01 25.2667 736.316 24.32C736.636 23.3733 737.096 22.5467 737.696 21.84C738.31 21.1333 739.056 20.5867 739.936 20.2C740.83 19.8 741.843 19.6 742.976 19.6C744.083 19.6 745.076 19.8333 745.956 20.3C746.836 20.7533 747.536 21.4133 748.056 22.28C748.576 23.1333 748.836 24.18 748.836 25.42C748.836 26.5133 748.676 27.5333 748.356 28.48C748.05 29.4133 747.59 30.24 746.976 30.96C746.376 31.6667 745.636 32.22 744.756 32.62C743.876 33.0067 742.87 33.2 741.736 33.2ZM741.856 30.5C742.456 30.5 742.97 30.34 743.396 30.02C743.836 29.7 744.203 29.28 744.496 28.76C744.79 28.2267 745.01 27.6467 745.156 27.02C745.303 26.3933 745.376 25.78 745.376 25.18C745.376 24.5667 745.276 24.0467 745.076 23.62C744.876 23.1933 744.59 22.8667 744.216 22.64C743.843 22.4133 743.383 22.3 742.836 22.3C742.25 22.3 741.736 22.46 741.296 22.78C740.856 23.1 740.49 23.5267 740.196 24.06C739.903 24.58 739.683 25.1533 739.536 25.78C739.39 26.3933 739.316 27.0067 739.316 27.62C739.316 28.2333 739.416 28.7533 739.616 29.18C739.816 29.6067 740.103 29.9333 740.476 30.16C740.863 30.3867 741.323 30.5 741.856 30.5ZM761.568 33.2C760.248 33.2 759.148 32.96 758.268 32.48C757.388 32 756.775 31.3067 756.428 30.4C756.082 29.4933 756.055 28.4067 756.348 27.14L758.068 19.8H761.508L759.728 27.62C759.595 28.2467 759.595 28.7733 759.728 29.2C759.875 29.6267 760.128 29.9533 760.488 30.18C760.862 30.3933 761.322 30.5 761.868 30.5C762.602 30.5 763.175 30.28 763.588 29.84C764.002 29.4 764.302 28.7533 764.488 27.9L766.368 19.8H769.788L767.888 28C767.488 29.7067 766.782 31 765.768 31.88C764.755 32.76 763.355 33.2 761.568 33.2ZM769.35 33L772.41 19.8H776.09L778.47 27.06L779.09 29.22H779.11L779.65 26.46L781.21 19.8H784.23L781.17 33H777.55L775.09 25.86L774.47 23.7H774.43L773.93 26.34L772.39 33H769.35ZM788.117 30.34H794.777L794.157 33H784.057L787.117 19.8H790.557L788.117 30.34ZM802.264 33.2C801.17 33.2 800.177 32.9733 799.284 32.52C798.39 32.0667 797.684 31.4067 797.164 30.54C796.644 29.66 796.384 28.6067 796.384 27.38C796.384 26.2867 796.537 25.2667 796.844 24.32C797.164 23.3733 797.624 22.5467 798.224 21.84C798.837 21.1333 799.584 20.5867 800.464 20.2C801.357 19.8 802.37 19.6 803.504 19.6C804.61 19.6 805.604 19.8333 806.484 20.3C807.364 20.7533 808.064 21.4133 808.584 22.28C809.104 23.1333 809.364 24.18 809.364 25.42C809.364 26.5133 809.204 27.5333 808.884 28.48C808.577 29.4133 808.117 30.24 807.504 30.96C806.904 31.6667 806.164 32.22 805.284 32.62C804.404 33.0067 803.397 33.2 802.264 33.2ZM802.384 30.5C802.984 30.5 803.497 30.34 803.924 30.02C804.364 29.7 804.73 29.28 805.024 28.76C805.317 28.2267 805.537 27.6467 805.684 27.02C805.83 26.3933 805.904 25.78 805.904 25.18C805.904 24.5667 805.804 24.0467 805.604 23.62C805.404 23.1933 805.117 22.8667 804.744 22.64C804.37 22.4133 803.91 22.3 803.364 22.3C802.777 22.3 802.264 22.46 801.824 22.78C801.384 23.1 801.017 23.5267 800.724 24.06C800.43 24.58 800.21 25.1533 800.064 25.78C799.917 26.3933 799.844 27.0067 799.844 27.62C799.844 28.2333 799.944 28.7533 800.144 29.18C800.344 29.6067 800.63 29.9333 801.004 30.16C801.39 30.3867 801.85 30.5 802.384 30.5ZM816.952 33.2C815.819 33.2 814.805 32.9733 813.912 32.52C813.019 32.0667 812.312 31.4133 811.792 30.56C811.272 29.7067 811.012 28.6867 811.012 27.5C811.012 26.38 811.172 25.3467 811.492 24.4C811.812 23.44 812.279 22.6 812.892 21.88C813.505 21.16 814.252 20.6 815.132 20.2C816.025 19.8 817.045 19.6 818.192 19.6C819.179 19.6 820.059 19.7667 820.832 20.1C821.605 20.4333 822.239 20.92 822.732 21.56C823.225 22.1867 823.552 22.9667 823.712 23.9L820.412 24.64C820.332 23.84 820.105 23.2533 819.732 22.88C819.359 22.4933 818.812 22.3 818.092 22.3C817.479 22.3 816.945 22.4667 816.492 22.8C816.039 23.12 815.659 23.54 815.352 24.06C815.045 24.58 814.819 25.1467 814.672 25.76C814.539 26.3733 814.472 26.9733 814.472 27.56C814.472 28.1733 814.579 28.7 814.792 29.14C815.005 29.5667 815.312 29.9 815.712 30.14C816.125 30.38 816.612 30.5 817.172 30.5C817.852 30.5 818.385 30.3267 818.772 29.98C819.159 29.62 819.485 29.1533 819.752 28.58L822.832 29.78C822.259 30.8333 821.499 31.6667 820.552 32.28C819.605 32.8933 818.405 33.2 816.952 33.2ZM823.882 33L826.942 19.8H830.382L829.122 25.16L835.002 19.8H838.902L832.962 25.34L835.962 33H832.422L830.302 27.52L828.142 29.46L827.322 33H823.882ZM842.779 32.9L843.559 29.58L851.179 27.02L844.799 24.18L845.459 21.24L854.259 25.6L853.599 28.54L842.779 32.9ZM854.888 32.9L855.668 29.58L863.288 27.02L856.908 24.18L857.568 21.24L866.368 25.6L865.708 28.54L854.888 32.9Z" fill="white"/>
</svg>
