<svg width="311" height="806" viewBox="0 0 311 806" fill="none" xmlns="http://www.w3.org/2000/svg">
<g filter="url(#filter0_d_559_141)">
<path d="M130.157 698.071C115.316 673.961 96.9842 674.503 84.0774 685.452C74.3018 693.746 77.1224 721.016 77.1224 721.016C77.1224 721.016 55.5688 716.238 46.5035 723.459C35.0929 732.548 32.1304 755.122 39.0366 764.179C52.7841 782.209 96.074 785.845 111.274 777.125C126.473 768.405 144.998 722.18 130.157 698.071Z" fill="#FBE7F3"/>
<path d="M79.3881 720.782L79.3882 720.782L79.3882 720.783L79.7131 723.924L76.6302 723.24L76.63 723.24L76.6294 723.24L76.629 723.24L76.6209 723.238L76.5818 723.23C76.5458 723.222 76.4898 723.21 76.4151 723.195C76.2655 723.164 76.0408 723.118 75.7491 723.062C75.1654 722.95 74.3151 722.796 73.2641 722.633C71.158 722.307 68.2662 721.946 65.1105 721.805C61.9453 721.663 58.5774 721.745 55.4987 722.275C52.3952 722.81 49.7701 723.769 47.9227 725.24C42.8115 729.312 39.3983 736.618 38.1488 744.201C36.8877 751.854 37.951 758.999 40.848 762.798C43.9711 766.894 48.8821 770.301 54.9031 772.949C60.9051 775.589 67.8729 777.415 74.9342 778.428C81.993 779.442 89.0779 779.634 95.294 779.048C101.555 778.459 106.743 777.098 110.14 775.149C113.451 773.25 117.215 769.107 120.782 763.293C124.312 757.539 127.512 750.374 129.798 742.717C134.414 727.26 135.121 710.48 128.217 699.265C121.009 687.554 113.191 682.206 105.972 680.853C98.7599 679.501 91.6238 682.037 85.5509 687.189C83.5925 688.851 82.1041 691.622 81.0494 695.159C80.006 698.658 79.4593 702.659 79.2069 706.494C78.9554 710.316 79.0008 713.899 79.1103 716.531C79.1649 717.845 79.2352 718.916 79.2915 719.655C79.3197 720.025 79.3443 720.311 79.3617 720.503C79.3703 720.598 79.3772 720.671 79.3818 720.718L79.3868 720.769L79.388 720.78L79.3881 720.782Z" stroke="#F4001F" stroke-width="4.55561"/>
</g>
<g filter="url(#filter1_d_559_141)">
<path d="M220.463 184.19C258.765 143.03 250.937 110.928 226.208 94.8568C207.478 82.6848 158.941 104.529 158.941 104.529C158.941 104.529 159.585 63.4383 143.07 51.8606C122.283 37.2877 80.1281 45.9963 66.2354 63.814C38.581 99.2816 48.1278 178.127 69.6582 199.633C91.1886 221.138 182.16 225.35 220.463 184.19Z" fill="#FBE7F3"/>
<path d="M159.761 106.353L156.892 107.645L156.941 104.498L156.941 104.498L156.941 104.498L156.941 104.494L156.941 104.474L156.942 104.393C156.943 104.319 156.944 104.208 156.944 104.06C156.945 103.766 156.943 103.329 156.936 102.766C156.922 101.641 156.883 100.015 156.786 98.0257C156.591 94.0426 156.161 88.6225 155.224 82.8571C154.287 77.0813 152.851 71.0239 150.669 65.7375C148.476 60.4258 145.609 56.0825 141.922 53.4983C132.143 46.6429 117.031 45.1223 102.409 47.6613C87.7792 50.2018 74.3286 56.6868 67.8126 65.0438C54.4301 82.2072 49.8887 110.188 51.4989 136.838C52.3007 150.11 54.6226 162.925 58.0572 173.72C61.507 184.561 66.0178 193.17 71.0716 198.218C76.0537 203.194 85.3306 207.383 97.3635 210.131C109.322 212.862 123.726 214.108 138.678 213.413C168.675 212.019 200.365 202.851 218.998 182.827C237.956 162.455 245.22 144.617 244.972 130.149C244.725 115.758 237.037 104.28 225.118 96.5337C220.959 93.8312 214.923 92.9016 207.889 93.2308C200.909 93.5575 193.242 95.1079 186.076 97.0583C178.922 99.0053 172.336 101.331 167.534 103.174C165.134 104.094 163.185 104.892 161.838 105.458C161.165 105.741 160.642 105.966 160.29 106.12C160.114 106.197 159.98 106.256 159.891 106.295L159.792 106.34L159.768 106.35L159.762 106.353L159.761 106.353Z" stroke="#F4001F" stroke-width="4"/>
</g>
<g filter="url(#filter2_d_559_141)">
<path d="M261.354 484.694C281.922 480.907 294.736 469.547 291 448.265C288.195 432.283 263.016 435.625 263.016 435.625C263.016 435.625 282.123 407.885 269.731 394.239C260.187 383.729 240.613 392.765 231.084 403.034C202.982 433.32 192.777 462.03 195.71 470.739C198.643 479.448 234.622 489.615 261.354 484.694Z" fill="#FBE7F3"/>
<path d="M263.315 437.883L263.314 437.884L258.23 438.558L261.14 434.334L263.315 437.883ZM263.315 437.883L263.316 437.883L263.323 437.882L263.365 437.877C263.405 437.872 263.467 437.865 263.551 437.856C263.72 437.837 263.973 437.811 264.3 437.782C264.956 437.725 265.904 437.66 267.055 437.63C269.366 437.569 272.439 437.649 275.564 438.196C281.971 439.316 287.616 442.164 288.757 448.658C290.528 458.748 288.351 466.167 283.588 471.527C278.747 476.976 270.959 480.609 260.941 482.453C247.971 484.841 232.625 483.577 220.133 480.612C213.896 479.131 208.465 477.249 204.463 475.248C202.46 474.247 200.875 473.246 199.738 472.294C198.571 471.318 198.044 470.534 197.868 470.012C197.34 468.443 197.312 465.523 198.27 461.243C199.208 457.057 201.022 451.866 203.818 445.951C209.407 434.128 218.847 419.571 232.753 404.584C237.265 399.721 244.202 395.125 251.069 393.022C257.985 390.904 264.143 391.473 268.045 395.77C270.65 398.639 271.677 402.311 271.632 406.438C271.588 410.592 270.452 415.062 268.887 419.252C267.328 423.425 265.387 427.206 263.827 429.953C263.049 431.323 262.371 432.428 261.89 433.186C261.649 433.565 261.458 433.857 261.329 434.052C261.265 434.149 261.216 434.222 261.184 434.269L261.149 434.321L261.141 434.332L261.14 434.333L263.315 437.883Z" stroke="#F4001F" stroke-width="4.55561"/>
</g>
<g filter="url(#filter3_d_559_141)">
<path d="M342.908 278.905C347.559 259.576 335.58 248.987 319.913 242.977C300.52 235.538 272.486 266.317 272.486 266.317C272.486 266.317 253.047 248.564 238.609 250.542C220.536 253.019 213.249 268.892 209.596 286.515C202.771 319.443 257.429 342.973 272.337 346.952C287.244 350.931 338.256 298.234 342.908 278.905Z" fill="#FBE7F3"/>
<path d="M274.17 267.851L274.17 267.851L274.172 267.849L274.185 267.835L274.239 267.776C274.266 267.747 274.299 267.711 274.34 267.668C274.376 267.629 274.418 267.584 274.466 267.533C274.667 267.318 274.969 267.001 275.361 266.597C276.146 265.79 277.294 264.64 278.734 263.28C281.617 260.556 285.646 257.013 290.255 253.708C294.876 250.394 299.996 247.38 305.061 245.64C310.134 243.897 314.932 243.506 319.097 245.104C326.743 248.036 333.203 251.987 337.209 257.315C341.135 262.537 342.875 269.306 340.693 278.372C339.648 282.713 335.848 289.307 330.189 296.889C324.597 304.383 317.395 312.573 309.863 320.053C302.324 327.54 294.517 334.253 287.726 338.828C284.326 341.118 281.248 342.826 278.635 343.84C275.955 344.879 274.085 345.061 272.924 344.751C265.708 342.825 248.572 336.058 234.142 325.737C219.544 315.296 208.718 301.975 211.827 286.977C213.628 278.284 216.284 270.263 220.561 264.155C224.781 258.128 230.586 253.941 238.919 252.799C242.027 252.373 245.557 252.997 249.222 254.316C252.869 255.628 256.5 257.573 259.749 259.616C262.99 261.655 265.801 263.758 267.803 265.355C268.802 266.152 269.596 266.82 270.137 267.285C270.407 267.518 270.614 267.7 270.752 267.822C270.821 267.883 270.872 267.929 270.905 267.959L270.941 267.992L270.949 267.999L270.95 267.999L274.17 267.851ZM274.17 267.851L274.17 267.852L272.634 269.537L270.95 268L274.17 267.851Z" stroke="#F4001F" stroke-width="4.55561"/>
</g>
<g filter="url(#filter4_d_559_141)">
<path d="M341.283 668.81C349.529 649.423 355.588 631.314 342.411 615.746C326.762 597.261 278.613 617.086 278.613 617.086C278.613 617.086 287.019 547.632 256.032 536.558C230.782 527.535 209.146 541.248 189.846 561.018C153.763 597.98 197.984 678.192 215.656 686.069C233.329 693.946 321.915 714.346 341.283 668.81Z" fill="#FBE7F3"/>
<path d="M279.481 619.192L279.48 619.192L276.352 616.812L276.352 616.812L276.352 616.811L276.353 616.803L276.357 616.77C276.361 616.739 276.366 616.692 276.373 616.629C276.388 616.503 276.409 616.313 276.435 616.064C276.488 615.565 276.562 614.826 276.645 613.88C276.812 611.986 277.017 609.262 277.167 605.957C277.468 599.338 277.548 590.423 276.675 581.189C275.8 571.931 273.979 562.485 270.55 554.734C267.123 546.987 262.21 541.185 255.266 538.703C231.384 530.169 210.678 542.939 191.476 562.609C174.4 580.101 176.048 608.213 184.749 633.715C189.062 646.357 195.033 658.104 200.996 667.151C203.977 671.674 206.935 675.49 209.655 678.392C212.414 681.335 214.789 683.188 216.584 683.988C225.106 687.787 251.361 694.803 277.867 695.192C291.1 695.386 304.218 693.923 315.147 689.7C326.034 685.494 334.644 678.599 339.187 667.919C343.313 658.218 346.754 649.132 347.614 640.617C348.461 632.227 346.797 624.453 340.672 617.218C337.285 613.217 332.004 611.129 325.591 610.421C319.192 609.715 311.955 610.42 305.067 611.722C298.199 613.02 291.793 614.89 287.095 616.44C284.749 617.214 282.836 617.906 281.514 618.402C280.853 618.651 280.34 618.85 279.994 618.986C279.821 619.054 279.691 619.107 279.604 619.142L279.508 619.181L279.486 619.19L279.481 619.192L279.481 619.192Z" stroke="#F4001F" stroke-width="4.55561"/>
</g>
<defs>
<filter id="filter0_d_559_141" x="25.976" y="678.215" width="109.635" height="112.813" filterUnits="userSpaceOnUse" color-interpolation-filters="sRGB">
<feFlood flood-opacity="0" result="BackgroundImageFix"/>
<feColorMatrix in="SourceAlpha" type="matrix" values="0 0 0 0 0 0 0 0 0 0 0 0 0 0 0 0 0 0 127 0" result="hardAlpha"/>
<feOffset dx="-9.37258" dy="9.37258"/>
<feComposite in2="hardAlpha" operator="out"/>
<feColorMatrix type="matrix" values="0 0 0 0 0.956863 0 0 0 0 0 0 0 0 0 0.121569 0 0 0 1 0"/>
<feBlend mode="normal" in2="BackgroundImageFix" result="effect1_dropShadow_559_141"/>
<feBlend mode="normal" in="SourceGraphic" in2="effect1_dropShadow_559_141" result="shape"/>
</filter>
<filter id="filter1_d_559_141" x="37.2252" y="44.5073" width="209.753" height="183.058" filterUnits="userSpaceOnUse" color-interpolation-filters="sRGB">
<feFlood flood-opacity="0" result="BackgroundImageFix"/>
<feColorMatrix in="SourceAlpha" type="matrix" values="0 0 0 0 0 0 0 0 0 0 0 0 0 0 0 0 0 0 127 0" result="hardAlpha"/>
<feOffset dx="-11.9633" dy="11.9633"/>
<feComposite in2="hardAlpha" operator="out"/>
<feColorMatrix type="matrix" values="0 0 0 0 0.956863 0 0 0 0 0 0 0 0 0 0.121569 0 0 0 1 0"/>
<feBlend mode="normal" in2="BackgroundImageFix" result="effect1_dropShadow_559_141"/>
<feBlend mode="normal" in="SourceGraphic" in2="effect1_dropShadow_559_141" result="shape"/>
</filter>
<filter id="filter2_d_559_141" x="181.558" y="389.553" width="110.088" height="110.095" filterUnits="userSpaceOnUse" color-interpolation-filters="sRGB">
<feFlood flood-opacity="0" result="BackgroundImageFix"/>
<feColorMatrix in="SourceAlpha" type="matrix" values="0 0 0 0 0 0 0 0 0 0 0 0 0 0 0 0 0 0 127 0" result="hardAlpha"/>
<feOffset dx="-13.6668" dy="13.6668"/>
<feComposite in2="hardAlpha" operator="out"/>
<feColorMatrix type="matrix" values="0 0 0 0 0.956863 0 0 0 0 0 0 0 0 0 0.121569 0 0 0 1 0"/>
<feBlend mode="normal" in2="BackgroundImageFix" result="effect1_dropShadow_559_141"/>
<feBlend mode="normal" in="SourceGraphic" in2="effect1_dropShadow_559_141" result="shape"/>
</filter>
<filter id="filter3_d_559_141" x="201.476" y="241.817" width="142.446" height="112.883" filterUnits="userSpaceOnUse" color-interpolation-filters="sRGB">
<feFlood flood-opacity="0" result="BackgroundImageFix"/>
<feColorMatrix in="SourceAlpha" type="matrix" values="0 0 0 0 0 0 0 0 0 0 0 0 0 0 0 0 0 0 127 0" result="hardAlpha"/>
<feOffset dx="-7.53415" dy="7.53415"/>
<feComposite in2="hardAlpha" operator="out"/>
<feColorMatrix type="matrix" values="0 0 0 0 0.956863 0 0 0 0 0 0 0 0 0 0.121569 0 0 0 1 0"/>
<feBlend mode="normal" in2="BackgroundImageFix" result="effect1_dropShadow_559_141"/>
<feBlend mode="normal" in="SourceGraphic" in2="effect1_dropShadow_559_141" result="shape"/>
</filter>
<filter id="filter4_d_559_141" x="162.407" y="533.725" width="187.69" height="177.428" filterUnits="userSpaceOnUse" color-interpolation-filters="sRGB">
<feFlood flood-opacity="0" result="BackgroundImageFix"/>
<feColorMatrix in="SourceAlpha" type="matrix" values="0 0 0 0 0 0 0 0 0 0 0 0 0 0 0 0 0 0 127 0" result="hardAlpha"/>
<feOffset dx="-13.6668" dy="13.6668"/>
<feComposite in2="hardAlpha" operator="out"/>
<feColorMatrix type="matrix" values="0 0 0 0 0.956863 0 0 0 0 0 0 0 0 0 0.121569 0 0 0 1 0"/>
<feBlend mode="normal" in2="BackgroundImageFix" result="effect1_dropShadow_559_141"/>
<feBlend mode="normal" in="SourceGraphic" in2="effect1_dropShadow_559_141" result="shape"/>
</filter>
</defs>
</svg>
