<svg width="791" height="1453" viewBox="0 0 791 1453" fill="none" xmlns="http://www.w3.org/2000/svg">
<g filter="url(#filter0_d_1266_1059)">
<path d="M665.71 169.677L663.354 181.731C663.066 183.204 662.085 184.447 660.719 185.069L627.294 200.289C623.765 201.895 619.936 198.728 620.853 194.961L623.858 182.611C624.195 181.225 625.15 180.071 626.447 179.48L659.223 164.556C662.663 162.99 666.435 165.967 665.71 169.677Z" fill="#FBE7F3"/>
<path d="M675.189 191.601L664.55 185.463C663.25 184.713 661.668 184.637 660.302 185.259L626.877 200.479C623.348 202.086 623.223 207.053 626.666 208.835L637.955 214.677C639.221 215.332 640.718 215.37 642.016 214.779L674.792 199.855C678.232 198.289 678.463 193.49 675.189 191.601Z" fill="#FBE7F3"/>
<line y1="-2.32349" x2="320.565" y2="-2.32349" transform="matrix(-0.910097 0.414395 0.414395 0.910097 667.235 183.62)" stroke="#FF7E55" stroke-width="4.64699"/>
<mask id="mask0_1266_1059" style="mask-type:luminance" maskUnits="userSpaceOnUse" x="335" y="273" width="76" height="86">
<path d="M410.504 329.899L388.549 273.001L335.079 301.731L357.034 358.629L410.504 329.899Z" fill="white"/>
</mask>
<g mask="url(#mask0_1266_1059)">
<path d="M391.427 334.645C403.826 327.982 401.372 307.243 384.849 309.334C397.033 296 385.389 280.2 372.99 286.862C359.519 294.1 351.657 327.169 351.657 327.169C351.657 327.169 377.956 341.883 391.427 334.645Z" fill="#F4001F"/>
</g>
<g filter="url(#filter1_d_1266_1059)">
<path d="M614.116 395.494L483.427 126.514" stroke="#F4001F" stroke-width="4.64534"/>
<path d="M624.696 431.04C627.965 425.522 626.142 418.399 620.624 415.129C615.106 411.86 607.983 413.682 604.713 419.2L624.696 431.04ZM612.965 435.744L623.812 431.596L623.812 431.596L612.965 435.744ZM496.166 349.263L506.255 343.512L506.255 343.512L496.166 349.263ZM459.644 121.808C466.003 122.648 471.838 118.174 472.678 111.816C473.518 105.457 469.045 99.6215 462.686 98.7815L459.644 121.808ZM451.738 105.096L461.703 99.1325L461.703 99.1325L451.738 105.096ZM447.54 250.366L458.297 245.989L458.297 245.989L447.54 250.366ZM614.704 425.12C604.713 419.2 604.711 419.203 604.71 419.206C604.709 419.207 604.708 419.21 604.706 419.212C604.704 419.216 604.702 419.22 604.699 419.224C604.694 419.232 604.689 419.241 604.684 419.25C604.674 419.268 604.662 419.287 604.65 419.308C604.625 419.351 604.597 419.4 604.566 419.455C604.503 419.566 604.427 419.702 604.341 419.861C604.169 420.179 603.951 420.598 603.71 421.1C603.236 422.088 602.628 423.49 602.096 425.164C601.171 428.077 599.809 433.855 602.118 439.893L623.812 431.596C624.334 432.961 623.842 433.427 624.233 432.196C624.359 431.798 624.521 431.42 624.652 431.146C624.714 431.018 624.758 430.935 624.772 430.909C624.778 430.897 624.777 430.9 624.765 430.921C624.759 430.932 624.75 430.947 624.739 430.967C624.733 430.976 624.727 430.987 624.719 431C624.716 431.006 624.712 431.012 624.708 431.019C624.706 431.022 624.704 431.026 624.702 431.029C624.701 431.031 624.699 431.034 624.699 431.035C624.697 431.037 624.696 431.04 614.704 425.12ZM602.118 439.893C604.001 444.818 607.571 450.03 613.048 453.295C619.049 456.873 626.569 457.577 633.918 454.007L623.767 433.115C623.618 433.188 623.59 433.182 623.677 433.163C623.767 433.144 623.923 433.123 624.126 433.133C624.566 433.155 624.861 433.297 624.942 433.345C624.988 433.372 624.822 433.28 624.55 432.932C624.281 432.587 624.013 432.123 623.812 431.596L602.118 439.893ZM633.918 454.007C642.14 450.012 646.589 442.845 647.833 435.232C649.007 428.045 647.353 420.751 644.418 414.71L623.526 424.861C624.887 427.661 625.139 430.083 624.91 431.488C624.807 432.115 624.636 432.414 624.548 432.537C624.484 432.628 624.314 432.85 623.767 433.115L633.918 454.007ZM644.418 414.71C628.435 381.816 594.59 376.703 568.244 372.381C539.354 367.642 517.74 363.66 506.255 343.512L486.077 355.014C503.973 386.41 538.299 391.006 564.484 395.302C593.214 400.014 613.58 404.39 623.526 424.861L644.418 414.71ZM506.255 343.512C501.541 335.241 497.546 322.902 494.667 311.9C493.265 306.542 492.192 301.753 491.47 298.309C491.109 296.59 490.838 295.214 490.659 294.279C490.57 293.812 490.504 293.455 490.461 293.222C490.439 293.105 490.424 293.019 490.414 292.965C490.409 292.938 490.406 292.919 490.404 292.909C490.403 292.904 490.402 292.901 490.402 292.899C490.402 292.899 490.402 292.899 490.402 292.899C490.402 292.9 490.402 292.9 490.402 292.901C490.403 292.902 490.403 292.903 478.966 294.92C467.529 296.938 467.53 296.94 467.53 296.941C467.53 296.942 467.53 296.943 467.531 296.945C467.531 296.947 467.532 296.951 467.532 296.954C467.534 296.962 467.535 296.971 467.537 296.983C467.541 297.006 467.547 297.038 467.554 297.078C467.569 297.158 467.589 297.271 467.616 297.415C467.669 297.703 467.746 298.118 467.847 298.645C468.049 299.7 468.346 301.21 468.737 303.075C469.518 306.798 470.677 311.969 472.197 317.779C475.162 329.114 479.768 343.946 486.077 355.014L506.255 343.512ZM461.165 110.295C462.686 98.7815 462.689 98.7819 462.692 98.7824C462.693 98.7825 462.696 98.7829 462.698 98.7832C462.702 98.7837 462.706 98.7843 462.71 98.7848C462.718 98.7858 462.725 98.7868 462.733 98.7878C462.747 98.7897 462.759 98.7915 462.771 98.7931C462.793 98.7963 462.81 98.7988 462.822 98.8006C462.846 98.8042 462.85 98.805 462.836 98.8027C462.807 98.7977 462.715 98.7811 462.576 98.7502C462.279 98.6841 461.883 98.5776 461.491 98.4308C460.282 97.9775 460.953 97.8787 461.703 99.1325L441.773 111.06C445.092 116.606 450.477 119.107 453.339 120.18C454.983 120.796 456.461 121.184 457.531 121.422C458.075 121.543 458.538 121.631 458.894 121.692C459.073 121.723 459.227 121.748 459.353 121.767C459.415 121.776 459.471 121.784 459.52 121.791C459.544 121.795 459.567 121.798 459.588 121.801C459.598 121.802 459.608 121.803 459.617 121.805C459.622 121.805 459.627 121.806 459.631 121.806C459.633 121.807 459.637 121.807 459.638 121.807C459.641 121.808 459.644 121.808 461.165 110.295ZM461.703 99.1325C461.413 98.6487 461.214 98.1508 461.109 97.7269C461.003 97.2981 461.033 97.1107 461.027 97.1629C461.014 97.2564 460.944 97.5761 460.688 97.9359C460.571 98.1012 460.458 98.2118 460.387 98.2707C460.319 98.3274 460.332 98.3014 460.481 98.2289L450.33 77.3376C442.982 80.9079 438.888 87.2549 437.992 94.1845C437.174 100.508 439.065 106.535 441.773 111.06L461.703 99.1325ZM460.481 98.2289C461.027 97.9634 461.307 97.9666 461.418 97.9721C461.569 97.9795 461.91 98.0292 462.467 98.3365C463.712 99.024 465.461 100.719 466.821 103.52L487.713 93.3694C484.778 87.3282 480.066 81.5204 473.69 78.0015C466.937 74.2738 458.553 73.3425 450.33 77.3376L460.481 98.2289ZM466.821 103.52C476.768 123.991 467.621 142.706 453.569 168.204C440.763 191.445 423.162 221.271 436.783 254.744L458.297 245.989C449.555 224.508 459.782 205.055 473.912 179.414C486.797 156.032 503.695 126.263 487.713 93.3694L466.821 103.52ZM436.783 254.744C441.585 266.544 450.399 279.331 457.477 288.668C461.105 293.453 464.454 297.561 466.899 300.475C468.123 301.935 469.127 303.102 469.831 303.913C470.183 304.318 470.461 304.635 470.655 304.855C470.752 304.965 470.828 305.051 470.882 305.112C470.909 305.142 470.931 305.166 470.947 305.184C470.955 305.192 470.961 305.2 470.966 305.205C470.968 305.208 470.971 305.211 470.972 305.213C470.973 305.214 470.974 305.215 470.975 305.215C470.976 305.216 470.977 305.217 479.631 297.473C488.286 289.73 488.287 289.73 488.287 289.731C488.287 289.731 488.288 289.732 488.288 289.732C488.288 289.732 488.288 289.732 488.288 289.732C488.287 289.731 488.285 289.729 488.282 289.725C488.275 289.717 488.262 289.703 488.244 289.682C488.208 289.641 488.15 289.576 488.071 289.487C487.914 289.309 487.674 289.036 487.362 288.677C486.738 287.958 485.823 286.895 484.695 285.549C482.433 282.853 479.333 279.05 475.986 274.636C469.116 265.573 461.885 254.807 458.297 245.989L436.783 254.744Z" fill="#FDA4AF"/>
<path d="M482.725 147.563L473.788 139.825" stroke="#F4001F" stroke-width="4.64534" stroke-linecap="round"/>
<path d="M484.174 142.258L475.237 134.52" stroke="#F4001F" stroke-width="4.64534" stroke-linecap="round"/>
<path d="M605.74 399.564L605.18 387.757" stroke="#F4001F" stroke-width="4.64534" stroke-linecap="round"/>
<path d="M600.674 397.425L600.114 385.617" stroke="#F4001F" stroke-width="4.64534" stroke-linecap="round"/>
</g>
<g filter="url(#filter2_d_1266_1059)">
<path d="M571.425 1188.18C556.584 1160.78 538.922 1160.92 526.72 1172.88C517.478 1181.93 520.8 1212.58 520.8 1212.58C520.8 1212.58 499.914 1206.68 491.333 1214.55C480.533 1224.45 478.175 1249.69 485.034 1260.02C498.686 1280.58 540.503 1285.75 554.965 1276.35C569.427 1266.95 586.266 1215.59 571.425 1188.18Z" fill="#FBE7F3"/>
<path d="M522.943 1212.18L522.943 1212.18L522.943 1212.18L523.335 1215.79L520.167 1214.9L520.167 1214.9L520.167 1214.9L520.166 1214.9L520.158 1214.9L520.12 1214.89C520.085 1214.88 520.031 1214.86 519.958 1214.84C519.813 1214.8 519.594 1214.75 519.312 1214.68C518.746 1214.54 517.922 1214.34 516.904 1214.13C514.865 1213.71 512.068 1213.24 509.023 1213C505.967 1212.76 502.729 1212.77 499.786 1213.28C496.815 1213.8 494.355 1214.8 492.658 1216.36C487.884 1220.74 484.744 1228.8 483.7 1237.33C482.654 1245.87 483.815 1254.05 486.795 1258.54C493.16 1268.13 506.387 1274.41 520.17 1277.06C527.002 1278.38 533.834 1278.77 539.804 1278.27C545.827 1277.77 550.761 1276.37 553.945 1274.3C557.036 1272.29 560.551 1267.79 563.863 1261.36C567.135 1255.01 570.061 1247.06 572.098 1238.52C576.199 1221.34 576.556 1202.41 569.559 1189.49C562.299 1176.08 554.565 1169.82 547.518 1168.11C540.537 1166.41 533.78 1169.07 528.102 1174.63C526.299 1176.4 524.926 1179.43 523.981 1183.4C523.05 1187.31 522.61 1191.79 522.451 1196.1C522.292 1200.39 522.416 1204.42 522.58 1207.38C522.661 1208.86 522.753 1210.07 522.824 1210.9C522.86 1211.32 522.89 1211.64 522.911 1211.86C522.921 1211.97 522.93 1212.05 522.935 1212.1L522.941 1212.16L522.943 1212.17L522.943 1212.18Z" stroke="#F4001F" stroke-width="4.55561"/>
</g>
<g filter="url(#filter3_d_1266_1059)">
<path d="M654.713 603.032C684.721 566.377 678.588 537.788 659.214 523.476C644.54 512.636 606.514 532.09 606.514 532.09C606.514 532.09 607.019 495.496 594.08 485.186C577.794 472.208 544.769 479.963 533.884 495.831C512.219 527.417 519.698 597.633 536.566 616.785C553.434 635.937 624.705 639.688 654.713 603.032Z" fill="#FBE7F3"/>
<path d="M607.403 534.296L607.402 534.296L604.333 535.867L604.386 532.031L604.386 532.03L604.386 532.03L604.386 532.027L604.386 532.011L604.386 531.941C604.387 531.876 604.388 531.779 604.388 531.649C604.388 531.39 604.388 531.004 604.382 530.506C604.371 529.511 604.341 528.071 604.265 526.307C604.112 522.776 603.777 517.974 603.048 512.87C602.317 507.754 601.201 502.413 599.515 497.769C597.817 493.094 595.626 489.358 592.869 487.161C585.388 481.2 573.728 479.825 562.34 482.073C550.946 484.322 540.559 490.052 535.568 497.328C525.202 512.44 521.642 537.174 522.9 560.847C523.526 572.62 525.337 583.979 528.012 593.535C530.703 603.148 534.201 610.697 538.064 615.083C541.849 619.381 548.986 623.075 558.379 625.514C567.691 627.931 578.924 629.038 590.594 628.421C614.029 627.184 638.688 619.041 653.148 601.377C667.95 583.296 673.544 567.556 673.353 554.895C673.164 542.333 667.27 532.3 658.065 525.5C654.96 523.206 650.379 522.373 644.908 522.664C639.496 522.952 633.533 524.321 627.938 526.052C622.356 527.778 617.214 529.842 613.463 531.478C611.59 532.295 610.068 533.003 609.017 533.505C608.492 533.756 608.085 533.956 607.811 534.092C607.674 534.16 607.57 534.212 607.501 534.246L607.425 534.285L607.407 534.294L607.403 534.296L607.403 534.296Z" stroke="#F4001F" stroke-width="4.55561"/>
</g>
<g filter="url(#filter4_d_1266_1059)">
<path d="M702.22 873.881C720.579 860.264 727.879 842.382 714.448 821.912C704.362 806.54 681.295 821.857 681.295 821.857C681.295 821.857 687.216 783.912 668.836 775.483C654.68 768.99 639.705 787.621 635.114 802.822C621.572 847.649 624.794 882.426 631.663 890.143C638.532 897.86 678.362 891.577 702.22 873.881Z" fill="#FBE7F3"/>
<path d="M682.461 823.824L682.46 823.824L678.312 826.579L679.102 821.515L679.102 821.515L679.102 821.514L679.103 821.512L679.105 821.496L679.116 821.425C679.126 821.359 679.14 821.259 679.158 821.127C679.195 820.861 679.248 820.465 679.309 819.954C679.431 818.933 679.587 817.456 679.718 815.654C679.98 812.043 680.14 807.166 679.744 802.055C679.346 796.926 678.397 791.681 676.508 787.268C674.629 782.876 671.881 779.439 667.921 777.623C661.996 774.905 655.645 777.28 649.86 782.742C644.098 788.181 639.415 796.265 637.23 803.497C630.523 825.7 627.984 845.363 627.956 860.368C627.942 867.875 628.557 874.171 629.57 879.014C630.603 883.948 631.989 887.068 633.297 888.537C633.772 889.07 634.714 889.663 636.322 890.14C637.898 890.608 639.927 890.911 642.355 891.016C647.207 891.226 653.395 890.638 660.178 889.252C673.764 886.478 689.361 880.583 700.957 871.982C709.907 865.343 715.881 857.866 718.124 849.841C720.339 841.919 719.036 833.044 712.612 823.254C708.379 816.803 701.372 816.543 694.615 818.378C691.296 819.279 688.246 820.643 686.011 821.795C684.898 822.369 683.999 822.884 683.383 823.252C683.075 823.436 682.838 823.583 682.682 823.682C682.603 823.732 682.545 823.769 682.508 823.793L682.469 823.819L682.462 823.823L682.461 823.824L682.461 823.824Z" stroke="#F4001F" stroke-width="4.55561"/>
</g>
<g filter="url(#filter5_d_1266_1059)">
<path d="M802.676 679.832C807.327 657.86 795.349 645.823 779.681 638.991C760.288 630.536 732.254 665.523 732.254 665.523C732.254 665.523 712.815 645.343 698.378 647.592C680.304 650.407 673.017 668.45 669.364 688.482C662.539 725.913 717.197 752.659 732.105 757.183C747.012 761.706 798.024 701.804 802.676 679.832Z" fill="#FBE7F3"/>
<path d="M734.019 667.044L734.019 667.044L732.485 668.958L730.698 667.103L730.698 667.103L730.698 667.103L730.697 667.102L730.689 667.094L730.653 667.057C730.62 667.023 730.569 666.971 730.5 666.902C730.363 666.763 730.156 666.556 729.886 666.292C729.345 665.764 728.552 665.006 727.554 664.1C725.554 662.287 722.747 659.899 719.512 657.586C716.268 655.267 712.651 653.066 709.025 651.583C705.384 650.094 701.896 649.396 698.826 649.874C690.527 651.167 684.667 655.926 680.38 662.885C676.054 669.909 673.381 679.107 671.574 689.019C668.407 706.387 679.427 721.607 693.922 733.392C708.337 745.111 725.45 752.791 732.637 754.972C733.721 755.3 735.549 755.121 738.251 753.93C740.87 752.776 743.956 750.829 747.364 748.219C754.171 743.007 761.99 735.363 769.539 726.842C777.08 718.329 784.294 709.004 789.899 700.466C795.557 691.849 799.409 684.281 800.479 679.231C802.695 668.76 800.914 660.94 796.96 654.962C792.95 648.9 786.506 644.428 778.895 641.109C774.811 639.328 770.067 639.747 764.981 641.733C759.912 643.712 754.782 647.144 750.147 650.923C745.528 654.688 741.489 658.725 738.599 661.828C737.157 663.378 736.006 664.689 735.218 665.61C734.824 666.07 734.521 666.433 734.318 666.678C734.217 666.801 734.14 666.894 734.09 666.956L734.035 667.025L734.022 667.041L734.019 667.044L734.019 667.044Z" stroke="#F4001F" stroke-width="4.55561"/>
</g>
<g filter="url(#filter6_d_1266_1059)">
<path d="M811.784 1107.26C821.324 1081.31 828.305 1057.06 812.682 1036.05C794.131 1011.1 737.667 1037.26 737.667 1037.26C737.667 1037.26 746.993 944.122 710.463 928.975C680.696 916.634 655.362 934.84 632.825 961.197C590.689 1010.48 643.339 1118.54 664.186 1129.27C685.032 1140.01 789.374 1168.2 811.784 1107.26Z" fill="#FBE7F3"/>
<path d="M738.423 1039.48L738.423 1039.49L735.148 1041L735.541 1037.07L735.541 1037.07L735.542 1037.06L735.547 1037.02C735.551 1036.97 735.557 1036.91 735.565 1036.82C735.581 1036.65 735.604 1036.4 735.633 1036.06C735.692 1035.39 735.773 1034.39 735.864 1033.12C736.045 1030.57 736.265 1026.91 736.415 1022.46C736.717 1013.56 736.739 1001.57 735.635 989.12C734.528 976.651 732.3 963.865 728.162 953.321C724.023 942.774 718.08 934.728 709.663 931.238C681.182 919.43 656.76 936.617 634.342 962.836C624.288 974.594 619.803 989.943 619.155 1006.76C618.507 1023.6 621.716 1041.75 626.914 1058.84C632.108 1075.91 639.251 1091.79 646.369 1104.05C649.928 1110.17 653.461 1115.36 656.718 1119.32C660.01 1123.33 662.894 1125.92 665.131 1127.08C675.272 1132.3 706.284 1141.97 737.519 1142.74C753.12 1143.12 768.601 1141.27 781.489 1135.67C794.328 1130.1 804.497 1120.85 809.81 1106.41C819.405 1080.31 825.754 1057.45 811.022 1037.63C806.843 1032.01 800.421 1029.12 792.811 1028.1C785.206 1027.09 776.646 1027.98 768.537 1029.67C760.445 1031.35 752.907 1033.81 747.383 1035.85C744.625 1036.87 742.376 1037.78 740.82 1038.44C740.042 1038.77 739.438 1039.03 739.031 1039.21C738.828 1039.3 738.673 1039.37 738.571 1039.42L738.457 1039.47L738.43 1039.48L738.424 1039.48L738.423 1039.48Z" stroke="#F4001F" stroke-width="4.55561"/>
</g>
</g>
<defs>
<filter id="filter0_d_1266_1059" x="351.657" y="74.7432" width="474.881" height="1210.77" filterUnits="userSpaceOnUse" color-interpolation-filters="sRGB">
<feFlood flood-opacity="0" result="BackgroundImageFix"/>
<feColorMatrix in="SourceAlpha" type="matrix" values="0 0 0 0 0 0 0 0 0 0 0 0 0 0 0 0 0 0 127 0" result="hardAlpha"/>
<feOffset dx="4.64699" dy="4.64699"/>
<feComposite in2="hardAlpha" operator="out"/>
<feColorMatrix type="matrix" values="0 0 0 0 0 0 0 0 0 0.262745 0 0 0 0 0.552941 0 0 0 1 0"/>
<feBlend mode="normal" in2="BackgroundImageFix" result="effect1_dropShadow_1266_1059"/>
<feBlend mode="normal" in="SourceGraphic" in2="effect1_dropShadow_1266_1059" result="shape"/>
</filter>
<filter id="filter1_d_1266_1059" x="431.856" y="74.7432" width="225.648" height="390.905" filterUnits="userSpaceOnUse" color-interpolation-filters="sRGB">
<feFlood flood-opacity="0" result="BackgroundImageFix"/>
<feColorMatrix in="SourceAlpha" type="matrix" values="0 0 0 0 0 0 0 0 0 0 0 0 0 0 0 0 0 0 127 0" result="hardAlpha"/>
<feOffset dx="9.29068" dy="9.29068"/>
<feComposite in2="hardAlpha" operator="out"/>
<feColorMatrix type="matrix" values="0 0 0 0 0 0 0 0 0 0.262745 0 0 0 0 0.552941 0 0 0 1 0"/>
<feBlend mode="normal" in2="BackgroundImageFix" result="effect1_dropShadow_1266_1059"/>
<feBlend mode="normal" in="SourceGraphic" in2="effect1_dropShadow_1266_1059" result="shape"/>
</filter>
<filter id="filter2_d_1266_1059" x="471.792" y="1165.21" width="105.397" height="125.035" filterUnits="userSpaceOnUse" color-interpolation-filters="sRGB">
<feFlood flood-opacity="0" result="BackgroundImageFix"/>
<feColorMatrix in="SourceAlpha" type="matrix" values="0 0 0 0 0 0 0 0 0 0 0 0 0 0 0 0 0 0 127 0" result="hardAlpha"/>
<feOffset dx="-9.37258" dy="9.37258"/>
<feComposite in2="hardAlpha" operator="out"/>
<feColorMatrix type="matrix" values="0 0 0 0 0.956863 0 0 0 0 0 0 0 0 0 0.121569 0 0 0 1 0"/>
<feBlend mode="normal" in2="BackgroundImageFix" result="effect1_dropShadow_1266_1059"/>
<feBlend mode="normal" in="SourceGraphic" in2="effect1_dropShadow_1266_1059" result="shape"/>
</filter>
<filter id="filter3_d_1266_1059" x="511.157" y="478.637" width="164.33" height="161.743" filterUnits="userSpaceOnUse" color-interpolation-filters="sRGB">
<feFlood flood-opacity="0" result="BackgroundImageFix"/>
<feColorMatrix in="SourceAlpha" type="matrix" values="0 0 0 0 0 0 0 0 0 0 0 0 0 0 0 0 0 0 127 0" result="hardAlpha"/>
<feOffset dx="-9.37258" dy="9.37258"/>
<feComposite in2="hardAlpha" operator="out"/>
<feColorMatrix type="matrix" values="0 0 0 0 0.956863 0 0 0 0 0 0 0 0 0 0.121569 0 0 0 1 0"/>
<feBlend mode="normal" in2="BackgroundImageFix" result="effect1_dropShadow_1266_1059"/>
<feBlend mode="normal" in="SourceGraphic" in2="effect1_dropShadow_1266_1059" result="shape"/>
</filter>
<filter id="filter4_d_1266_1059" x="612.068" y="774.155" width="109.28" height="132.901" filterUnits="userSpaceOnUse" color-interpolation-filters="sRGB">
<feFlood flood-opacity="0" result="BackgroundImageFix"/>
<feColorMatrix in="SourceAlpha" type="matrix" values="0 0 0 0 0 0 0 0 0 0 0 0 0 0 0 0 0 0 127 0" result="hardAlpha"/>
<feOffset dx="-13.6668" dy="13.6668"/>
<feComposite in2="hardAlpha" operator="out"/>
<feColorMatrix type="matrix" values="0 0 0 0 0.956863 0 0 0 0 0 0 0 0 0 0.121569 0 0 0 1 0"/>
<feBlend mode="normal" in2="BackgroundImageFix" result="effect1_dropShadow_1266_1059"/>
<feBlend mode="normal" in="SourceGraphic" in2="effect1_dropShadow_1266_1059" result="shape"/>
</filter>
<filter id="filter5_d_1266_1059" x="661.243" y="637.673" width="142.447" height="127.287" filterUnits="userSpaceOnUse" color-interpolation-filters="sRGB">
<feFlood flood-opacity="0" result="BackgroundImageFix"/>
<feColorMatrix in="SourceAlpha" type="matrix" values="0 0 0 0 0 0 0 0 0 0 0 0 0 0 0 0 0 0 127 0" result="hardAlpha"/>
<feOffset dx="-7.53415" dy="7.53415"/>
<feComposite in2="hardAlpha" operator="out"/>
<feColorMatrix type="matrix" values="0 0 0 0 0.956863 0 0 0 0 0 0 0 0 0 0.121569 0 0 0 1 0"/>
<feBlend mode="normal" in2="BackgroundImageFix" result="effect1_dropShadow_1266_1059"/>
<feBlend mode="normal" in="SourceGraphic" in2="effect1_dropShadow_1266_1059" result="shape"/>
</filter>
<filter id="filter6_d_1266_1059" x="603.266" y="925.027" width="218.626" height="233.832" filterUnits="userSpaceOnUse" color-interpolation-filters="sRGB">
<feFlood flood-opacity="0" result="BackgroundImageFix"/>
<feColorMatrix in="SourceAlpha" type="matrix" values="0 0 0 0 0 0 0 0 0 0 0 0 0 0 0 0 0 0 127 0" result="hardAlpha"/>
<feOffset dx="-13.6668" dy="13.6668"/>
<feComposite in2="hardAlpha" operator="out"/>
<feColorMatrix type="matrix" values="0 0 0 0 0.956863 0 0 0 0 0 0 0 0 0 0.121569 0 0 0 1 0"/>
<feBlend mode="normal" in2="BackgroundImageFix" result="effect1_dropShadow_1266_1059"/>
<feBlend mode="normal" in="SourceGraphic" in2="effect1_dropShadow_1266_1059" result="shape"/>
</filter>
</defs>
</svg>
