<svg width="330" height="642" viewBox="0 0 330 642" fill="none" xmlns="http://www.w3.org/2000/svg">
<g filter="url(#filter0_d_903_351)">
<path d="M192.42 25.7713C196.678 10.8902 205.384 2.06998 219.386 5.87315C229.9 8.72906 225.556 27.0101 225.556 27.0101C225.556 27.0101 245.802 14.3993 253.947 24.1624C260.22 31.6821 252.514 45.5717 244.815 52.0396C222.109 71.1133 201.952 77.1533 196.339 74.568C190.727 71.9828 186.885 45.1112 192.42 25.7713Z" fill="#FBE7F3"/>
<path d="M223.34 26.4846L223.34 26.4836L223.341 26.4805L223.347 26.4518C223.353 26.4242 223.363 26.3801 223.376 26.3204C223.402 26.2011 223.44 26.0197 223.486 25.7845C223.578 25.3135 223.699 24.6296 223.814 23.7974C224.045 22.1224 224.244 19.8964 224.138 17.618C224.032 15.3147 223.621 13.1223 222.753 11.4097C221.922 9.7678 220.693 8.58853 218.789 8.07131C212.41 6.33868 207.505 7.50849 203.678 10.5899C199.733 13.7655 196.674 19.1832 194.609 26.398C191.942 35.7176 191.516 46.9658 192.465 56.2202C192.939 60.8415 193.747 64.8723 194.741 67.8515C195.24 69.3444 195.762 70.5041 196.269 71.3234C196.803 72.1862 197.183 72.4489 197.292 72.4992C198.052 72.8491 199.792 73.0563 202.718 72.5735C205.534 72.1086 209.117 71.0609 213.292 69.323C221.633 65.851 232.153 59.7013 243.35 50.2955C246.926 47.2917 250.549 42.5047 252.508 37.6437C254.505 32.6896 254.518 28.4021 252.198 25.6216C250.667 23.7869 248.535 22.925 245.932 22.7619C243.284 22.596 240.294 23.1721 237.387 24.0959C234.503 25.0126 231.836 26.2275 229.879 27.2227C228.904 27.7183 228.115 28.1546 227.573 28.4645C227.302 28.6194 227.094 28.7424 226.956 28.8251C226.886 28.8665 226.835 28.8977 226.802 28.9178L226.767 28.9395L226.76 28.9435L226.76 28.9437L226.76 28.944L226.759 28.9442L222.06 31.8715L223.34 26.4846ZM223.34 26.4846L223.339 26.4853L223.34 26.4846Z" stroke="#F4001F" stroke-width="4.55561"/>
</g>
<g filter="url(#filter1_d_903_351)">
<path d="M298.144 507.074C297.766 478.376 295.297 452.344 269.473 438.648C238.808 422.384 187.997 470.483 187.997 470.483C187.997 470.483 159.404 377.649 113.175 378.111C75.5044 378.488 55.399 406.248 41.7446 440.655C16.2165 504.983 118.754 586.734 146.006 588.469C173.258 590.203 299.029 574.481 298.144 507.074Z" fill="#FBE7F3"/>
<path d="M189.563 472.137L189.563 472.137L186.9 474.658L185.821 471.153L185.839 471.148C185.821 471.153 185.821 471.153 185.821 471.153L185.82 471.151L185.817 471.14L185.802 471.094C185.795 471.072 185.786 471.044 185.776 471.01C185.766 470.979 185.755 470.943 185.742 470.903C185.688 470.733 185.607 470.478 185.499 470.144C185.282 469.475 184.956 468.491 184.524 467.235C183.661 464.723 182.375 461.129 180.686 456.815C177.307 448.179 172.331 436.691 165.933 425.234C159.526 413.759 151.751 402.422 142.808 394.008C133.861 385.591 123.946 380.281 113.197 380.389C77.0119 380.751 57.444 407.27 43.8618 441.495C37.7518 456.892 39.2481 473.447 45.559 489.827C51.8756 506.221 62.9655 522.29 75.7752 536.51C88.5758 550.72 103.013 562.993 115.913 571.807C122.364 576.213 128.399 579.734 133.626 582.198C138.903 584.684 143.175 586.006 146.151 586.196C159.446 587.042 197.397 583.598 231.875 571.549C249.099 565.53 265.273 557.425 277.051 546.783C288.784 536.182 296.077 523.148 295.866 507.104C295.487 478.278 292.923 453.663 268.406 440.66C261.411 436.95 253.114 436.827 244.347 438.973C235.584 441.119 226.58 445.481 218.414 450.416C210.263 455.341 203.042 460.777 197.851 464.99C195.259 467.094 193.179 468.888 191.751 470.153C191.037 470.785 190.486 471.285 190.115 471.625C189.93 471.795 189.79 471.925 189.697 472.011C189.651 472.054 189.617 472.087 189.594 472.108L189.57 472.131L189.564 472.136L189.563 472.137Z" stroke="#F4001F" stroke-width="4.55561"/>
</g>
<g filter="url(#filter2_d_903_351)">
<path d="M344.724 240.316C338.855 209.529 318.157 191.3 277.622 199.215C247.182 205.159 251.918 242.983 251.918 242.983C251.918 242.983 200.6 216.945 173.978 237.178C153.472 252.761 169.343 281.485 188.185 294.848C243.752 334.256 297.469 346.694 314.146 341.326C330.823 335.957 352.351 280.328 344.724 240.316Z" fill="#FBE7F3"/>
<path d="M254.178 242.702L254.178 242.702L254.711 246.954L250.888 245.015L250.887 245.015L250.887 245.014L250.882 245.012L250.858 245L250.756 244.949C250.664 244.903 250.524 244.834 250.34 244.745C249.97 244.565 249.419 244.301 248.705 243.972C247.278 243.312 245.202 242.388 242.626 241.341C237.467 239.244 230.328 236.661 222.386 234.705C206.302 230.742 187.769 229.557 175.356 238.991C170.642 242.574 168.105 246.828 167.124 251.365C166.133 255.946 166.696 260.979 168.477 266.097C172.055 276.374 180.398 286.533 189.503 292.99C217.103 312.564 244.219 325.421 266.459 332.714C277.581 336.36 287.45 338.605 295.525 339.61C303.668 340.624 309.755 340.346 313.448 339.158C316.816 338.074 320.92 334.193 325.116 327.672C329.233 321.275 333.175 312.751 336.387 303.093C342.825 283.742 346.203 260.243 342.486 240.742C339.625 225.733 333.216 214.112 322.897 207.139C312.581 200.168 297.948 197.567 278.058 201.451C264.012 204.194 258.055 214.19 255.561 223.895C254.31 228.763 253.962 233.481 253.931 237C253.916 238.754 253.98 240.197 254.046 241.194C254.08 241.692 254.114 242.078 254.139 242.335C254.152 242.464 254.162 242.56 254.169 242.621L254.176 242.687L254.178 242.7L254.178 242.701L254.178 242.702Z" stroke="#F4001F" stroke-width="4.55561"/>
</g>
<defs>
<filter id="filter0_d_903_351" x="176.06" y="4.98993" width="80.1912" height="83.8121" filterUnits="userSpaceOnUse" color-interpolation-filters="sRGB">
<feFlood flood-opacity="0" result="BackgroundImageFix"/>
<feColorMatrix in="SourceAlpha" type="matrix" values="0 0 0 0 0 0 0 0 0 0 0 0 0 0 0 0 0 0 127 0" result="hardAlpha"/>
<feOffset dx="-13.6668" dy="13.6668"/>
<feComposite in2="hardAlpha" operator="out"/>
<feColorMatrix type="matrix" values="0 0 0 0 0.956863 0 0 0 0 0 0 0 0 0 0.121569 0 0 0 1 0"/>
<feBlend mode="normal" in2="BackgroundImageFix" result="effect1_dropShadow_903_351"/>
<feBlend mode="normal" in="SourceGraphic" in2="effect1_dropShadow_903_351" result="shape"/>
</filter>
<filter id="filter1_d_903_351" x="24.0314" y="378.109" width="274.117" height="224.151" filterUnits="userSpaceOnUse" color-interpolation-filters="sRGB">
<feFlood flood-opacity="0" result="BackgroundImageFix"/>
<feColorMatrix in="SourceAlpha" type="matrix" values="0 0 0 0 0 0 0 0 0 0 0 0 0 0 0 0 0 0 127 0" result="hardAlpha"/>
<feOffset dx="-13.6668" dy="13.6668"/>
<feComposite in2="hardAlpha" operator="out"/>
<feColorMatrix type="matrix" values="0 0 0 0 0.956863 0 0 0 0 0 0 0 0 0 0.121569 0 0 0 1 0"/>
<feBlend mode="normal" in2="BackgroundImageFix" result="effect1_dropShadow_903_351"/>
<feBlend mode="normal" in="SourceGraphic" in2="effect1_dropShadow_903_351" result="shape"/>
</filter>
<filter id="filter2_d_903_351" x="150.694" y="197.368" width="195.613" height="158.809" filterUnits="userSpaceOnUse" color-interpolation-filters="sRGB">
<feFlood flood-opacity="0" result="BackgroundImageFix"/>
<feColorMatrix in="SourceAlpha" type="matrix" values="0 0 0 0 0 0 0 0 0 0 0 0 0 0 0 0 0 0 127 0" result="hardAlpha"/>
<feOffset dx="-13.6668" dy="13.6668"/>
<feComposite in2="hardAlpha" operator="out"/>
<feColorMatrix type="matrix" values="0 0 0 0 0.956863 0 0 0 0 0 0 0 0 0 0.121569 0 0 0 1 0"/>
<feBlend mode="normal" in2="BackgroundImageFix" result="effect1_dropShadow_903_351"/>
<feBlend mode="normal" in="SourceGraphic" in2="effect1_dropShadow_903_351" result="shape"/>
</filter>
</defs>
</svg>
