<svg width="374" height="252" viewBox="0 0 374 252" fill="none" xmlns="http://www.w3.org/2000/svg">
<g filter="url(#filter0_d_559_224)">
<path d="M319.032 163.199L335.217 215.656L300.342 190.996L268.229 201.151L225.677 158.763L230.073 190.996L194.073 166.596L173.011 209.473L149.073 166.596L107.573 187.096L102.76 149.596L51.5735 166.596L63.0735 128.596L20.5735 106.596L67.5735 88.5965L63.0735 66.0965L117.219 77.6791L129.234 48.7765L155.074 80.0965L178.073 39.5964L205.574 77.6791L241.574 52.5965L248.573 85.5965L289.573 80.0965L293.573 114.096L316.573 140.596L274.55 144.596L274.55 183.215L319.032 163.199Z" fill="white"/>
<path d="M319.032 163.199L335.217 215.656L300.342 190.996L268.229 201.151L225.677 158.763L230.073 190.996L194.073 166.596L173.011 209.473L149.073 166.596L107.573 187.096L102.76 149.596L51.5735 166.596L63.0735 128.596L20.5735 106.596L67.5735 88.5965L63.0735 66.0965L117.219 77.6791L129.234 48.7765L155.074 80.0965L178.073 39.5964L205.574 77.6791L241.574 52.5965L248.573 85.5965L289.573 80.0965L293.573 114.096L316.573 140.596L274.55 144.596L274.55 183.215L319.032 163.199Z" stroke="#00438D" stroke-width="4"/>
</g>
<path d="M84.5113 119.039V100.722H97.5954V103.339H100.212V105.955H102.829V113.806H100.212V116.423H97.5954V119.039H84.5113ZM89.7449 116.423H94.9785V113.806H97.5954V105.955H94.9785V103.339H89.7449V116.423ZM108.063 119.039V116.423H105.446V103.339H108.063V100.722H121.147V103.339H123.764V116.423H121.147V119.039H108.063ZM110.679 116.423H118.53V103.339H110.679V116.423ZM126.38 119.039V100.722H131.614V103.339H134.231V105.955H136.848V108.572H139.464V100.722H144.698V119.039H139.464V113.806H136.848V111.189H134.231V108.572H131.614V119.039H126.38ZM155.165 119.039V103.339H149.932V100.722H165.633V103.339H160.399V119.039H155.165ZM189.184 119.039V100.722H194.418V103.339H197.035V105.955H199.651V103.339H202.268V100.722H207.502V119.039H202.268V108.572H199.651V113.806H197.035V108.572H194.418V119.039H189.184ZM212.735 119.039V116.423H217.969V103.339H212.735V100.722H228.436V103.339H223.203V116.423H228.436V119.039H212.735ZM233.67 119.039V116.423H231.053V113.806H236.287V116.423H244.137V111.189H233.67V108.572H231.053V103.339H233.67V100.722H246.754V103.339H249.371V105.955H244.137V103.339H236.287V108.572H246.754V111.189H249.371V116.423H246.754V119.039H233.67ZM254.605 119.039V116.423H251.988V113.806H257.221V116.423H265.072V111.189H254.605V108.572H251.988V103.339H254.605V100.722H267.689V103.339H270.306V105.955H265.072V103.339H257.221V108.572H267.689V111.189H270.306V116.423H267.689V119.039H254.605ZM149.932 146.039V143.423H155.165V130.339H149.932V127.722H165.633V130.339H160.399V143.423H165.633V146.039H149.932ZM176.1 146.039V130.339H170.866V127.722H186.567V130.339H181.334V146.039H176.1ZM194.418 140.806V127.722H202.268V135.572H199.651V140.806H194.418ZM194.418 146.039V143.423H199.651V146.039H194.418Z" fill="#00438D"/>
<defs>
<filter id="filter0_d_559_224" x="15.6948" y="35.9011" width="331.166" height="192.781" filterUnits="userSpaceOnUse" color-interpolation-filters="sRGB">
<feFlood flood-opacity="0" result="BackgroundImageFix"/>
<feColorMatrix in="SourceAlpha" type="matrix" values="0 0 0 0 0 0 0 0 0 0 0 0 0 0 0 0 0 0 127 0" result="hardAlpha"/>
<feOffset dx="8" dy="8"/>
<feComposite in2="hardAlpha" operator="out"/>
<feColorMatrix type="matrix" values="0 0 0 0 0 0 0 0 0 0.262745 0 0 0 0 0.552941 0 0 0 1 0"/>
<feBlend mode="normal" in2="BackgroundImageFix" result="effect1_dropShadow_559_224"/>
<feBlend mode="normal" in="SourceGraphic" in2="effect1_dropShadow_559_224" result="shape"/>
</filter>
</defs>
</svg>
