<svg width="306" height="93" viewBox="0 0 306 93" fill="none" xmlns="http://www.w3.org/2000/svg">
<g filter="url(#filter0_d_209_2)">
<path d="M175.827 53.2719C170.915 52.9652 152.483 46.9163 150.958 2C145.881 52.9464 124 52.9464 124 52.9464C124 52.9464 146.026 54.2527 150.958 87C153.688 58.1541 171.114 53.8968 175.827 53.2719C176.486 53.313 176.902 53.2507 177 53.1651C177 53.1651 176.573 53.1729 175.827 53.2719Z" fill="white"/>
<path d="M150.958 2C152.688 52.9464 176.169 53.8888 177 53.165C177 53.165 154.12 53.5874 150.958 87C146.026 54.2527 124 52.9464 124 52.9464C124 52.9464 145.881 52.9464 150.958 2Z" stroke="#00438D" stroke-width="4" stroke-linejoin="round"/>
</g>
<g filter="url(#filter1_d_209_2)">
<path d="M52.8487 49.5407C48.0298 49.382 29.9458 46.2508 28.449 23C23.4679 49.3722 2 49.3722 2 49.3722C2 49.3722 23.6109 50.0485 28.449 67C31.1276 52.068 48.2251 49.8642 52.8487 49.5407C53.4956 49.562 53.9035 49.5298 54 49.4854C54 49.4854 53.5806 49.4895 52.8487 49.5407Z" fill="white"/>
<path d="M28.449 23C30.1468 49.3722 53.1844 49.8601 54 49.4854C54 49.4854 31.5516 49.7041 28.449 67C23.6109 50.0485 2 49.3722 2 49.3722C2 49.3722 23.4679 49.3722 28.449 23Z" stroke="#00438D" stroke-width="4" stroke-linejoin="round"/>
</g>
<g filter="url(#filter2_d_209_2)">
<path d="M298.849 49.5407C294.03 49.382 275.946 46.2508 274.449 23C269.468 49.3722 248 49.3722 248 49.3722C248 49.3722 269.611 50.0485 274.449 67C277.128 52.068 294.225 49.8642 298.849 49.5407C299.496 49.562 299.903 49.5298 300 49.4854C300 49.4854 299.581 49.4895 298.849 49.5407Z" fill="white"/>
<path d="M274.449 23C276.147 49.3722 299.184 49.8601 300 49.4854C300 49.4854 277.552 49.7041 274.449 67C269.611 50.0485 248 49.3722 248 49.3722C248 49.3722 269.468 49.3722 274.449 23Z" stroke="#00438D" stroke-width="4" stroke-linejoin="round"/>
</g>
<defs>
<filter id="filter0_d_209_2" x="122" y="0" width="61" height="93" filterUnits="userSpaceOnUse" color-interpolation-filters="sRGB">
<feFlood flood-opacity="0" result="BackgroundImageFix"/>
<feColorMatrix in="SourceAlpha" type="matrix" values="0 0 0 0 0 0 0 0 0 0 0 0 0 0 0 0 0 0 127 0" result="hardAlpha"/>
<feOffset dx="4" dy="4"/>
<feComposite in2="hardAlpha" operator="out"/>
<feColorMatrix type="matrix" values="0 0 0 0 0.956863 0 0 0 0 0 0 0 0 0 0.121569 0 0 0 1 0"/>
<feBlend mode="normal" in2="BackgroundImageFix" result="effect1_dropShadow_209_2"/>
<feBlend mode="normal" in="SourceGraphic" in2="effect1_dropShadow_209_2" result="shape"/>
</filter>
<filter id="filter1_d_209_2" x="0" y="21" width="60" height="52" filterUnits="userSpaceOnUse" color-interpolation-filters="sRGB">
<feFlood flood-opacity="0" result="BackgroundImageFix"/>
<feColorMatrix in="SourceAlpha" type="matrix" values="0 0 0 0 0 0 0 0 0 0 0 0 0 0 0 0 0 0 127 0" result="hardAlpha"/>
<feOffset dx="4" dy="4"/>
<feComposite in2="hardAlpha" operator="out"/>
<feColorMatrix type="matrix" values="0 0 0 0 0.956863 0 0 0 0 0 0 0 0 0 0.121569 0 0 0 1 0"/>
<feBlend mode="normal" in2="BackgroundImageFix" result="effect1_dropShadow_209_2"/>
<feBlend mode="normal" in="SourceGraphic" in2="effect1_dropShadow_209_2" result="shape"/>
</filter>
<filter id="filter2_d_209_2" x="246" y="21" width="60" height="52" filterUnits="userSpaceOnUse" color-interpolation-filters="sRGB">
<feFlood flood-opacity="0" result="BackgroundImageFix"/>
<feColorMatrix in="SourceAlpha" type="matrix" values="0 0 0 0 0 0 0 0 0 0 0 0 0 0 0 0 0 0 127 0" result="hardAlpha"/>
<feOffset dx="4" dy="4"/>
<feComposite in2="hardAlpha" operator="out"/>
<feColorMatrix type="matrix" values="0 0 0 0 0.956863 0 0 0 0 0 0 0 0 0 0.121569 0 0 0 1 0"/>
<feBlend mode="normal" in2="BackgroundImageFix" result="effect1_dropShadow_209_2"/>
<feBlend mode="normal" in="SourceGraphic" in2="effect1_dropShadow_209_2" result="shape"/>
</filter>
</defs>
</svg>
