<svg width="828" height="35" viewBox="0 0 828 35" fill="none" xmlns="http://www.w3.org/2000/svg">
<rect width="827" height="35" fill="#FF7E55"/>
<path d="M-4.042 11.94C-2.938 11.94 -1.966 12.114 -1.126 12.462C-0.274 12.798 0.464 13.296 1.088 13.956L-0.405999 15.954C-0.922 15.414 -1.48 15.012 -2.08 14.748C-2.668 14.472 -3.34 14.334 -4.096 14.334C-4.54 14.334 -4.9 14.382 -5.176 14.478C-5.452 14.574 -5.65 14.706 -5.77 14.874C-5.89 15.042 -5.95 15.234 -5.95 15.45C-5.95 15.702 -5.836 15.918 -5.608 16.098C-5.368 16.266 -4.984 16.41 -4.456 16.53L-2.458 16.98C-1.27 17.256 -0.4 17.658 0.152 18.186C0.704 18.714 0.98 19.416 0.98 20.292C0.98 21.132 0.764 21.846 0.332 22.434C-0.0999994 23.01 -0.693999 23.448 -1.45 23.748C-2.206 24.036 -3.07 24.18 -4.042 24.18C-4.834 24.18 -5.59 24.096 -6.31 23.928C-7.03 23.748 -7.678 23.496 -8.254 23.172C-8.83 22.848 -9.316 22.476 -9.712 22.056L-8.218 19.986C-7.918 20.334 -7.552 20.646 -7.12 20.922C-6.676 21.186 -6.196 21.396 -5.68 21.552C-5.152 21.708 -4.618 21.786 -4.078 21.786C-3.658 21.786 -3.31 21.744 -3.034 21.66C-2.746 21.576 -2.536 21.45 -2.404 21.282C-2.272 21.114 -2.206 20.916 -2.206 20.688C-2.206 20.436 -2.296 20.226 -2.476 20.058C-2.656 19.878 -2.998 19.728 -3.502 19.608L-5.698 19.122C-6.37 18.966 -6.97 18.762 -7.498 18.51C-8.014 18.246 -8.422 17.898 -8.722 17.466C-9.022 17.022 -9.172 16.47 -9.172 15.81C-9.172 15.066 -8.968 14.406 -8.56 13.83C-8.152 13.242 -7.564 12.78 -6.796 12.444C-6.028 12.108 -5.11 11.94 -4.042 11.94ZM13.3016 12.12V19.158C13.3016 20.838 12.8516 22.098 11.9516 22.938C11.0636 23.766 9.74356 24.18 7.99156 24.18C6.25156 24.18 4.93156 23.766 4.03156 22.938C3.13156 22.098 2.68156 20.838 2.68156 19.158V12.12H5.79556V19.212C5.79556 20.064 5.97556 20.7 6.33556 21.12C6.70756 21.54 7.25956 21.75 7.99156 21.75C8.73556 21.75 9.28756 21.54 9.64756 21.12C10.0196 20.7 10.2056 20.064 10.2056 19.212V12.12H13.3016ZM21.1489 12.12C22.1209 12.12 22.9489 12.276 23.6329 12.588C24.3169 12.9 24.8389 13.35 25.1989 13.938C25.5589 14.526 25.7389 15.24 25.7389 16.08C25.7389 16.92 25.5589 17.634 25.1989 18.222C24.8389 18.81 24.3169 19.26 23.6329 19.572C22.9489 19.884 22.1209 20.04 21.1489 20.04H18.7909V24H15.6949V12.12H21.1489ZM20.6629 17.718C21.3109 17.718 21.7969 17.586 22.1209 17.322C22.4569 17.046 22.6249 16.632 22.6249 16.08C22.6249 15.528 22.4569 15.12 22.1209 14.856C21.7969 14.58 21.3109 14.442 20.6629 14.442H18.7909V17.718H20.6629ZM27.7183 24V12.12H36.9703V14.514H30.8143V16.926H35.7103V19.176H30.8143V21.606H37.2043V24H27.7183ZM44.7438 12.12C46.1598 12.12 47.2578 12.456 48.0378 13.128C48.8298 13.788 49.2258 14.67 49.2258 15.774C49.2258 16.986 48.8358 17.91 48.0558 18.546C47.2758 19.182 46.1778 19.5 44.7618 19.5L44.4738 19.662H42.1158V24H39.0738V12.12H44.7438ZM44.3118 17.466C44.9118 17.466 45.3618 17.346 45.6618 17.106C45.9618 16.866 46.1118 16.482 46.1118 15.954C46.1118 15.438 45.9618 15.06 45.6618 14.82C45.3618 14.58 44.9118 14.46 44.3118 14.46H42.1158V17.466H44.3118ZM46.1298 18.114L49.9278 24H46.5078L43.4658 18.798L46.1298 18.114ZM70.3863 12.12V24H67.6503V18.546L67.7403 14.892H67.7043L64.7703 24H62.2683L59.3343 14.892H59.2983L59.3883 18.546V24H56.6343V12.12H61.0443L62.9163 18.168L63.5823 20.688H63.6183L64.3023 18.186L66.1563 12.12H70.3863ZM83.8171 24H80.6311L79.8031 21.318H75.7351L74.8891 24H71.7751L75.9511 12.12H79.6591L83.8171 24ZM76.3111 19.212H79.2271L77.7691 14.406L76.3111 19.212ZM93.6946 12.12V14.514H89.8246V24H86.7286V14.514H82.8406V12.12H93.6946ZM105.502 20.598C105.274 21.426 104.908 22.11 104.404 22.65C103.9 23.178 103.3 23.568 102.604 23.82C101.908 24.06 101.14 24.18 100.3 24.18C99.1002 24.18 98.0622 23.94 97.1862 23.46C96.3102 22.968 95.6382 22.266 95.1702 21.354C94.7022 20.442 94.4682 19.344 94.4682 18.06C94.4682 16.776 94.7022 15.678 95.1702 14.766C95.6382 13.854 96.3102 13.158 97.1862 12.678C98.0622 12.186 99.0942 11.94 100.282 11.94C101.11 11.94 101.872 12.06 102.568 12.3C103.264 12.528 103.852 12.882 104.332 13.362C104.812 13.842 105.154 14.46 105.358 15.216L102.64 16.314C102.472 15.57 102.196 15.06 101.812 14.784C101.44 14.508 100.966 14.37 100.39 14.37C99.8262 14.37 99.3342 14.508 98.9142 14.784C98.5062 15.06 98.1882 15.474 97.9602 16.026C97.7442 16.566 97.6362 17.244 97.6362 18.06C97.6362 18.864 97.7382 19.542 97.9422 20.094C98.1462 20.646 98.4522 21.06 98.8602 21.336C99.2802 21.612 99.7962 21.75 100.408 21.75C100.984 21.75 101.47 21.594 101.866 21.282C102.274 20.958 102.55 20.466 102.694 19.806L105.502 20.598ZM117.952 12.12V24H114.856V12.12H117.952ZM110.32 12.12V24H107.224V12.12H110.32ZM116.512 16.818V19.212H108.736V16.818H116.512ZM130.648 24C130.492 23.604 130.33 23.238 130.162 22.902C130.006 22.554 129.808 22.182 129.568 21.786C129.328 21.39 129.028 20.928 128.668 20.4C128.308 19.872 127.852 19.23 127.3 18.474C126.592 17.502 126.088 16.668 125.788 15.972C125.488 15.276 125.338 14.598 125.338 13.938C125.338 13.41 125.47 12.93 125.734 12.498C126.01 12.054 126.37 11.706 126.814 11.454C127.27 11.19 127.762 11.058 128.29 11.058C128.854 11.058 129.376 11.202 129.856 11.49C130.348 11.778 130.75 12.216 131.062 12.804C131.386 12.216 131.794 11.778 132.286 11.49C132.778 11.202 133.306 11.058 133.87 11.058C134.386 11.058 134.866 11.19 135.31 11.454C135.766 11.706 136.132 12.054 136.408 12.498C136.684 12.93 136.822 13.41 136.822 13.938C136.822 14.358 136.762 14.79 136.642 15.234C136.534 15.666 136.336 16.146 136.048 16.674C135.76 17.19 135.364 17.796 134.86 18.492C134.308 19.26 133.846 19.914 133.474 20.454C133.102 20.982 132.796 21.444 132.556 21.84C132.328 22.236 132.13 22.602 131.962 22.938C131.794 23.274 131.638 23.628 131.494 24H130.648ZM131.062 22.434C131.29 21.978 131.596 21.45 131.98 20.85C132.376 20.25 132.838 19.584 133.366 18.852C133.894 18.12 134.326 17.49 134.662 16.962C134.998 16.434 135.238 16.014 135.382 15.702C135.67 15.066 135.814 14.478 135.814 13.938C135.814 13.59 135.724 13.278 135.544 13.002C135.364 12.714 135.124 12.486 134.824 12.318C134.536 12.15 134.218 12.066 133.87 12.066C133.354 12.066 132.886 12.282 132.466 12.714C132.046 13.134 131.734 13.716 131.53 14.46H130.612C130.384 13.644 130.06 13.044 129.64 12.66C129.232 12.264 128.782 12.066 128.29 12.066C127.954 12.066 127.636 12.15 127.336 12.318C127.036 12.486 126.796 12.714 126.616 13.002C126.436 13.278 126.346 13.59 126.346 13.938C126.346 14.442 126.484 15.018 126.76 15.666C127.024 16.278 127.684 17.304 128.74 18.744C129.268 19.44 129.724 20.1 130.108 20.724C130.492 21.336 130.81 21.906 131.062 22.434ZM153.443 14.514H147.305V17.034H152.201V19.428H147.305V24H144.209V12.12H153.443V14.514ZM160.9 12.12C162.316 12.12 163.414 12.456 164.194 13.128C164.986 13.788 165.382 14.67 165.382 15.774C165.382 16.986 164.992 17.91 164.212 18.546C163.432 19.182 162.334 19.5 160.918 19.5L160.63 19.662H158.272V24H155.23V12.12H160.9ZM160.468 17.466C161.068 17.466 161.518 17.346 161.818 17.106C162.118 16.866 162.268 16.482 162.268 15.954C162.268 15.438 162.118 15.06 161.818 14.82C161.518 14.58 161.068 14.46 160.468 14.46H158.272V17.466H160.468ZM162.286 18.114L166.084 24H162.664L159.622 18.798L162.286 18.114ZM170.736 12.12V24H167.64V12.12H170.736ZM173.371 24V12.12H182.623V14.514H176.467V16.926H181.363V19.176H176.467V21.606H182.857V24H173.371ZM195.436 12.12V24H191.998L188.308 17.574L187.408 15.81H187.39L187.462 18.006V24H184.726V12.12H188.164L191.854 18.546L192.754 20.31H192.772L192.7 18.114V12.12H195.436ZM203.108 12.12C204.968 12.12 206.39 12.636 207.374 13.668C208.37 14.7 208.868 16.164 208.868 18.06C208.868 19.956 208.37 21.42 207.374 22.452C206.39 23.484 204.968 24 203.108 24H198.068V12.12H203.108ZM202.802 21.66C203.81 21.66 204.542 21.36 204.998 20.76C205.466 20.148 205.7 19.248 205.7 18.06C205.7 16.872 205.466 15.978 204.998 15.378C204.542 14.766 203.81 14.46 202.802 14.46H201.164V21.66H202.802ZM215.526 11.94C216.63 11.94 217.602 12.114 218.442 12.462C219.294 12.798 220.032 13.296 220.656 13.956L219.162 15.954C218.646 15.414 218.088 15.012 217.488 14.748C216.9 14.472 216.228 14.334 215.472 14.334C215.028 14.334 214.668 14.382 214.392 14.478C214.116 14.574 213.918 14.706 213.798 14.874C213.678 15.042 213.618 15.234 213.618 15.45C213.618 15.702 213.732 15.918 213.96 16.098C214.2 16.266 214.584 16.41 215.112 16.53L217.11 16.98C218.298 17.256 219.168 17.658 219.72 18.186C220.272 18.714 220.548 19.416 220.548 20.292C220.548 21.132 220.332 21.846 219.9 22.434C219.468 23.01 218.874 23.448 218.118 23.748C217.362 24.036 216.498 24.18 215.526 24.18C214.734 24.18 213.978 24.096 213.258 23.928C212.538 23.748 211.89 23.496 211.314 23.172C210.738 22.848 210.252 22.476 209.856 22.056L211.35 19.986C211.65 20.334 212.016 20.646 212.448 20.922C212.892 21.186 213.372 21.396 213.888 21.552C214.416 21.708 214.95 21.786 215.49 21.786C215.91 21.786 216.258 21.744 216.534 21.66C216.822 21.576 217.032 21.45 217.164 21.282C217.296 21.114 217.362 20.916 217.362 20.688C217.362 20.436 217.272 20.226 217.092 20.058C216.912 19.878 216.57 19.728 216.066 19.608L213.87 19.122C213.198 18.966 212.598 18.762 212.07 18.51C211.554 18.246 211.146 17.898 210.846 17.466C210.546 17.022 210.396 16.47 210.396 15.81C210.396 15.066 210.6 14.406 211.008 13.83C211.416 13.242 212.004 12.78 212.772 12.444C213.54 12.108 214.458 11.94 215.526 11.94ZM232.548 24C232.392 23.604 232.23 23.238 232.062 22.902C231.906 22.554 231.708 22.182 231.468 21.786C231.228 21.39 230.928 20.928 230.568 20.4C230.208 19.872 229.752 19.23 229.2 18.474C228.492 17.502 227.988 16.668 227.688 15.972C227.388 15.276 227.238 14.598 227.238 13.938C227.238 13.41 227.37 12.93 227.634 12.498C227.91 12.054 228.27 11.706 228.714 11.454C229.17 11.19 229.662 11.058 230.19 11.058C230.754 11.058 231.276 11.202 231.756 11.49C232.248 11.778 232.65 12.216 232.962 12.804C233.286 12.216 233.694 11.778 234.186 11.49C234.678 11.202 235.206 11.058 235.77 11.058C236.286 11.058 236.766 11.19 237.21 11.454C237.666 11.706 238.032 12.054 238.308 12.498C238.584 12.93 238.722 13.41 238.722 13.938C238.722 14.358 238.662 14.79 238.542 15.234C238.434 15.666 238.236 16.146 237.948 16.674C237.66 17.19 237.264 17.796 236.76 18.492C236.208 19.26 235.746 19.914 235.374 20.454C235.002 20.982 234.696 21.444 234.456 21.84C234.228 22.236 234.03 22.602 233.862 22.938C233.694 23.274 233.538 23.628 233.394 24H232.548ZM232.962 22.434C233.19 21.978 233.496 21.45 233.88 20.85C234.276 20.25 234.738 19.584 235.266 18.852C235.794 18.12 236.226 17.49 236.562 16.962C236.898 16.434 237.138 16.014 237.282 15.702C237.57 15.066 237.714 14.478 237.714 13.938C237.714 13.59 237.624 13.278 237.444 13.002C237.264 12.714 237.024 12.486 236.724 12.318C236.436 12.15 236.118 12.066 235.77 12.066C235.254 12.066 234.786 12.282 234.366 12.714C233.946 13.134 233.634 13.716 233.43 14.46H232.512C232.284 13.644 231.96 13.044 231.54 12.66C231.132 12.264 230.682 12.066 230.19 12.066C229.854 12.066 229.536 12.15 229.236 12.318C228.936 12.486 228.696 12.714 228.516 13.002C228.336 13.278 228.246 13.59 228.246 13.938C228.246 14.442 228.384 15.018 228.66 15.666C228.924 16.278 229.584 17.304 230.64 18.744C231.168 19.44 231.624 20.1 232.008 20.724C232.392 21.336 232.71 21.906 232.962 22.434ZM250.753 11.94C251.857 11.94 252.829 12.114 253.669 12.462C254.521 12.798 255.259 13.296 255.883 13.956L254.389 15.954C253.873 15.414 253.315 15.012 252.715 14.748C252.127 14.472 251.455 14.334 250.699 14.334C250.255 14.334 249.895 14.382 249.619 14.478C249.343 14.574 249.145 14.706 249.025 14.874C248.905 15.042 248.845 15.234 248.845 15.45C248.845 15.702 248.959 15.918 249.187 16.098C249.427 16.266 249.811 16.41 250.339 16.53L252.337 16.98C253.525 17.256 254.395 17.658 254.947 18.186C255.499 18.714 255.775 19.416 255.775 20.292C255.775 21.132 255.559 21.846 255.127 22.434C254.695 23.01 254.101 23.448 253.345 23.748C252.589 24.036 251.725 24.18 250.753 24.18C249.961 24.18 249.205 24.096 248.485 23.928C247.765 23.748 247.117 23.496 246.541 23.172C245.965 22.848 245.479 22.476 245.083 22.056L246.577 19.986C246.877 20.334 247.243 20.646 247.675 20.922C248.119 21.186 248.599 21.396 249.115 21.552C249.643 21.708 250.177 21.786 250.717 21.786C251.137 21.786 251.485 21.744 251.761 21.66C252.049 21.576 252.259 21.45 252.391 21.282C252.523 21.114 252.589 20.916 252.589 20.688C252.589 20.436 252.499 20.226 252.319 20.058C252.139 19.878 251.797 19.728 251.293 19.608L249.097 19.122C248.425 18.966 247.825 18.762 247.297 18.51C246.781 18.246 246.373 17.898 246.073 17.466C245.773 17.022 245.623 16.47 245.623 15.81C245.623 15.066 245.827 14.406 246.235 13.83C246.643 13.242 247.231 12.78 247.999 12.444C248.767 12.108 249.685 11.94 250.753 11.94ZM268.096 12.12V19.158C268.096 20.838 267.646 22.098 266.746 22.938C265.858 23.766 264.538 24.18 262.786 24.18C261.046 24.18 259.726 23.766 258.826 22.938C257.926 22.098 257.476 20.838 257.476 19.158V12.12H260.59V19.212C260.59 20.064 260.77 20.7 261.13 21.12C261.502 21.54 262.054 21.75 262.786 21.75C263.53 21.75 264.082 21.54 264.442 21.12C264.814 20.7 265 20.064 265 19.212V12.12H268.096ZM275.944 12.12C276.916 12.12 277.744 12.276 278.428 12.588C279.112 12.9 279.634 13.35 279.994 13.938C280.354 14.526 280.534 15.24 280.534 16.08C280.534 16.92 280.354 17.634 279.994 18.222C279.634 18.81 279.112 19.26 278.428 19.572C277.744 19.884 276.916 20.04 275.944 20.04H273.586V24H270.49V12.12H275.944ZM275.458 17.718C276.106 17.718 276.592 17.586 276.916 17.322C277.252 17.046 277.42 16.632 277.42 16.08C277.42 15.528 277.252 15.12 276.916 14.856C276.592 14.58 276.106 14.442 275.458 14.442H273.586V17.718H275.458ZM282.513 24V12.12H291.765V14.514H285.609V16.926H290.505V19.176H285.609V21.606H291.999V24H282.513ZM299.539 12.12C300.955 12.12 302.053 12.456 302.833 13.128C303.625 13.788 304.021 14.67 304.021 15.774C304.021 16.986 303.631 17.91 302.851 18.546C302.071 19.182 300.973 19.5 299.557 19.5L299.269 19.662H296.911V24H293.869V12.12H299.539ZM299.107 17.466C299.707 17.466 300.157 17.346 300.457 17.106C300.757 16.866 300.907 16.482 300.907 15.954C300.907 15.438 300.757 15.06 300.457 14.82C300.157 14.58 299.707 14.46 299.107 14.46H296.911V17.466H299.107ZM300.925 18.114L304.723 24H301.303L298.261 18.798L300.925 18.114ZM325.181 12.12V24H322.445V18.546L322.535 14.892H322.499L319.565 24H317.063L314.129 14.892H314.093L314.183 18.546V24H311.429V12.12H315.839L317.711 18.168L318.377 20.688H318.413L319.097 18.186L320.951 12.12H325.181ZM338.612 24H335.426L334.598 21.318H330.53L329.684 24H326.57L330.746 12.12H334.454L338.612 24ZM331.106 19.212H334.022L332.564 14.406L331.106 19.212ZM348.49 12.12V14.514H344.62V24H341.524V14.514H337.636V12.12H348.49ZM360.297 20.598C360.069 21.426 359.703 22.11 359.199 22.65C358.695 23.178 358.095 23.568 357.399 23.82C356.703 24.06 355.935 24.18 355.095 24.18C353.895 24.18 352.857 23.94 351.981 23.46C351.105 22.968 350.433 22.266 349.965 21.354C349.497 20.442 349.263 19.344 349.263 18.06C349.263 16.776 349.497 15.678 349.965 14.766C350.433 13.854 351.105 13.158 351.981 12.678C352.857 12.186 353.889 11.94 355.077 11.94C355.905 11.94 356.667 12.06 357.363 12.3C358.059 12.528 358.647 12.882 359.127 13.362C359.607 13.842 359.949 14.46 360.153 15.216L357.435 16.314C357.267 15.57 356.991 15.06 356.607 14.784C356.235 14.508 355.761 14.37 355.185 14.37C354.621 14.37 354.129 14.508 353.709 14.784C353.301 15.06 352.983 15.474 352.755 16.026C352.539 16.566 352.431 17.244 352.431 18.06C352.431 18.864 352.533 19.542 352.737 20.094C352.941 20.646 353.247 21.06 353.655 21.336C354.075 21.612 354.591 21.75 355.203 21.75C355.779 21.75 356.265 21.594 356.661 21.282C357.069 20.958 357.345 20.466 357.489 19.806L360.297 20.598ZM372.747 12.12V24H369.651V12.12H372.747ZM365.115 12.12V24H362.019V12.12H365.115ZM371.307 16.818V19.212H363.531V16.818H371.307ZM385.443 24C385.287 23.604 385.125 23.238 384.957 22.902C384.801 22.554 384.603 22.182 384.363 21.786C384.123 21.39 383.823 20.928 383.463 20.4C383.103 19.872 382.647 19.23 382.095 18.474C381.387 17.502 380.883 16.668 380.583 15.972C380.283 15.276 380.133 14.598 380.133 13.938C380.133 13.41 380.265 12.93 380.529 12.498C380.805 12.054 381.165 11.706 381.609 11.454C382.065 11.19 382.557 11.058 383.085 11.058C383.649 11.058 384.171 11.202 384.651 11.49C385.143 11.778 385.545 12.216 385.857 12.804C386.181 12.216 386.589 11.778 387.081 11.49C387.573 11.202 388.101 11.058 388.665 11.058C389.181 11.058 389.661 11.19 390.105 11.454C390.561 11.706 390.927 12.054 391.203 12.498C391.479 12.93 391.617 13.41 391.617 13.938C391.617 14.358 391.557 14.79 391.437 15.234C391.329 15.666 391.131 16.146 390.843 16.674C390.555 17.19 390.159 17.796 389.655 18.492C389.103 19.26 388.641 19.914 388.269 20.454C387.897 20.982 387.591 21.444 387.351 21.84C387.123 22.236 386.925 22.602 386.757 22.938C386.589 23.274 386.433 23.628 386.289 24H385.443ZM385.857 22.434C386.085 21.978 386.391 21.45 386.775 20.85C387.171 20.25 387.633 19.584 388.161 18.852C388.689 18.12 389.121 17.49 389.457 16.962C389.793 16.434 390.033 16.014 390.177 15.702C390.465 15.066 390.609 14.478 390.609 13.938C390.609 13.59 390.519 13.278 390.339 13.002C390.159 12.714 389.919 12.486 389.619 12.318C389.331 12.15 389.013 12.066 388.665 12.066C388.149 12.066 387.681 12.282 387.261 12.714C386.841 13.134 386.529 13.716 386.325 14.46H385.407C385.179 13.644 384.855 13.044 384.435 12.66C384.027 12.264 383.577 12.066 383.085 12.066C382.749 12.066 382.431 12.15 382.131 12.318C381.831 12.486 381.591 12.714 381.411 13.002C381.231 13.278 381.141 13.59 381.141 13.938C381.141 14.442 381.279 15.018 381.555 15.666C381.819 16.278 382.479 17.304 383.535 18.744C384.063 19.44 384.519 20.1 384.903 20.724C385.287 21.336 385.605 21.906 385.857 22.434ZM408.237 14.514H402.099V17.034H406.995V19.428H402.099V24H399.003V12.12H408.237V14.514ZM415.695 12.12C417.111 12.12 418.209 12.456 418.989 13.128C419.781 13.788 420.177 14.67 420.177 15.774C420.177 16.986 419.787 17.91 419.007 18.546C418.227 19.182 417.129 19.5 415.713 19.5L415.425 19.662H413.067V24H410.025V12.12H415.695ZM415.263 17.466C415.863 17.466 416.313 17.346 416.613 17.106C416.913 16.866 417.063 16.482 417.063 15.954C417.063 15.438 416.913 15.06 416.613 14.82C416.313 14.58 415.863 14.46 415.263 14.46H413.067V17.466H415.263ZM417.081 18.114L420.879 24H417.459L414.417 18.798L417.081 18.114ZM425.531 12.12V24H422.435V12.12H425.531ZM428.166 24V12.12H437.418V14.514H431.262V16.926H436.158V19.176H431.262V21.606H437.652V24H428.166ZM450.231 12.12V24H446.793L443.103 17.574L442.203 15.81H442.185L442.257 18.006V24H439.521V12.12H442.959L446.649 18.546L447.549 20.31H447.567L447.495 18.114V12.12H450.231ZM457.903 12.12C459.763 12.12 461.185 12.636 462.169 13.668C463.165 14.7 463.663 16.164 463.663 18.06C463.663 19.956 463.165 21.42 462.169 22.452C461.185 23.484 459.763 24 457.903 24H452.863V12.12H457.903ZM457.597 21.66C458.605 21.66 459.337 21.36 459.793 20.76C460.261 20.148 460.495 19.248 460.495 18.06C460.495 16.872 460.261 15.978 459.793 15.378C459.337 14.766 458.605 14.46 457.597 14.46H455.959V21.66H457.597ZM470.321 11.94C471.425 11.94 472.397 12.114 473.237 12.462C474.089 12.798 474.827 13.296 475.451 13.956L473.957 15.954C473.441 15.414 472.883 15.012 472.283 14.748C471.695 14.472 471.023 14.334 470.267 14.334C469.823 14.334 469.463 14.382 469.187 14.478C468.911 14.574 468.713 14.706 468.593 14.874C468.473 15.042 468.413 15.234 468.413 15.45C468.413 15.702 468.527 15.918 468.755 16.098C468.995 16.266 469.379 16.41 469.907 16.53L471.905 16.98C473.093 17.256 473.963 17.658 474.515 18.186C475.067 18.714 475.343 19.416 475.343 20.292C475.343 21.132 475.127 21.846 474.695 22.434C474.263 23.01 473.669 23.448 472.913 23.748C472.157 24.036 471.293 24.18 470.321 24.18C469.529 24.18 468.773 24.096 468.053 23.928C467.333 23.748 466.685 23.496 466.109 23.172C465.533 22.848 465.047 22.476 464.651 22.056L466.145 19.986C466.445 20.334 466.811 20.646 467.243 20.922C467.687 21.186 468.167 21.396 468.683 21.552C469.211 21.708 469.745 21.786 470.285 21.786C470.705 21.786 471.053 21.744 471.329 21.66C471.617 21.576 471.827 21.45 471.959 21.282C472.091 21.114 472.157 20.916 472.157 20.688C472.157 20.436 472.067 20.226 471.887 20.058C471.707 19.878 471.365 19.728 470.861 19.608L468.665 19.122C467.993 18.966 467.393 18.762 466.865 18.51C466.349 18.246 465.941 17.898 465.641 17.466C465.341 17.022 465.191 16.47 465.191 15.81C465.191 15.066 465.395 14.406 465.803 13.83C466.211 13.242 466.799 12.78 467.567 12.444C468.335 12.108 469.253 11.94 470.321 11.94ZM487.343 24C487.187 23.604 487.025 23.238 486.857 22.902C486.701 22.554 486.503 22.182 486.263 21.786C486.023 21.39 485.723 20.928 485.363 20.4C485.003 19.872 484.547 19.23 483.995 18.474C483.287 17.502 482.783 16.668 482.483 15.972C482.183 15.276 482.033 14.598 482.033 13.938C482.033 13.41 482.165 12.93 482.429 12.498C482.705 12.054 483.065 11.706 483.509 11.454C483.965 11.19 484.457 11.058 484.985 11.058C485.549 11.058 486.071 11.202 486.551 11.49C487.043 11.778 487.445 12.216 487.757 12.804C488.081 12.216 488.489 11.778 488.981 11.49C489.473 11.202 490.001 11.058 490.565 11.058C491.081 11.058 491.561 11.19 492.005 11.454C492.461 11.706 492.827 12.054 493.103 12.498C493.379 12.93 493.517 13.41 493.517 13.938C493.517 14.358 493.457 14.79 493.337 15.234C493.229 15.666 493.031 16.146 492.743 16.674C492.455 17.19 492.059 17.796 491.555 18.492C491.003 19.26 490.541 19.914 490.169 20.454C489.797 20.982 489.491 21.444 489.251 21.84C489.023 22.236 488.825 22.602 488.657 22.938C488.489 23.274 488.333 23.628 488.189 24H487.343ZM487.757 22.434C487.985 21.978 488.291 21.45 488.675 20.85C489.071 20.25 489.533 19.584 490.061 18.852C490.589 18.12 491.021 17.49 491.357 16.962C491.693 16.434 491.933 16.014 492.077 15.702C492.365 15.066 492.509 14.478 492.509 13.938C492.509 13.59 492.419 13.278 492.239 13.002C492.059 12.714 491.819 12.486 491.519 12.318C491.231 12.15 490.913 12.066 490.565 12.066C490.049 12.066 489.581 12.282 489.161 12.714C488.741 13.134 488.429 13.716 488.225 14.46H487.307C487.079 13.644 486.755 13.044 486.335 12.66C485.927 12.264 485.477 12.066 484.985 12.066C484.649 12.066 484.331 12.15 484.031 12.318C483.731 12.486 483.491 12.714 483.311 13.002C483.131 13.278 483.041 13.59 483.041 13.938C483.041 14.442 483.179 15.018 483.455 15.666C483.719 16.278 484.379 17.304 485.435 18.744C485.963 19.44 486.419 20.1 486.803 20.724C487.187 21.336 487.505 21.906 487.757 22.434ZM505.548 11.94C506.652 11.94 507.624 12.114 508.464 12.462C509.316 12.798 510.054 13.296 510.678 13.956L509.184 15.954C508.668 15.414 508.11 15.012 507.51 14.748C506.922 14.472 506.25 14.334 505.494 14.334C505.05 14.334 504.69 14.382 504.414 14.478C504.138 14.574 503.94 14.706 503.82 14.874C503.7 15.042 503.64 15.234 503.64 15.45C503.64 15.702 503.754 15.918 503.982 16.098C504.222 16.266 504.606 16.41 505.134 16.53L507.132 16.98C508.32 17.256 509.19 17.658 509.742 18.186C510.294 18.714 510.57 19.416 510.57 20.292C510.57 21.132 510.354 21.846 509.922 22.434C509.49 23.01 508.896 23.448 508.14 23.748C507.384 24.036 506.52 24.18 505.548 24.18C504.756 24.18 504 24.096 503.28 23.928C502.56 23.748 501.912 23.496 501.336 23.172C500.76 22.848 500.274 22.476 499.878 22.056L501.372 19.986C501.672 20.334 502.038 20.646 502.47 20.922C502.914 21.186 503.394 21.396 503.91 21.552C504.438 21.708 504.972 21.786 505.512 21.786C505.932 21.786 506.28 21.744 506.556 21.66C506.844 21.576 507.054 21.45 507.186 21.282C507.318 21.114 507.384 20.916 507.384 20.688C507.384 20.436 507.294 20.226 507.114 20.058C506.934 19.878 506.592 19.728 506.088 19.608L503.892 19.122C503.22 18.966 502.62 18.762 502.092 18.51C501.576 18.246 501.168 17.898 500.868 17.466C500.568 17.022 500.418 16.47 500.418 15.81C500.418 15.066 500.622 14.406 501.03 13.83C501.438 13.242 502.026 12.78 502.794 12.444C503.562 12.108 504.48 11.94 505.548 11.94ZM522.891 12.12V19.158C522.891 20.838 522.441 22.098 521.541 22.938C520.653 23.766 519.333 24.18 517.581 24.18C515.841 24.18 514.521 23.766 513.621 22.938C512.721 22.098 512.271 20.838 512.271 19.158V12.12H515.385V19.212C515.385 20.064 515.565 20.7 515.925 21.12C516.297 21.54 516.849 21.75 517.581 21.75C518.325 21.75 518.877 21.54 519.237 21.12C519.609 20.7 519.795 20.064 519.795 19.212V12.12H522.891ZM530.739 12.12C531.711 12.12 532.539 12.276 533.223 12.588C533.907 12.9 534.429 13.35 534.789 13.938C535.149 14.526 535.329 15.24 535.329 16.08C535.329 16.92 535.149 17.634 534.789 18.222C534.429 18.81 533.907 19.26 533.223 19.572C532.539 19.884 531.711 20.04 530.739 20.04H528.381V24H525.285V12.12H530.739ZM530.253 17.718C530.901 17.718 531.387 17.586 531.711 17.322C532.047 17.046 532.215 16.632 532.215 16.08C532.215 15.528 532.047 15.12 531.711 14.856C531.387 14.58 530.901 14.442 530.253 14.442H528.381V17.718H530.253ZM537.308 24V12.12H546.56V14.514H540.404V16.926H545.3V19.176H540.404V21.606H546.794V24H537.308ZM554.334 12.12C555.75 12.12 556.848 12.456 557.628 13.128C558.42 13.788 558.816 14.67 558.816 15.774C558.816 16.986 558.426 17.91 557.646 18.546C556.866 19.182 555.768 19.5 554.352 19.5L554.064 19.662H551.706V24H548.664V12.12H554.334ZM553.902 17.466C554.502 17.466 554.952 17.346 555.252 17.106C555.552 16.866 555.702 16.482 555.702 15.954C555.702 15.438 555.552 15.06 555.252 14.82C554.952 14.58 554.502 14.46 553.902 14.46H551.706V17.466H553.902ZM555.72 18.114L559.518 24H556.098L553.056 18.798L555.72 18.114ZM579.976 12.12V24H577.24V18.546L577.33 14.892H577.294L574.36 24H571.858L568.924 14.892H568.888L568.978 18.546V24H566.224V12.12H570.634L572.506 18.168L573.172 20.688H573.208L573.892 18.186L575.746 12.12H579.976ZM593.407 24H590.221L589.393 21.318H585.325L584.479 24H581.365L585.541 12.12H589.249L593.407 24ZM585.901 19.212H588.817L587.359 14.406L585.901 19.212ZM603.284 12.12V14.514H599.414V24H596.318V14.514H592.43V12.12H603.284ZM615.092 20.598C614.864 21.426 614.498 22.11 613.994 22.65C613.49 23.178 612.89 23.568 612.194 23.82C611.498 24.06 610.73 24.18 609.89 24.18C608.69 24.18 607.652 23.94 606.776 23.46C605.9 22.968 605.228 22.266 604.76 21.354C604.292 20.442 604.058 19.344 604.058 18.06C604.058 16.776 604.292 15.678 604.76 14.766C605.228 13.854 605.9 13.158 606.776 12.678C607.652 12.186 608.684 11.94 609.872 11.94C610.7 11.94 611.462 12.06 612.158 12.3C612.854 12.528 613.442 12.882 613.922 13.362C614.402 13.842 614.744 14.46 614.948 15.216L612.23 16.314C612.062 15.57 611.786 15.06 611.402 14.784C611.03 14.508 610.556 14.37 609.98 14.37C609.416 14.37 608.924 14.508 608.504 14.784C608.096 15.06 607.778 15.474 607.55 16.026C607.334 16.566 607.226 17.244 607.226 18.06C607.226 18.864 607.328 19.542 607.532 20.094C607.736 20.646 608.042 21.06 608.45 21.336C608.87 21.612 609.386 21.75 609.998 21.75C610.574 21.75 611.06 21.594 611.456 21.282C611.864 20.958 612.14 20.466 612.284 19.806L615.092 20.598ZM627.542 12.12V24H624.446V12.12H627.542ZM619.91 12.12V24H616.814V12.12H619.91ZM626.102 16.818V19.212H618.326V16.818H626.102ZM640.238 24C640.082 23.604 639.92 23.238 639.752 22.902C639.596 22.554 639.398 22.182 639.158 21.786C638.918 21.39 638.618 20.928 638.258 20.4C637.898 19.872 637.442 19.23 636.89 18.474C636.182 17.502 635.678 16.668 635.378 15.972C635.078 15.276 634.928 14.598 634.928 13.938C634.928 13.41 635.06 12.93 635.324 12.498C635.6 12.054 635.96 11.706 636.404 11.454C636.86 11.19 637.352 11.058 637.88 11.058C638.444 11.058 638.966 11.202 639.446 11.49C639.938 11.778 640.34 12.216 640.652 12.804C640.976 12.216 641.384 11.778 641.876 11.49C642.368 11.202 642.896 11.058 643.46 11.058C643.976 11.058 644.456 11.19 644.9 11.454C645.356 11.706 645.722 12.054 645.998 12.498C646.274 12.93 646.412 13.41 646.412 13.938C646.412 14.358 646.352 14.79 646.232 15.234C646.124 15.666 645.926 16.146 645.638 16.674C645.35 17.19 644.954 17.796 644.45 18.492C643.898 19.26 643.436 19.914 643.064 20.454C642.692 20.982 642.386 21.444 642.146 21.84C641.918 22.236 641.72 22.602 641.552 22.938C641.384 23.274 641.228 23.628 641.084 24H640.238ZM640.652 22.434C640.88 21.978 641.186 21.45 641.57 20.85C641.966 20.25 642.428 19.584 642.956 18.852C643.484 18.12 643.916 17.49 644.252 16.962C644.588 16.434 644.828 16.014 644.972 15.702C645.26 15.066 645.404 14.478 645.404 13.938C645.404 13.59 645.314 13.278 645.134 13.002C644.954 12.714 644.714 12.486 644.414 12.318C644.126 12.15 643.808 12.066 643.46 12.066C642.944 12.066 642.476 12.282 642.056 12.714C641.636 13.134 641.324 13.716 641.12 14.46H640.202C639.974 13.644 639.65 13.044 639.23 12.66C638.822 12.264 638.372 12.066 637.88 12.066C637.544 12.066 637.226 12.15 636.926 12.318C636.626 12.486 636.386 12.714 636.206 13.002C636.026 13.278 635.936 13.59 635.936 13.938C635.936 14.442 636.074 15.018 636.35 15.666C636.614 16.278 637.274 17.304 638.33 18.744C638.858 19.44 639.314 20.1 639.698 20.724C640.082 21.336 640.4 21.906 640.652 22.434ZM663.032 14.514H656.894V17.034H661.79V19.428H656.894V24H653.798V12.12H663.032V14.514ZM670.49 12.12C671.906 12.12 673.004 12.456 673.784 13.128C674.576 13.788 674.972 14.67 674.972 15.774C674.972 16.986 674.582 17.91 673.802 18.546C673.022 19.182 671.924 19.5 670.508 19.5L670.22 19.662H667.862V24H664.82V12.12H670.49ZM670.058 17.466C670.658 17.466 671.108 17.346 671.408 17.106C671.708 16.866 671.858 16.482 671.858 15.954C671.858 15.438 671.708 15.06 671.408 14.82C671.108 14.58 670.658 14.46 670.058 14.46H667.862V17.466H670.058ZM671.876 18.114L675.674 24H672.254L669.212 18.798L671.876 18.114ZM680.326 12.12V24H677.23V12.12H680.326ZM682.96 24V12.12H692.212V14.514H686.056V16.926H690.952V19.176H686.056V21.606H692.446V24H682.96ZM705.026 12.12V24H701.588L697.898 17.574L696.998 15.81H696.98L697.052 18.006V24H694.316V12.12H697.754L701.444 18.546L702.344 20.31H702.362L702.29 18.114V12.12H705.026ZM712.698 12.12C714.558 12.12 715.98 12.636 716.964 13.668C717.96 14.7 718.458 16.164 718.458 18.06C718.458 19.956 717.96 21.42 716.964 22.452C715.98 23.484 714.558 24 712.698 24H707.658V12.12H712.698ZM712.392 21.66C713.4 21.66 714.132 21.36 714.588 20.76C715.056 20.148 715.29 19.248 715.29 18.06C715.29 16.872 715.056 15.978 714.588 15.378C714.132 14.766 713.4 14.46 712.392 14.46H710.754V21.66H712.392ZM725.116 11.94C726.22 11.94 727.192 12.114 728.032 12.462C728.884 12.798 729.622 13.296 730.246 13.956L728.752 15.954C728.236 15.414 727.678 15.012 727.078 14.748C726.49 14.472 725.818 14.334 725.062 14.334C724.618 14.334 724.258 14.382 723.982 14.478C723.706 14.574 723.508 14.706 723.388 14.874C723.268 15.042 723.208 15.234 723.208 15.45C723.208 15.702 723.322 15.918 723.55 16.098C723.79 16.266 724.174 16.41 724.702 16.53L726.7 16.98C727.888 17.256 728.758 17.658 729.31 18.186C729.862 18.714 730.138 19.416 730.138 20.292C730.138 21.132 729.922 21.846 729.49 22.434C729.058 23.01 728.464 23.448 727.708 23.748C726.952 24.036 726.088 24.18 725.116 24.18C724.324 24.18 723.568 24.096 722.848 23.928C722.128 23.748 721.48 23.496 720.904 23.172C720.328 22.848 719.842 22.476 719.446 22.056L720.94 19.986C721.24 20.334 721.606 20.646 722.038 20.922C722.482 21.186 722.962 21.396 723.478 21.552C724.006 21.708 724.54 21.786 725.08 21.786C725.5 21.786 725.848 21.744 726.124 21.66C726.412 21.576 726.622 21.45 726.754 21.282C726.886 21.114 726.952 20.916 726.952 20.688C726.952 20.436 726.862 20.226 726.682 20.058C726.502 19.878 726.16 19.728 725.656 19.608L723.46 19.122C722.788 18.966 722.188 18.762 721.66 18.51C721.144 18.246 720.736 17.898 720.436 17.466C720.136 17.022 719.986 16.47 719.986 15.81C719.986 15.066 720.19 14.406 720.598 13.83C721.006 13.242 721.594 12.78 722.362 12.444C723.13 12.108 724.048 11.94 725.116 11.94ZM742.138 24C741.982 23.604 741.82 23.238 741.652 22.902C741.496 22.554 741.298 22.182 741.058 21.786C740.818 21.39 740.518 20.928 740.158 20.4C739.798 19.872 739.342 19.23 738.79 18.474C738.082 17.502 737.578 16.668 737.278 15.972C736.978 15.276 736.828 14.598 736.828 13.938C736.828 13.41 736.96 12.93 737.224 12.498C737.5 12.054 737.86 11.706 738.304 11.454C738.76 11.19 739.252 11.058 739.78 11.058C740.344 11.058 740.866 11.202 741.346 11.49C741.838 11.778 742.24 12.216 742.552 12.804C742.876 12.216 743.284 11.778 743.776 11.49C744.268 11.202 744.796 11.058 745.36 11.058C745.876 11.058 746.356 11.19 746.8 11.454C747.256 11.706 747.622 12.054 747.898 12.498C748.174 12.93 748.312 13.41 748.312 13.938C748.312 14.358 748.252 14.79 748.132 15.234C748.024 15.666 747.826 16.146 747.538 16.674C747.25 17.19 746.854 17.796 746.35 18.492C745.798 19.26 745.336 19.914 744.964 20.454C744.592 20.982 744.286 21.444 744.046 21.84C743.818 22.236 743.62 22.602 743.452 22.938C743.284 23.274 743.128 23.628 742.984 24H742.138ZM742.552 22.434C742.78 21.978 743.086 21.45 743.47 20.85C743.866 20.25 744.328 19.584 744.856 18.852C745.384 18.12 745.816 17.49 746.152 16.962C746.488 16.434 746.728 16.014 746.872 15.702C747.16 15.066 747.304 14.478 747.304 13.938C747.304 13.59 747.214 13.278 747.034 13.002C746.854 12.714 746.614 12.486 746.314 12.318C746.026 12.15 745.708 12.066 745.36 12.066C744.844 12.066 744.376 12.282 743.956 12.714C743.536 13.134 743.224 13.716 743.02 14.46H742.102C741.874 13.644 741.55 13.044 741.13 12.66C740.722 12.264 740.272 12.066 739.78 12.066C739.444 12.066 739.126 12.15 738.826 12.318C738.526 12.486 738.286 12.714 738.106 13.002C737.926 13.278 737.836 13.59 737.836 13.938C737.836 14.442 737.974 15.018 738.25 15.666C738.514 16.278 739.174 17.304 740.23 18.744C740.758 19.44 741.214 20.1 741.598 20.724C741.982 21.336 742.3 21.906 742.552 22.434ZM760.343 11.94C761.447 11.94 762.419 12.114 763.259 12.462C764.111 12.798 764.849 13.296 765.473 13.956L763.979 15.954C763.463 15.414 762.905 15.012 762.305 14.748C761.717 14.472 761.045 14.334 760.289 14.334C759.845 14.334 759.485 14.382 759.209 14.478C758.933 14.574 758.735 14.706 758.615 14.874C758.495 15.042 758.435 15.234 758.435 15.45C758.435 15.702 758.549 15.918 758.777 16.098C759.017 16.266 759.401 16.41 759.929 16.53L761.927 16.98C763.115 17.256 763.985 17.658 764.537 18.186C765.089 18.714 765.365 19.416 765.365 20.292C765.365 21.132 765.149 21.846 764.717 22.434C764.285 23.01 763.691 23.448 762.935 23.748C762.179 24.036 761.315 24.18 760.343 24.18C759.551 24.18 758.795 24.096 758.075 23.928C757.355 23.748 756.707 23.496 756.131 23.172C755.555 22.848 755.069 22.476 754.673 22.056L756.167 19.986C756.467 20.334 756.833 20.646 757.265 20.922C757.709 21.186 758.189 21.396 758.705 21.552C759.233 21.708 759.767 21.786 760.307 21.786C760.727 21.786 761.075 21.744 761.351 21.66C761.639 21.576 761.849 21.45 761.981 21.282C762.113 21.114 762.179 20.916 762.179 20.688C762.179 20.436 762.089 20.226 761.909 20.058C761.729 19.878 761.387 19.728 760.883 19.608L758.687 19.122C758.015 18.966 757.415 18.762 756.887 18.51C756.371 18.246 755.963 17.898 755.663 17.466C755.363 17.022 755.213 16.47 755.213 15.81C755.213 15.066 755.417 14.406 755.825 13.83C756.233 13.242 756.821 12.78 757.589 12.444C758.357 12.108 759.275 11.94 760.343 11.94ZM777.686 12.12V19.158C777.686 20.838 777.236 22.098 776.336 22.938C775.448 23.766 774.128 24.18 772.376 24.18C770.636 24.18 769.316 23.766 768.416 22.938C767.516 22.098 767.066 20.838 767.066 19.158V12.12H770.18V19.212C770.18 20.064 770.36 20.7 770.72 21.12C771.092 21.54 771.644 21.75 772.376 21.75C773.12 21.75 773.672 21.54 774.032 21.12C774.404 20.7 774.59 20.064 774.59 19.212V12.12H777.686ZM785.534 12.12C786.506 12.12 787.334 12.276 788.018 12.588C788.702 12.9 789.224 13.35 789.584 13.938C789.944 14.526 790.124 15.24 790.124 16.08C790.124 16.92 789.944 17.634 789.584 18.222C789.224 18.81 788.702 19.26 788.018 19.572C787.334 19.884 786.506 20.04 785.534 20.04H783.176V24H780.08V12.12H785.534ZM785.048 17.718C785.696 17.718 786.182 17.586 786.506 17.322C786.842 17.046 787.01 16.632 787.01 16.08C787.01 15.528 786.842 15.12 786.506 14.856C786.182 14.58 785.696 14.442 785.048 14.442H783.176V17.718H785.048ZM792.103 24V12.12H801.355V14.514H795.199V16.926H800.095V19.176H795.199V21.606H801.589V24H792.103ZM809.129 12.12C810.545 12.12 811.643 12.456 812.423 13.128C813.215 13.788 813.611 14.67 813.611 15.774C813.611 16.986 813.221 17.91 812.441 18.546C811.661 19.182 810.563 19.5 809.147 19.5L808.859 19.662H806.501V24H803.459V12.12H809.129ZM808.697 17.466C809.297 17.466 809.747 17.346 810.047 17.106C810.347 16.866 810.497 16.482 810.497 15.954C810.497 15.438 810.347 15.06 810.047 14.82C809.747 14.58 809.297 14.46 808.697 14.46H806.501V17.466H808.697ZM810.515 18.114L814.313 24H810.893L807.851 18.798L810.515 18.114ZM834.771 12.12V24H832.035V18.546L832.125 14.892H832.089L829.155 24H826.653L823.719 14.892H823.683L823.773 18.546V24H821.019V12.12H825.429L827.301 18.168L827.967 20.688H828.003L828.687 18.186L830.541 12.12H834.771ZM848.202 24H845.016L844.188 21.318H840.12L839.274 24H836.16L840.336 12.12H844.044L848.202 24ZM840.696 19.212H843.612L842.154 14.406L840.696 19.212ZM858.079 12.12V14.514H854.209V24H851.113V14.514H847.225V12.12H858.079ZM869.887 20.598C869.659 21.426 869.293 22.11 868.789 22.65C868.285 23.178 867.685 23.568 866.989 23.82C866.293 24.06 865.525 24.18 864.685 24.18C863.485 24.18 862.447 23.94 861.571 23.46C860.695 22.968 860.023 22.266 859.555 21.354C859.087 20.442 858.853 19.344 858.853 18.06C858.853 16.776 859.087 15.678 859.555 14.766C860.023 13.854 860.695 13.158 861.571 12.678C862.447 12.186 863.479 11.94 864.667 11.94C865.495 11.94 866.257 12.06 866.953 12.3C867.649 12.528 868.237 12.882 868.717 13.362C869.197 13.842 869.539 14.46 869.743 15.216L867.025 16.314C866.857 15.57 866.581 15.06 866.197 14.784C865.825 14.508 865.351 14.37 864.775 14.37C864.211 14.37 863.719 14.508 863.299 14.784C862.891 15.06 862.573 15.474 862.345 16.026C862.129 16.566 862.021 17.244 862.021 18.06C862.021 18.864 862.123 19.542 862.327 20.094C862.531 20.646 862.837 21.06 863.245 21.336C863.665 21.612 864.181 21.75 864.793 21.75C865.369 21.75 865.855 21.594 866.251 21.282C866.659 20.958 866.935 20.466 867.079 19.806L869.887 20.598ZM882.337 12.12V24H879.241V12.12H882.337ZM874.705 12.12V24H871.609V12.12H874.705ZM880.897 16.818V19.212H873.121V16.818H880.897Z" fill="white"/>
</svg>
