<svg width="828" height="35" viewBox="0 0 828 35" fill="none" xmlns="http://www.w3.org/2000/svg">
<rect width="827" height="35" fill="#FF7E55"/>
<path d="M-4.042 11.94C-2.938 11.94 -1.966 12.114 -1.126 12.462C-0.274 12.798 0.464 13.296 1.088 13.956L-0.405999 15.954C-0.922 15.414 -1.48 15.012 -2.08 14.748C-2.668 14.472 -3.34 14.334 -4.096 14.334C-4.54 14.334 -4.9 14.382 -5.176 14.478C-5.452 14.574 -5.65 14.706 -5.77 14.874C-5.89 15.042 -5.95 15.234 -5.95 15.45C-5.95 15.702 -5.836 15.918 -5.608 16.098C-5.368 16.266 -4.984 16.41 -4.456 16.53L-2.458 16.98C-1.27 17.256 -0.4 17.658 0.152 18.186C0.704 18.714 0.98 19.416 0.98 20.292C0.98 21.132 0.764 21.846 0.332 22.434C-0.0999994 23.01 -0.693999 23.448 -1.45 23.748C-2.206 24.036 -3.07 24.18 -4.042 24.18C-4.834 24.18 -5.59 24.096 -6.31 23.928C-7.03 23.748 -7.678 23.496 -8.254 23.172C-8.83 22.848 -9.316 22.476 -9.712 22.056L-8.218 19.986C-7.918 20.334 -7.552 20.646 -7.12 20.922C-6.676 21.186 -6.196 21.396 -5.68 21.552C-5.152 21.708 -4.618 21.786 -4.078 21.786C-3.658 21.786 -3.31 21.744 -3.034 21.66C-2.746 21.576 -2.536 21.45 -2.404 21.282C-2.272 21.114 -2.206 20.916 -2.206 20.688C-2.206 20.436 -2.296 20.226 -2.476 20.058C-2.656 19.878 -2.998 19.728 -3.502 19.608L-5.698 19.122C-6.37 18.966 -6.97 18.762 -7.498 18.51C-8.014 18.246 -8.422 17.898 -8.722 17.466C-9.022 17.022 -9.172 16.47 -9.172 15.81C-9.172 15.066 -8.968 14.406 -8.56 13.83C-8.152 13.242 -7.564 12.78 -6.796 12.444C-6.028 12.108 -5.11 11.94 -4.042 11.94ZM13.3016 12.12V19.158C13.3016 20.838 12.8516 22.098 11.9516 22.938C11.0636 23.766 9.74356 24.18 7.99156 24.18C6.25156 24.18 4.93156 23.766 4.03156 22.938C3.13156 22.098 2.68156 20.838 2.68156 19.158V12.12H5.79556V19.212C5.79556 20.064 5.97556 20.7 6.33556 21.12C6.70756 21.54 7.25956 21.75 7.99156 21.75C8.73556 21.75 9.28756 21.54 9.64756 21.12C10.0196 20.7 10.2056 20.064 10.2056 19.212V12.12H13.3016ZM21.1489 12.12C22.1209 12.12 22.9489 12.276 23.6329 12.588C24.3169 12.9 24.8389 13.35 25.1989 13.938C25.5589 14.526 25.7389 15.24 25.7389 16.08C25.7389 16.92 25.5589 17.634 25.1989 18.222C24.8389 18.81 24.3169 19.26 23.6329 19.572C22.9489 19.884 22.1209 20.04 21.1489 20.04H18.7909V24H15.6949V12.12H21.1489ZM20.6629 17.718C21.3109 17.718 21.7969 17.586 22.1209 17.322C22.4569 17.046 22.6249 16.632 22.6249 16.08C22.6249 15.528 22.4569 15.12 22.1209 14.856C21.7969 14.58 21.3109 14.442 20.6629 14.442H18.7909V17.718H20.6629ZM27.7183 24V12.12H36.9703V14.514H30.8143V16.926H35.7103V19.176H30.8143V21.606H37.2043V24H27.7183ZM44.7438 12.12C46.1598 12.12 47.2578 12.456 48.0378 13.128C48.8298 13.788 49.2258 14.67 49.2258 15.774C49.2258 16.986 48.8358 17.91 48.0558 18.546C47.2758 19.182 46.1778 19.5 44.7618 19.5L44.4738 19.662H42.1158V24H39.0738V12.12H44.7438ZM44.3118 17.466C44.9118 17.466 45.3618 17.346 45.6618 17.106C45.9618 16.866 46.1118 16.482 46.1118 15.954C46.1118 15.438 45.9618 15.06 45.6618 14.82C45.3618 14.58 44.9118 14.46 44.3118 14.46H42.1158V17.466H44.3118ZM46.1298 18.114L49.9278 24H46.5078L43.4658 18.798L46.1298 18.114ZM70.3863 12.12V24H67.6503V18.546L67.7403 14.892H67.7043L64.7703 24H62.2683L59.3343 14.892H59.2983L59.3883 18.546V24H56.6343V12.12H61.0443L62.9163 18.168L63.5823 20.688H63.6183L64.3023 18.186L66.1563 12.12H70.3863ZM83.8171 24H80.6311L79.8031 21.318H75.7351L74.8891 24H71.7751L75.9511 12.12H79.6591L83.8171 24ZM76.3111 19.212H79.2271L77.7691 14.406L76.3111 19.212ZM93.6946 12.12V14.514H89.8246V24H86.7286V14.514H82.8406V12.12H93.6946ZM105.502 20.598C105.274 21.426 104.908 22.11 104.404 22.65C103.9 23.178 103.3 23.568 102.604 23.82C101.908 24.06 101.14 24.18 100.3 24.18C99.1002 24.18 98.0622 23.94 97.1862 23.46C96.3102 22.968 95.6382 22.266 95.1702 21.354C94.7022 20.442 94.4682 19.344 94.4682 18.06C94.4682 16.776 94.7022 15.678 95.1702 14.766C95.6382 13.854 96.3102 13.158 97.1862 12.678C98.0622 12.186 99.0942 11.94 100.282 11.94C101.11 11.94 101.872 12.06 102.568 12.3C103.264 12.528 103.852 12.882 104.332 13.362C104.812 13.842 105.154 14.46 105.358 15.216L102.64 16.314C102.472 15.57 102.196 15.06 101.812 14.784C101.44 14.508 100.966 14.37 100.39 14.37C99.8262 14.37 99.3342 14.508 98.9142 14.784C98.5062 15.06 98.1882 15.474 97.9602 16.026C97.7442 16.566 97.6362 17.244 97.6362 18.06C97.6362 18.864 97.7382 19.542 97.9422 20.094C98.1462 20.646 98.4522 21.06 98.8602 21.336C99.2802 21.612 99.7962 21.75 100.408 21.75C100.984 21.75 101.47 21.594 101.866 21.282C102.274 20.958 102.55 20.466 102.694 19.806L105.502 20.598ZM117.952 12.12V24H114.856V12.12H117.952ZM110.32 12.12V24H107.224V12.12H110.32ZM116.512 16.818V19.212H108.736V16.818H116.512ZM130.648 24C130.492 23.604 130.33 23.238 130.162 22.902C130.006 22.554 129.808 22.182 129.568 21.786C129.328 21.39 129.028 20.928 128.668 20.4C128.308 19.872 127.852 19.23 127.3 18.474C126.592 17.502 126.088 16.668 125.788 15.972C125.488 15.276 125.338 14.598 125.338 13.938C125.338 13.41 125.47 12.93 125.734 12.498C126.01 12.054 126.37 11.706 126.814 11.454C127.27 11.19 127.762 11.058 128.29 11.058C128.854 11.058 129.376 11.202 129.856 11.49C130.348 11.778 130.75 12.216 131.062 12.804C131.386 12.216 131.794 11.778 132.286 11.49C132.778 11.202 133.306 11.058 133.87 11.058C134.386 11.058 134.866 11.19 135.31 11.454C135.766 11.706 136.132 12.054 136.408 12.498C136.684 12.93 136.822 13.41 136.822 13.938C136.822 14.358 136.762 14.79 136.642 15.234C136.534 15.666 136.336 16.146 136.048 16.674C135.76 17.19 135.364 17.796 134.86 18.492C134.308 19.26 133.846 19.914 133.474 20.454C133.102 20.982 132.796 21.444 132.556 21.84C132.328 22.236 132.13 22.602 131.962 22.938C131.794 23.274 131.638 23.628 131.494 24H130.648ZM131.062 22.434C131.29 21.978 131.596 21.45 131.98 20.85C132.376 20.25 132.838 19.584 133.366 18.852C133.894 18.12 134.326 17.49 134.662 16.962C134.998 16.434 135.238 16.014 135.382 15.702C135.67 15.066 135.814 14.478 135.814 13.938C135.814 13.59 135.724 13.278 135.544 13.002C135.364 12.714 135.124 12.486 134.824 12.318C134.536 12.15 134.218 12.066 133.87 12.066C133.354 12.066 132.886 12.282 132.466 12.714C132.046 13.134 131.734 13.716 131.53 14.46H130.612C130.384 13.644 130.06 13.044 129.64 12.66C129.232 12.264 128.782 12.066 128.29 12.066C127.954 12.066 127.636 12.15 127.336 12.318C127.036 12.486 126.796 12.714 126.616 13.002C126.436 13.278 126.346 13.59 126.346 13.938C126.346 14.442 126.484 15.018 126.76 15.666C127.024 16.278 127.684 17.304 128.74 18.744C129.268 19.44 129.724 20.1 130.108 20.724C130.492 21.336 130.81 21.906 131.062 22.434ZM148.853 11.94C149.957 11.94 150.929 12.114 151.769 12.462C152.621 12.798 153.359 13.296 153.983 13.956L152.489 15.954C151.973 15.414 151.415 15.012 150.815 14.748C150.227 14.472 149.555 14.334 148.799 14.334C148.355 14.334 147.995 14.382 147.719 14.478C147.443 14.574 147.245 14.706 147.125 14.874C147.005 15.042 146.945 15.234 146.945 15.45C146.945 15.702 147.059 15.918 147.287 16.098C147.527 16.266 147.911 16.41 148.439 16.53L150.437 16.98C151.625 17.256 152.495 17.658 153.047 18.186C153.599 18.714 153.875 19.416 153.875 20.292C153.875 21.132 153.659 21.846 153.227 22.434C152.795 23.01 152.201 23.448 151.445 23.748C150.689 24.036 149.825 24.18 148.853 24.18C148.061 24.18 147.305 24.096 146.585 23.928C145.865 23.748 145.217 23.496 144.641 23.172C144.065 22.848 143.579 22.476 143.183 22.056L144.677 19.986C144.977 20.334 145.343 20.646 145.775 20.922C146.219 21.186 146.699 21.396 147.215 21.552C147.743 21.708 148.277 21.786 148.817 21.786C149.237 21.786 149.585 21.744 149.861 21.66C150.149 21.576 150.359 21.45 150.491 21.282C150.623 21.114 150.689 20.916 150.689 20.688C150.689 20.436 150.599 20.226 150.419 20.058C150.239 19.878 149.897 19.728 149.393 19.608L147.197 19.122C146.525 18.966 145.925 18.762 145.397 18.51C144.881 18.246 144.473 17.898 144.173 17.466C143.873 17.022 143.723 16.47 143.723 15.81C143.723 15.066 143.927 14.406 144.335 13.83C144.743 13.242 145.331 12.78 146.099 12.444C146.867 12.108 147.785 11.94 148.853 11.94ZM166.196 12.12V19.158C166.196 20.838 165.746 22.098 164.846 22.938C163.958 23.766 162.638 24.18 160.886 24.18C159.146 24.18 157.826 23.766 156.926 22.938C156.026 22.098 155.576 20.838 155.576 19.158V12.12H158.69V19.212C158.69 20.064 158.87 20.7 159.23 21.12C159.602 21.54 160.154 21.75 160.886 21.75C161.63 21.75 162.182 21.54 162.542 21.12C162.914 20.7 163.1 20.064 163.1 19.212V12.12H166.196ZM174.043 12.12C175.015 12.12 175.843 12.276 176.527 12.588C177.211 12.9 177.733 13.35 178.093 13.938C178.453 14.526 178.633 15.24 178.633 16.08C178.633 16.92 178.453 17.634 178.093 18.222C177.733 18.81 177.211 19.26 176.527 19.572C175.843 19.884 175.015 20.04 174.043 20.04H171.685V24H168.589V12.12H174.043ZM173.557 17.718C174.205 17.718 174.691 17.586 175.015 17.322C175.351 17.046 175.519 16.632 175.519 16.08C175.519 15.528 175.351 15.12 175.015 14.856C174.691 14.58 174.205 14.442 173.557 14.442H171.685V17.718H173.557ZM180.613 24V12.12H189.865V14.514H183.709V16.926H188.605V19.176H183.709V21.606H190.099V24H180.613ZM197.638 12.12C199.054 12.12 200.152 12.456 200.932 13.128C201.724 13.788 202.12 14.67 202.12 15.774C202.12 16.986 201.73 17.91 200.95 18.546C200.17 19.182 199.072 19.5 197.656 19.5L197.368 19.662H195.01V24H191.968V12.12H197.638ZM197.206 17.466C197.806 17.466 198.256 17.346 198.556 17.106C198.856 16.866 199.006 16.482 199.006 15.954C199.006 15.438 198.856 15.06 198.556 14.82C198.256 14.58 197.806 14.46 197.206 14.46H195.01V17.466H197.206ZM199.024 18.114L202.822 24H199.402L196.36 18.798L199.024 18.114ZM223.281 12.12V24H220.545V18.546L220.635 14.892H220.599L217.665 24H215.163L212.229 14.892H212.193L212.283 18.546V24H209.529V12.12H213.939L215.811 18.168L216.477 20.688H216.513L217.197 18.186L219.051 12.12H223.281ZM236.712 24H233.526L232.698 21.318H228.63L227.784 24H224.67L228.846 12.12H232.554L236.712 24ZM229.206 19.212H232.122L230.664 14.406L229.206 19.212ZM246.589 12.12V14.514H242.719V24H239.623V14.514H235.735V12.12H246.589ZM258.397 20.598C258.169 21.426 257.803 22.11 257.299 22.65C256.795 23.178 256.195 23.568 255.499 23.82C254.803 24.06 254.035 24.18 253.195 24.18C251.995 24.18 250.957 23.94 250.081 23.46C249.205 22.968 248.533 22.266 248.065 21.354C247.597 20.442 247.363 19.344 247.363 18.06C247.363 16.776 247.597 15.678 248.065 14.766C248.533 13.854 249.205 13.158 250.081 12.678C250.957 12.186 251.989 11.94 253.177 11.94C254.005 11.94 254.767 12.06 255.463 12.3C256.159 12.528 256.747 12.882 257.227 13.362C257.707 13.842 258.049 14.46 258.253 15.216L255.535 16.314C255.367 15.57 255.091 15.06 254.707 14.784C254.335 14.508 253.861 14.37 253.285 14.37C252.721 14.37 252.229 14.508 251.809 14.784C251.401 15.06 251.083 15.474 250.855 16.026C250.639 16.566 250.531 17.244 250.531 18.06C250.531 18.864 250.633 19.542 250.837 20.094C251.041 20.646 251.347 21.06 251.755 21.336C252.175 21.612 252.691 21.75 253.303 21.75C253.879 21.75 254.365 21.594 254.761 21.282C255.169 20.958 255.445 20.466 255.589 19.806L258.397 20.598ZM270.847 12.12V24H267.751V12.12H270.847ZM263.215 12.12V24H260.119V12.12H263.215ZM269.407 16.818V19.212H261.631V16.818H269.407ZM283.542 24C283.386 23.604 283.224 23.238 283.056 22.902C282.9 22.554 282.702 22.182 282.462 21.786C282.222 21.39 281.922 20.928 281.562 20.4C281.202 19.872 280.746 19.23 280.194 18.474C279.486 17.502 278.982 16.668 278.682 15.972C278.382 15.276 278.232 14.598 278.232 13.938C278.232 13.41 278.364 12.93 278.628 12.498C278.904 12.054 279.264 11.706 279.708 11.454C280.164 11.19 280.656 11.058 281.184 11.058C281.748 11.058 282.27 11.202 282.75 11.49C283.242 11.778 283.644 12.216 283.956 12.804C284.28 12.216 284.688 11.778 285.18 11.49C285.672 11.202 286.2 11.058 286.764 11.058C287.28 11.058 287.76 11.19 288.204 11.454C288.66 11.706 289.026 12.054 289.302 12.498C289.578 12.93 289.716 13.41 289.716 13.938C289.716 14.358 289.656 14.79 289.536 15.234C289.428 15.666 289.23 16.146 288.942 16.674C288.654 17.19 288.258 17.796 287.754 18.492C287.202 19.26 286.74 19.914 286.368 20.454C285.996 20.982 285.69 21.444 285.45 21.84C285.222 22.236 285.024 22.602 284.856 22.938C284.688 23.274 284.532 23.628 284.388 24H283.542ZM283.956 22.434C284.184 21.978 284.49 21.45 284.874 20.85C285.27 20.25 285.732 19.584 286.26 18.852C286.788 18.12 287.22 17.49 287.556 16.962C287.892 16.434 288.132 16.014 288.276 15.702C288.564 15.066 288.708 14.478 288.708 13.938C288.708 13.59 288.618 13.278 288.438 13.002C288.258 12.714 288.018 12.486 287.718 12.318C287.43 12.15 287.112 12.066 286.764 12.066C286.248 12.066 285.78 12.282 285.36 12.714C284.94 13.134 284.628 13.716 284.424 14.46H283.506C283.278 13.644 282.954 13.044 282.534 12.66C282.126 12.264 281.676 12.066 281.184 12.066C280.848 12.066 280.53 12.15 280.23 12.318C279.93 12.486 279.69 12.714 279.51 13.002C279.33 13.278 279.24 13.59 279.24 13.938C279.24 14.442 279.378 15.018 279.654 15.666C279.918 16.278 280.578 17.304 281.634 18.744C282.162 19.44 282.618 20.1 283.002 20.724C283.386 21.336 283.704 21.906 283.956 22.434ZM301.747 11.94C302.851 11.94 303.823 12.114 304.663 12.462C305.515 12.798 306.253 13.296 306.877 13.956L305.383 15.954C304.867 15.414 304.309 15.012 303.709 14.748C303.121 14.472 302.449 14.334 301.693 14.334C301.249 14.334 300.889 14.382 300.613 14.478C300.337 14.574 300.139 14.706 300.019 14.874C299.899 15.042 299.839 15.234 299.839 15.45C299.839 15.702 299.953 15.918 300.181 16.098C300.421 16.266 300.805 16.41 301.333 16.53L303.331 16.98C304.519 17.256 305.389 17.658 305.941 18.186C306.493 18.714 306.769 19.416 306.769 20.292C306.769 21.132 306.553 21.846 306.121 22.434C305.689 23.01 305.095 23.448 304.339 23.748C303.583 24.036 302.719 24.18 301.747 24.18C300.955 24.18 300.199 24.096 299.479 23.928C298.759 23.748 298.111 23.496 297.535 23.172C296.959 22.848 296.473 22.476 296.077 22.056L297.571 19.986C297.871 20.334 298.237 20.646 298.669 20.922C299.113 21.186 299.593 21.396 300.109 21.552C300.637 21.708 301.171 21.786 301.711 21.786C302.131 21.786 302.479 21.744 302.755 21.66C303.043 21.576 303.253 21.45 303.385 21.282C303.517 21.114 303.583 20.916 303.583 20.688C303.583 20.436 303.493 20.226 303.313 20.058C303.133 19.878 302.791 19.728 302.287 19.608L300.091 19.122C299.419 18.966 298.819 18.762 298.291 18.51C297.775 18.246 297.367 17.898 297.067 17.466C296.767 17.022 296.617 16.47 296.617 15.81C296.617 15.066 296.821 14.406 297.229 13.83C297.637 13.242 298.225 12.78 298.993 12.444C299.761 12.108 300.679 11.94 301.747 11.94ZM319.091 12.12V19.158C319.091 20.838 318.641 22.098 317.741 22.938C316.853 23.766 315.533 24.18 313.781 24.18C312.041 24.18 310.721 23.766 309.821 22.938C308.921 22.098 308.471 20.838 308.471 19.158V12.12H311.585V19.212C311.585 20.064 311.765 20.7 312.125 21.12C312.497 21.54 313.049 21.75 313.781 21.75C314.525 21.75 315.077 21.54 315.437 21.12C315.809 20.7 315.995 20.064 315.995 19.212V12.12H319.091ZM326.938 12.12C327.91 12.12 328.738 12.276 329.422 12.588C330.106 12.9 330.628 13.35 330.988 13.938C331.348 14.526 331.528 15.24 331.528 16.08C331.528 16.92 331.348 17.634 330.988 18.222C330.628 18.81 330.106 19.26 329.422 19.572C328.738 19.884 327.91 20.04 326.938 20.04H324.58V24H321.484V12.12H326.938ZM326.452 17.718C327.1 17.718 327.586 17.586 327.91 17.322C328.246 17.046 328.414 16.632 328.414 16.08C328.414 15.528 328.246 15.12 327.91 14.856C327.586 14.58 327.1 14.442 326.452 14.442H324.58V17.718H326.452ZM333.507 24V12.12H342.759V14.514H336.603V16.926H341.499V19.176H336.603V21.606H342.993V24H333.507ZM350.533 12.12C351.949 12.12 353.047 12.456 353.827 13.128C354.619 13.788 355.015 14.67 355.015 15.774C355.015 16.986 354.625 17.91 353.845 18.546C353.065 19.182 351.967 19.5 350.551 19.5L350.263 19.662H347.905V24H344.863V12.12H350.533ZM350.101 17.466C350.701 17.466 351.151 17.346 351.451 17.106C351.751 16.866 351.901 16.482 351.901 15.954C351.901 15.438 351.751 15.06 351.451 14.82C351.151 14.58 350.701 14.46 350.101 14.46H347.905V17.466H350.101ZM351.919 18.114L355.717 24H352.297L349.255 18.798L351.919 18.114ZM376.175 12.12V24H373.439V18.546L373.529 14.892H373.493L370.559 24H368.057L365.123 14.892H365.087L365.177 18.546V24H362.423V12.12H366.833L368.705 18.168L369.371 20.688H369.407L370.091 18.186L371.945 12.12H376.175ZM389.606 24H386.42L385.592 21.318H381.524L380.678 24H377.564L381.74 12.12H385.448L389.606 24ZM382.1 19.212H385.016L383.558 14.406L382.1 19.212ZM399.484 12.12V14.514H395.614V24H392.518V14.514H388.63V12.12H399.484ZM411.291 20.598C411.063 21.426 410.697 22.11 410.193 22.65C409.689 23.178 409.089 23.568 408.393 23.82C407.697 24.06 406.929 24.18 406.089 24.18C404.889 24.18 403.851 23.94 402.975 23.46C402.099 22.968 401.427 22.266 400.959 21.354C400.491 20.442 400.257 19.344 400.257 18.06C400.257 16.776 400.491 15.678 400.959 14.766C401.427 13.854 402.099 13.158 402.975 12.678C403.851 12.186 404.883 11.94 406.071 11.94C406.899 11.94 407.661 12.06 408.357 12.3C409.053 12.528 409.641 12.882 410.121 13.362C410.601 13.842 410.943 14.46 411.147 15.216L408.429 16.314C408.261 15.57 407.985 15.06 407.601 14.784C407.229 14.508 406.755 14.37 406.179 14.37C405.615 14.37 405.123 14.508 404.703 14.784C404.295 15.06 403.977 15.474 403.749 16.026C403.533 16.566 403.425 17.244 403.425 18.06C403.425 18.864 403.527 19.542 403.731 20.094C403.935 20.646 404.241 21.06 404.649 21.336C405.069 21.612 405.585 21.75 406.197 21.75C406.773 21.75 407.259 21.594 407.655 21.282C408.063 20.958 408.339 20.466 408.483 19.806L411.291 20.598ZM423.741 12.12V24H420.645V12.12H423.741ZM416.109 12.12V24H413.013V12.12H416.109ZM422.301 16.818V19.212H414.525V16.818H422.301ZM436.437 24C436.281 23.604 436.119 23.238 435.951 22.902C435.795 22.554 435.597 22.182 435.357 21.786C435.117 21.39 434.817 20.928 434.457 20.4C434.097 19.872 433.641 19.23 433.089 18.474C432.381 17.502 431.877 16.668 431.577 15.972C431.277 15.276 431.127 14.598 431.127 13.938C431.127 13.41 431.259 12.93 431.523 12.498C431.799 12.054 432.159 11.706 432.603 11.454C433.059 11.19 433.551 11.058 434.079 11.058C434.643 11.058 435.165 11.202 435.645 11.49C436.137 11.778 436.539 12.216 436.851 12.804C437.175 12.216 437.583 11.778 438.075 11.49C438.567 11.202 439.095 11.058 439.659 11.058C440.175 11.058 440.655 11.19 441.099 11.454C441.555 11.706 441.921 12.054 442.197 12.498C442.473 12.93 442.611 13.41 442.611 13.938C442.611 14.358 442.551 14.79 442.431 15.234C442.323 15.666 442.125 16.146 441.837 16.674C441.549 17.19 441.153 17.796 440.649 18.492C440.097 19.26 439.635 19.914 439.263 20.454C438.891 20.982 438.585 21.444 438.345 21.84C438.117 22.236 437.919 22.602 437.751 22.938C437.583 23.274 437.427 23.628 437.283 24H436.437ZM436.851 22.434C437.079 21.978 437.385 21.45 437.769 20.85C438.165 20.25 438.627 19.584 439.155 18.852C439.683 18.12 440.115 17.49 440.451 16.962C440.787 16.434 441.027 16.014 441.171 15.702C441.459 15.066 441.603 14.478 441.603 13.938C441.603 13.59 441.513 13.278 441.333 13.002C441.153 12.714 440.913 12.486 440.613 12.318C440.325 12.15 440.007 12.066 439.659 12.066C439.143 12.066 438.675 12.282 438.255 12.714C437.835 13.134 437.523 13.716 437.319 14.46H436.401C436.173 13.644 435.849 13.044 435.429 12.66C435.021 12.264 434.571 12.066 434.079 12.066C433.743 12.066 433.425 12.15 433.125 12.318C432.825 12.486 432.585 12.714 432.405 13.002C432.225 13.278 432.135 13.59 432.135 13.938C432.135 14.442 432.273 15.018 432.549 15.666C432.813 16.278 433.473 17.304 434.529 18.744C435.057 19.44 435.513 20.1 435.897 20.724C436.281 21.336 436.599 21.906 436.851 22.434ZM454.642 11.94C455.746 11.94 456.718 12.114 457.558 12.462C458.41 12.798 459.148 13.296 459.772 13.956L458.278 15.954C457.762 15.414 457.204 15.012 456.604 14.748C456.016 14.472 455.344 14.334 454.588 14.334C454.144 14.334 453.784 14.382 453.508 14.478C453.232 14.574 453.034 14.706 452.914 14.874C452.794 15.042 452.734 15.234 452.734 15.45C452.734 15.702 452.848 15.918 453.076 16.098C453.316 16.266 453.7 16.41 454.228 16.53L456.226 16.98C457.414 17.256 458.284 17.658 458.836 18.186C459.388 18.714 459.664 19.416 459.664 20.292C459.664 21.132 459.448 21.846 459.016 22.434C458.584 23.01 457.99 23.448 457.234 23.748C456.478 24.036 455.614 24.18 454.642 24.18C453.85 24.18 453.094 24.096 452.374 23.928C451.654 23.748 451.006 23.496 450.43 23.172C449.854 22.848 449.368 22.476 448.972 22.056L450.466 19.986C450.766 20.334 451.132 20.646 451.564 20.922C452.008 21.186 452.488 21.396 453.004 21.552C453.532 21.708 454.066 21.786 454.606 21.786C455.026 21.786 455.374 21.744 455.65 21.66C455.938 21.576 456.148 21.45 456.28 21.282C456.412 21.114 456.478 20.916 456.478 20.688C456.478 20.436 456.388 20.226 456.208 20.058C456.028 19.878 455.686 19.728 455.182 19.608L452.986 19.122C452.314 18.966 451.714 18.762 451.186 18.51C450.67 18.246 450.262 17.898 449.962 17.466C449.662 17.022 449.512 16.47 449.512 15.81C449.512 15.066 449.716 14.406 450.124 13.83C450.532 13.242 451.12 12.78 451.888 12.444C452.656 12.108 453.574 11.94 454.642 11.94ZM471.985 12.12V19.158C471.985 20.838 471.535 22.098 470.635 22.938C469.747 23.766 468.427 24.18 466.675 24.18C464.935 24.18 463.615 23.766 462.715 22.938C461.815 22.098 461.365 20.838 461.365 19.158V12.12H464.479V19.212C464.479 20.064 464.659 20.7 465.019 21.12C465.391 21.54 465.943 21.75 466.675 21.75C467.419 21.75 467.971 21.54 468.331 21.12C468.703 20.7 468.889 20.064 468.889 19.212V12.12H471.985ZM479.832 12.12C480.804 12.12 481.632 12.276 482.316 12.588C483 12.9 483.522 13.35 483.882 13.938C484.242 14.526 484.422 15.24 484.422 16.08C484.422 16.92 484.242 17.634 483.882 18.222C483.522 18.81 483 19.26 482.316 19.572C481.632 19.884 480.804 20.04 479.832 20.04H477.474V24H474.378V12.12H479.832ZM479.346 17.718C479.994 17.718 480.48 17.586 480.804 17.322C481.14 17.046 481.308 16.632 481.308 16.08C481.308 15.528 481.14 15.12 480.804 14.856C480.48 14.58 479.994 14.442 479.346 14.442H477.474V17.718H479.346ZM486.402 24V12.12H495.654V14.514H489.498V16.926H494.394V19.176H489.498V21.606H495.888V24H486.402ZM503.427 12.12C504.843 12.12 505.941 12.456 506.721 13.128C507.513 13.788 507.909 14.67 507.909 15.774C507.909 16.986 507.519 17.91 506.739 18.546C505.959 19.182 504.861 19.5 503.445 19.5L503.157 19.662H500.799V24H497.757V12.12H503.427ZM502.995 17.466C503.595 17.466 504.045 17.346 504.345 17.106C504.645 16.866 504.795 16.482 504.795 15.954C504.795 15.438 504.645 15.06 504.345 14.82C504.045 14.58 503.595 14.46 502.995 14.46H500.799V17.466H502.995ZM504.813 18.114L508.611 24H505.191L502.149 18.798L504.813 18.114ZM529.07 12.12V24H526.334V18.546L526.424 14.892H526.388L523.454 24H520.952L518.018 14.892H517.982L518.072 18.546V24H515.318V12.12H519.728L521.6 18.168L522.266 20.688H522.302L522.986 18.186L524.84 12.12H529.07ZM542.501 24H539.315L538.487 21.318H534.419L533.573 24H530.459L534.635 12.12H538.343L542.501 24ZM534.995 19.212H537.911L536.453 14.406L534.995 19.212ZM552.378 12.12V14.514H548.508V24H545.412V14.514H541.524V12.12H552.378ZM564.186 20.598C563.958 21.426 563.592 22.11 563.088 22.65C562.584 23.178 561.984 23.568 561.288 23.82C560.592 24.06 559.824 24.18 558.984 24.18C557.784 24.18 556.746 23.94 555.87 23.46C554.994 22.968 554.322 22.266 553.854 21.354C553.386 20.442 553.152 19.344 553.152 18.06C553.152 16.776 553.386 15.678 553.854 14.766C554.322 13.854 554.994 13.158 555.87 12.678C556.746 12.186 557.778 11.94 558.966 11.94C559.794 11.94 560.556 12.06 561.252 12.3C561.948 12.528 562.536 12.882 563.016 13.362C563.496 13.842 563.838 14.46 564.042 15.216L561.324 16.314C561.156 15.57 560.88 15.06 560.496 14.784C560.124 14.508 559.65 14.37 559.074 14.37C558.51 14.37 558.018 14.508 557.598 14.784C557.19 15.06 556.872 15.474 556.644 16.026C556.428 16.566 556.32 17.244 556.32 18.06C556.32 18.864 556.422 19.542 556.626 20.094C556.83 20.646 557.136 21.06 557.544 21.336C557.964 21.612 558.48 21.75 559.092 21.75C559.668 21.75 560.154 21.594 560.55 21.282C560.958 20.958 561.234 20.466 561.378 19.806L564.186 20.598ZM576.636 12.12V24H573.54V12.12H576.636ZM569.004 12.12V24H565.908V12.12H569.004ZM575.196 16.818V19.212H567.42V16.818H575.196ZM589.332 24C589.176 23.604 589.014 23.238 588.846 22.902C588.69 22.554 588.492 22.182 588.252 21.786C588.012 21.39 587.712 20.928 587.352 20.4C586.992 19.872 586.536 19.23 585.984 18.474C585.276 17.502 584.772 16.668 584.472 15.972C584.172 15.276 584.022 14.598 584.022 13.938C584.022 13.41 584.154 12.93 584.418 12.498C584.694 12.054 585.054 11.706 585.498 11.454C585.954 11.19 586.446 11.058 586.974 11.058C587.538 11.058 588.06 11.202 588.54 11.49C589.032 11.778 589.434 12.216 589.746 12.804C590.07 12.216 590.478 11.778 590.97 11.49C591.462 11.202 591.99 11.058 592.554 11.058C593.07 11.058 593.55 11.19 593.994 11.454C594.45 11.706 594.816 12.054 595.092 12.498C595.368 12.93 595.506 13.41 595.506 13.938C595.506 14.358 595.446 14.79 595.326 15.234C595.218 15.666 595.02 16.146 594.732 16.674C594.444 17.19 594.048 17.796 593.544 18.492C592.992 19.26 592.53 19.914 592.158 20.454C591.786 20.982 591.48 21.444 591.24 21.84C591.012 22.236 590.814 22.602 590.646 22.938C590.478 23.274 590.322 23.628 590.178 24H589.332ZM589.746 22.434C589.974 21.978 590.28 21.45 590.664 20.85C591.06 20.25 591.522 19.584 592.05 18.852C592.578 18.12 593.01 17.49 593.346 16.962C593.682 16.434 593.922 16.014 594.066 15.702C594.354 15.066 594.498 14.478 594.498 13.938C594.498 13.59 594.408 13.278 594.228 13.002C594.048 12.714 593.808 12.486 593.508 12.318C593.22 12.15 592.902 12.066 592.554 12.066C592.038 12.066 591.57 12.282 591.15 12.714C590.73 13.134 590.418 13.716 590.214 14.46H589.296C589.068 13.644 588.744 13.044 588.324 12.66C587.916 12.264 587.466 12.066 586.974 12.066C586.638 12.066 586.32 12.15 586.02 12.318C585.72 12.486 585.48 12.714 585.3 13.002C585.12 13.278 585.03 13.59 585.03 13.938C585.03 14.442 585.168 15.018 585.444 15.666C585.708 16.278 586.368 17.304 587.424 18.744C587.952 19.44 588.408 20.1 588.792 20.724C589.176 21.336 589.494 21.906 589.746 22.434ZM607.536 11.94C608.64 11.94 609.612 12.114 610.452 12.462C611.304 12.798 612.042 13.296 612.666 13.956L611.172 15.954C610.656 15.414 610.098 15.012 609.498 14.748C608.91 14.472 608.238 14.334 607.482 14.334C607.038 14.334 606.678 14.382 606.402 14.478C606.126 14.574 605.928 14.706 605.808 14.874C605.688 15.042 605.628 15.234 605.628 15.45C605.628 15.702 605.742 15.918 605.97 16.098C606.21 16.266 606.594 16.41 607.122 16.53L609.12 16.98C610.308 17.256 611.178 17.658 611.73 18.186C612.282 18.714 612.558 19.416 612.558 20.292C612.558 21.132 612.342 21.846 611.91 22.434C611.478 23.01 610.884 23.448 610.128 23.748C609.372 24.036 608.508 24.18 607.536 24.18C606.744 24.18 605.988 24.096 605.268 23.928C604.548 23.748 603.9 23.496 603.324 23.172C602.748 22.848 602.262 22.476 601.866 22.056L603.36 19.986C603.66 20.334 604.026 20.646 604.458 20.922C604.902 21.186 605.382 21.396 605.898 21.552C606.426 21.708 606.96 21.786 607.5 21.786C607.92 21.786 608.268 21.744 608.544 21.66C608.832 21.576 609.042 21.45 609.174 21.282C609.306 21.114 609.372 20.916 609.372 20.688C609.372 20.436 609.282 20.226 609.102 20.058C608.922 19.878 608.58 19.728 608.076 19.608L605.88 19.122C605.208 18.966 604.608 18.762 604.08 18.51C603.564 18.246 603.156 17.898 602.856 17.466C602.556 17.022 602.406 16.47 602.406 15.81C602.406 15.066 602.61 14.406 603.018 13.83C603.426 13.242 604.014 12.78 604.782 12.444C605.55 12.108 606.468 11.94 607.536 11.94ZM624.88 12.12V19.158C624.88 20.838 624.43 22.098 623.53 22.938C622.642 23.766 621.322 24.18 619.57 24.18C617.83 24.18 616.51 23.766 615.61 22.938C614.71 22.098 614.26 20.838 614.26 19.158V12.12H617.374V19.212C617.374 20.064 617.554 20.7 617.914 21.12C618.286 21.54 618.838 21.75 619.57 21.75C620.314 21.75 620.866 21.54 621.226 21.12C621.598 20.7 621.784 20.064 621.784 19.212V12.12H624.88ZM632.727 12.12C633.699 12.12 634.527 12.276 635.211 12.588C635.895 12.9 636.417 13.35 636.777 13.938C637.137 14.526 637.317 15.24 637.317 16.08C637.317 16.92 637.137 17.634 636.777 18.222C636.417 18.81 635.895 19.26 635.211 19.572C634.527 19.884 633.699 20.04 632.727 20.04H630.369V24H627.273V12.12H632.727ZM632.241 17.718C632.889 17.718 633.375 17.586 633.699 17.322C634.035 17.046 634.203 16.632 634.203 16.08C634.203 15.528 634.035 15.12 633.699 14.856C633.375 14.58 632.889 14.442 632.241 14.442H630.369V17.718H632.241ZM639.296 24V12.12H648.548V14.514H642.392V16.926H647.288V19.176H642.392V21.606H648.782V24H639.296ZM656.322 12.12C657.738 12.12 658.836 12.456 659.616 13.128C660.408 13.788 660.804 14.67 660.804 15.774C660.804 16.986 660.414 17.91 659.634 18.546C658.854 19.182 657.756 19.5 656.34 19.5L656.052 19.662H653.694V24H650.652V12.12H656.322ZM655.89 17.466C656.49 17.466 656.94 17.346 657.24 17.106C657.54 16.866 657.69 16.482 657.69 15.954C657.69 15.438 657.54 15.06 657.24 14.82C656.94 14.58 656.49 14.46 655.89 14.46H653.694V17.466H655.89ZM657.708 18.114L661.506 24H658.086L655.044 18.798L657.708 18.114ZM681.964 12.12V24H679.228V18.546L679.318 14.892H679.282L676.348 24H673.846L670.912 14.892H670.876L670.966 18.546V24H668.212V12.12H672.622L674.494 18.168L675.16 20.688H675.196L675.88 18.186L677.734 12.12H681.964ZM695.395 24H692.209L691.381 21.318H687.313L686.467 24H683.353L687.529 12.12H691.237L695.395 24ZM687.889 19.212H690.805L689.347 14.406L687.889 19.212ZM705.273 12.12V14.514H701.403V24H698.307V14.514H694.419V12.12H705.273ZM717.08 20.598C716.852 21.426 716.486 22.11 715.982 22.65C715.478 23.178 714.878 23.568 714.182 23.82C713.486 24.06 712.718 24.18 711.878 24.18C710.678 24.18 709.64 23.94 708.764 23.46C707.888 22.968 707.216 22.266 706.748 21.354C706.28 20.442 706.046 19.344 706.046 18.06C706.046 16.776 706.28 15.678 706.748 14.766C707.216 13.854 707.888 13.158 708.764 12.678C709.64 12.186 710.672 11.94 711.86 11.94C712.688 11.94 713.45 12.06 714.146 12.3C714.842 12.528 715.43 12.882 715.91 13.362C716.39 13.842 716.732 14.46 716.936 15.216L714.218 16.314C714.05 15.57 713.774 15.06 713.39 14.784C713.018 14.508 712.544 14.37 711.968 14.37C711.404 14.37 710.912 14.508 710.492 14.784C710.084 15.06 709.766 15.474 709.538 16.026C709.322 16.566 709.214 17.244 709.214 18.06C709.214 18.864 709.316 19.542 709.52 20.094C709.724 20.646 710.03 21.06 710.438 21.336C710.858 21.612 711.374 21.75 711.986 21.75C712.562 21.75 713.048 21.594 713.444 21.282C713.852 20.958 714.128 20.466 714.272 19.806L717.08 20.598ZM729.53 12.12V24H726.434V12.12H729.53ZM721.898 12.12V24H718.802V12.12H721.898ZM728.09 16.818V19.212H720.314V16.818H728.09ZM742.226 24C742.07 23.604 741.908 23.238 741.74 22.902C741.584 22.554 741.386 22.182 741.146 21.786C740.906 21.39 740.606 20.928 740.246 20.4C739.886 19.872 739.43 19.23 738.878 18.474C738.17 17.502 737.666 16.668 737.366 15.972C737.066 15.276 736.916 14.598 736.916 13.938C736.916 13.41 737.048 12.93 737.312 12.498C737.588 12.054 737.948 11.706 738.392 11.454C738.848 11.19 739.34 11.058 739.868 11.058C740.432 11.058 740.954 11.202 741.434 11.49C741.926 11.778 742.328 12.216 742.64 12.804C742.964 12.216 743.372 11.778 743.864 11.49C744.356 11.202 744.884 11.058 745.448 11.058C745.964 11.058 746.444 11.19 746.888 11.454C747.344 11.706 747.71 12.054 747.986 12.498C748.262 12.93 748.4 13.41 748.4 13.938C748.4 14.358 748.34 14.79 748.22 15.234C748.112 15.666 747.914 16.146 747.626 16.674C747.338 17.19 746.942 17.796 746.438 18.492C745.886 19.26 745.424 19.914 745.052 20.454C744.68 20.982 744.374 21.444 744.134 21.84C743.906 22.236 743.708 22.602 743.54 22.938C743.372 23.274 743.216 23.628 743.072 24H742.226ZM742.64 22.434C742.868 21.978 743.174 21.45 743.558 20.85C743.954 20.25 744.416 19.584 744.944 18.852C745.472 18.12 745.904 17.49 746.24 16.962C746.576 16.434 746.816 16.014 746.96 15.702C747.248 15.066 747.392 14.478 747.392 13.938C747.392 13.59 747.302 13.278 747.122 13.002C746.942 12.714 746.702 12.486 746.402 12.318C746.114 12.15 745.796 12.066 745.448 12.066C744.932 12.066 744.464 12.282 744.044 12.714C743.624 13.134 743.312 13.716 743.108 14.46H742.19C741.962 13.644 741.638 13.044 741.218 12.66C740.81 12.264 740.36 12.066 739.868 12.066C739.532 12.066 739.214 12.15 738.914 12.318C738.614 12.486 738.374 12.714 738.194 13.002C738.014 13.278 737.924 13.59 737.924 13.938C737.924 14.442 738.062 15.018 738.338 15.666C738.602 16.278 739.262 17.304 740.318 18.744C740.846 19.44 741.302 20.1 741.686 20.724C742.07 21.336 742.388 21.906 742.64 22.434ZM760.431 11.94C761.535 11.94 762.507 12.114 763.347 12.462C764.199 12.798 764.937 13.296 765.561 13.956L764.067 15.954C763.551 15.414 762.993 15.012 762.393 14.748C761.805 14.472 761.133 14.334 760.377 14.334C759.933 14.334 759.573 14.382 759.297 14.478C759.021 14.574 758.823 14.706 758.703 14.874C758.583 15.042 758.523 15.234 758.523 15.45C758.523 15.702 758.637 15.918 758.865 16.098C759.105 16.266 759.489 16.41 760.017 16.53L762.015 16.98C763.203 17.256 764.073 17.658 764.625 18.186C765.177 18.714 765.453 19.416 765.453 20.292C765.453 21.132 765.237 21.846 764.805 22.434C764.373 23.01 763.779 23.448 763.023 23.748C762.267 24.036 761.403 24.18 760.431 24.18C759.639 24.18 758.883 24.096 758.163 23.928C757.443 23.748 756.795 23.496 756.219 23.172C755.643 22.848 755.157 22.476 754.761 22.056L756.255 19.986C756.555 20.334 756.921 20.646 757.353 20.922C757.797 21.186 758.277 21.396 758.793 21.552C759.321 21.708 759.855 21.786 760.395 21.786C760.815 21.786 761.163 21.744 761.439 21.66C761.727 21.576 761.937 21.45 762.069 21.282C762.201 21.114 762.267 20.916 762.267 20.688C762.267 20.436 762.177 20.226 761.997 20.058C761.817 19.878 761.475 19.728 760.971 19.608L758.775 19.122C758.103 18.966 757.503 18.762 756.975 18.51C756.459 18.246 756.051 17.898 755.751 17.466C755.451 17.022 755.301 16.47 755.301 15.81C755.301 15.066 755.505 14.406 755.913 13.83C756.321 13.242 756.909 12.78 757.677 12.444C758.445 12.108 759.363 11.94 760.431 11.94ZM777.774 12.12V19.158C777.774 20.838 777.324 22.098 776.424 22.938C775.536 23.766 774.216 24.18 772.464 24.18C770.724 24.18 769.404 23.766 768.504 22.938C767.604 22.098 767.154 20.838 767.154 19.158V12.12H770.268V19.212C770.268 20.064 770.448 20.7 770.808 21.12C771.18 21.54 771.732 21.75 772.464 21.75C773.208 21.75 773.76 21.54 774.12 21.12C774.492 20.7 774.678 20.064 774.678 19.212V12.12H777.774ZM785.622 12.12C786.594 12.12 787.422 12.276 788.106 12.588C788.79 12.9 789.312 13.35 789.672 13.938C790.032 14.526 790.212 15.24 790.212 16.08C790.212 16.92 790.032 17.634 789.672 18.222C789.312 18.81 788.79 19.26 788.106 19.572C787.422 19.884 786.594 20.04 785.622 20.04H783.264V24H780.168V12.12H785.622ZM785.136 17.718C785.784 17.718 786.27 17.586 786.594 17.322C786.93 17.046 787.098 16.632 787.098 16.08C787.098 15.528 786.93 15.12 786.594 14.856C786.27 14.58 785.784 14.442 785.136 14.442H783.264V17.718H785.136ZM792.191 24V12.12H801.443V14.514H795.287V16.926H800.183V19.176H795.287V21.606H801.677V24H792.191ZM809.216 12.12C810.632 12.12 811.73 12.456 812.51 13.128C813.302 13.788 813.698 14.67 813.698 15.774C813.698 16.986 813.308 17.91 812.528 18.546C811.748 19.182 810.65 19.5 809.234 19.5L808.946 19.662H806.588V24H803.546V12.12H809.216ZM808.784 17.466C809.384 17.466 809.834 17.346 810.134 17.106C810.434 16.866 810.584 16.482 810.584 15.954C810.584 15.438 810.434 15.06 810.134 14.82C809.834 14.58 809.384 14.46 808.784 14.46H806.588V17.466H808.784ZM810.602 18.114L814.4 24H810.98L807.938 18.798L810.602 18.114ZM834.859 12.12V24H832.123V18.546L832.213 14.892H832.177L829.243 24H826.741L823.807 14.892H823.771L823.861 18.546V24H821.107V12.12H825.517L827.389 18.168L828.055 20.688H828.091L828.775 18.186L830.629 12.12H834.859ZM848.29 24H845.104L844.276 21.318H840.208L839.362 24H836.248L840.424 12.12H844.132L848.29 24ZM840.784 19.212H843.7L842.242 14.406L840.784 19.212ZM858.167 12.12V14.514H854.297V24H851.201V14.514H847.313V12.12H858.167ZM869.975 20.598C869.747 21.426 869.381 22.11 868.877 22.65C868.373 23.178 867.773 23.568 867.077 23.82C866.381 24.06 865.613 24.18 864.773 24.18C863.573 24.18 862.535 23.94 861.659 23.46C860.783 22.968 860.111 22.266 859.643 21.354C859.175 20.442 858.941 19.344 858.941 18.06C858.941 16.776 859.175 15.678 859.643 14.766C860.111 13.854 860.783 13.158 861.659 12.678C862.535 12.186 863.567 11.94 864.755 11.94C865.583 11.94 866.345 12.06 867.041 12.3C867.737 12.528 868.325 12.882 868.805 13.362C869.285 13.842 869.627 14.46 869.831 15.216L867.113 16.314C866.945 15.57 866.669 15.06 866.285 14.784C865.913 14.508 865.439 14.37 864.863 14.37C864.299 14.37 863.807 14.508 863.387 14.784C862.979 15.06 862.661 15.474 862.433 16.026C862.217 16.566 862.109 17.244 862.109 18.06C862.109 18.864 862.211 19.542 862.415 20.094C862.619 20.646 862.925 21.06 863.333 21.336C863.753 21.612 864.269 21.75 864.881 21.75C865.457 21.75 865.943 21.594 866.339 21.282C866.747 20.958 867.023 20.466 867.167 19.806L869.975 20.598ZM882.425 12.12V24H879.329V12.12H882.425ZM874.793 12.12V24H871.697V12.12H874.793ZM880.985 16.818V19.212H873.209V16.818H880.985ZM895.121 24C894.965 23.604 894.803 23.238 894.635 22.902C894.479 22.554 894.281 22.182 894.041 21.786C893.801 21.39 893.501 20.928 893.141 20.4C892.781 19.872 892.325 19.23 891.773 18.474C891.065 17.502 890.561 16.668 890.261 15.972C889.961 15.276 889.811 14.598 889.811 13.938C889.811 13.41 889.943 12.93 890.207 12.498C890.483 12.054 890.843 11.706 891.287 11.454C891.743 11.19 892.235 11.058 892.763 11.058C893.327 11.058 893.849 11.202 894.329 11.49C894.821 11.778 895.223 12.216 895.535 12.804C895.859 12.216 896.267 11.778 896.759 11.49C897.251 11.202 897.779 11.058 898.343 11.058C898.859 11.058 899.339 11.19 899.783 11.454C900.239 11.706 900.605 12.054 900.881 12.498C901.157 12.93 901.295 13.41 901.295 13.938C901.295 14.358 901.235 14.79 901.115 15.234C901.007 15.666 900.809 16.146 900.521 16.674C900.233 17.19 899.837 17.796 899.333 18.492C898.781 19.26 898.319 19.914 897.947 20.454C897.575 20.982 897.269 21.444 897.029 21.84C896.801 22.236 896.603 22.602 896.435 22.938C896.267 23.274 896.111 23.628 895.967 24H895.121ZM895.535 22.434C895.763 21.978 896.069 21.45 896.453 20.85C896.849 20.25 897.311 19.584 897.839 18.852C898.367 18.12 898.799 17.49 899.135 16.962C899.471 16.434 899.711 16.014 899.855 15.702C900.143 15.066 900.287 14.478 900.287 13.938C900.287 13.59 900.197 13.278 900.017 13.002C899.837 12.714 899.597 12.486 899.297 12.318C899.009 12.15 898.691 12.066 898.343 12.066C897.827 12.066 897.359 12.282 896.939 12.714C896.519 13.134 896.207 13.716 896.003 14.46H895.085C894.857 13.644 894.533 13.044 894.113 12.66C893.705 12.264 893.255 12.066 892.763 12.066C892.427 12.066 892.109 12.15 891.809 12.318C891.509 12.486 891.269 12.714 891.089 13.002C890.909 13.278 890.819 13.59 890.819 13.938C890.819 14.442 890.957 15.018 891.233 15.666C891.497 16.278 892.157 17.304 893.213 18.744C893.741 19.44 894.197 20.1 894.581 20.724C894.965 21.336 895.283 21.906 895.535 22.434Z" fill="white"/>
</svg>
