<svg width="234" height="234" viewBox="0 0 234 234" fill="none" xmlns="http://www.w3.org/2000/svg">
<g opacity="0.5">
<circle cx="93.2984" cy="93.2976" r="104.584" transform="rotate(-23.6224 93.2984 93.2976)" stroke="#FF7E55" stroke-width="4.18334"/>
<circle cx="93.2979" cy="93.2978" r="65.1406" transform="rotate(-23.6224 93.2979 93.2978)" stroke="#FF7E55" stroke-width="4.18334"/>
<path d="M12.976 120.677L17.268 125.508L17.4122 125.67L17.6111 125.583L23.5313 122.994L20.2637 128.568L20.1539 128.756L20.2981 128.918L24.5901 133.748L18.2786 132.363L18.0665 132.317L17.9567 132.504L14.6891 138.078L14.056 131.648L14.0347 131.432L13.8227 131.385L7.51116 130L13.4314 127.411L13.6303 127.324L13.609 127.108L12.976 120.677Z" fill="#FF7E55" stroke="#FF7E55" stroke-width="0.59762"/>
<path d="M167.93 52.9067L172.222 57.7371L172.366 57.8994L172.565 57.8124L178.485 55.2231L175.218 60.7977L175.108 60.985L175.252 61.1473L179.544 65.9777L173.233 64.5926L173.021 64.5461L172.911 64.7334L169.643 70.3079L169.01 63.8773L168.989 63.6613L168.777 63.6147L162.465 62.2296L168.386 59.6404L168.584 59.5534L168.563 59.3373L167.93 52.9067Z" fill="#FF7E55" stroke="#FF7E55" stroke-width="0.59762"/>
<mask id="path-5-outside-1_1324_668" maskUnits="userSpaceOnUse" x="-2.48598" y="96.9075" width="21.1217" height="23.6043" fill="black">
<rect fill="white" x="-2.48598" y="96.9075" width="21.1217" height="23.6043"/>
<path d="M15.525 116.256C14.7251 115.892 13.9884 115.604 13.315 115.393C12.6394 115.168 11.8669 114.974 10.9976 114.809C11.4155 113.71 11.6797 112.469 11.7901 111.085C11.9005 109.701 11.863 108.436 11.6775 107.289C11.4875 106.114 11.2544 105.302 10.9783 104.853C10.6881 104.405 10.4226 104.201 10.1819 104.24C9.31824 104.38 9.09935 105.767 9.52525 108.4C9.99237 111.289 10.0339 113.432 9.64991 114.831C9.25174 116.232 8.3801 117.041 7.035 117.259C5.12355 117.568 3.58651 117.003 2.42388 115.564C1.26125 114.125 0.474998 112.138 0.0651241 109.603C-0.173015 108.131 -0.225733 106.592 -0.09303 104.987C0.0232245 103.37 0.306256 101.886 0.756064 100.534C1.75696 100.794 2.96659 101.041 4.38496 101.277C4.68188 101.316 4.90571 101.352 5.05646 101.386C4.59272 102.202 4.28763 103.37 4.14119 104.89C3.98059 106.413 3.99074 107.733 4.17163 108.852C4.38916 110.197 4.62774 111.088 4.88737 111.526C5.13284 111.966 5.42549 112.158 5.7653 112.103C6.10511 112.048 6.32969 111.685 6.43904 111.013C6.53193 110.33 6.47992 109.379 6.28299 108.162C5.79756 105.16 5.79182 102.924 6.26579 101.452C6.7256 99.9829 7.66345 99.1338 9.07934 98.9048C11.0616 98.5843 12.6084 99.0751 13.7198 100.377C14.8171 101.682 15.6027 103.8 16.0767 106.73C16.3309 108.302 16.4197 109.93 16.3432 111.613C16.2526 113.298 15.9798 114.846 15.525 116.256Z"/>
</mask>
<path d="M15.525 116.256C14.7251 115.892 13.9884 115.604 13.315 115.393C12.6394 115.168 11.8669 114.974 10.9976 114.809C11.4155 113.71 11.6797 112.469 11.7901 111.085C11.9005 109.701 11.863 108.436 11.6775 107.289C11.4875 106.114 11.2544 105.302 10.9783 104.853C10.6881 104.405 10.4226 104.201 10.1819 104.24C9.31824 104.38 9.09935 105.767 9.52525 108.4C9.99237 111.289 10.0339 113.432 9.64991 114.831C9.25174 116.232 8.3801 117.041 7.035 117.259C5.12355 117.568 3.58651 117.003 2.42388 115.564C1.26125 114.125 0.474998 112.138 0.0651241 109.603C-0.173015 108.131 -0.225733 106.592 -0.09303 104.987C0.0232245 103.37 0.306256 101.886 0.756064 100.534C1.75696 100.794 2.96659 101.041 4.38496 101.277C4.68188 101.316 4.90571 101.352 5.05646 101.386C4.59272 102.202 4.28763 103.37 4.14119 104.89C3.98059 106.413 3.99074 107.733 4.17163 108.852C4.38916 110.197 4.62774 111.088 4.88737 111.526C5.13284 111.966 5.42549 112.158 5.7653 112.103C6.10511 112.048 6.32969 111.685 6.43904 111.013C6.53193 110.33 6.47992 109.379 6.28299 108.162C5.79756 105.16 5.79182 102.924 6.26579 101.452C6.7256 99.9829 7.66345 99.1338 9.07934 98.9048C11.0616 98.5843 12.6084 99.0751 13.7198 100.377C14.8171 101.682 15.6027 103.8 16.0767 106.73C16.3309 108.302 16.4197 109.93 16.3432 111.613C16.2526 113.298 15.9798 114.846 15.525 116.256Z" fill="#FF7E55"/>
<path d="M15.525 116.256L15.2772 116.8L15.8878 117.079L16.0938 116.44L15.525 116.256ZM13.315 115.393L13.1263 115.961L13.1365 115.964L13.315 115.393ZM10.9976 114.809L10.439 114.597L10.1854 115.264L10.8865 115.396L10.9976 114.809ZM11.7901 111.085L12.3859 111.133L11.7901 111.085ZM10.9783 104.853L11.4875 104.54L11.4836 104.533L11.4796 104.527L10.9783 104.853ZM9.64991 114.831L10.2248 114.994L10.2262 114.989L9.64991 114.831ZM2.42388 115.564L2.88877 115.188L2.42388 115.564ZM-0.0930296 104.987L0.502593 105.036L0.503052 105.03L-0.0930296 104.987ZM0.756065 100.534L0.90604 99.9557L0.365421 99.8155L0.189032 100.345L0.756065 100.534ZM4.38496 101.277L4.28705 101.866L4.29691 101.868L4.30682 101.869L4.38496 101.277ZM5.05646 101.386L5.57604 101.681L5.97505 100.979L5.18698 100.803L5.05646 101.386ZM4.14119 104.89L4.73554 104.953L4.73606 104.948L4.14119 104.89ZM4.88737 111.526L5.4092 111.235L5.40534 111.228L5.4013 111.221L4.88737 111.526ZM6.43904 111.013L7.02889 111.109L7.03015 111.102L7.03121 111.094L6.43904 111.013ZM6.26579 101.452L6.83465 101.635L6.83613 101.631L6.26579 101.452ZM13.7198 100.377L14.1772 99.9926L14.1744 99.9894L13.7198 100.377ZM16.3432 111.613L16.94 111.645L16.9402 111.64L16.3432 111.613ZM15.7729 115.713C14.9556 115.34 14.1955 115.043 13.4935 114.823L13.1365 115.964C13.7814 116.166 14.4945 116.443 15.2772 116.8L15.7729 115.713ZM13.5038 114.826C12.7975 114.591 11.9983 114.39 11.1087 114.222L10.8865 115.396C11.7355 115.557 12.4812 115.746 13.1263 115.96L13.5038 114.826ZM11.5562 115.022C11.9975 113.861 12.2717 112.563 12.3859 111.133L11.1944 111.038C11.0877 112.375 10.8336 113.559 10.439 114.597L11.5562 115.022ZM12.3859 111.133C12.4994 109.71 12.4619 108.396 12.2675 107.194L11.0876 107.385C11.2641 108.476 11.3017 109.693 11.1944 111.038L12.3859 111.133ZM12.2675 107.194C12.0768 106.015 11.8306 105.098 11.4875 104.54L10.4692 105.165C10.6782 105.506 10.8982 106.214 11.0876 107.385L12.2675 107.194ZM11.4796 104.527C11.3167 104.276 11.1345 104.051 10.9258 103.89C10.7127 103.727 10.4231 103.596 10.0865 103.65L10.2773 104.83C10.1815 104.846 10.1449 104.798 10.1974 104.838C10.2541 104.882 10.3497 104.982 10.4771 105.178L11.4796 104.527ZM10.0865 103.65C9.2572 103.785 8.90104 104.523 8.77969 105.292C8.65511 106.081 8.71962 107.162 8.9353 108.496L10.1152 108.305C9.90498 107.005 9.86599 106.076 9.96031 105.478C10.0578 104.86 10.243 104.836 10.2773 104.83L10.0865 103.65ZM8.9353 108.496C9.39986 111.368 9.42183 113.404 9.07361 114.673L10.2262 114.989C10.646 113.46 10.5849 111.209 10.1152 108.305L8.9353 108.496ZM9.07505 114.668C8.89915 115.287 8.63034 115.736 8.29092 116.051C7.95367 116.364 7.51313 116.576 6.9396 116.669L7.13041 117.849C7.90198 117.724 8.5698 117.423 9.10419 116.927C9.6364 116.433 10.0025 115.777 10.2248 114.994L9.07505 114.668ZM6.9396 116.669C5.22771 116.946 3.90908 116.451 2.88877 115.188L1.95899 115.939C3.26394 117.555 5.01939 118.19 7.13041 117.849L6.9396 116.669ZM2.88877 115.188C1.812 113.855 1.05448 111.977 0.65508 109.508L-0.524831 109.699C-0.104483 112.298 0.710502 114.394 1.95899 115.939L2.88877 115.188ZM0.65508 109.508C0.42526 108.087 0.37353 106.597 0.502559 105.036L-0.688618 104.937C-0.824996 106.587 -0.77129 108.175 -0.524831 109.699L0.65508 109.508ZM0.503052 105.03C0.616219 103.455 0.891 102.021 1.3231 100.723L0.189032 100.345C-0.278488 101.75 -0.56977 103.284 -0.689112 104.944L0.503052 105.03ZM0.606089 101.113C1.62933 101.378 2.85737 101.629 4.28705 101.866L4.48287 100.687C3.07581 100.454 1.88459 100.209 0.90604 99.9557L0.606089 101.113ZM4.30682 101.869C4.5992 101.908 4.80181 101.942 4.92594 101.969L5.18698 100.803C5.00961 100.763 4.76456 100.724 4.4631 100.684L4.30682 101.869ZM4.53688 101.091C4.01353 102.012 3.69638 103.275 3.54633 104.833L4.73606 104.948C4.87889 103.465 5.17192 102.392 5.57604 101.681L4.53688 101.091ZM3.54687 104.828C3.38252 106.386 3.38996 107.762 3.58168 108.947L4.76159 108.757C4.59151 107.705 4.57866 106.44 4.73552 104.953L3.54687 104.828ZM3.58168 108.947C3.6923 109.631 3.8101 110.212 3.93642 110.684C4.06036 111.147 4.20173 111.541 4.37344 111.831L5.4013 111.221C5.31339 111.073 5.20565 110.803 5.09101 110.375C4.97875 109.955 4.8685 109.418 4.76159 108.757L3.58168 108.947ZM4.36554 111.817C4.51597 112.087 4.70861 112.332 4.96264 112.499C5.23149 112.676 5.54038 112.745 5.86071 112.693L5.66989 111.513C5.65401 111.516 5.64761 111.514 5.6462 111.514C5.64461 111.514 5.63614 111.512 5.61928 111.501C5.58066 111.475 5.50425 111.405 5.4092 111.235L4.36554 111.817ZM5.86071 112.693C6.24179 112.631 6.51724 112.394 6.6969 112.104C6.86761 111.828 6.96822 111.482 7.02889 111.109L5.84919 110.917C5.80051 111.216 5.73416 111.388 5.68029 111.475C5.63537 111.548 5.62863 111.52 5.66989 111.513L5.86071 112.693ZM7.03121 111.094C7.13596 110.323 7.07311 109.304 6.87295 108.066L5.69304 108.257C5.88672 109.455 5.9279 110.337 5.84686 110.933L7.03121 111.094ZM6.87295 108.066C6.39071 105.084 6.40605 102.966 6.83463 101.635L5.69695 101.269C5.17759 102.881 5.20441 105.236 5.69304 108.257L6.87295 108.066ZM6.83613 101.631C7.04109 100.976 7.34069 100.495 7.71512 100.156C8.08741 99.8193 8.56506 99.5934 9.17475 99.4948L8.98393 98.3149C8.17773 98.4452 7.4785 98.7583 6.91294 99.2703C6.34952 99.7804 5.95029 100.459 5.69545 101.274L6.83613 101.631ZM9.17475 99.4948C10.9929 99.2007 12.3148 99.6516 13.2653 100.765L14.1744 99.9894C12.902 98.4985 11.1303 97.9678 8.98393 98.3149L9.17475 99.4948ZM13.2625 100.762C14.2559 101.943 15.0188 103.933 15.4867 106.826L16.6667 106.635C16.1866 103.667 15.3783 101.421 14.1772 99.9926L13.2625 100.762ZM15.4867 106.826C15.734 108.355 15.8209 109.941 15.7462 111.586L16.9402 111.64C17.0185 109.918 16.9277 108.249 16.6667 106.635L15.4867 106.826ZM15.7465 111.581C15.6582 113.222 15.3932 114.718 14.9563 116.073L16.0938 116.44C16.5664 114.974 16.8469 113.375 16.94 111.645L15.7465 111.581Z" fill="#FF7E55" mask="url(#path-5-outside-1_1324_668)"/>
<mask id="path-7-outside-2_1324_668" maskUnits="userSpaceOnUse" x="-2.67008" y="72.63" width="20.305" height="22.0462" fill="black">
<rect fill="white" x="-2.67008" y="72.63" width="20.305" height="22.0462"/>
<path d="M0.337301 79.1509L0.988085 73.8552L9.48686 74.8996C11.576 75.1852 13.2173 76.1167 14.4108 77.694C15.606 79.257 15.9997 81.697 15.5921 85.0139C15.1793 88.3736 14.249 90.5931 12.8014 91.6724C11.3395 92.75 9.5497 93.1442 7.43206 92.855L-1.21618 91.7923L-0.565399 86.4966L7.74119 87.5173C8.36756 87.5943 8.8853 87.6146 9.2944 87.5782C9.69101 87.5257 10.0908 87.2714 10.4937 86.8151C10.8983 86.3446 11.1697 85.5471 11.3079 84.4224C11.4584 83.1982 11.3977 82.2803 11.1261 81.6689C10.8401 81.0557 10.4898 80.6731 10.0749 80.5209C9.66187 80.3546 9.12079 80.2303 8.45171 80.1481L0.337301 79.1509Z"/>
</mask>
<path d="M0.337301 79.1509L0.988085 73.8552L9.48686 74.8996C11.576 75.1852 13.2173 76.1167 14.4108 77.694C15.606 79.257 15.9997 81.697 15.5921 85.0139C15.1793 88.3736 14.249 90.5931 12.8014 91.6724C11.3395 92.75 9.5497 93.1442 7.43206 92.855L-1.21618 91.7923L-0.565399 86.4966L7.74119 87.5173C8.36756 87.5943 8.8853 87.6146 9.2944 87.5782C9.69101 87.5257 10.0908 87.2714 10.4937 86.8151C10.8983 86.3446 11.1697 85.5471 11.3079 84.4224C11.4584 83.1982 11.3977 82.2803 11.1261 81.6689C10.8401 81.0557 10.4898 80.6731 10.0749 80.5209C9.66187 80.3546 9.12079 80.2303 8.45171 80.1481L0.337301 79.1509Z" fill="#FF7E55"/>
<path d="M0.337301 79.1509L-0.255857 79.078L-0.32875 79.6712L0.264408 79.744L0.337301 79.1509ZM0.988084 73.8552L1.06098 73.262L0.467819 73.1891L0.394926 73.7823L0.988084 73.8552ZM9.48686 74.8996L9.56782 74.3074L9.55975 74.3064L9.48686 74.8996ZM14.4108 77.694L13.9342 78.0546L13.936 78.057L14.4108 77.694ZM12.8014 91.6724L13.156 92.1535L13.1586 92.1515L12.8014 91.6724ZM7.43206 92.855L7.51292 92.2629L7.50496 92.2619L7.43206 92.855ZM-1.21618 91.7923L-1.80934 91.7194L-1.88223 92.3125L-1.28908 92.3854L-1.21618 91.7923ZM-0.565399 86.4966L-0.492507 85.9034L-1.08566 85.8305L-1.15856 86.4237L-0.565399 86.4966ZM9.2944 87.5782L9.34741 88.1734L9.36008 88.1723L9.3727 88.1706L9.2944 87.5782ZM10.4937 86.8151L10.9417 87.2107L10.9468 87.2048L10.4937 86.8151ZM11.1261 81.6689L11.6723 81.4262L11.6677 81.4163L11.1261 81.6689ZM10.0749 80.5209L9.85168 81.0753L9.86038 81.0788L9.86918 81.082L10.0749 80.5209ZM0.930459 79.2238L1.58124 73.9281L0.394926 73.7823L-0.255857 79.078L0.930459 79.2238ZM0.915192 74.4483L9.41396 75.4927L9.55975 74.3064L1.06098 73.262L0.915192 74.4483ZM9.4059 75.4917C11.3492 75.7574 12.8434 76.6129 13.9342 78.0546L14.8873 77.3334C13.5912 75.6204 11.8028 74.613 9.56781 74.3075L9.4059 75.4917ZM13.936 78.057C14.9884 79.4332 15.4 81.678 14.999 84.9411L16.1853 85.0868C16.5995 81.716 16.2235 79.0808 14.8855 77.3309L13.936 78.057ZM14.999 84.9411C14.5903 88.2665 13.685 90.2682 12.4441 91.1933L13.1586 92.1515C14.813 90.918 15.7682 88.4807 16.1853 85.0868L14.999 84.9411ZM12.4468 91.1913C11.1319 92.1605 9.50569 92.535 7.51291 92.2629L7.35122 93.4472C9.59371 93.7534 11.547 93.3394 13.1559 92.1535L12.4468 91.1913ZM7.50496 92.2619L-1.14329 91.1991L-1.28908 92.3854L7.35917 93.4482L7.50496 92.2619ZM-0.623025 91.8652L0.0277589 86.5694L-1.15856 86.4237L-1.80934 91.7194L-0.623025 91.8652ZM-0.638291 87.0897L7.6683 88.1105L7.81408 86.9242L-0.492507 85.9034L-0.638291 87.0897ZM7.6683 88.1105C8.31674 88.1902 8.8804 88.215 9.34741 88.1734L9.24139 86.9829C8.89021 87.0142 8.41838 86.9984 7.81408 86.9242L7.6683 88.1105ZM9.3727 88.1706C9.97061 88.0916 10.4912 87.7208 10.9416 87.2107L10.0457 86.4196C9.6903 86.822 9.41142 86.9599 9.2161 86.9857L9.3727 88.1706ZM10.9468 87.2048C11.4692 86.5973 11.7587 85.6536 11.9011 84.4953L10.7148 84.3495C10.5807 85.4405 10.3274 86.0919 10.0405 86.4255L10.9468 87.2048ZM11.9011 84.4953C12.0553 83.2407 12.0113 82.1893 11.6722 81.4262L10.5799 81.9116C10.7842 82.3713 10.8615 83.1556 10.7148 84.3495L11.9011 84.4953ZM11.6677 81.4163C11.3497 80.7345 10.9064 80.1893 10.2807 79.9599L9.86918 81.082C10.0731 81.1568 10.3306 81.377 10.5844 81.9215L11.6677 81.4163ZM10.2982 79.9666C9.81899 79.7736 9.22174 79.6406 8.5246 79.5549L8.37881 80.7412C9.01983 80.82 9.50475 80.9356 9.85168 81.0753L10.2982 79.9666ZM8.5246 79.5549L0.410193 78.5577L0.264408 79.744L8.37881 80.7412L8.5246 79.5549Z" fill="#FF7E55" mask="url(#path-7-outside-2_1324_668)"/>
<mask id="path-9-outside-3_1324_668" maskUnits="userSpaceOnUse" x="1.65512" y="48.1692" width="23.9532" height="24.4879" fill="black">
<rect fill="white" x="1.65512" y="48.1692" width="23.9532" height="24.4879"/>
<path d="M7.06347 56.4309C8.16875 53.7994 9.40745 52.165 10.7796 51.5279C12.1385 50.8852 13.6642 50.9194 15.3569 51.6303C16.5206 52.1191 17.4263 52.7406 18.074 53.4949C18.7084 54.2437 19.0405 55.231 19.0701 56.4568C19.0865 57.6771 18.7142 59.1931 17.9533 61.0048L16.2204 65.1306L19.7115 66.5969L17.662 71.4765C15.141 70.2932 12.7631 69.2322 10.5283 68.2936C8.29345 67.3549 5.87111 66.3997 3.26125 65.428L5.31074 60.5484L5.33058 60.5567L7.06347 56.4309ZM13.5418 60.7853C14.0028 59.6877 14.3075 58.8512 14.4559 58.2757C14.5966 57.6814 14.599 57.2313 14.463 56.9253C14.3326 56.6061 14.0493 56.3548 13.6129 56.1715C13.1765 55.9882 12.8081 55.9579 12.5076 56.0807C12.1995 56.1846 11.8891 56.4976 11.5765 57.0197C11.2695 57.5285 10.8799 58.345 10.4078 59.469L9.25805 62.2063L12.3921 63.5227L13.5418 60.7853Z"/>
</mask>
<path d="M7.06347 56.4309C8.16875 53.7994 9.40745 52.165 10.7796 51.5279C12.1385 50.8852 13.6642 50.9194 15.3569 51.6303C16.5206 52.1191 17.4263 52.7406 18.074 53.4949C18.7084 54.2437 19.0405 55.231 19.0701 56.4568C19.0865 57.6771 18.7142 59.1931 17.9533 61.0048L16.2204 65.1306L19.7115 66.5969L17.662 71.4765C15.141 70.2932 12.7631 69.2322 10.5283 68.2936C8.29345 67.3549 5.87111 66.3997 3.26125 65.428L5.31074 60.5484L5.33058 60.5567L7.06347 56.4309ZM13.5418 60.7853C14.0028 59.6877 14.3075 58.8512 14.4559 58.2757C14.5966 57.6814 14.599 57.2313 14.463 56.9253C14.3326 56.6061 14.0493 56.3548 13.6129 56.1715C13.1765 55.9882 12.8081 55.9579 12.5076 56.0807C12.1995 56.1846 11.8891 56.4976 11.5765 57.0197C11.2695 57.5285 10.8799 58.345 10.4078 59.469L9.25805 62.2063L12.3921 63.5227L13.5418 60.7853Z" fill="#FF7E55"/>
<path d="M10.7796 51.5279L11.0313 52.07L11.0351 52.0682L10.7796 51.5279ZM18.074 53.4949L18.5299 53.1085L18.5274 53.1056L18.074 53.4949ZM19.0701 56.4568L19.6677 56.4488L19.6675 56.4424L19.0701 56.4568ZM16.2204 65.1306L15.6694 64.8992L15.438 65.4502L15.989 65.6816L16.2204 65.1306ZM19.7115 66.5969L20.2625 66.8283L20.4939 66.2773L19.9429 66.0459L19.7115 66.5969ZM17.662 71.4765L17.4081 72.0175L17.9718 72.2821L18.213 71.7079L17.662 71.4765ZM3.26125 65.428L2.71026 65.1966L2.4691 65.7708L3.05273 65.9881L3.26125 65.428ZM5.31074 60.5484L5.54216 59.9974L4.99117 59.766L4.75975 60.317L5.31074 60.5484ZM5.33058 60.5567L5.09915 61.1077L5.65014 61.3392L5.88157 60.7882L5.33058 60.5567ZM14.4559 58.2757L15.0347 58.4249L15.0374 58.4134L14.4559 58.2757ZM14.463 56.9253L13.9098 57.1513L13.9132 57.1596L13.9169 57.1679L14.463 56.9253ZM12.5076 56.0807L12.6986 56.6469L12.7163 56.641L12.7336 56.6339L12.5076 56.0807ZM11.5765 57.0197L12.0882 57.3284L12.0892 57.3267L11.5765 57.0197ZM9.25805 62.2063L8.70706 61.9749L8.47564 62.5259L9.02663 62.7573L9.25805 62.2063ZM12.3921 63.5227L12.1607 64.0737L12.7117 64.3051L12.9431 63.7541L12.3921 63.5227ZM7.61447 56.6623C8.70715 54.0608 9.87156 52.6084 11.0312 52.07L10.5279 50.9859C8.94333 51.7216 7.63035 53.538 6.51248 56.1995L7.61447 56.6623ZM11.0351 52.0682C12.2073 51.5138 13.5518 51.5203 15.1255 52.1813L15.5883 51.0793C13.7767 50.3184 12.0697 50.2567 10.5241 50.9877L11.0351 52.0682ZM15.1255 52.1813C16.226 52.6436 17.0474 53.2167 17.6206 53.8842L18.5274 53.1056C17.8052 52.2645 16.8151 51.5946 15.5883 51.0793L15.1255 52.1813ZM17.618 53.8813C18.1441 54.502 18.4455 55.347 18.4727 56.4712L19.6675 56.4424C19.6355 55.1149 19.2728 53.9853 18.5299 53.1086L17.618 53.8813ZM18.4725 56.4648C18.4873 57.568 18.1485 58.9966 17.4023 60.7733L18.5043 61.2362C19.2799 59.3895 19.6856 57.7862 19.6677 56.4488L18.4725 56.4648ZM17.4023 60.7733L15.6694 64.8992L16.7714 65.362L18.5043 61.2362L17.4023 60.7733ZM15.989 65.6816L19.4801 67.1479L19.9429 66.0459L16.4518 64.5796L15.989 65.6816ZM19.1605 66.3655L17.111 71.2451L18.213 71.7079L20.2625 66.8283L19.1605 66.3655ZM17.9159 70.9355C15.3886 69.7492 13.0031 68.6848 10.7597 67.7426L10.2969 68.8445C12.5231 69.7796 14.8935 70.8372 17.4081 72.0175L17.9159 70.9355ZM10.7597 67.7426C8.51629 66.8003 6.08623 65.8421 3.46978 64.8679L3.05273 65.9881C5.65599 66.9573 8.07061 67.9095 10.2969 68.8445L10.7597 67.7426ZM3.81225 65.6594L5.86173 60.7798L4.75975 60.317L2.71026 65.1966L3.81225 65.6594ZM5.07932 61.0994L5.09915 61.1077L5.562 60.0057L5.54216 59.9974L5.07932 61.0994ZM5.88157 60.7882L7.61447 56.6623L6.51248 56.1995L4.77958 60.3253L5.88157 60.7882ZM14.0928 61.0167C14.5562 59.9134 14.8749 59.0441 15.0346 58.4249L13.8772 58.1265C13.7401 58.6583 13.4494 59.4621 12.9908 60.5539L14.0928 61.0167ZM15.0374 58.4134C15.1865 57.7837 15.2268 57.1725 15.0092 56.6827L13.9169 57.1679C13.9712 57.2901 14.0066 57.5792 13.8743 58.138L15.0374 58.4134ZM15.0163 56.6993C14.8065 56.1856 14.3711 55.8418 13.8443 55.6205L13.3814 56.7225C13.7274 56.8678 13.8588 57.0265 13.9098 57.1513L15.0163 56.6993ZM13.8443 55.6205C13.3287 55.404 12.7846 55.322 12.2816 55.5274L12.7336 56.6339C12.8315 56.5939 13.0243 56.5725 13.3814 56.7225L13.8443 55.6205ZM12.3166 55.5144C11.798 55.6893 11.3936 56.1618 11.0638 56.7127L12.0892 57.3267C12.3847 56.8333 12.601 56.6798 12.6986 56.6469L12.3166 55.5144ZM11.0648 56.7109C10.7342 57.2587 10.331 58.1085 9.85677 59.2376L10.9588 59.7004C11.4287 58.5814 11.8047 57.7983 12.0882 57.3284L11.0648 56.7109ZM9.85677 59.2376L8.70706 61.9749L9.80905 62.4377L10.9588 59.7004L9.85677 59.2376ZM9.02663 62.7573L12.1607 64.0737L12.6235 62.9717L9.48948 61.6553L9.02663 62.7573ZM12.9431 63.7541L14.0928 61.0167L12.9908 60.5539L11.8411 63.2912L12.9431 63.7541Z" fill="#FF7E55" mask="url(#path-9-outside-3_1324_668)"/>
<mask id="path-11-outside-4_1324_668" maskUnits="userSpaceOnUse" x="12.4928" y="27.277" width="25.8915" height="26.0603" fill="black">
<rect fill="white" x="12.4928" y="27.277" width="25.8915" height="26.0603"/>
<path d="M26.4337 45.6179C29.7775 41.3138 32.1561 38.1575 33.5695 36.1489C33.9699 36.591 34.4095 37.0183 34.8881 37.4307C35.3642 37.8229 35.9746 38.3113 36.7191 38.896L26.394 52.0428C24.2765 50.234 22.2647 48.5809 20.3583 47.0838C18.452 45.5866 16.3693 44.0239 14.1101 42.3955L24.4352 29.2486L27.4977 31.6538L20.3087 40.8075L21.933 42.0832C22.3695 41.5507 23.0041 40.7542 23.8368 39.6939C25.2454 37.9004 26.6689 36.0182 28.1072 34.0475L31.0174 36.3331C29.4437 38.1975 27.9526 40.0265 26.544 41.82C25.7113 42.8803 25.088 43.6857 24.674 44.2359L26.4337 45.6179Z"/>
</mask>
<path d="M26.4337 45.6179C29.7775 41.3138 32.1561 38.1575 33.5695 36.1489C33.9699 36.591 34.4095 37.0183 34.8881 37.4307C35.3642 37.8229 35.9746 38.3113 36.7191 38.896L26.394 52.0428C24.2765 50.234 22.2647 48.5809 20.3583 47.0838C18.452 45.5866 16.3693 44.0239 14.1101 42.3955L24.4352 29.2486L27.4977 31.6538L20.3087 40.8075L21.933 42.0832C22.3695 41.5507 23.0041 40.7542 23.8368 39.6939C25.2454 37.9004 26.6689 36.0182 28.1072 34.0475L31.0174 36.3331C29.4437 38.1975 27.9526 40.0265 26.544 41.82C25.7113 42.8803 25.088 43.6857 24.674 44.2359L26.4337 45.6179Z" fill="#FF7E55"/>
<path d="M26.4337 45.6179L26.0646 46.0879L26.5371 46.459L26.9056 45.9846L26.4337 45.6179ZM33.5695 36.1489L34.0124 35.7477L33.5108 35.1938L33.0807 35.805L33.5695 36.1489ZM34.8881 37.4307L34.4979 37.8835L34.5081 37.8919L34.8881 37.4307ZM36.7191 38.896L37.1891 39.2651L37.5582 38.7951L37.0882 38.426L36.7191 38.896ZM26.394 52.0428L26.0058 52.4972L26.4793 52.9017L26.864 52.4119L26.394 52.0428ZM14.1101 42.3955L13.6401 42.0263L13.2554 42.5161L13.7606 42.8803L14.1101 42.3955ZM24.4352 29.2486L24.8043 28.7786L24.3343 28.4095L23.9652 28.8795L24.4352 29.2486ZM27.4977 31.6538L27.9677 32.023L28.3368 31.553L27.8668 31.1838L27.4977 31.6538ZM20.3087 40.8075L19.8387 40.4384L19.4695 40.9084L19.9395 41.2775L20.3087 40.8075ZM21.933 42.0832L21.5639 42.5532L22.0242 42.9147L22.3952 42.4621L21.933 42.0832ZM28.1072 34.0475L28.4763 33.5775L27.9894 33.1951L27.6245 33.6952L28.1072 34.0475ZM31.0174 36.3331L31.4741 36.7186L31.8734 36.2455L31.3866 35.8631L31.0174 36.3331ZM24.674 44.2359L24.1964 43.8767L23.8446 44.3444L24.3049 44.7059L24.674 44.2359ZM26.9056 45.9846C30.25 41.6797 32.6361 38.5138 34.0582 36.4928L33.0807 35.805C31.6761 37.8011 29.305 40.9479 25.9618 45.2513L26.9056 45.9846ZM33.1265 36.55C33.5445 37.0115 34.0018 37.4559 34.498 37.8834L35.2782 36.9779C34.8171 36.5807 34.3954 36.1706 34.0124 35.7477L33.1265 36.55ZM34.5081 37.8919C34.9892 38.2882 35.6035 38.7798 36.3499 39.366L37.0882 38.426C36.3456 37.8428 35.7393 37.3575 35.268 36.9694L34.5081 37.8919ZM36.2491 38.5269L25.924 51.6737L26.864 52.4119L37.1891 39.2651L36.2491 38.5269ZM26.7822 51.5884C24.6594 49.775 22.6411 48.1167 20.7275 46.6138L19.9892 47.5538C21.8882 49.0452 23.8937 50.6929 26.0058 52.4972L26.7822 51.5884ZM20.7275 46.6138C18.8138 45.1109 16.7244 43.5432 14.4595 41.9107L13.7606 42.8803C16.0141 44.5046 18.0902 46.0624 19.9892 47.5538L20.7275 46.6138ZM14.5801 42.7646L24.9052 29.6178L23.9652 28.8795L13.6401 42.0263L14.5801 42.7646ZM24.066 29.7186L27.1285 32.1238L27.8668 31.1838L24.8043 28.7786L24.066 29.7186ZM27.0277 31.2847L19.8387 40.4384L20.7787 41.1767L27.9677 32.023L27.0277 31.2847ZM19.9395 41.2775L21.5639 42.5532L22.3021 41.6132L20.6778 40.3375L19.9395 41.2775ZM22.3952 42.4621C22.8358 41.9245 23.4735 41.1241 24.3068 40.063L23.3668 39.3248C22.5347 40.3843 21.9032 41.1768 21.4708 41.7044L22.3952 42.4621ZM24.3068 40.063C25.72 38.2636 27.1477 36.3758 28.5899 34.3998L27.6245 33.6952C26.19 35.6606 24.7708 37.5371 23.3668 39.3248L24.3068 40.063ZM27.7381 34.5175L30.6483 36.8031L31.3866 35.8631L28.4763 33.5775L27.7381 34.5175ZM30.5608 35.9476C28.9828 37.8171 27.4872 39.6515 26.074 41.4509L27.014 42.1891C28.418 40.4015 29.9047 38.578 31.4741 36.7186L30.5608 35.9476ZM26.074 41.4509C25.2407 42.512 24.6142 43.3213 24.1964 43.8767L25.1516 44.5952C25.5617 44.05 26.1819 43.2487 27.014 42.1891L26.074 41.4509ZM24.3049 44.7059L26.0646 46.0879L26.8028 45.1479L25.0431 43.7659L24.3049 44.7059Z" fill="#FF7E55" mask="url(#path-11-outside-4_1324_668)"/>
<mask id="path-13-outside-5_1324_668" maskUnits="userSpaceOnUse" x="29.1611" y="10.5671" width="26.7836" height="26.3652" fill="black">
<rect fill="white" x="29.1611" y="10.5671" width="26.7836" height="26.3652"/>
<path d="M47.6591 16.9709C48.4013 17.9741 48.7803 19.005 48.7963 20.0636C48.8238 21.1137 48.3589 22.2337 47.4016 23.4236C47.6764 23.5058 47.8811 23.5774 48.0155 23.6385L53.6963 25.4573L48.9918 28.9376C47.785 28.3674 45.9941 27.6227 43.6192 26.7034L41.0767 28.5843L44.0452 32.597L39.9633 35.6167C38.4007 33.3115 36.8987 31.1845 35.4571 29.2359C34.0155 27.2872 32.4211 25.2285 30.6741 23.0598L34.7559 20.0401L34.7687 20.0574L38.3144 17.4344C40.6436 15.7113 42.5466 14.8833 44.0235 14.9504C45.5004 15.0175 46.7123 15.691 47.6591 16.9709ZM37.2254 23.3782L38.684 25.35L41.019 23.6226C41.9991 22.8976 42.7157 22.3228 43.1689 21.8984C43.625 21.4539 43.9 21.0899 43.9936 20.8065C44.0873 20.5232 44.036 20.2489 43.8398 19.9837C43.6522 19.73 43.4149 19.6022 43.128 19.6003C42.8412 19.5984 42.4228 19.7563 41.8728 20.074C41.3228 20.3917 40.552 20.9173 39.5603 21.6509L37.2254 23.3782Z"/>
</mask>
<path d="M47.6591 16.9709C48.4013 17.9741 48.7803 19.005 48.7963 20.0636C48.8238 21.1137 48.3589 22.2337 47.4016 23.4236C47.6764 23.5058 47.8811 23.5774 48.0155 23.6385L53.6963 25.4573L48.9918 28.9376C47.785 28.3674 45.9941 27.6227 43.6192 26.7034L41.0767 28.5843L44.0452 32.597L39.9633 35.6167C38.4007 33.3115 36.8987 31.1845 35.4571 29.2359C34.0155 27.2872 32.4211 25.2285 30.6741 23.0598L34.7559 20.0401L34.7687 20.0574L38.3144 17.4344C40.6436 15.7113 42.5466 14.8833 44.0235 14.9504C45.5004 15.0175 46.7123 15.691 47.6591 16.9709ZM37.2254 23.3782L38.684 25.35L41.019 23.6226C41.9991 22.8976 42.7157 22.3228 43.1689 21.8984C43.625 21.4539 43.9 21.0899 43.9936 20.8065C44.0873 20.5232 44.036 20.2489 43.8398 19.9837C43.6522 19.73 43.4149 19.6022 43.128 19.6003C42.8412 19.5984 42.4228 19.7563 41.8728 20.074C41.3228 20.3917 40.552 20.9173 39.5603 21.6509L37.2254 23.3782Z" fill="#FF7E55"/>
<path d="M48.7963 20.0636L48.1987 20.0726L48.1989 20.0792L48.7963 20.0636ZM47.4016 23.4236L46.9359 23.049L46.3786 23.7417L47.2305 23.9962L47.4016 23.4236ZM48.0155 23.6385L47.7681 24.1825L47.7999 24.197L47.8333 24.2077L48.0155 23.6385ZM53.6963 25.4573L54.0518 25.9377L54.9897 25.2439L53.8786 24.8881L53.6963 25.4573ZM48.9918 28.9376L48.7365 29.4779L49.0598 29.6307L49.3473 29.418L48.9918 28.9376ZM43.6192 26.7034L43.8349 26.1461L43.5282 26.0274L43.2638 26.223L43.6192 26.7034ZM41.0767 28.5843L40.7213 28.1039L40.2408 28.4593L40.5963 28.9398L41.0767 28.5843ZM44.0452 32.597L44.4006 33.0774L44.8811 32.722L44.5256 32.2416L44.0452 32.597ZM39.9633 35.6167L39.4687 35.952L39.8181 36.4675L40.3188 36.0971L39.9633 35.6167ZM30.6741 23.0598L30.3186 22.5793L29.818 22.9497L30.2087 23.4347L30.6741 23.0598ZM34.7559 20.0401L35.2363 19.6847L34.8809 19.2043L34.4005 19.5597L34.7559 20.0401ZM34.7687 20.0574L34.2883 20.4128L34.6437 20.8933L35.1241 20.5379L34.7687 20.0574ZM44.0235 14.9504L43.9964 15.5474L44.0235 14.9504ZM37.2254 23.3782L36.8699 22.8978L36.3895 23.2532L36.7449 23.7337L37.2254 23.3782ZM38.684 25.35L38.2036 25.7054L38.559 26.1859L39.0394 25.8304L38.684 25.35ZM43.1689 21.8984L43.5775 22.3346L43.586 22.3264L43.1689 21.8984ZM43.9936 20.8065L43.4262 20.619L43.4262 20.619L43.9936 20.8065ZM43.128 19.6003L43.132 19.0027L43.132 19.0027L43.128 19.6003ZM41.8728 20.074L42.1717 20.5915L42.1717 20.5915L41.8728 20.074ZM47.1787 17.3263C47.8602 18.2475 48.185 19.16 48.1988 20.0726L49.3939 20.0546C49.3757 18.8499 48.9423 17.7006 48.1396 16.6155L47.1787 17.3263ZM48.1989 20.0792C48.2213 20.9356 47.8439 21.9205 46.9359 23.049L47.8672 23.7983C48.874 22.5469 49.4263 21.2918 49.3937 20.0479L48.1989 20.0792ZM47.2305 23.9962C47.4987 24.0764 47.6718 24.1387 47.7681 24.1825L48.2629 23.0945C48.0903 23.016 47.8541 22.9351 47.5727 22.851L47.2305 23.9962ZM47.8333 24.2077L53.5141 26.0265L53.8786 24.8881L48.1977 23.0694L47.8333 24.2077ZM53.3409 24.9769L48.6364 28.4571L49.3473 29.418L54.0518 25.9377L53.3409 24.9769ZM49.2471 28.3972C48.0205 27.8177 46.2136 27.0668 43.8349 26.1461L43.4035 27.2608C45.7747 28.1786 47.5496 28.9171 48.7365 29.4779L49.2471 28.3972ZM43.2638 26.223L40.7213 28.1039L41.4321 29.0648L43.9746 27.1839L43.2638 26.223ZM40.5963 28.9398L43.5647 32.9524L44.5256 32.2416L41.5572 28.2289L40.5963 28.9398ZM43.6898 32.1166L39.6079 35.1362L40.3188 36.0971L44.4006 33.0774L43.6898 32.1166ZM40.458 35.2813C38.8915 32.9703 37.3846 30.8366 35.9375 28.8804L34.9766 29.5913C36.4127 31.5325 37.91 33.6526 39.4687 35.952L40.458 35.2813ZM35.9375 28.8804C34.4904 26.9243 32.8909 24.8591 31.1394 22.6849L30.2087 23.4347C31.9513 25.5979 33.5406 27.6501 34.9766 29.5913L35.9375 28.8804ZM31.0295 23.5402L35.1113 20.5206L34.4005 19.5597L30.3186 22.5793L31.0295 23.5402ZM34.2755 20.3955L34.2883 20.4128L35.2491 19.702L35.2363 19.6847L34.2755 20.3955ZM35.1241 20.5379L38.6698 17.9149L37.9589 16.954L34.4133 19.577L35.1241 20.5379ZM38.6698 17.9149C40.9789 16.2066 42.7376 15.4902 43.9964 15.5474L44.0506 14.3534C42.3556 14.2764 40.3082 15.2161 37.9589 16.954L38.6698 17.9149ZM43.9964 15.5474C45.2783 15.6056 46.3295 16.1784 47.1787 17.3263L48.1396 16.6155C47.0951 15.2036 45.7226 14.4294 44.0506 14.3534L43.9964 15.5474ZM36.7449 23.7337L38.2036 25.7054L39.1645 24.9946L37.7058 23.0228L36.7449 23.7337ZM39.0394 25.8304L41.3744 24.1031L40.6636 23.1422L38.3286 24.8695L39.0394 25.8304ZM41.3744 24.1031C42.359 23.3747 43.0982 22.7834 43.5774 22.3346L42.7603 21.4622C42.3332 21.8623 41.6392 22.4205 40.6636 23.1422L41.3744 24.1031ZM43.586 22.3264C44.0497 21.8745 44.4187 21.4247 44.5611 20.9941L43.4262 20.619C43.3812 20.7551 43.2003 21.0333 42.7518 21.4704L43.586 22.3264ZM44.5611 20.9941C44.7228 20.5048 44.6178 20.0304 44.3203 19.6283L43.3594 20.3391C43.4543 20.4674 43.4518 20.5415 43.4262 20.619L44.5611 20.9941ZM44.3203 19.6283C44.0336 19.2408 43.6276 19.006 43.132 19.0027L43.1241 20.1979C43.2022 20.1985 43.2707 20.2192 43.3594 20.3391L44.3203 19.6283ZM43.132 19.0027C42.6705 18.9997 42.1292 19.2358 41.5739 19.5565L42.1717 20.5915C42.7164 20.2769 43.0119 20.1972 43.1241 20.1979L43.132 19.0027ZM41.5739 19.5565C40.9938 19.8915 40.2012 20.4334 39.2049 21.1705L39.9157 22.1313C40.9028 21.4012 41.6517 20.8918 42.1717 20.5915L41.5739 19.5565ZM39.2049 21.1705L36.8699 22.8978L37.5808 23.8587L39.9157 22.1313L39.2049 21.1705Z" fill="#FF7E55" mask="url(#path-13-outside-5_1324_668)"/>
<mask id="path-15-outside-6_1324_668" maskUnits="userSpaceOnUse" x="59.084" y="-2.13259" width="27.6565" height="23.2956" fill="black">
<rect fill="white" x="59.084" y="-2.13259" width="27.6565" height="23.2956"/>
<path d="M79.7665 -0.0582292L85.1923 14.6843L79.7873 16.0393L76.7436 5.31303L77.3666 16.6461L71.899 18.0167L67.0815 7.82389L69.4574 18.6288L64.0524 19.9838L61.8822 4.4251L68.9775 2.64642L73.2675 12.0621L72.3791 1.79369L79.7665 -0.0582292Z"/>
</mask>
<path d="M79.7665 -0.0582292L85.1923 14.6843L79.7873 16.0393L76.7436 5.31303L77.3666 16.6461L71.899 18.0167L67.0815 7.82389L69.4574 18.6288L64.0524 19.9838L61.8822 4.4251L68.9775 2.64642L73.2675 12.0621L72.3791 1.79369L79.7665 -0.0582292Z" fill="#FF7E55"/>
<path d="M79.7665 -0.0582291L80.3274 -0.264639L80.142 -0.768454L79.6212 -0.637913L79.7665 -0.0582291ZM85.1923 14.6843L85.3376 15.264L85.9829 15.1022L85.7532 14.4779L85.1923 14.6843ZM79.7873 16.0393L79.2124 16.2024L79.3706 16.7598L79.9327 16.6189L79.7873 16.0393ZM76.7436 5.31303L77.3185 5.14989L76.1468 5.34583L76.7436 5.31303ZM77.3666 16.6461L77.5119 17.2258L77.9904 17.1058L77.9633 16.6133L77.3666 16.6461ZM71.899 18.0167L71.3587 18.2721L71.5684 18.7157L72.0443 18.5964L71.899 18.0167ZM67.0815 7.82388L67.6218 7.56851L66.4978 7.95223L67.0815 7.82388ZM69.4574 18.6288L69.6027 19.2085L70.1657 19.0674L70.0411 18.5005L69.4574 18.6288ZM64.0524 19.9838L63.4605 20.0663L63.5524 20.7252L64.1977 20.5634L64.0524 19.9838ZM61.8822 4.4251L61.7368 3.84542L61.2161 3.97596L61.2903 4.50766L61.8822 4.4251ZM68.9775 2.64642L69.5213 2.39863L69.3149 1.94571L68.8322 2.06673L68.9775 2.64642ZM73.2675 12.0621L72.7237 12.3099L73.8629 12.0106L73.2675 12.0621ZM72.3791 1.79369L72.2337 1.21401L71.7398 1.33784L71.7837 1.84521L72.3791 1.79369ZM79.2057 0.148181L84.6315 14.8907L85.7532 14.4779L80.3274 -0.264639L79.2057 0.148181ZM85.047 14.1046L79.642 15.4596L79.9327 16.6189L85.3376 15.264L85.047 14.1046ZM80.3623 15.8761L77.3185 5.14989L76.1686 5.47618L79.2124 16.2024L80.3623 15.8761ZM76.1468 5.34583L76.7699 16.6789L77.9633 16.6133L77.3403 5.28023L76.1468 5.34583ZM77.2213 16.0664L71.7537 17.4371L72.0443 18.5964L77.5119 17.2258L77.2213 16.0664ZM72.4393 17.7614L67.6218 7.56851L66.5411 8.07926L71.3587 18.2721L72.4393 17.7614ZM66.4978 7.95223L68.8737 18.7572L70.0411 18.5005L67.6651 7.69554L66.4978 7.95223ZM69.3121 18.0491L63.9071 19.4041L64.1977 20.5634L69.6027 19.2085L69.3121 18.0491ZM64.6443 19.9012L62.474 4.34254L61.2903 4.50766L63.4605 20.0663L64.6443 19.9012ZM62.0275 5.00478L69.1228 3.2261L68.8322 2.06673L61.7368 3.84542L62.0275 5.00478ZM68.4336 2.8942L72.7237 12.3099L73.8113 11.8143L69.5213 2.39863L68.4336 2.8942ZM73.8629 12.0106L72.9745 1.74218L71.7837 1.84521L72.6721 12.1136L73.8629 12.0106ZM72.5244 2.37338L79.9119 0.521454L79.6212 -0.637913L72.2337 1.21401L72.5244 2.37338Z" fill="#FF7E55" mask="url(#path-15-outside-6_1324_668)"/>
<mask id="path-17-outside-7_1324_668" maskUnits="userSpaceOnUse" x="87.5265" y="-2.5803" width="23.0185" height="19.2602" fill="black">
<rect fill="white" x="87.5265" y="-2.5803" width="23.0185" height="19.2602"/>
<path d="M102.995 15.2964C102.771 14.4642 102.466 13.419 102.08 12.1607L95.2287 11.7579L93.9743 14.766L88.5835 14.4491L95.5138 -0.789825L103.417 -0.325145L108.557 15.6234L102.995 15.2964ZM101.053 8.73831C100.597 7.20291 100.127 5.66667 99.6427 4.12959L99.2093 2.70327C98.6316 3.97676 97.7784 5.90215 96.6499 8.47945L101.053 8.73831Z"/>
</mask>
<path d="M102.995 15.2964C102.771 14.4642 102.466 13.419 102.08 12.1607L95.2287 11.7579L93.9743 14.766L88.5835 14.4491L95.5138 -0.789825L103.417 -0.325145L108.557 15.6234L102.995 15.2964ZM101.053 8.73831C100.597 7.20291 100.127 5.66667 99.6427 4.12959L99.2093 2.70327C98.6316 3.97676 97.7784 5.90215 96.6499 8.47945L101.053 8.73831Z" fill="#FF7E55"/>
<path d="M102.995 15.2964L102.418 15.4518L102.53 15.8677L102.96 15.893L102.995 15.2964ZM102.08 12.1607L102.651 11.9856L102.53 11.5885L102.115 11.5641L102.08 12.1607ZM95.2287 11.7579L95.2638 11.1613L94.8404 11.1364L94.6771 11.5279L95.2287 11.7579ZM93.9743 14.766L93.9392 15.3626L94.3626 15.3875L94.5259 14.9961L93.9743 14.766ZM88.5835 14.4491L88.0395 14.2017L87.6789 14.9946L88.5484 15.0457L88.5835 14.4491ZM95.5138 -0.789825L95.5489 -1.38642L95.1396 -1.41048L94.9698 -1.03723L95.5138 -0.789825ZM103.417 -0.325145L103.986 -0.50846L103.861 -0.897731L103.453 -0.921735L103.417 -0.325145ZM108.557 15.6234L108.522 16.22L109.394 16.2713L109.126 15.4401L108.557 15.6234ZM101.053 8.7383L101.018 9.33489L101.868 9.38489L101.626 8.56826L101.053 8.7383ZM99.6427 4.12959L99.0708 4.30334L99.0727 4.3092L99.6427 4.12959ZM99.2093 2.70327L99.7811 2.52953L99.3201 1.01241L98.6651 2.45637L99.2093 2.70327ZM96.6499 8.47945L96.1024 8.23974L95.7583 9.02568L96.6148 9.07604L96.6499 8.47945ZM103.572 15.141C103.345 14.2998 103.038 13.2474 102.651 11.9856L101.509 12.3359C101.893 13.5907 102.196 14.6287 102.418 15.4518L103.572 15.141ZM102.115 11.5641L95.2638 11.1613L95.1936 12.3545L102.045 12.7573L102.115 11.5641ZM94.6771 11.5279L93.4227 14.536L94.5259 14.9961L95.7803 11.9879L94.6771 11.5279ZM94.0093 14.1694L88.6186 13.8525L88.5484 15.0457L93.9392 15.3626L94.0093 14.1694ZM89.1275 14.6965L96.0578 -0.542423L94.9698 -1.03723L88.0395 14.2017L89.1275 14.6965ZM95.4788 -0.193235L103.382 0.271445L103.453 -0.921735L95.5489 -1.38642L95.4788 -0.193235ZM102.849 -0.14183L107.989 15.8067L109.126 15.4401L103.986 -0.50846L102.849 -0.14183ZM108.592 15.0268L103.03 14.6998L102.96 15.893L108.522 16.22L108.592 15.0268ZM101.626 8.56826C101.169 7.02965 100.698 5.49023 100.213 3.94999L99.0727 4.3092C99.556 5.84312 100.025 7.37617 100.48 8.90834L101.626 8.56826ZM100.214 3.95585L99.7811 2.52953L98.6375 2.87701L99.0709 4.30333L100.214 3.95585ZM98.6651 2.45637C98.0856 3.73358 97.2312 5.66192 96.1024 8.23974L97.1973 8.71916C98.3256 6.14238 99.1775 4.21993 99.7535 2.95017L98.6651 2.45637ZM96.6148 9.07604L101.018 9.33489L101.088 8.14171L96.685 7.88286L96.6148 9.07604Z" fill="#FF7E55" mask="url(#path-17-outside-7_1324_668)"/>
<mask id="path-19-outside-8_1324_668" maskUnits="userSpaceOnUse" x="110.687" y="0.0589786" width="24.8716" height="23.6565" fill="black">
<rect fill="white" x="110.687" y="0.0589786" width="24.8716" height="23.6565"/>
<path d="M132.964 12.0917C130.866 11.2703 128.819 10.4976 126.824 9.77352L123.064 20.3561L117.996 18.5557L121.755 7.97307C119.737 7.27121 117.668 6.58197 115.549 5.90536L117.061 1.648L134.476 7.83435L132.964 12.0917Z"/>
</mask>
<path d="M132.964 12.0917C130.866 11.2703 128.819 10.4976 126.824 9.77352L123.064 20.3561L117.996 18.5557L121.755 7.97307C119.737 7.27121 117.668 6.58197 115.549 5.90536L117.061 1.648L134.476 7.83435L132.964 12.0917Z" fill="#FF7E55"/>
<path d="M132.964 12.0917L132.746 12.6482L133.32 12.8731L133.527 12.2918L132.964 12.0917ZM126.824 9.77352L127.027 9.21175L126.462 9.00651L126.26 9.57347L126.824 9.77352ZM123.064 20.3561L122.864 20.9192L123.427 21.1193L123.627 20.5562L123.064 20.3561ZM117.996 18.5557L117.433 18.3556L117.233 18.9187L117.796 19.1188L117.996 18.5557ZM121.755 7.97307L122.318 8.17312L122.52 7.60619L121.952 7.4086L121.755 7.97307ZM115.549 5.90536L114.986 5.70531L114.779 6.28691L115.367 6.47466L115.549 5.90536ZM117.061 1.648L117.261 1.08486L116.698 0.884807L116.498 1.44795L117.061 1.648ZM134.476 7.83435L135.039 8.03441L135.239 7.47126L134.676 7.27121L134.476 7.83435ZM133.182 11.5352C131.079 10.7121 129.028 9.93764 127.027 9.21175L126.62 10.3353C128.61 11.0576 130.652 11.8285 132.746 12.6482L133.182 11.5352ZM126.26 9.57347L122.501 20.1561L123.627 20.5562L127.387 9.97357L126.26 9.57347ZM123.264 19.793L118.196 17.9925L117.796 19.1188L122.864 20.9192L123.264 19.793ZM118.559 18.7557L122.318 8.17312L121.192 7.77302L117.433 18.3556L118.559 18.7557ZM121.952 7.4086C119.928 6.705 117.854 6.01415 115.731 5.33606L115.367 6.47466C117.482 7.14978 119.545 7.83742 121.559 8.53754L121.952 7.4086ZM116.112 6.10541L117.625 1.84805L116.498 1.44795L114.986 5.70531L116.112 6.10541ZM116.861 2.21114L134.276 8.3975L134.676 7.27121L117.261 1.08486L116.861 2.21114ZM133.913 7.6343L132.401 11.8917L133.527 12.2918L135.039 8.03441L133.913 7.6343Z" fill="#FF7E55" mask="url(#path-19-outside-8_1324_668)"/>
<mask id="path-21-outside-9_1324_668" maskUnits="userSpaceOnUse" x="131.532" y="10.104" width="27.5595" height="26.8775" fill="black">
<rect fill="white" x="131.532" y="10.104" width="27.5595" height="26.8775"/>
<path d="M140.372 30.1088C137.741 28.215 136.205 26.2611 135.764 24.247C135.323 22.2329 135.849 20.1898 137.34 18.1178C138.84 16.0342 140.649 14.8354 142.766 14.5214C144.883 14.2074 147.256 14.9973 149.887 16.8911C153.566 19.5391 155.118 22.5744 154.545 25.997C153.238 25.6037 151.62 25.2609 149.692 24.9687C149.824 24.0738 149.636 23.2053 149.129 22.363C148.634 21.5292 148.008 20.84 147.251 20.2953C146.134 19.4908 145.088 19.1885 144.113 19.3883C143.147 19.5765 142.354 20.1013 141.734 20.9627C141.064 21.8939 140.806 22.8659 140.96 23.8785C141.135 24.8879 141.828 25.8283 143.038 26.6998C144.004 27.3953 144.886 27.7912 145.682 27.8875C146.487 27.9722 147.275 27.7617 148.046 27.256C148.631 28.4553 149.439 29.9114 150.468 31.6242C148.872 32.6137 147.192 32.8976 145.428 32.476C143.664 32.0543 141.978 31.2652 140.372 30.1088Z"/>
</mask>
<path d="M140.372 30.1088C137.741 28.215 136.205 26.2611 135.764 24.247C135.323 22.2329 135.849 20.1898 137.34 18.1178C138.84 16.0342 140.649 14.8354 142.766 14.5214C144.883 14.2074 147.256 14.9973 149.887 16.8911C153.566 19.5391 155.118 22.5744 154.545 25.997C153.238 25.6037 151.62 25.2609 149.692 24.9687C149.824 24.0738 149.636 23.2053 149.129 22.363C148.634 21.5292 148.008 20.84 147.251 20.2953C146.134 19.4908 145.088 19.1885 144.113 19.3883C143.147 19.5765 142.354 20.1013 141.734 20.9627C141.064 21.8939 140.806 22.8659 140.96 23.8785C141.135 24.8879 141.828 25.8283 143.038 26.6998C144.004 27.3953 144.886 27.7912 145.682 27.8875C146.487 27.9722 147.275 27.7617 148.046 27.256C148.631 28.4553 149.439 29.9114 150.468 31.6242C148.872 32.6137 147.192 32.8976 145.428 32.476C143.664 32.0543 141.978 31.2652 140.372 30.1088Z" fill="#FF7E55"/>
<path d="M135.764 24.247L135.181 24.3748L135.764 24.247ZM142.766 14.5214L142.853 15.1125L142.853 15.1126L142.766 14.5214ZM154.545 25.997L154.373 26.5693L155.023 26.7647L155.135 26.0957L154.545 25.997ZM149.692 24.9687L149.101 24.8817L149.014 25.4704L149.603 25.5595L149.692 24.9687ZM149.129 22.363L148.615 22.6683L148.617 22.6713L149.129 22.363ZM144.113 19.3883L144.227 19.975L144.233 19.9738L144.113 19.3883ZM140.96 23.8785L140.369 23.9687L140.371 23.9804L140.96 23.8785ZM145.682 27.8875L145.611 28.4809L145.62 28.4819L145.682 27.8875ZM148.046 27.256L148.583 26.9937L148.285 26.3842L147.718 26.7564L148.046 27.256ZM150.468 31.6242L150.783 32.1321L151.284 31.8216L150.98 31.3164L150.468 31.6242ZM145.428 32.476L145.567 31.8947L145.428 32.476ZM140.721 29.6238C138.145 27.7691 136.744 25.9264 136.348 24.1191L135.181 24.3748C135.667 26.5957 137.338 28.661 140.023 30.5939L140.721 29.6238ZM136.348 24.1191C135.952 22.3091 136.407 20.4366 137.825 18.467L136.855 17.7687C135.29 19.943 134.695 22.1566 135.181 24.3748L136.348 24.1191ZM137.825 18.467C139.251 16.4862 140.927 15.3982 142.853 15.1125L142.678 13.9302C140.37 14.2725 138.429 15.5821 136.855 17.7687L137.825 18.467ZM142.853 15.1126C144.753 14.8308 146.97 15.5274 149.538 17.3762L150.236 16.4061C147.543 14.4673 145.012 13.5841 142.678 13.9302L142.853 15.1126ZM149.538 17.3762C153.099 19.9393 154.479 22.7713 153.956 25.8984L155.135 26.0957C155.757 22.3776 154.033 19.139 150.236 16.4061L149.538 17.3762ZM154.718 25.4247C153.374 25.0206 151.727 24.6726 149.782 24.3778L149.603 25.5595C151.514 25.8492 153.102 26.1867 154.373 26.5693L154.718 25.4247ZM150.284 25.0557C150.437 24.0116 150.213 23.0046 149.641 22.0548L148.617 22.6713C149.06 23.406 149.211 24.136 149.101 24.8817L150.284 25.0557ZM149.643 22.0578C149.107 21.1563 148.426 20.4049 147.6 19.8103L146.902 20.7803C147.589 21.2751 148.16 21.9022 148.615 22.6683L149.643 22.0578ZM147.6 19.8103C146.401 18.947 145.186 18.5582 143.993 18.8029L144.233 19.9738C144.989 19.8188 145.866 20.0347 146.902 20.7803L147.6 19.8103ZM143.999 18.8017C142.871 19.0214 141.95 19.6393 141.249 20.6135L142.219 21.3118C142.758 20.5633 143.423 20.1316 144.227 19.9749L143.999 18.8017ZM141.249 20.6135C140.499 21.6551 140.188 22.7823 140.37 23.9687L141.551 23.7883C141.423 22.9494 141.628 22.1327 142.219 21.3118L141.249 20.6135ZM140.371 23.9804C140.583 25.2021 141.409 26.2635 142.689 27.1848L143.387 26.2148C142.246 25.3931 141.687 24.5736 141.549 23.7766L140.371 23.9804ZM142.689 27.1848C143.7 27.9129 144.677 28.368 145.611 28.4808L145.754 27.2942C145.095 27.2145 144.308 26.8778 143.387 26.2148L142.689 27.1848ZM145.62 28.4819C146.581 28.583 147.505 28.3259 148.374 27.7556L147.718 26.7564C147.046 27.1975 146.394 27.3615 145.745 27.2932L145.62 28.4819ZM147.509 27.5183C148.105 28.7387 148.922 30.2109 149.956 31.932L150.98 31.3164C149.956 29.6119 149.158 28.172 148.583 26.9937L147.509 27.5183ZM150.153 31.1163C148.687 32.0251 147.17 32.2779 145.567 31.8947L145.289 33.0572C147.214 33.5174 149.057 33.2023 150.783 32.1321L150.153 31.1163ZM145.567 31.8947C143.885 31.4927 142.27 30.7389 140.721 29.6238L140.023 30.5939C141.687 31.7915 143.442 32.6158 145.289 33.0572L145.567 31.8947Z" fill="#FF7E55" mask="url(#path-21-outside-9_1324_668)"/>
<mask id="path-23-outside-10_1324_668" maskUnits="userSpaceOnUse" x="149.405" y="26.8145" width="26.5022" height="26.844" fill="black">
<rect fill="white" x="149.405" y="26.8145" width="26.5022" height="26.844"/>
<path d="M174.136 42.5389C172.165 43.9542 170.084 45.5194 167.894 47.2348C165.703 48.9501 163.684 50.5944 161.837 52.1678L158.72 48.1869L163.328 44.5794L158.447 38.3454L153.84 41.9529L150.723 37.972C152.985 36.347 155.07 34.7874 156.978 33.2931C158.887 31.7989 160.901 30.1489 163.021 28.3432L166.138 32.3241L161.53 35.9316L166.411 42.1655L171.019 38.558L174.136 42.5389Z"/>
</mask>
<path d="M174.136 42.5389C172.165 43.9542 170.084 45.5194 167.894 47.2348C165.703 48.9501 163.684 50.5944 161.837 52.1678L158.72 48.1869L163.328 44.5794L158.447 38.3454L153.84 41.9529L150.723 37.972C152.985 36.347 155.07 34.7874 156.978 33.2931C158.887 31.7989 160.901 30.1489 163.021 28.3432L166.138 32.3241L161.53 35.9316L166.411 42.1655L171.019 38.558L174.136 42.5389Z" fill="#FF7E55"/>
<path d="M174.136 42.5389L174.484 43.0243L174.99 42.661L174.606 42.1705L174.136 42.5389ZM161.837 52.1678L161.367 52.5362L161.751 53.0266L162.225 52.6227L161.837 52.1678ZM158.72 48.1869L158.352 47.7163L157.881 48.0847L158.25 48.5553L158.72 48.1869ZM163.328 44.5794L163.696 45.0499L164.167 44.6815L163.799 44.211L163.328 44.5794ZM158.447 38.3454L158.918 37.977L158.549 37.5065L158.079 37.8749L158.447 38.3454ZM153.84 41.9529L153.369 42.3213L153.738 42.7919L154.208 42.4235L153.84 41.9529ZM150.723 37.972L150.374 37.4867L149.868 37.8501L150.252 38.3404L150.723 37.972ZM163.021 28.3432L163.492 27.9748L163.108 27.4844L162.634 27.8882L163.021 28.3432ZM166.138 32.3241L166.507 32.7947L166.977 32.4263L166.609 31.9557L166.138 32.3241ZM161.53 35.9316L161.162 35.4611L160.691 35.8295L161.06 36.3L161.53 35.9316ZM166.411 42.1655L165.941 42.5339L166.309 43.0045L166.78 42.6361L166.411 42.1655ZM171.019 38.558L171.489 38.1896L171.121 37.7191L170.65 38.0875L171.019 38.558ZM173.787 42.0535C171.809 43.4742 169.722 45.0445 167.525 46.7642L168.262 47.7053C170.447 45.9944 172.521 44.4341 174.484 43.0243L173.787 42.0535ZM167.525 46.7642C165.329 48.4839 163.303 50.1335 161.45 51.7128L162.225 52.6227C164.064 51.0554 166.077 49.4163 168.262 47.7053L167.525 46.7642ZM162.308 51.7993L159.191 47.8184L158.25 48.5553L161.367 52.5362L162.308 51.7993ZM159.089 48.6574L163.696 45.0499L162.96 44.1088L158.352 47.7163L159.089 48.6574ZM163.799 44.211L158.918 37.977L157.977 38.7139L162.858 44.9478L163.799 44.211ZM158.079 37.8749L153.471 41.4824L154.208 42.4235L158.816 38.816L158.079 37.8749ZM154.31 41.5845L151.193 37.6036L150.252 38.3404L153.369 42.3213L154.31 41.5845ZM151.072 38.4574C153.339 36.8283 155.431 35.2637 157.347 33.7637L156.61 32.8226C154.709 34.3111 152.63 35.8658 150.374 37.4867L151.072 38.4574ZM157.347 33.7637C159.263 32.2637 161.283 30.6084 163.409 28.7982L162.634 27.8882C160.519 29.6894 158.511 31.334 156.61 32.8226L157.347 33.7637ZM162.551 28.7116L165.668 32.6925L166.609 31.9557L163.492 27.9748L162.551 28.7116ZM165.77 31.8536L161.162 35.4611L161.899 36.4022L166.507 32.7947L165.77 31.8536ZM161.06 36.3L165.941 42.5339L166.882 41.7971L162.001 35.5632L161.06 36.3ZM166.78 42.6361L171.387 39.0286L170.65 38.0875L166.043 41.695L166.78 42.6361ZM170.548 38.9265L173.665 42.9074L174.606 42.1705L171.489 38.1896L170.548 38.9265Z" fill="#FF7E55" mask="url(#path-23-outside-10_1324_668)"/>
<mask id="path-25-outside-11_1324_668" maskUnits="userSpaceOnUse" x="12.372" y="134.232" width="27.1186" height="27.6314" fill="black">
<rect fill="white" x="12.372" y="134.232" width="27.1186" height="27.6314"/>
<path d="M25.4477 137.454C25.1724 138.289 24.8835 139.026 24.5811 139.663C24.2876 140.312 23.9061 141.011 23.4368 141.761C24.5276 142.201 25.6184 142.849 26.7093 143.707C27.8002 144.566 28.7037 145.452 29.4199 146.367C30.1538 147.304 30.592 148.027 30.7345 148.535C30.8657 149.051 30.8354 149.385 30.6434 149.535C29.9545 150.074 28.7877 149.294 27.1432 147.193C25.3394 144.889 23.7936 143.404 22.5059 142.736C21.2068 142.077 20.0208 142.168 18.948 143.008C17.4234 144.201 16.7948 145.714 17.0623 147.544C17.3299 149.375 18.255 151.301 19.8377 153.323C20.7572 154.497 21.8513 155.581 23.12 156.573C24.3863 157.585 25.6682 158.385 26.9658 158.972C27.4547 158.061 28.0941 157.005 28.8841 155.803C29.0569 155.559 29.1821 155.37 29.2596 155.236C28.3457 155.023 27.2809 154.454 26.0652 153.529C24.8383 152.614 23.8756 151.71 23.1771 150.817C22.3371 149.745 21.8446 148.964 21.6997 148.477C21.5434 147.998 21.6008 147.652 21.8718 147.44C22.1429 147.228 22.562 147.31 23.1293 147.685C23.6941 148.081 24.3568 148.764 25.1172 149.736C26.9916 152.13 28.63 153.652 30.0322 154.303C31.4231 154.963 32.6832 154.851 33.8125 153.967C35.3936 152.729 36.0833 151.26 35.8816 149.56C35.6686 147.868 34.647 145.854 32.8167 143.516C31.8353 142.263 30.7006 141.093 29.4128 140.006C28.1136 138.928 26.7919 138.078 25.4477 137.454Z"/>
</mask>
<path d="M25.4477 137.454C25.1724 138.289 24.8835 139.026 24.5811 139.663C24.2876 140.312 23.9061 141.011 23.4368 141.761C24.5276 142.201 25.6184 142.849 26.7093 143.707C27.8002 144.566 28.7037 145.452 29.4199 146.367C30.1538 147.304 30.592 148.027 30.7345 148.535C30.8657 149.051 30.8354 149.385 30.6434 149.535C29.9545 150.074 28.7877 149.294 27.1432 147.193C25.3394 144.889 23.7936 143.404 22.5059 142.736C21.2068 142.077 20.0208 142.168 18.948 143.008C17.4234 144.201 16.7948 145.714 17.0623 147.544C17.3299 149.375 18.255 151.301 19.8377 153.323C20.7572 154.497 21.8513 155.581 23.12 156.573C24.3863 157.585 25.6682 158.385 26.9658 158.972C27.4547 158.061 28.0941 157.005 28.8841 155.803C29.0569 155.559 29.1821 155.37 29.2596 155.236C28.3457 155.023 27.2809 154.454 26.0652 153.529C24.8383 152.614 23.8756 151.71 23.1771 150.817C22.3371 149.745 21.8446 148.964 21.6997 148.477C21.5434 147.998 21.6008 147.652 21.8718 147.44C22.1429 147.228 22.562 147.31 23.1293 147.685C23.6941 148.081 24.3568 148.764 25.1172 149.736C26.9916 152.13 28.63 153.652 30.0322 154.303C31.4231 154.963 32.6832 154.851 33.8125 153.967C35.3936 152.729 36.0833 151.26 35.8816 149.56C35.6686 147.868 34.647 145.854 32.8167 143.516C31.8353 142.263 30.7006 141.093 29.4128 140.006C28.1136 138.928 26.7919 138.078 25.4477 137.454Z" fill="#FF7E55"/>
<path d="M25.4477 137.454L24.8801 137.267L25.0903 136.63L25.6991 136.912L25.4477 137.454ZM24.5811 139.663L24.0365 139.417L24.0412 139.407L24.5811 139.663ZM23.4368 141.761L23.2135 142.316L22.5517 142.049L22.9302 141.444L23.4368 141.761ZM26.7093 143.707L27.0788 143.238L26.7093 143.707ZM30.7345 148.535L31.3099 148.373L31.3119 148.38L31.3137 148.387L30.7345 148.535ZM22.5059 142.736L22.7762 142.203L22.7809 142.205L22.5059 142.736ZM17.0623 147.544L17.6537 147.458L17.0623 147.544ZM23.12 156.573L23.4882 156.102L23.4932 156.106L23.12 156.573ZM26.9658 158.972L27.4923 159.255L27.2282 159.747L26.7194 159.517L26.9658 158.972ZM28.8841 155.803L28.3847 155.475L28.3902 155.467L28.396 155.459L28.8841 155.803ZM29.2596 155.236L29.3955 154.654L30.1819 154.838L29.7765 155.536L29.2596 155.236ZM26.0652 153.529L26.4227 153.05L26.427 153.054L26.0652 153.529ZM21.6997 148.477L22.2678 148.291L22.2702 148.299L22.2725 148.306L21.6997 148.477ZM23.1293 147.685L23.4592 147.187L23.4658 147.191L23.4722 147.196L23.1293 147.685ZM30.0322 154.303L30.2838 153.761L30.2883 153.763L30.0322 154.303ZM35.8816 149.56L36.4746 149.485L36.4751 149.489L35.8816 149.56ZM29.4128 140.006L29.7943 139.546L29.7981 139.549L29.4128 140.006ZM26.0152 137.642C25.7339 138.495 25.4363 139.255 25.1211 139.919L24.0412 139.407C24.3307 138.796 24.6108 138.084 24.8801 137.267L26.0152 137.642ZM25.1256 139.909C24.8188 140.588 24.4237 141.311 23.9434 142.078L22.9302 141.444C23.3886 140.712 23.7564 140.036 24.0366 139.417L25.1256 139.909ZM23.6601 141.207C24.8118 141.671 25.9512 142.351 27.0788 143.238L26.3398 144.177C25.2856 143.348 24.2434 142.73 23.2135 142.316L23.6601 141.207ZM27.0788 143.238C28.2003 144.12 29.1397 145.04 29.8905 145.999L28.9494 146.735C28.2677 145.865 27.4001 145.011 26.3398 144.177L27.0788 143.238ZM29.8905 145.999C30.627 146.939 31.1328 147.742 31.3099 148.373L30.1591 148.696C30.0512 148.312 29.6806 147.669 28.9494 146.735L29.8905 145.999ZM31.3137 148.387C31.3874 148.677 31.4292 148.964 31.4053 149.226C31.3809 149.494 31.2802 149.795 31.0118 150.006L30.275 149.064C30.1985 149.124 30.209 149.184 30.215 149.118C30.2215 149.047 30.2129 148.908 30.1553 148.682L31.3137 148.387ZM31.0118 150.006C30.3503 150.523 29.5662 150.284 28.9193 149.851C28.2553 149.406 27.5054 148.625 26.6726 147.562L27.6137 146.825C28.4255 147.862 29.0813 148.521 29.584 148.857C30.1039 149.205 30.2476 149.086 30.275 149.064L31.0118 150.006ZM26.6726 147.562C24.8787 145.27 23.3985 143.872 22.2308 143.267L22.7809 142.205C24.1888 142.935 25.8001 144.508 27.6137 146.825L26.6726 147.562ZM22.2356 143.269C21.6617 142.978 21.1494 142.87 20.6876 142.906C20.2288 142.941 19.7738 143.12 19.3164 143.478L18.5796 142.537C19.195 142.055 19.8695 141.769 20.5966 141.714C21.3207 141.659 22.051 141.835 22.7762 142.203L22.2356 143.269ZM19.3164 143.478C17.951 144.547 17.4189 145.851 17.6537 147.458L16.471 147.631C16.1707 145.576 16.8958 143.855 18.5796 142.537L19.3164 143.478ZM17.6537 147.458C17.9015 149.153 18.766 150.984 20.3082 152.954L19.3671 153.691C17.744 151.618 16.7583 149.597 16.471 147.631L17.6537 147.458ZM20.3082 152.954C21.1957 154.088 22.2546 155.137 23.4882 156.102L22.7519 157.044C21.448 156.024 20.3188 154.907 19.3671 153.691L20.3082 152.954ZM23.4932 156.106C24.7258 157.092 25.9656 157.864 27.2121 158.428L26.7194 159.517C25.3707 158.906 24.0467 158.079 22.7468 157.04L23.4932 156.106ZM26.4392 158.689C26.939 157.758 27.5885 156.686 28.3847 155.475L29.3834 156.132C28.5998 157.323 27.9704 158.364 27.4923 159.255L26.4392 158.689ZM28.396 155.459C28.5661 155.218 28.6789 155.046 28.7428 154.936L29.7765 155.536C29.6852 155.693 29.5476 155.9 29.3721 156.148L28.396 155.459ZM29.1237 155.818C28.0923 155.577 26.9491 154.952 25.7035 154.005L26.427 153.054C27.6126 153.955 28.5991 154.468 29.3955 154.654L29.1237 155.818ZM25.7078 154.008C24.4522 153.071 23.4468 152.131 22.7065 151.186L23.6476 150.449C24.3044 151.288 25.2244 152.156 26.4227 153.05L25.7078 154.008ZM22.7065 151.186C22.2794 150.64 21.9331 150.16 21.6724 149.747C21.4165 149.341 21.2227 148.97 21.1268 148.647L22.2725 148.306C22.3216 148.472 22.4465 148.734 22.6831 149.109C22.9148 149.476 23.2348 149.922 23.6476 150.449L22.7065 151.186ZM21.1315 148.662C21.0358 148.369 20.9861 148.061 21.036 147.761C21.0887 147.443 21.2479 147.17 21.5034 146.97L22.2402 147.911C22.2276 147.921 22.2243 147.926 22.2236 147.928C22.2227 147.929 22.2184 147.937 22.215 147.956C22.2075 148.002 22.2073 148.106 22.2678 148.291L21.1315 148.662ZM21.5034 146.97C21.8074 146.732 22.1685 146.69 22.5038 146.756C22.8224 146.818 23.1445 146.979 23.4592 147.187L22.7994 148.184C22.5469 148.016 22.3757 147.949 22.2752 147.929C22.1913 147.913 22.2073 147.937 22.2402 147.911L21.5034 146.97ZM23.4722 147.196C24.1092 147.642 24.8148 148.38 25.5877 149.367L24.6466 150.104C23.8987 149.149 23.2791 148.52 22.7864 148.175L23.4722 147.196ZM25.5877 149.367C27.4499 151.746 29.0159 153.173 30.2838 153.761L29.7805 154.845C28.2441 154.132 26.5334 152.514 24.6466 150.104L25.5877 149.367ZM30.2883 153.763C30.9083 154.057 31.4643 154.164 31.9674 154.119C32.4677 154.074 32.9578 153.877 33.4441 153.496L34.1809 154.437C33.5379 154.941 32.8333 155.242 32.0735 155.309C31.3164 155.377 30.5469 155.209 29.7761 154.843L30.2883 153.763ZM33.4441 153.496C34.8943 152.361 35.4606 151.084 35.2881 149.63L36.4751 149.489C36.706 151.436 35.8929 153.097 34.1809 154.437L33.4441 153.496ZM35.2887 149.634C35.0958 148.103 34.153 146.192 32.3462 143.885L33.2873 143.148C35.141 145.516 36.2414 147.634 36.4745 149.485L35.2887 149.634ZM32.3462 143.885C31.3914 142.665 30.2857 141.524 29.0274 140.463L29.7981 139.549C31.1155 140.661 32.2791 141.86 33.2873 143.148L32.3462 143.885ZM29.0312 140.466C27.7663 139.417 26.4878 138.596 25.1963 137.997L25.6991 136.912C27.0961 137.56 28.4609 138.44 29.7943 139.546L29.0312 140.466Z" fill="#FF7E55" mask="url(#path-25-outside-11_1324_668)"/>
<mask id="path-27-outside-12_1324_668" maskUnits="userSpaceOnUse" x="30.5538" y="152.346" width="26.7479" height="26.2933" fill="black">
<rect fill="white" x="30.5538" y="152.346" width="26.7479" height="26.2933"/>
<path d="M42.3829 173.796L46.7132 176.913L51.7159 169.963C52.9244 168.236 53.3547 166.398 53.0067 164.451C52.6704 162.512 51.1461 160.567 48.4339 158.614C45.6868 156.637 43.4256 155.813 41.6503 156.143C39.8667 156.485 38.3622 157.532 37.1369 159.283L32.0463 166.354L36.3765 169.472L41.266 162.679C41.6347 162.167 41.9713 161.773 42.2758 161.498C42.5835 161.242 43.0417 161.121 43.6502 161.135C44.2704 161.157 45.0402 161.5 45.9598 162.162C46.9609 162.882 47.5937 163.55 47.8582 164.164C48.1143 164.791 48.1574 165.308 47.9875 165.715C47.8293 166.132 47.5532 166.613 47.1594 167.161L42.3829 173.796Z"/>
</mask>
<path d="M42.3829 173.796L46.7132 176.913L51.7159 169.963C52.9244 168.236 53.3547 166.398 53.0067 164.451C52.6704 162.512 51.1461 160.567 48.4339 158.614C45.6868 156.637 43.4256 155.813 41.6503 156.143C39.8667 156.485 38.3622 157.532 37.1369 159.283L32.0463 166.354L36.3765 169.472L41.266 162.679C41.6347 162.167 41.9713 161.773 42.2758 161.498C42.5835 161.242 43.0417 161.121 43.6502 161.135C44.2704 161.157 45.0402 161.5 45.9598 162.162C46.9609 162.882 47.5937 163.55 47.8582 164.164C48.1143 164.791 48.1574 165.308 47.9875 165.715C47.8293 166.132 47.5532 166.613 47.1594 167.161L42.3829 173.796Z" fill="#FF7E55"/>
<path d="M42.3829 173.796L42.0338 174.281L41.5488 173.931L41.8979 173.446L42.3829 173.796ZM46.7132 176.913L47.1982 177.262L46.849 177.747L46.364 177.398L46.7132 176.913ZM51.7159 169.963L52.2056 170.306L52.2009 170.313L51.7159 169.963ZM53.0067 164.451L52.4184 164.556L52.4179 164.553L53.0067 164.451ZM41.6503 156.143L41.5378 155.556L41.541 155.556L41.6503 156.143ZM37.1369 159.283L37.6266 159.625L37.6219 159.632L37.1369 159.283ZM32.0463 166.354L31.6971 166.839L31.2121 166.49L31.5612 166.005L32.0463 166.354ZM36.3765 169.472L36.8615 169.821L36.5124 170.306L36.0273 169.957L36.3765 169.472ZM42.2758 161.498L41.8747 161.055L41.8841 161.046L41.8939 161.038L42.2758 161.498ZM43.6502 161.135L43.6639 160.538L43.6717 160.538L43.6502 161.135ZM47.8582 164.164L48.4072 163.928L48.4113 163.938L47.8582 164.164ZM47.9875 165.715L47.4289 165.503L47.4323 165.494L47.4359 165.486L47.9875 165.715ZM42.7321 173.311L47.0623 176.428L46.364 177.398L42.0338 174.281L42.7321 173.311ZM46.2282 176.564L51.2308 169.614L52.2009 170.313L47.1982 177.262L46.2282 176.564ZM51.2261 169.621C52.3503 168.014 52.7364 166.336 52.4184 164.556L53.595 164.346C53.9729 166.46 53.4985 168.457 52.2056 170.306L51.2261 169.621ZM52.4179 164.553C52.1218 162.846 50.753 161.02 48.0848 159.099L48.7831 158.129C51.5393 160.113 53.2191 162.179 53.5956 164.349L52.4179 164.553ZM48.0848 159.099C45.3656 157.142 43.2813 156.448 41.7596 156.731L41.541 155.556C43.5699 155.178 46.008 156.132 48.7831 158.129L48.0848 159.099ZM41.7628 156.73C40.1586 157.038 38.7796 157.978 37.6266 159.625L36.6473 158.94C37.9448 157.086 39.5748 155.933 41.5378 155.556L41.7628 156.73ZM37.6219 159.632L32.5313 166.704L31.5612 166.005L36.6519 158.934L37.6219 159.632ZM32.3954 165.869L36.7256 168.987L36.0273 169.957L31.6971 166.839L32.3954 165.869ZM35.8915 169.122L40.781 162.33L41.7511 163.029L36.8615 169.821L35.8915 169.122ZM40.781 162.33C41.1627 161.8 41.5271 161.369 41.8747 161.055L42.6769 161.941C42.4155 162.177 42.1068 162.534 41.7511 163.029L40.781 162.33ZM41.8939 161.038C42.3579 160.653 42.9836 160.522 43.6639 160.538L43.6365 161.733C43.0998 161.72 42.8092 161.832 42.6577 161.957L41.8939 161.038ZM43.6717 160.538C44.4724 160.567 45.3619 160.995 46.309 161.677L45.6107 162.647C44.7186 162.004 44.0683 161.748 43.6287 161.732L43.6717 160.538ZM46.309 161.677C47.3349 162.415 48.077 163.161 48.4071 163.928L47.3093 164.401C47.1104 163.939 46.5869 163.349 45.6107 162.647L46.309 161.677ZM48.4113 163.938C48.6962 164.635 48.7955 165.33 48.5392 165.945L47.4359 165.486C47.5194 165.285 47.5325 164.947 47.3051 164.391L48.4113 163.938ZM48.5461 165.928C48.3625 166.411 48.0547 166.94 47.6444 167.51L46.6743 166.811C47.0517 166.287 47.296 165.853 47.4289 165.503L48.5461 165.928ZM47.6444 167.51L42.868 174.145L41.8979 173.446L46.6743 166.811L47.6444 167.51Z" fill="#FF7E55" mask="url(#path-27-outside-12_1324_668)"/>
<mask id="path-29-outside-13_1324_668" maskUnits="userSpaceOnUse" x="53.1642" y="165.05" width="24.0055" height="23.4072" fill="black">
<rect fill="white" x="53.1642" y="165.05" width="24.0055" height="23.4072"/>
<path d="M63.632 184.28C66.3145 185.255 68.3555 185.455 69.7548 184.88C71.1491 184.318 72.1599 183.175 72.787 181.449C73.2181 180.263 73.3766 179.176 73.2624 178.188C73.1434 177.214 72.6438 176.3 71.7638 175.446C70.8789 174.606 69.5131 173.85 67.6663 173.179L63.4604 171.65L64.7538 168.092L59.7796 166.284C58.937 168.938 58.1017 171.404 57.2738 173.683C56.4459 175.961 55.5028 178.388 54.4445 180.964L59.4188 182.772L59.4261 182.751L63.632 184.28ZM64.8326 176.567C65.9515 176.974 66.7725 177.318 67.2958 177.6C67.8277 177.9 68.1599 178.203 68.2923 178.511C68.4381 178.823 68.4302 179.202 68.2686 179.647C68.1069 180.092 67.879 180.383 67.585 180.52C67.2995 180.676 66.859 180.691 66.2634 180.566C65.6813 180.446 64.8174 180.178 63.6715 179.762L60.8811 178.748L62.0422 175.553L64.8326 176.567Z"/>
</mask>
<path d="M63.632 184.28C66.3145 185.255 68.3555 185.455 69.7548 184.88C71.1491 184.318 72.1599 183.175 72.787 181.449C73.2181 180.263 73.3766 179.176 73.2624 178.188C73.1434 177.214 72.6438 176.3 71.7638 175.446C70.8789 174.606 69.5131 173.85 67.6663 173.179L63.4604 171.65L64.7538 168.092L59.7796 166.284C58.937 168.938 58.1017 171.404 57.2738 173.683C56.4459 175.961 55.5028 178.388 54.4445 180.964L59.4188 182.772L59.4261 182.751L63.632 184.28ZM64.8326 176.567C65.9515 176.974 66.7725 177.318 67.2958 177.6C67.8277 177.9 68.1599 178.203 68.2923 178.511C68.4381 178.823 68.4302 179.202 68.2686 179.647C68.1069 180.092 67.879 180.383 67.585 180.52C67.2995 180.676 66.859 180.691 66.2634 180.566C65.6813 180.446 64.8174 180.178 63.6715 179.762L60.8811 178.748L62.0422 175.553L64.8326 176.567Z" fill="#FF7E55"/>
<path d="M69.7548 184.88L69.5276 184.327L69.5315 184.325L69.7548 184.88ZM73.2624 178.188L73.8556 178.116L73.8561 178.12L73.2624 178.188ZM71.7638 175.446L72.1754 175.013L72.18 175.017L71.7638 175.446ZM63.4604 171.65L63.2563 172.212L62.6946 172.008L62.8988 171.446L63.4604 171.65ZM64.7538 168.092L64.9579 167.53L65.5196 167.734L65.3155 168.296L64.7538 168.092ZM59.7796 166.284L59.21 166.103L59.3984 165.509L59.9837 165.722L59.7796 166.284ZM54.4445 180.964L54.2404 181.526L53.6551 181.313L53.8917 180.737L54.4445 180.964ZM59.4188 182.772L59.9804 182.976L59.7763 183.537L59.2146 183.333L59.4188 182.772ZM59.4261 182.751L58.8644 182.547L59.0686 181.986L59.6302 182.19L59.4261 182.751ZM67.2958 177.6L67.5792 177.073L67.5895 177.079L67.2958 177.6ZM68.2923 178.511L67.7508 178.764L67.7469 178.756L67.7433 178.747L68.2923 178.511ZM67.585 180.52L67.2989 179.996L67.3152 179.987L67.3321 179.979L67.585 180.52ZM66.2634 180.566L66.384 179.981L66.386 179.981L66.2634 180.566ZM60.8811 178.748L60.677 179.309L60.1153 179.105L60.3194 178.544L60.8811 178.748ZM62.0422 175.553L61.4805 175.349L61.6846 174.787L62.2463 174.991L62.0422 175.553ZM63.8361 183.718C66.4881 184.682 68.345 184.813 69.5276 184.327L69.9819 185.433C68.366 186.097 66.141 185.828 63.4278 184.842L63.8361 183.718ZM69.5315 184.325C70.7343 183.841 71.6423 182.849 72.2253 181.245L73.3486 181.653C72.6775 183.5 71.564 184.795 69.978 185.434L69.5315 184.325ZM72.2253 181.245C72.633 180.123 72.7698 179.131 72.6687 178.257L73.8561 178.12C73.9834 179.221 73.8031 180.403 73.3486 181.653L72.2253 181.245ZM72.6692 178.261C72.5705 177.453 72.1547 176.658 71.3477 175.875L72.18 175.017C73.133 175.942 73.7162 176.975 73.8556 178.116L72.6692 178.261ZM71.3523 175.88C70.5523 175.12 69.2733 174.399 67.4622 173.741L67.8704 172.617C69.7529 173.301 71.2055 174.092 72.1754 175.013L71.3523 175.88ZM67.4622 173.741L63.2563 172.212L63.6646 171.089L67.8704 172.617L67.4622 173.741ZM62.8988 171.446L64.1921 167.887L65.3155 168.296L64.0221 171.854L62.8988 171.446ZM64.5497 168.653L59.5754 166.845L59.9837 165.722L64.9579 167.53L64.5497 168.653ZM60.3492 166.465C59.5045 169.126 58.6666 171.6 57.8355 173.887L56.7121 173.478C57.5369 171.209 58.3695 168.751 59.21 166.103L60.3492 166.465ZM57.8355 173.887C57.0044 176.174 56.0582 178.608 54.9973 181.191L53.8917 180.737C54.9473 178.167 55.8874 175.748 56.7121 173.478L57.8355 173.887ZM54.6487 180.402L59.6229 182.21L59.2146 183.333L54.2404 181.526L54.6487 180.402ZM58.8571 182.567L58.8644 182.547L59.9878 182.955L59.9804 182.976L58.8571 182.567ZM59.6302 182.19L63.8361 183.718L63.4278 184.842L59.222 183.313L59.6302 182.19ZM65.0367 176.005C66.1615 176.414 67.0161 176.77 67.5791 177.073L67.0125 178.126C66.529 177.865 65.7414 177.533 64.6285 177.129L65.0367 176.005ZM67.5895 177.079C68.1531 177.397 68.6293 177.782 68.8412 178.275L67.7433 178.747C67.6905 178.625 67.5023 178.402 67.0022 178.12L67.5895 177.079ZM68.8338 178.258C69.0685 178.761 69.0254 179.314 68.8303 179.851L67.7069 179.443C67.8351 179.09 67.8078 178.886 67.7508 178.764L68.8338 178.258ZM68.8303 179.851C68.6393 180.377 68.3301 180.832 67.8378 181.062L67.3321 179.979C67.428 179.934 67.5746 179.807 67.7069 179.443L68.8303 179.851ZM67.8711 181.045C67.3905 181.307 66.7691 181.283 66.1408 181.151L66.386 179.981C66.9488 180.1 67.2084 180.045 67.2989 179.996L67.8711 181.045ZM66.1428 181.152C65.5161 181.023 64.6184 180.742 63.4674 180.323L63.8757 179.2C65.0163 179.615 65.8466 179.87 66.384 179.981L66.1428 181.152ZM63.4674 180.323L60.677 179.309L61.0852 178.186L63.8757 179.2L63.4674 180.323ZM60.3194 178.544L61.4805 175.349L62.6039 175.757L61.4428 178.952L60.3194 178.544ZM62.2463 174.991L65.0367 176.005L64.6285 177.129L61.8381 176.115L62.2463 174.991Z" fill="#FF7E55" mask="url(#path-29-outside-13_1324_668)"/>
<mask id="path-31-outside-14_1324_668" maskUnits="userSpaceOnUse" x="77.7524" y="171.999" width="20.3853" height="19.4689" fill="black">
<rect fill="white" x="77.7524" y="171.999" width="20.3853" height="19.4689"/>
<path d="M84.7211 177.398C90.1515 177.864 94.0838 178.261 96.5181 178.586C96.4653 177.992 96.45 177.379 96.4721 176.748C96.5074 176.132 96.5631 175.352 96.6392 174.409L79.9766 173.065C79.8673 175.848 79.7153 178.447 79.5204 180.863C79.3256 183.279 79.0592 185.87 78.7212 188.634L95.3837 189.978L95.6967 186.096L84.0951 185.161L84.2611 183.102C84.9485 183.143 85.9641 183.218 87.308 183.326C89.5811 183.509 91.9295 183.742 94.3529 184.024L94.6504 180.335C92.2131 180.225 89.8578 180.078 87.5847 179.895C86.2408 179.786 85.2263 179.697 84.5413 179.628L84.7211 177.398Z"/>
</mask>
<path d="M84.7211 177.398C90.1515 177.864 94.0838 178.261 96.5181 178.586C96.4653 177.992 96.45 177.379 96.4721 176.748C96.5074 176.132 96.5631 175.352 96.6392 174.409L79.9766 173.065C79.8673 175.848 79.7153 178.447 79.5204 180.863C79.3256 183.279 79.0592 185.87 78.7212 188.634L95.3837 189.978L95.6967 186.096L84.0951 185.161L84.2611 183.102C84.9485 183.143 85.9641 183.218 87.308 183.326C89.5811 183.509 91.9295 183.742 94.3529 184.024L94.6504 180.335C92.2131 180.225 89.8578 180.078 87.5847 179.895C86.2408 179.786 85.2263 179.697 84.5413 179.628L84.7211 177.398Z" fill="#FF7E55"/>
<path d="M84.7211 177.398L84.1254 177.35L84.1737 176.751L84.7723 176.802L84.7211 177.398ZM96.5181 178.586L97.1134 178.533L97.1796 179.278L96.4388 179.179L96.5181 178.586ZM96.4721 176.748L95.8747 176.727L95.8755 176.714L96.4721 176.748ZM96.6392 174.409L96.6872 173.813L97.2829 173.861L97.2348 174.457L96.6392 174.409ZM79.9766 173.065L79.3795 173.042L79.4039 172.419L80.0246 172.469L79.9766 173.065ZM78.7212 188.634L78.6731 189.23L78.0524 189.18L78.128 188.561L78.7212 188.634ZM95.3837 189.978L95.9794 190.026L95.9314 190.621L95.3357 190.573L95.3837 189.978ZM95.6967 186.096L95.7447 185.5L96.3404 185.548L96.2924 186.144L95.6967 186.096ZM84.0951 185.161L84.0471 185.756L83.4514 185.708L83.4994 185.113L84.0951 185.161ZM84.2611 183.102L83.6654 183.054L83.7125 182.47L84.2967 182.505L84.2611 183.102ZM94.3529 184.024L94.9486 184.072L94.8989 184.689L94.2839 184.617L94.3529 184.024ZM94.6504 180.335L94.6774 179.738L95.2958 179.766L95.2461 180.383L94.6504 180.335ZM84.5413 179.628L84.4808 180.222L83.8985 180.163L83.9456 179.58L84.5413 179.628ZM84.7723 176.802C90.2036 177.269 94.148 177.666 96.5974 177.994L96.4388 179.179C94.0196 178.855 90.0994 178.46 84.6699 177.993L84.7723 176.802ZM95.9229 178.639C95.8677 178.019 95.8519 177.382 95.8749 176.727L97.0694 176.769C97.048 177.377 97.0629 177.965 97.1134 178.533L95.9229 178.639ZM95.8755 176.714C95.9111 176.092 95.9672 175.307 96.0435 174.361L97.2348 174.457C97.159 175.398 97.1037 176.173 97.0688 176.782L95.8755 176.714ZM96.5911 175.004L79.9286 173.661L80.0246 172.469L96.6872 173.813L96.5911 175.004ZM80.5738 173.089C80.4642 175.878 80.3117 178.486 80.1161 180.911L78.9248 180.815C79.1188 178.409 79.2704 175.817 79.3795 173.042L80.5738 173.089ZM80.1161 180.911C79.9205 183.337 79.6532 185.935 79.3144 188.707L78.128 188.561C78.4651 185.804 78.7307 183.222 78.9248 180.815L80.1161 180.911ZM78.7692 188.038L95.4317 189.382L95.3357 190.573L78.6731 189.23L78.7692 188.038ZM94.788 189.93L95.101 186.048L96.2924 186.144L95.9794 190.026L94.788 189.93ZM95.6487 186.692L84.0471 185.756L84.1431 184.565L95.7447 185.5L95.6487 186.692ZM83.4994 185.113L83.6654 183.054L84.8568 183.15L84.6908 185.209L83.4994 185.113ZM84.2967 182.505C84.9905 182.547 86.0111 182.622 87.356 182.73L87.26 183.922C85.9171 183.813 84.9065 183.739 84.2255 183.698L84.2967 182.505ZM87.356 182.73C89.6366 182.914 91.992 183.147 94.422 183.43L94.2839 184.617C91.8669 184.336 89.5256 184.104 87.26 183.922L87.356 182.73ZM93.7572 183.976L94.0547 180.287L95.2461 180.383L94.9486 184.072L93.7572 183.976ZM94.6234 180.932C92.1795 180.822 89.8173 180.674 87.5366 180.491L87.6327 179.299C89.8984 179.482 92.2466 179.628 94.6774 179.738L94.6234 180.932ZM87.5366 180.491C86.1918 180.382 85.1723 180.293 84.4808 180.222L84.6017 179.033C85.2804 179.102 86.2899 179.191 87.6327 179.299L87.5366 180.491ZM83.9456 179.58L84.1254 177.35L85.3168 177.446L85.137 179.676L83.9456 179.58Z" fill="#FF7E55" mask="url(#path-31-outside-14_1324_668)"/>
<mask id="path-33-outside-15_1324_668" maskUnits="userSpaceOnUse" x="100.217" y="169.7" width="23.0068" height="21.415" fill="black">
<rect fill="white" x="100.217" y="169.7" width="23.0068" height="21.415"/>
<path d="M120.164 181.26C119.932 180.034 119.432 179.056 118.665 178.326C117.913 177.593 116.775 177.174 115.251 177.069C115.378 176.811 115.464 176.612 115.51 176.472L118.032 171.066L112.282 172.158C111.882 173.431 111.213 175.252 110.276 177.619L107.168 178.209L106.237 173.306L101.249 174.253C101.881 176.965 102.423 179.512 102.875 181.893C103.327 184.275 103.757 186.843 104.163 189.598L109.151 188.651L109.147 188.63L113.48 187.807C116.327 187.267 118.226 186.431 119.18 185.301C120.133 184.171 120.461 182.824 120.164 181.26ZM108.377 184.572L107.919 182.162L110.772 181.62C111.97 181.393 112.879 181.257 113.498 181.212C114.134 181.179 114.588 181.224 114.86 181.348C115.131 181.471 115.298 181.695 115.359 182.019C115.418 182.329 115.351 182.59 115.158 182.802C114.964 183.014 114.564 183.214 113.958 183.402C113.351 183.59 112.442 183.8 111.23 184.03L108.377 184.572Z"/>
</mask>
<path d="M120.164 181.26C119.932 180.034 119.432 179.056 118.665 178.326C117.913 177.593 116.775 177.174 115.251 177.069C115.378 176.811 115.464 176.612 115.51 176.472L118.032 171.066L112.282 172.158C111.882 173.431 111.213 175.252 110.276 177.619L107.168 178.209L106.237 173.306L101.249 174.253C101.881 176.965 102.423 179.512 102.875 181.893C103.327 184.275 103.757 186.843 104.163 189.598L109.151 188.651L109.147 188.63L113.48 187.807C116.327 187.267 118.226 186.431 119.18 185.301C120.133 184.171 120.461 182.824 120.164 181.26ZM108.377 184.572L107.919 182.162L110.772 181.62C111.97 181.393 112.879 181.257 113.498 181.212C114.134 181.179 114.588 181.224 114.86 181.348C115.131 181.471 115.298 181.695 115.359 182.019C115.418 182.329 115.351 182.59 115.158 182.802C114.964 183.014 114.564 183.214 113.958 183.402C113.351 183.59 112.442 183.8 111.23 184.03L108.377 184.572Z" fill="#FF7E55"/>
<path d="M118.665 178.326L118.253 178.758L118.248 178.754L118.665 178.326ZM115.251 177.069L115.21 177.665L114.324 177.604L114.715 176.806L115.251 177.069ZM115.51 176.472L114.943 176.284L114.954 176.251L114.969 176.22L115.51 176.472ZM118.032 171.066L117.92 170.479L119.066 170.261L118.573 171.319L118.032 171.066ZM112.282 172.158L111.712 171.979L111.82 171.637L112.171 171.571L112.282 172.158ZM110.276 177.619L110.831 177.839L110.71 178.145L110.387 178.207L110.276 177.619ZM107.168 178.209L107.28 178.797L106.693 178.908L106.581 178.321L107.168 178.209ZM106.237 173.306L106.126 172.719L106.713 172.607L106.824 173.194L106.237 173.306ZM101.249 174.253L100.667 174.389L100.526 173.782L101.138 173.666L101.249 174.253ZM104.163 189.598L104.274 190.185L103.663 190.301L103.572 189.685L104.163 189.598ZM109.151 188.651L109.738 188.539L109.85 189.127L109.263 189.238L109.151 188.651ZM109.147 188.63L108.56 188.741L108.449 188.154L109.036 188.043L109.147 188.63ZM119.18 185.301L118.723 184.916L119.18 185.301ZM108.377 184.572L108.488 185.159L107.901 185.27L107.789 184.683L108.377 184.572ZM107.919 182.162L107.332 182.273L107.22 181.686L107.807 181.575L107.919 182.162ZM113.498 181.212L113.455 180.616L113.467 180.615L113.498 181.212ZM114.86 181.348L114.612 181.892L114.612 181.892L114.86 181.348ZM115.158 182.802L115.599 183.205L115.599 183.205L115.158 182.802ZM113.958 183.402L113.781 182.832L113.781 182.832L113.958 183.402ZM119.577 181.372C119.363 180.246 118.914 179.388 118.253 178.758L119.078 177.893C119.95 178.724 120.5 179.823 120.751 181.149L119.577 181.372ZM118.248 178.754C117.635 178.156 116.655 177.764 115.21 177.665L115.293 176.473C116.895 176.583 118.191 177.029 119.083 177.898L118.248 178.754ZM114.715 176.806C114.838 176.554 114.91 176.385 114.943 176.284L116.078 176.66C116.018 176.84 115.917 177.068 115.788 177.332L114.715 176.806ZM114.969 176.22L117.49 170.814L118.573 171.319L116.052 176.725L114.969 176.22ZM118.143 171.653L112.394 172.745L112.171 171.571L117.92 170.479L118.143 171.653ZM112.852 172.337C112.445 173.631 111.77 175.468 110.831 177.839L109.72 177.399C110.656 175.035 111.318 173.231 111.712 171.979L112.852 172.337ZM110.387 178.207L107.28 178.797L107.057 177.622L110.164 177.032L110.387 178.207ZM106.581 178.321L105.65 173.417L106.824 173.194L107.756 178.098L106.581 178.321ZM106.349 173.893L101.361 174.84L101.138 173.666L106.126 172.719L106.349 173.893ZM101.831 174.117C102.464 176.836 103.008 179.391 103.462 181.782L102.288 182.005C101.837 179.633 101.297 177.094 100.667 174.389L101.831 174.117ZM103.462 181.782C103.916 184.172 104.347 186.749 104.754 189.511L103.572 189.685C103.166 186.937 102.738 184.377 102.288 182.005L103.462 181.782ZM104.051 189.011L109.04 188.064L109.263 189.238L104.274 190.185L104.051 189.011ZM108.564 188.762L108.56 188.741L109.734 188.518L109.738 188.539L108.564 188.762ZM109.036 188.043L113.369 187.22L113.592 188.394L109.259 189.217L109.036 188.043ZM113.369 187.22C116.191 186.684 117.91 185.879 118.723 184.916L119.637 185.687C118.542 186.984 116.463 187.849 113.592 188.394L113.369 187.22ZM118.723 184.916C119.551 183.935 119.844 182.775 119.577 181.372L120.751 181.149C121.079 182.874 120.716 184.408 119.637 185.687L118.723 184.916ZM107.789 184.683L107.332 182.273L108.506 182.051L108.964 184.46L107.789 184.683ZM107.807 181.575L110.661 181.033L110.884 182.207L108.03 182.749L107.807 181.575ZM110.661 181.033C111.864 180.805 112.8 180.663 113.455 180.616L113.541 181.808C112.957 181.85 112.076 181.981 110.884 182.207L110.661 181.033ZM113.467 180.615C114.114 180.582 114.694 180.616 115.107 180.804L114.612 181.892C114.482 181.832 114.155 181.776 113.529 181.809L113.467 180.615ZM115.107 180.804C115.576 181.017 115.853 181.416 115.946 181.908L114.772 182.131C114.742 181.974 114.686 181.926 114.612 181.892L115.107 180.804ZM115.946 181.908C116.036 182.381 115.933 182.839 115.599 183.205L114.716 182.399C114.769 182.342 114.8 182.277 114.772 182.131L115.946 181.908ZM115.599 183.205C115.288 183.546 114.747 183.783 114.135 183.973L113.781 182.832C114.381 182.645 114.641 182.482 114.716 182.399L115.599 183.205ZM114.135 183.973C113.495 184.172 112.559 184.386 111.341 184.617L111.118 183.443C112.325 183.214 113.207 183.009 113.781 182.832L114.135 183.973ZM111.341 184.617L108.488 185.159L108.265 183.984L111.118 183.443L111.341 184.617Z" fill="#FF7E55" mask="url(#path-33-outside-15_1324_668)"/>
<mask id="path-35-outside-16_1324_668" maskUnits="userSpaceOnUse" x="127.814" y="153.682" width="29.9375" height="28.1982" fill="black">
<rect fill="white" x="127.814" y="153.682" width="29.9375" height="28.1982"/>
<path d="M154.465 169.247L147.324 155.255L142.66 158.304L148.469 167.82L140.571 159.669L135.853 162.753L140.066 173.21L133.746 164.131L129.082 167.179L139.032 179.335L145.155 175.333L141.154 165.791L148.091 173.414L154.465 169.247Z"/>
</mask>
<path d="M154.465 169.247L147.324 155.255L142.66 158.304L148.469 167.82L140.571 159.669L135.853 162.753L140.066 173.21L133.746 164.131L129.082 167.179L139.032 179.335L145.155 175.333L141.154 165.791L148.091 173.414L154.465 169.247Z" fill="#FF7E55"/>
<path d="M154.465 169.247L154.998 168.975L155.242 169.454L154.792 169.747L154.465 169.247ZM147.324 155.255L146.997 154.755L147.554 154.391L147.856 154.983L147.324 155.255ZM142.66 158.304L142.15 158.615L141.848 158.121L142.333 157.803L142.66 158.304ZM148.469 167.82L148.979 167.509L148.04 168.236L148.469 167.82ZM140.571 159.669L140.244 159.169L140.657 158.899L141 159.253L140.571 159.669ZM135.853 162.753L135.298 162.977L135.115 162.522L135.526 162.253L135.853 162.753ZM140.066 173.21L140.621 172.987L139.576 173.552L140.066 173.21ZM133.746 164.131L133.419 163.63L133.905 163.313L134.236 163.789L133.746 164.131ZM129.082 167.179L128.619 167.558L128.198 167.043L128.755 166.679L129.082 167.179ZM139.032 179.335L139.359 179.835L138.91 180.129L138.57 179.714L139.032 179.335ZM145.155 175.333L145.706 175.102L145.899 175.561L145.482 175.833L145.155 175.333ZM141.154 165.791L140.603 166.022L141.596 165.389L141.154 165.791ZM148.091 173.414L148.418 173.914L147.991 174.193L147.649 173.816L148.091 173.414ZM153.933 169.519L146.792 155.527L147.856 154.983L154.998 168.975L153.933 169.519ZM147.651 155.755L142.987 158.804L142.333 157.803L146.997 154.755L147.651 155.755ZM143.17 157.992L148.979 167.509L147.959 168.132L142.15 158.615L143.17 157.992ZM148.04 168.236L140.142 160.085L141 159.253L148.899 167.404L148.04 168.236ZM140.898 160.169L136.18 163.254L135.526 162.253L140.244 159.169L140.898 160.169ZM136.407 162.53L140.621 172.987L139.512 173.434L135.298 162.977L136.407 162.53ZM139.576 173.552L133.255 164.472L134.236 163.789L140.557 172.869L139.576 173.552ZM134.073 164.631L129.409 167.68L128.755 166.679L133.419 163.63L134.073 164.631ZM129.544 166.801L139.495 178.957L138.57 179.714L128.619 167.558L129.544 166.801ZM138.705 178.835L144.828 174.833L145.482 175.833L139.359 179.835L138.705 178.835ZM144.604 175.564L140.603 166.022L141.705 165.56L145.706 175.102L144.604 175.564ZM141.596 165.389L148.533 173.012L147.649 173.816L140.712 166.193L141.596 165.389ZM147.764 172.914L154.138 168.747L154.792 169.747L148.418 173.914L147.764 172.914Z" fill="#FF7E55" mask="url(#path-35-outside-16_1324_668)"/>
<mask id="path-37-outside-17_1324_668" maskUnits="userSpaceOnUse" x="148.391" y="136.06" width="27.8723" height="28.4253" fill="black">
<rect fill="white" x="148.391" y="136.06" width="27.8723" height="28.4253"/>
<path d="M158.959 141.767C159.418 142.497 159.979 143.43 160.641 144.568L156.285 149.872L153.225 148.751L149.798 152.924L165.692 158.181L170.717 152.062L162.495 137.461L158.959 141.767ZM162.456 147.645C163.274 149.022 164.083 150.41 164.883 151.809L165.636 153.096C164.309 152.655 162.316 151.975 159.657 151.054L162.456 147.645Z"/>
</mask>
<path d="M158.959 141.767C159.418 142.497 159.979 143.43 160.641 144.568L156.285 149.872L153.225 148.751L149.798 152.924L165.692 158.181L170.717 152.062L162.495 137.461L158.959 141.767ZM162.456 147.645C163.274 149.022 164.083 150.41 164.883 151.809L165.636 153.096C164.309 152.655 162.316 151.975 159.657 151.054L162.456 147.645Z" fill="#FF7E55"/>
<path d="M158.959 141.767L158.453 142.085L158.224 141.721L158.497 141.388L158.959 141.767ZM160.641 144.568L161.157 144.267L161.366 144.626L161.103 144.947L160.641 144.568ZM156.285 149.872L156.747 150.251L156.478 150.579L156.08 150.433L156.285 149.872ZM153.225 148.751L152.763 148.371L153.032 148.044L153.431 148.189L153.225 148.751ZM149.798 152.924L149.611 153.491L148.784 153.218L149.336 152.545L149.798 152.924ZM165.692 158.181L166.154 158.56L165.894 158.877L165.505 158.748L165.692 158.181ZM170.717 152.062L171.237 151.769L171.438 152.125L171.178 152.441L170.717 152.062ZM162.495 137.461L162.034 137.082L162.588 136.407L163.016 137.168L162.495 137.461ZM162.456 147.645L161.994 147.266L162.535 146.608L162.97 147.34L162.456 147.645ZM164.883 151.809L164.367 152.111L164.364 152.106L164.883 151.809ZM165.636 153.096L166.152 152.794L166.953 154.162L165.448 153.663L165.636 153.096ZM159.657 151.054L159.462 151.618L158.651 151.338L159.196 150.675L159.657 151.054ZM159.465 141.449C159.929 142.186 160.493 143.126 161.157 144.267L160.124 144.868C159.464 143.734 158.907 142.807 158.453 142.085L159.465 141.449ZM161.103 144.947L156.747 150.251L155.824 149.492L160.179 144.188L161.103 144.947ZM156.08 150.433L153.02 149.312L153.431 148.189L156.491 149.31L156.08 150.433ZM153.687 149.13L150.26 153.303L149.336 152.545L152.763 148.371L153.687 149.13ZM149.986 152.357L165.88 157.613L165.505 158.748L149.611 153.491L149.986 152.357ZM165.23 157.801L170.255 151.682L171.178 152.441L166.154 158.56L165.23 157.801ZM170.196 152.355L161.975 137.754L163.016 137.168L171.237 151.769L170.196 152.355ZM162.957 137.84L159.421 142.146L158.497 141.388L162.034 137.082L162.957 137.84ZM162.97 147.34C163.79 148.72 164.6 150.111 165.402 151.513L164.364 152.106C163.566 150.71 162.759 149.324 161.943 147.95L162.97 147.34ZM165.399 151.507L166.152 152.794L165.12 153.398L164.367 152.111L165.399 151.507ZM165.448 153.663C164.117 153.221 162.121 152.54 159.462 151.618L159.853 150.489C162.511 151.41 164.501 152.09 165.824 152.529L165.448 153.663ZM159.196 150.675L161.994 147.266L162.918 148.024L160.119 151.433L159.196 150.675Z" fill="#FF7E55" mask="url(#path-37-outside-17_1324_668)"/>
<mask id="path-39-outside-18_1324_668" maskUnits="userSpaceOnUse" x="162.916" y="116.565" width="24.4229" height="25.4734" fill="black">
<rect fill="white" x="162.916" y="116.565" width="24.4229" height="25.4734"/>
<path d="M181.657 121.937C180.836 124.035 180.014 126.062 179.191 128.019L168.869 123.595L166.75 128.539L177.073 132.963C176.218 134.922 175.319 136.908 174.378 138.924L178.53 140.703L185.81 123.717L181.657 121.937Z"/>
</mask>
<path d="M181.657 121.937C180.836 124.035 180.014 126.062 179.191 128.019L168.869 123.595L166.75 128.539L177.073 132.963C176.218 134.922 175.319 136.908 174.378 138.924L178.53 140.703L185.81 123.717L181.657 121.937Z" fill="#FF7E55"/>
<path d="M181.657 121.937L181.101 121.719L181.326 121.145L181.893 121.388L181.657 121.937ZM179.191 128.019L179.742 128.251L179.509 128.806L178.956 128.569L179.191 128.019ZM168.869 123.595L168.319 123.36L168.555 122.811L169.104 123.046L168.869 123.595ZM166.75 128.539L166.515 129.088L165.965 128.853L166.201 128.304L166.75 128.539ZM177.073 132.963L177.308 132.414L177.861 132.651L177.62 133.202L177.073 132.963ZM174.378 138.924L174.142 139.473L173.575 139.23L173.836 138.671L174.378 138.924ZM178.53 140.703L179.08 140.939L178.844 141.488L178.295 141.253L178.53 140.703ZM185.81 123.717L186.046 123.167L186.595 123.403L186.359 123.952L185.81 123.717ZM182.214 122.155C181.391 124.257 180.567 126.289 179.742 128.251L178.64 127.788C179.461 125.836 180.281 123.813 181.101 121.719L182.214 122.155ZM178.956 128.569L168.633 124.145L169.104 123.046L179.427 127.47L178.956 128.569ZM169.418 123.831L167.299 128.775L166.201 128.304L168.319 123.36L169.418 123.831ZM166.986 127.99L177.308 132.414L176.837 133.512L166.515 129.088L166.986 127.99ZM177.62 133.202C176.763 135.166 175.863 137.157 174.919 139.177L173.836 138.671C174.776 136.66 175.672 134.678 176.525 132.724L177.62 133.202ZM174.613 138.374L178.766 140.154L178.295 141.253L174.142 139.473L174.613 138.374ZM177.981 140.468L185.261 123.481L186.359 123.952L179.08 140.939L177.981 140.468ZM185.575 124.266L181.422 122.486L181.893 121.388L186.046 123.167L185.575 124.266Z" fill="#FF7E55" mask="url(#path-39-outside-18_1324_668)"/>
<mask id="path-41-outside-19_1324_668" maskUnits="userSpaceOnUse" x="171.42" y="93.5773" width="20.427" height="23.0387" fill="black">
<rect fill="white" x="171.42" y="93.5773" width="20.427" height="23.0387"/>
<path d="M173.458 104.267C173.063 107.484 173.455 109.938 174.634 111.629C175.814 113.32 177.671 114.322 180.205 114.633C182.753 114.946 184.861 114.432 186.528 113.091C188.196 111.75 189.228 109.47 189.623 106.253C190.176 101.754 189.001 98.5538 186.099 96.6509C185.501 97.8779 184.654 99.2984 183.56 100.913C184.306 101.423 184.816 102.151 185.091 103.095C185.367 104.025 185.448 104.952 185.334 105.878C185.166 107.244 184.678 108.218 183.87 108.797C183.076 109.379 182.152 109.605 181.098 109.476C179.96 109.336 179.071 108.865 178.432 108.064C177.81 107.251 177.589 106.104 177.771 104.623C177.917 103.442 178.224 102.526 178.694 101.875C179.179 101.227 179.868 100.791 180.762 100.569C180.279 99.3244 179.758 97.7431 179.199 95.8247C177.389 96.3248 176.04 97.3657 175.152 98.9473C174.264 100.529 173.7 102.302 173.458 104.267Z"/>
</mask>
<path d="M173.458 104.267C173.063 107.484 173.455 109.938 174.634 111.629C175.814 113.32 177.671 114.322 180.205 114.633C182.753 114.946 184.861 114.432 186.528 113.091C188.196 111.75 189.228 109.47 189.623 106.253C190.176 101.754 189.001 98.5538 186.099 96.6509C185.501 97.8779 184.654 99.2984 183.56 100.913C184.306 101.423 184.816 102.151 185.091 103.095C185.367 104.025 185.448 104.952 185.334 105.878C185.166 107.244 184.678 108.218 183.87 108.797C183.076 109.379 182.152 109.605 181.098 109.476C179.96 109.336 179.071 108.865 178.432 108.064C177.81 107.251 177.589 106.104 177.771 104.623C177.917 103.442 178.224 102.526 178.694 101.875C179.179 101.227 179.868 100.791 180.762 100.569C180.279 99.3244 179.758 97.7431 179.199 95.8247C177.389 96.3248 176.04 97.3657 175.152 98.9473C174.264 100.529 173.7 102.302 173.458 104.267Z" fill="#FF7E55"/>
<path d="M174.634 111.629L174.144 111.971L174.634 111.629ZM186.528 113.091L186.154 112.625L186.154 112.625L186.528 113.091ZM186.099 96.6509L185.562 96.3888L185.86 95.7792L186.427 96.1512L186.099 96.6509ZM183.56 100.913L183.222 101.406L182.731 101.07L183.065 100.577L183.56 100.913ZM185.091 103.095L184.518 103.265L184.517 103.262L185.091 103.095ZM183.87 108.797L183.516 108.315L183.521 108.312L183.87 108.797ZM178.432 108.064L177.965 108.437L177.958 108.427L178.432 108.064ZM178.694 101.875L178.21 101.525L178.215 101.518L178.694 101.875ZM180.762 100.569L181.32 100.353L181.565 100.985L180.907 101.149L180.762 100.569ZM179.199 95.8247L179.04 95.2486L179.608 95.0917L179.773 95.6575L179.199 95.8247ZM175.152 98.9473L175.674 99.2398L175.152 98.9473ZM174.051 104.339C173.664 107.49 174.066 109.77 175.125 111.287L174.144 111.971C172.844 110.106 172.462 107.477 172.865 104.194L174.051 104.339ZM175.125 111.287C176.185 112.807 177.869 113.744 180.277 114.04L180.132 115.226C177.472 114.899 175.443 113.834 174.144 111.971L175.125 111.287ZM180.277 114.04C182.7 114.338 184.637 113.845 186.154 112.625L186.903 113.557C185.085 115.019 182.806 115.555 180.132 115.226L180.277 114.04ZM186.154 112.625C187.651 111.421 188.644 109.321 189.03 106.18L190.216 106.326C189.811 109.62 188.742 112.078 186.903 113.557L186.154 112.625ZM189.03 106.18C189.565 101.826 188.423 98.8892 185.772 97.1507L186.427 96.1512C189.58 98.2183 190.787 101.683 190.216 106.326L189.03 106.18ZM186.636 96.913C186.021 98.1736 185.158 99.6194 184.054 101.248L183.065 100.577C184.15 98.9775 184.98 97.5822 185.562 96.3888L186.636 96.913ZM183.897 100.419C184.768 101.015 185.355 101.864 185.665 102.928L184.517 103.262C184.278 102.438 183.844 101.831 183.222 101.406L183.897 100.419ZM185.664 102.925C185.962 103.93 186.051 104.94 185.927 105.951L184.741 105.805C184.844 104.964 184.771 104.119 184.518 103.265L185.664 102.925ZM185.927 105.951C185.747 107.417 185.208 108.573 184.218 109.283L183.521 108.312C184.148 107.862 184.585 107.071 184.741 105.805L185.927 105.951ZM184.223 109.279C183.296 109.958 182.217 110.215 181.026 110.069L181.171 108.882C182.087 108.995 182.855 108.8 183.516 108.315L184.223 109.279ZM181.026 110.069C179.752 109.912 178.713 109.375 177.965 108.437L178.9 107.692C179.429 108.355 180.167 108.759 181.171 108.882L181.026 110.069ZM177.958 108.427C177.204 107.443 176.986 106.115 177.178 104.55L178.365 104.696C178.193 106.092 178.415 107.059 178.907 107.701L177.958 108.427ZM177.178 104.55C177.33 103.313 177.659 102.287 178.21 101.525L179.179 102.225C178.789 102.764 178.503 103.57 178.365 104.696L177.178 104.55ZM178.215 101.518C178.794 100.743 179.609 100.24 180.618 99.9888L180.907 101.149C180.126 101.343 179.564 101.71 179.173 102.233L178.215 101.518ZM180.205 100.785C179.714 99.5188 179.187 97.9196 178.626 95.9919L179.773 95.6575C180.33 97.5666 180.845 99.1301 181.32 100.353L180.205 100.785ZM179.359 96.4007C177.696 96.8601 176.48 97.8026 175.674 99.2398L174.631 98.6547C175.6 96.9287 177.083 95.7895 179.04 95.2486L179.359 96.4007ZM175.674 99.2398C174.827 100.748 174.284 102.445 174.051 104.339L172.865 104.194C173.115 102.159 173.702 100.31 174.631 98.6547L175.674 99.2398Z" fill="#FF7E55" mask="url(#path-41-outside-19_1324_668)"/>
<mask id="path-43-outside-20_1324_668" maskUnits="userSpaceOnUse" x="170.669" y="69.7202" width="20.9621" height="22.6171" fill="black">
<rect fill="white" x="170.669" y="69.7202" width="20.9621" height="22.6171"/>
<path d="M187.252 71.0368C184.876 71.5229 182.314 71.988 179.567 72.4323C176.82 72.8765 174.242 73.2425 171.833 73.5304L172.64 78.5214L178.417 77.5872L179.681 85.4029L173.904 86.3371L174.712 91.3282C177.44 90.7707 180.001 90.2984 182.394 89.9115C184.786 89.5245 187.365 89.1655 190.131 88.8346L189.323 83.8436L183.547 84.7778L182.283 76.9621L188.06 76.0278L187.252 71.0368Z"/>
</mask>
<path d="M187.252 71.0368C184.876 71.5229 182.314 71.988 179.567 72.4323C176.82 72.8765 174.242 73.2425 171.833 73.5304L172.64 78.5214L178.417 77.5872L179.681 85.4029L173.904 86.3371L174.712 91.3282C177.44 90.7707 180.001 90.2984 182.394 89.9115C184.786 89.5245 187.365 89.1655 190.131 88.8346L189.323 83.8436L183.547 84.7778L182.283 76.9621L188.06 76.0278L187.252 71.0368Z" fill="#FF7E55"/>
<path d="M187.252 71.0368L187.133 70.4513L187.743 70.3265L187.842 70.9414L187.252 71.0368ZM171.833 73.5304L171.243 73.6258L171.144 73.0109L171.762 72.937L171.833 73.5304ZM172.64 78.5214L172.736 79.1114L172.146 79.2068L172.051 78.6168L172.64 78.5214ZM178.417 77.5872L178.322 76.9972L178.912 76.9018L179.007 77.4918L178.417 77.5872ZM179.681 85.4029L180.271 85.3075L180.367 85.8975L179.777 85.9929L179.681 85.4029ZM173.904 86.3371L173.314 86.4325L173.219 85.8426L173.809 85.7472L173.904 86.3371ZM174.712 91.3282L174.831 91.9137L174.221 92.0384L174.122 91.4236L174.712 91.3282ZM190.131 88.8346L190.721 88.7392L190.82 89.3539L190.202 89.428L190.131 88.8346ZM189.323 83.8436L189.228 83.2536L189.818 83.1582L189.913 83.7481L189.323 83.8436ZM183.547 84.7778L183.642 85.3677L183.052 85.4632L182.957 84.8732L183.547 84.7778ZM182.283 76.9621L181.693 77.0575L181.597 76.4675L182.187 76.3721L182.283 76.9621ZM188.06 76.0278L188.649 75.9324L188.745 76.5224L188.155 76.6178L188.06 76.0278ZM187.372 71.6223C184.986 72.1103 182.416 72.5769 179.662 73.0222L179.471 71.8423C182.211 71.3992 184.765 70.9355 187.133 70.4513L187.372 71.6223ZM179.662 73.0222C176.908 73.4676 174.322 73.8348 171.904 74.1238L171.762 72.937C174.162 72.6502 176.732 72.2854 179.471 71.8423L179.662 73.0222ZM172.423 73.435L173.23 78.426L172.051 78.6168L171.243 73.6258L172.423 73.435ZM172.545 77.9315L178.322 76.9972L178.513 78.1771L172.736 79.1114L172.545 77.9315ZM179.007 77.4918L180.271 85.3075L179.091 85.4983L177.827 77.6826L179.007 77.4918ZM179.777 85.9929L174 86.9271L173.809 85.7472L179.586 84.8129L179.777 85.9929ZM174.494 86.2417L175.302 91.2328L174.122 91.4236L173.314 86.4325L174.494 86.2417ZM174.592 90.7426C177.327 90.1837 179.896 89.71 182.298 89.3215L182.489 90.5014C180.105 90.8869 177.553 91.3576 174.831 91.9137L174.592 90.7426ZM182.298 89.3215C184.7 88.933 187.287 88.573 190.06 88.2412L190.202 89.428C187.444 89.7581 184.873 90.1159 182.489 90.5014L182.298 89.3215ZM189.541 88.93L188.734 83.939L189.913 83.7481L190.721 88.7392L189.541 88.93ZM189.419 84.4335L183.642 85.3677L183.451 84.1878L189.228 83.2536L189.419 84.4335ZM182.957 84.8732L181.693 77.0575L182.873 76.8667L184.137 84.6824L182.957 84.8732ZM182.187 76.3721L187.964 75.4379L188.155 76.6178L182.378 77.552L182.187 76.3721ZM187.47 76.1232L186.662 71.1322L187.842 70.9414L188.649 75.9324L187.47 76.1232Z" fill="#FF7E55" mask="url(#path-43-outside-20_1324_668)"/>
<path d="M70.3032 48.4989C70.3303 44.5501 75.0671 42.5486 77.9175 45.2816L97.7399 64.2874C99.193 65.6806 101.291 66.1687 103.21 65.5597L129.385 57.2529C133.149 56.0584 136.516 59.9449 134.798 63.5002L122.848 88.2256C121.972 90.0381 122.156 92.1845 123.328 93.8212L139.317 116.148C141.616 119.359 138.961 123.762 135.048 123.227L107.84 119.502C105.846 119.229 103.861 120.068 102.667 121.688L86.3733 143.794C84.0304 146.973 79.0217 145.808 78.3221 141.921L73.4568 114.894C73.1001 112.913 71.6895 111.284 69.7792 110.649L43.7203 101.984C39.9732 100.738 39.5334 95.6147 43.0134 93.7484L67.2145 80.7693C68.9886 79.8178 70.1011 77.9731 70.1149 75.96L70.3032 48.4989Z" fill="#FF7E55" stroke="#FF7E55"/>
</g>
</svg>
