<svg width="234" height="234" viewBox="0 0 234 234" fill="none" xmlns="http://www.w3.org/2000/svg">
<g opacity="0.5">
<circle cx="69.6595" cy="91.9117" r="20.4684" transform="rotate(-23.2112 69.6595 91.9117)" fill="#F4001F"/>
<circle cx="107.283" cy="75.7769" r="20.4684" transform="rotate(-23.2112 107.283 75.7769)" fill="#F4001F"/>
<path d="M108.961 131.626L126.716 82.1425L88.4712 83.8441L60.875 110.377L108.961 131.626Z" fill="#F4001F"/>
<circle cx="93.0837" cy="93.0838" r="104.584" transform="rotate(-23.2112 93.0837 93.0838)" stroke="#F4001F" stroke-width="4.18334"/>
<circle cx="93.0835" cy="93.0838" r="65.1406" transform="rotate(-23.2112 93.0835 93.0838)" stroke="#F4001F" stroke-width="4.18334"/>
<path d="M12.1854 118.997L17.0485 124.55L23.8323 121.641L20.054 127.982L24.9171 133.535L17.7189 131.901L13.9405 138.242L13.2701 130.891L6.0719 129.257L12.8558 126.348L12.1854 118.997Z" fill="#F4001F"/>
<path d="M167.622 52.3406L172.485 57.8935L179.269 54.9844L175.491 61.3254L180.354 66.8783L173.156 65.2444L169.378 71.5854L168.707 64.2345L161.509 62.6006L168.293 59.6915L167.622 52.3406Z" fill="#F4001F"/>
<path d="M15.1474 115.483C14.3501 115.113 13.6155 114.82 12.9437 114.604C12.2696 114.374 11.4986 114.174 10.6305 114.003C11.0563 112.907 11.3294 111.668 11.4497 110.285C11.5701 108.902 11.5416 107.637 11.3644 106.489C11.1828 105.312 10.9555 104.498 10.6827 104.047C10.3957 103.598 10.1317 103.392 9.8907 103.429C9.02602 103.562 8.79718 104.947 9.20417 107.584C9.65054 110.476 9.67671 112.62 9.28266 114.016C8.87445 115.414 7.99702 116.217 6.6504 116.425C4.73677 116.72 3.20383 116.144 2.05156 114.696C0.899291 113.249 0.127321 111.256 -0.264351 108.719C-0.491915 107.245 -0.533586 105.706 -0.389365 104.102C-0.261507 102.485 0.03217 101.003 0.491666 99.6552C1.49067 99.9219 2.6985 100.178 4.11514 100.424C4.41177 100.465 4.63533 100.503 4.78584 100.538C4.31626 101.351 4.00279 102.516 3.84544 104.036C3.67392 105.557 3.67458 106.877 3.84744 107.997C4.05531 109.344 4.28749 110.237 4.54397 110.676C4.78628 111.118 5.07754 111.312 5.41774 111.26C5.75794 111.207 5.98512 110.846 6.09928 110.175C6.19707 109.492 6.15188 108.541 5.9637 107.322C5.49983 104.317 5.51014 102.081 5.99466 100.613C6.465 99.1468 7.40892 98.3045 8.82642 98.0856C10.8109 97.7793 12.3542 98.2812 13.4562 99.5914C14.5441 100.904 15.3145 103.027 15.7674 105.961C16.0103 107.535 16.0875 109.163 15.9989 110.845C15.8962 112.53 15.6123 114.076 15.1474 115.483Z" fill="#F4001F"/>
<path d="M0.226473 78.2688L0.915251 72.9779L9.40631 74.0833C11.4934 74.3839 13.1279 75.3272 14.31 76.913C15.494 78.4846 15.8702 80.9273 15.4388 84.2413C15.0019 87.5978 14.0557 89.8106 12.6003 90.8795C11.1307 91.9465 9.33819 92.3279 7.22269 92.0236L-1.41771 90.8988L-0.728928 85.6078L7.57012 86.6882C8.19593 86.7697 8.7135 86.7937 9.12285 86.7602C9.51983 86.7106 9.9214 86.4592 10.3276 86.0058C10.7356 85.5382 11.0127 84.7426 11.159 83.619C11.3182 82.3958 11.2642 81.4776 10.9969 80.8642C10.7154 80.249 10.3678 79.8639 9.95403 79.7088C9.54216 79.5394 9.00199 79.4113 8.33351 79.3242L0.226473 78.2688Z" fill="#F4001F"/>
<path d="M7.11565 55.598C8.23978 52.9745 9.49018 51.3491 10.8668 50.7218C12.2303 50.0889 13.7558 50.134 15.4433 50.8571C16.6035 51.3542 17.5047 51.9822 18.1469 52.7411C18.776 53.4944 19.101 54.4841 19.1218 55.7101C19.1294 56.9305 18.7463 58.4438 17.9724 60.2499L16.2099 64.3632L19.6904 65.8545L17.6059 70.7193C15.0935 69.5179 12.7232 68.4399 10.4952 67.4852C8.26718 66.5306 5.85176 65.558 3.24894 64.5676L5.3334 59.7028L5.35318 59.7113L7.11565 55.598ZM13.5626 59.9988C14.0314 58.9046 14.3421 58.0703 14.4946 57.4958C14.6396 56.9026 14.6452 56.4525 14.5115 56.1455C14.3834 55.8253 14.1018 55.5721 13.6667 55.3856C13.2317 55.1992 12.8635 55.1663 12.5622 55.2869C12.2533 55.3886 11.9407 55.6993 11.6243 56.2192C11.3136 56.7258 10.9182 57.5394 10.438 58.66L9.26871 61.389L12.3932 62.7278L13.5626 59.9988Z" fill="#F4001F"/>
<path d="M26.5633 44.9251C29.9379 40.6451 32.3391 37.5059 33.7668 35.5074C34.1641 35.9525 34.6005 36.3829 35.0762 36.7987C35.5495 37.1943 36.1563 37.6871 36.8966 38.2771L26.4774 51.3495C24.373 49.5255 22.3731 47.8581 20.4775 46.3473C18.582 44.8365 16.5105 43.2588 14.2631 41.6142L24.6823 28.5418L27.7274 30.969L20.4729 40.0708L22.088 41.3581C22.5283 40.8287 23.1687 40.0368 24.009 38.9825C25.4304 37.1992 26.8673 35.3273 28.3198 33.3669L31.2135 35.6733C29.6265 37.5264 28.1223 39.3447 26.7009 41.128C25.8605 42.1823 25.2314 42.9832 24.8135 43.5305L26.5633 44.9251Z" fill="#F4001F"/>
<path d="M47.9931 16.4308C48.728 17.4392 49.0996 18.4728 49.108 19.5315C49.128 20.5818 48.6551 21.6985 47.6892 22.8815C47.9635 22.9656 48.1676 23.0387 48.3016 23.1008L53.9692 24.9603L49.2399 28.4067C48.0372 27.8279 46.2517 27.0703 43.8834 26.1341L41.3275 27.9967L44.2671 32.0305L40.1637 35.0208C38.6177 32.7045 37.1309 30.5668 35.7033 28.6078C34.2757 26.6489 32.6962 24.5788 30.9647 22.3976L35.0682 19.4073L35.0808 19.4247L38.6452 16.8272C40.9867 15.1209 42.8957 14.3066 44.3721 14.3842C45.8485 14.4619 47.0555 15.1441 47.9931 16.4308ZM37.5136 22.7631L38.9581 24.7452L41.3054 23.0347C42.2906 22.3167 43.0114 21.7471 43.4676 21.3259C43.9269 20.8847 44.2045 20.5227 44.3001 20.24C44.3958 19.9573 44.3465 19.6827 44.1523 19.416C43.9664 19.161 43.7301 19.0316 43.4433 19.0276C43.1564 19.0237 42.7369 19.1786 42.1846 19.4923C41.6323 19.806 40.8578 20.3261 39.8609 21.0525L37.5136 22.7631Z" fill="#F4001F"/>
<path d="M80.2221 -0.367595L85.5419 14.4135L80.1274 15.7296L77.1607 4.98183L77.7023 16.3191L72.2251 17.6504L67.4808 7.42327L69.7791 18.245L64.3645 19.5611L62.306 3.98725L69.4139 2.25954L73.6363 11.7058L72.8215 1.43125L80.2221 -0.367595Z" fill="#F4001F"/>
<path d="M103.339 15.1533C103.121 14.3195 102.824 13.2722 102.447 12.0111L95.599 11.5592L94.323 14.5582L88.9347 14.2026L95.9742 -0.986215L103.874 -0.464817L108.9 15.5202L103.339 15.1533ZM101.445 8.58143C101 7.0428 100.541 5.50323 100.068 3.96271L99.6445 2.53331C99.0576 3.80262 98.1907 5.72184 97.0437 8.29097L101.445 8.58143Z" fill="#F4001F"/>
<path d="M133.331 12.1642C131.239 11.3278 129.198 10.5404 127.208 9.80202L123.373 20.3573L118.317 18.5206L122.153 7.96523C120.139 7.2489 118.075 6.54483 115.961 5.85303L117.504 1.60663L134.874 7.91782L133.331 12.1642Z" fill="#F4001F"/>
<path d="M140.61 30.2335C137.993 28.3208 136.471 26.3559 136.044 24.3387C135.618 22.3215 136.158 20.2822 137.664 18.221C139.179 16.1482 140.996 14.9624 143.115 14.6636C145.234 14.3648 147.602 15.1718 150.22 17.0844C153.879 19.7587 155.41 22.8051 154.812 26.2235C153.508 25.8208 151.893 25.4664 149.967 25.1603C150.105 24.2664 149.923 23.3966 149.422 22.5507C148.933 21.7134 148.312 21.0196 147.559 20.4695C146.447 19.6571 145.404 19.3473 144.428 19.5401C143.46 19.7213 142.663 20.2404 142.037 21.0973C141.36 22.0237 141.095 22.9938 141.243 24.0075C141.41 25.0181 142.096 25.9635 143.3 26.8437C144.261 27.5461 145.14 27.9483 145.936 28.0504C146.74 28.1408 147.53 27.936 148.304 27.4358C148.881 28.6393 149.678 30.1011 150.695 31.8213C149.092 32.7993 147.41 33.0712 145.648 32.6368C143.887 32.2025 142.208 31.4014 140.61 30.2335Z" fill="#F4001F"/>
<path d="M174.284 42.9059C172.303 44.3069 170.211 45.8572 168.008 47.5568C165.805 49.2563 163.774 50.8861 161.916 52.4462L158.828 48.443L163.462 44.8687L158.626 38.5999L153.992 42.1742L150.904 38.171C153.178 36.5623 155.274 35.0177 157.193 33.5372C159.112 32.0566 161.138 30.4212 163.272 28.6308L166.36 32.6339L161.726 36.2083L166.562 42.477L171.195 38.9027L174.284 42.9059Z" fill="#F4001F"/>
<path d="M24.9178 136.753C24.6365 137.585 24.3424 138.32 24.0354 138.955C23.7372 139.602 23.3508 140.298 22.8761 141.045C23.9637 141.492 25.0498 142.148 26.1345 143.014C27.2192 143.88 28.1164 144.773 28.826 145.693C29.5531 146.636 29.9861 147.362 30.125 147.87C30.2525 148.388 30.2197 148.721 30.0267 148.87C29.3339 149.404 28.1728 148.615 26.5433 146.503C24.7562 144.186 23.2211 142.69 21.9382 142.013C20.6439 141.345 19.4573 141.427 18.3784 142.259C16.8453 143.442 16.2059 144.949 16.4603 146.782C16.7146 148.615 17.6259 150.547 19.194 152.58C20.1052 153.761 21.1915 154.852 22.453 155.854C23.7119 156.875 24.9881 157.684 26.2814 158.28C26.7769 157.373 27.4239 156.321 28.2224 155.126C28.397 154.882 28.5235 154.694 28.602 154.561C27.6896 154.341 26.6289 153.764 25.42 152.831C24.1997 151.907 23.2434 150.996 22.5514 150.099C21.7191 149.02 21.2322 148.236 21.0908 147.748C20.938 147.268 20.9978 146.923 21.2704 146.712C21.5429 146.502 21.9615 146.587 22.5261 146.966C23.0881 147.366 23.7457 148.054 24.4992 149.031C26.3564 151.439 27.9838 152.973 29.3813 153.634C30.7674 154.304 32.0283 154.2 33.1639 153.324C34.7538 152.098 35.4541 150.634 35.2646 148.932C35.0637 147.24 34.0566 145.218 32.2432 142.867C31.2707 141.606 30.1445 140.428 28.8645 139.333C27.5731 138.246 26.2576 137.386 24.9178 136.753Z" fill="#F4001F"/>
<path d="M41.5914 173.215L45.8992 176.363L50.9516 169.45C52.1725 167.731 52.616 165.896 52.282 163.947C51.9596 162.006 50.4494 160.049 47.7512 158.077C45.0184 156.08 42.7631 155.24 40.9855 155.558C39.1995 155.887 37.6875 156.922 36.4497 158.665L31.3084 165.7L35.6162 168.848L40.5544 162.091C40.9267 161.581 41.2661 161.19 41.5726 160.916C41.8821 160.663 42.3411 160.545 42.9495 160.564C43.5695 160.591 44.3369 160.938 45.2518 161.607C46.2476 162.335 46.8756 163.007 47.1357 163.623C47.3873 164.251 47.4267 164.769 47.2539 165.175C47.0926 165.59 46.8131 166.07 46.4154 166.614L41.5914 173.215Z" fill="#F4001F"/>
<path d="M62.7647 183.851C65.4402 184.845 67.4796 185.06 68.883 184.495C70.2814 183.944 71.3003 182.807 71.9398 181.087C72.3794 179.903 72.5457 178.818 72.4386 177.829C72.3266 176.854 71.8336 175.937 70.9598 175.076C70.0809 174.23 68.7205 173.464 66.8786 172.78L62.6838 171.221L64.0027 167.671L59.0416 165.828C58.18 168.476 57.327 170.937 56.4828 173.209C55.6385 175.481 54.678 177.901 53.6013 180.469L58.5624 182.313L58.5699 182.293L62.7647 183.851ZM64.0207 176.147C65.1366 176.562 65.9552 176.912 66.4764 177.197C67.0061 177.501 67.3361 177.808 67.4663 178.116C67.6099 178.43 67.5993 178.808 67.4344 179.252C67.2696 179.695 67.0396 179.985 66.7446 180.12C66.458 180.274 66.0174 180.286 65.4227 180.157C64.8415 180.033 63.9795 179.758 62.8367 179.334L60.0536 178.3L61.2376 175.113L64.0207 176.147Z" fill="#F4001F"/>
<path d="M83.9028 177.121C89.3297 177.626 93.2591 178.051 95.691 178.394C95.6425 177.8 95.6315 177.187 95.6582 176.555C95.6979 175.94 95.7592 175.16 95.842 174.218L79.1896 172.754C79.0603 175.536 78.8896 178.134 78.6774 180.549C78.4653 182.964 78.1803 185.552 77.8224 188.314L94.4749 189.777L94.8157 185.898L83.2211 184.879L83.4019 182.822C84.089 182.868 85.1041 182.95 86.4471 183.068C88.7189 183.267 91.0655 183.517 93.4869 183.816L93.8108 180.129C91.3743 180.002 89.0202 179.838 86.7484 179.638C85.4054 179.52 84.3916 179.424 83.707 179.35L83.9028 177.121Z" fill="#F4001F"/>
<path d="M119.317 181.237C119.093 180.01 118.6 179.028 117.839 178.292C117.092 177.554 115.957 177.126 114.434 177.011C114.562 176.754 114.65 176.556 114.698 176.416L117.257 171.028L111.501 172.079C111.091 173.349 110.409 175.164 109.455 177.526L106.343 178.093L105.447 173.183L100.452 174.094C101.065 176.811 101.589 179.362 102.024 181.746C102.459 184.131 102.87 186.702 103.256 189.46L108.251 188.549L108.247 188.528L112.586 187.736C115.436 187.216 117.342 186.394 118.303 185.271C119.265 184.148 119.603 182.803 119.317 181.237ZM107.506 184.464L107.065 182.051L109.923 181.53C111.122 181.311 112.032 181.181 112.651 181.141C113.287 181.113 113.741 181.161 114.012 181.287C114.282 181.412 114.447 181.637 114.507 181.962C114.563 182.272 114.494 182.533 114.299 182.743C114.104 182.954 113.703 183.151 113.095 183.335C112.487 183.519 111.576 183.721 110.363 183.943L107.506 184.464Z" fill="#F4001F"/>
<path d="M153.704 169.47L146.663 155.427L141.977 158.443L147.718 168.001L139.878 159.793L135.138 162.843L139.276 173.33L133.021 164.205L128.335 167.221L138.198 179.448L144.35 175.489L140.417 165.919L147.299 173.592L153.704 169.47Z" fill="#F4001F"/>
<path d="M158.395 142.023C158.849 142.756 159.403 143.693 160.056 144.835L155.663 150.108L152.611 148.965L149.154 153.114L165.01 158.484L170.078 152.402L161.962 137.742L158.395 142.023ZM161.85 147.926C162.658 149.309 163.457 150.703 164.247 152.107L164.991 153.399C163.667 152.949 161.679 152.255 159.027 151.314L161.85 147.926Z" fill="#F4001F"/>
<path d="M181.235 122.357C180.399 124.449 179.562 126.47 178.725 128.421L168.435 123.923L166.281 128.852L176.571 133.349C175.702 135.302 174.79 137.282 173.834 139.291L177.973 141.1L185.375 124.166L181.235 122.357Z" fill="#F4001F"/>
<path d="M173.162 104.628C172.744 107.843 173.118 110.3 174.286 111.999C175.453 113.699 177.302 114.714 179.834 115.043C182.38 115.375 184.492 114.876 186.169 113.546C187.846 112.217 188.894 109.945 189.313 106.731C189.898 102.236 188.746 99.0275 185.858 97.1038C185.25 98.3265 184.394 99.7409 183.288 101.347C184.03 101.863 184.536 102.594 184.803 103.54C185.072 104.472 185.147 105.4 185.026 106.325C184.848 107.69 184.353 108.66 183.541 109.234C182.743 109.81 181.818 110.029 180.765 109.892C179.627 109.744 178.742 109.267 178.109 108.462C177.492 107.644 177.28 106.495 177.473 105.016C177.627 103.836 177.941 102.922 178.416 102.275C178.904 101.63 179.597 101.199 180.493 100.983C180.019 99.7355 179.509 98.1504 178.964 96.2281C177.15 96.7152 175.794 97.7463 174.895 99.3215C173.995 100.897 173.418 102.666 173.162 104.628Z" fill="#F4001F"/>
<path d="M187.194 71.498C184.814 71.967 182.249 72.4137 179.499 72.8382C176.749 73.2627 174.168 73.6102 171.758 73.8808L172.529 78.8775L178.312 77.9847L179.52 85.8093L173.737 86.7021L174.508 91.6988C177.24 91.1609 179.804 90.707 182.2 90.3373C184.596 89.9675 187.177 89.627 189.945 89.3159L189.173 84.3192L183.39 85.212L182.182 77.3874L187.965 76.4946L187.194 71.498Z" fill="#F4001F"/>
</g>
</svg>
