<svg width="191" height="144" viewBox="0 0 191 144" fill="none" xmlns="http://www.w3.org/2000/svg">
<ellipse cx="32.3015" cy="22.3375" rx="32.3015" ry="22.3375" transform="matrix(0.923634 0.383276 -0.427072 0.904218 97.481 33.1924)" fill="#F4001F"/>
<ellipse cx="33.4652" cy="8.50412" rx="33.4652" ry="8.50412" transform="matrix(1.00221 -0.201151 0.269683 0.938111 39.5776 56.29)" fill="#F4001F"/>
<ellipse cx="34.2688" cy="8.28385" rx="34.2688" ry="8.28385" transform="matrix(1.0104 0.0850868 -0.057886 0.981794 19.5103 52.3906)" fill="#F4001F"/>
<ellipse cx="34.2688" cy="8.28385" rx="34.2688" ry="8.28385" transform="matrix(1.0104 0.0850868 -0.057886 0.981794 49.5703 43.7432)" fill="#F4001F"/>
<ellipse cx="33.9872" cy="8.3623" rx="33.9872" ry="8.3623" transform="matrix(1.01759 -0.0291854 0.0774741 0.976331 29.5566 67.0127)" fill="#F4001F"/>
<ellipse cx="33.4642" cy="8.50439" rx="33.4642" ry="8.50439" transform="matrix(1.00215 -0.20146 0.270016 0.938013 46.6206 84.7227)" fill="#F4001F"/>
<ellipse cx="33.4642" cy="8.50439" rx="33.4642" ry="8.50439" transform="matrix(1.00215 -0.20146 0.270016 0.938013 76.1421 92.8457)" fill="#F4001F"/>
<ellipse cx="24.7424" cy="8.78923" rx="24.7424" ry="8.78923" transform="matrix(-0.181574 -0.960194 1.01338 -0.120664 139.812 107.943)" fill="#F4001F"/>
<ellipse cx="24.3015" cy="8.93105" rx="24.3015" ry="8.93105" transform="matrix(0.737811 -0.698922 0.745359 0.645109 107.12 104.252)" fill="#F4001F"/>
<rect width="16.9727" height="7.47182" transform="matrix(1.00051 -0.210186 0.279364 0.935194 82.271 47.4502)" fill="#F4001F"/>
<ellipse cx="32.3015" cy="22.3375" rx="32.3015" ry="22.3375" transform="matrix(0.923634 0.383276 -0.427072 0.904218 105.483 28.9873)" fill="white"/>
<ellipse cx="33.4652" cy="8.50412" rx="33.4652" ry="8.50412" transform="matrix(1.00221 -0.201151 0.269683 0.938111 47.5796 52.085)" fill="white"/>
<ellipse cx="34.2688" cy="8.28385" rx="34.2688" ry="8.28385" transform="matrix(1.0104 0.0850868 -0.057886 0.981794 27.5122 48.1855)" fill="white"/>
<ellipse cx="34.2688" cy="8.28385" rx="34.2688" ry="8.28385" transform="matrix(1.0104 0.0850868 -0.057886 0.981794 57.5723 39.5371)" fill="white"/>
<ellipse cx="33.9872" cy="8.3623" rx="33.9872" ry="8.3623" transform="matrix(1.01759 -0.0291854 0.0774741 0.976331 37.5586 62.8066)" fill="white"/>
<ellipse cx="33.4642" cy="8.50439" rx="33.4642" ry="8.50439" transform="matrix(1.00215 -0.20146 0.270016 0.938013 54.6226 80.5166)" fill="white"/>
<ellipse cx="33.4642" cy="8.50439" rx="33.4642" ry="8.50439" transform="matrix(1.00215 -0.20146 0.270016 0.938013 84.144 88.6396)" fill="white"/>
<ellipse cx="24.7424" cy="8.78923" rx="24.7424" ry="8.78923" transform="matrix(-0.181574 -0.960194 1.01338 -0.120664 147.813 103.737)" fill="white"/>
<ellipse cx="24.3015" cy="8.93105" rx="24.3015" ry="8.93105" transform="matrix(0.737811 -0.698922 0.745359 0.645109 115.123 100.046)" fill="white"/>
<rect width="16.9727" height="7.47182" transform="matrix(1.00051 -0.210186 0.279364 0.935194 90.2729 43.2441)" fill="white"/>
<ellipse cx="24.4174" cy="5.7142" rx="24.4174" ry="5.7142" transform="matrix(0.999848 0.0174249 0.0230229 0.999735 85.5435 51.625)" fill="#F4001F"/>
<ellipse cx="24.3859" cy="5.72323" rx="24.3859" ry="5.72323" transform="matrix(0.999926 -0.0121496 0.0590828 0.998253 93.5654 50.9414)" fill="white"/>
<ellipse cx="17.7508" cy="4.22195" rx="17.7508" ry="4.22195" transform="matrix(0.993178 -0.116603 0.183896 0.982946 104.621 66.0068)" fill="#F4001F"/>
<ellipse cx="17.7508" cy="4.22195" rx="17.7508" ry="4.22195" transform="matrix(0.993178 -0.116603 0.183896 0.982946 110.573 64.0137)" fill="white"/>
</svg>
